<svg viewBox="0 0 1418 400" xmlns="http://www.w3.org/2000/svg"><g><g><g><g><g><line x1="49.98400115966797" y1="377.6108047076006" x2="44.98400115966797" y2="377.6108047076006" style="visibility: inherit;" fill="rgb(0, 0, 0)" stroke="rgb(204, 204, 204)" stroke-width="1px"></line><line x1="49.98400115966797" y1="347.71805108747407" x2="44.98400115966797" y2="347.71805108747407" style="visibility: inherit;" fill="rgb(0, 0, 0)" stroke="rgb(204, 204, 204)" stroke-width="1px"></line><line x1="49.98400115966797" y1="324.5314300217009" x2="44.98400115966797" y2="324.5314300217009" style="visibility: inherit;" fill="rgb(0, 0, 0)" stroke="rgb(204, 204, 204)" stroke-width="1px"></line><line x1="49.98400115966797" y1="305.5865811806488" x2="44.98400115966797" y2="305.5865811806488" style="visibility: inherit;" fill="rgb(0, 0, 0)" stroke="rgb(204, 204, 204)" stroke-width="1px"></line><line x1="49.98400115966797" y1="289.56893971561243" x2="44.98400115966797" y2="289.56893971561243" style="visibility: inherit;" fill="rgb(0, 0, 0)" stroke="rgb(204, 204, 204)" stroke-width="1px"></line><line x1="49.98400115966797" y1="275.69382756052227" x2="44.98400115966797" y2="275.69382756052227" style="visibility: inherit;" fill="rgb(0, 0, 0)" stroke="rgb(204, 204, 204)" stroke-width="1px"></line><line x1="49.98400115966797" y1="263.45511127382355" x2="44.98400115966797" y2="263.45511127382355" style="visibility: inherit;" fill="rgb(0, 0, 0)" stroke="rgb(204, 204, 204)" stroke-width="1px"></line><line x1="49.98400115966797" y1="252.50720649474908" x2="44.98400115966797" y2="252.50720649474908" style="visibility: inherit;" fill="rgb(0, 0, 0)" stroke="rgb(204, 204, 204)" stroke-width="1px"></line><line x1="49.98400115966797" y1="180.48298296779728" x2="44.98400115966797" y2="180.48298296779728" style="visibility: inherit;" fill="rgb(0, 0, 0)" stroke="rgb(204, 204, 204)" stroke-width="1px"></line><line x1="49.98400115966797" y1="138.35151306097202" x2="44.98400115966797" y2="138.35151306097202" style="visibility: inherit;" fill="rgb(0, 0, 0)" stroke="rgb(204, 204, 204)" stroke-width="1px"></line><line x1="49.98400115966797" y1="108.45875944084548" x2="44.98400115966797" y2="108.45875944084548" style="visibility: inherit;" fill="rgb(0, 0, 0)" stroke="rgb(204, 204, 204)" stroke-width="1px"></line><line x1="49.98400115966797" y1="85.27213837507236" x2="44.98400115966797" y2="85.27213837507236" style="visibility: inherit;" fill="rgb(0, 0, 0)" stroke="rgb(204, 204, 204)" stroke-width="1px"></line><line x1="49.98400115966797" y1="66.32728953402022" x2="44.98400115966797" y2="66.32728953402022" style="visibility: inherit;" fill="rgb(0, 0, 0)" stroke="rgb(204, 204, 204)" stroke-width="1px"></line><line x1="49.98400115966797" y1="50.30964806898385" x2="44.98400115966797" y2="50.30964806898385" style="visibility: inherit;" fill="rgb(0, 0, 0)" stroke="rgb(204, 204, 204)" stroke-width="1px"></line><line x1="49.98400115966797" y1="36.434535913893626" x2="44.98400115966797" y2="36.434535913893626" style="visibility: inherit;" fill="rgb(0, 0, 0)" stroke="rgb(204, 204, 204)" stroke-width="1px"></line><line x1="49.98400115966797" y1="24.195819627194965" x2="44.98400115966797" y2="24.195819627194965" style="visibility: inherit;" fill="rgb(0, 0, 0)" stroke="rgb(204, 204, 204)" stroke-width="1px"></line><line x1="49.98400115966797" y1="13.247914848120558" x2="44.98400115966797" y2="13.247914848120558" style="visibility: inherit;" fill="rgb(0, 0, 0)" stroke="rgb(204, 204, 204)" stroke-width="1px"></line></g><g transform="translate(39.98400115966797, 0)"><text style="text-anchor: end; visibility: hidden; font-family: &quot;Helvetica Neue&quot;, sans-serif; font-size: 12px; font-weight: 200;" x="0" y="377.6108047076006" dx="0em" dy="0.3em" fill="rgb(50, 49, 63)" stroke="none" stroke-width="1px">0.03</text><text style="text-anchor: end; visibility: inherit; font-family: &quot;Helvetica Neue&quot;, sans-serif; font-size: 12px; font-weight: 200;" x="0" y="347.71805108747407" dx="0em" dy="0.3em" fill="rgb(50, 49, 63)" stroke="none" stroke-width="1px">0.04</text><text style="text-anchor: end; visibility: hidden; font-family: &quot;Helvetica Neue&quot;, sans-serif; font-size: 12px; font-weight: 200;" x="0" y="324.5314300217009" dx="0em" dy="0.3em" fill="rgb(50, 49, 63)" stroke="none" stroke-width="1px">0.05</text><text style="text-anchor: end; visibility: hidden; font-family: &quot;Helvetica Neue&quot;, sans-serif; font-size: 12px; font-weight: 200;" x="0" y="305.5865811806488" dx="0em" dy="0.3em" fill="rgb(50, 49, 63)" stroke="none" stroke-width="1px">0.06</text><text style="text-anchor: end; visibility: inherit; font-family: &quot;Helvetica Neue&quot;, sans-serif; font-size: 12px; font-weight: 200;" x="0" y="289.56893971561243" dx="0em" dy="0.3em" fill="rgb(50, 49, 63)" stroke="none" stroke-width="1px">0.07</text><text style="text-anchor: end; visibility: hidden; font-family: &quot;Helvetica Neue&quot;, sans-serif; font-size: 12px; font-weight: 200;" x="0" y="275.69382756052227" dx="0em" dy="0.3em" fill="rgb(50, 49, 63)" stroke="none" stroke-width="1px">0.08</text><text style="text-anchor: end; visibility: hidden; font-family: &quot;Helvetica Neue&quot;, sans-serif; font-size: 12px; font-weight: 200;" x="0" y="263.45511127382355" dx="0em" dy="0.3em" fill="rgb(50, 49, 63)" stroke="none" stroke-width="1px">0.09</text><text style="text-anchor: end; visibility: inherit; font-family: &quot;Helvetica Neue&quot;, sans-serif; font-size: 12px; font-weight: 200;" x="0" y="252.50720649474908" dx="0em" dy="0.3em" fill="rgb(50, 49, 63)" stroke="none" stroke-width="1px">0.1</text><text style="text-anchor: end; visibility: hidden; font-family: &quot;Helvetica Neue&quot;, sans-serif; font-size: 12px; font-weight: 200;" x="0" y="180.48298296779728" dx="0em" dy="0.3em" fill="rgb(50, 49, 63)" stroke="none" stroke-width="1px">0.2</text><text style="text-anchor: end; visibility: hidden; font-family: &quot;Helvetica Neue&quot;, sans-serif; font-size: 12px; font-weight: 200;" x="0" y="138.35151306097202" dx="0em" dy="0.3em" fill="rgb(50, 49, 63)" stroke="none" stroke-width="1px">0.3</text><text style="text-anchor: end; visibility: inherit; font-family: &quot;Helvetica Neue&quot;, sans-serif; font-size: 12px; font-weight: 200;" x="0" y="108.45875944084548" dx="0em" dy="0.3em" fill="rgb(50, 49, 63)" stroke="none" stroke-width="1px">0.4</text><text style="text-anchor: end; visibility: hidden; font-family: &quot;Helvetica Neue&quot;, sans-serif; font-size: 12px; font-weight: 200;" x="0" y="85.27213837507236" dx="0em" dy="0.3em" fill="rgb(50, 49, 63)" stroke="none" stroke-width="1px">0.5</text><text style="text-anchor: end; visibility: hidden; font-family: &quot;Helvetica Neue&quot;, sans-serif; font-size: 12px; font-weight: 200;" x="0" y="66.32728953402022" dx="0em" dy="0.3em" fill="rgb(50, 49, 63)" stroke="none" stroke-width="1px">0.6</text><text style="text-anchor: end; visibility: inherit; font-family: &quot;Helvetica Neue&quot;, sans-serif; font-size: 12px; font-weight: 200;" x="0" y="50.30964806898385" dx="0em" dy="0.3em" fill="rgb(50, 49, 63)" stroke="none" stroke-width="1px">0.7</text><text style="text-anchor: end; visibility: hidden; font-family: &quot;Helvetica Neue&quot;, sans-serif; font-size: 12px; font-weight: 200;" x="0" y="36.434535913893626" dx="0em" dy="0.3em" fill="rgb(50, 49, 63)" stroke="none" stroke-width="1px">0.8</text><text style="text-anchor: end; visibility: hidden; font-family: &quot;Helvetica Neue&quot;, sans-serif; font-size: 12px; font-weight: 200;" x="0" y="24.195819627194965" dx="0em" dy="0.3em" fill="rgb(50, 49, 63)" stroke="none" stroke-width="1px">0.9</text><text style="text-anchor: end; visibility: inherit; font-family: &quot;Helvetica Neue&quot;, sans-serif; font-size: 12px; font-weight: 200;" x="0" y="13.247914848120558" dx="0em" dy="0.3em" fill="rgb(50, 49, 63)" stroke="none" stroke-width="1px">1</text></g><line x1="49.98400115966797" y1="0" x2="49.98400115966797" y2="378.6199998855591" fill="rgb(0, 0, 0)" stroke="rgb(204, 204, 204)" stroke-width="1px"></line></g></g><g transform="translate(49, 0)" clip-path="url(#clip_0)"><clipPath id="clip_0"><rect width="1368" height="378"></rect></clipPath><g><g><g><line x1="0" y1="0" x2="0" y2="378.6199998855591" fill="rgb(0, 0, 0)" stroke="rgb(60, 60, 60)" stroke-width="1px" opacity="0.25"></line><line x1="114.00133323669434" y1="0" x2="114.00133323669434" y2="378.6199998855591" fill="rgb(0, 0, 0)" stroke="rgb(60, 60, 60)" stroke-width="1px" opacity="0.25"></line><line x1="228.00266647338867" y1="0" x2="228.00266647338867" y2="378.6199998855591" fill="rgb(0, 0, 0)" stroke="rgb(60, 60, 60)" stroke-width="1px" opacity="0.25"></line><line x1="342.003999710083" y1="0" x2="342.003999710083" y2="378.6199998855591" fill="rgb(0, 0, 0)" stroke="rgb(60, 60, 60)" stroke-width="1px" opacity="0.25"></line><line x1="456.00533294677734" y1="0" x2="456.00533294677734" y2="378.6199998855591" fill="rgb(0, 0, 0)" stroke="rgb(60, 60, 60)" stroke-width="1px" opacity="0.25"></line><line x1="570.0066661834717" y1="0" x2="570.0066661834717" y2="378.6199998855591" fill="rgb(0, 0, 0)" stroke="rgb(60, 60, 60)" stroke-width="1px" opacity="0.25"></line><line x1="684.007999420166" y1="0" x2="684.007999420166" y2="378.6199998855591" fill="rgb(0, 0, 0)" stroke="rgb(60, 60, 60)" stroke-width="1px" opacity="0.25"></line><line x1="798.0093326568604" y1="0" x2="798.0093326568604" y2="378.6199998855591" fill="rgb(0, 0, 0)" stroke="rgb(60, 60, 60)" stroke-width="1px" opacity="0.25"></line><line x1="912.0106658935547" y1="0" x2="912.0106658935547" y2="378.6199998855591" fill="rgb(0, 0, 0)" stroke="rgb(60, 60, 60)" stroke-width="1px" opacity="0.25"></line><line x1="1026.011999130249" y1="0" x2="1026.011999130249" y2="378.6199998855591" fill="rgb(0, 0, 0)" stroke="rgb(60, 60, 60)" stroke-width="1px" opacity="0.25"></line><line x1="1140.0133323669434" y1="0" x2="1140.0133323669434" y2="378.6199998855591" fill="rgb(0, 0, 0)" stroke="rgb(60, 60, 60)" stroke-width="1px" opacity="0.25"></line><line x1="1254.0146656036377" y1="0" x2="1254.0146656036377" y2="378.6199998855591" fill="rgb(0, 0, 0)" stroke="rgb(60, 60, 60)" stroke-width="1px" opacity="0.25"></line><line x1="1368.015998840332" y1="0" x2="1368.015998840332" y2="378.6199998855591" fill="rgb(0, 0, 0)" stroke="rgb(60, 60, 60)" stroke-width="1px" opacity="0.25"></line></g><g><line x1="0" y1="377.6108047076006" x2="1368.015998840332" y2="377.6108047076006" fill="rgb(0, 0, 0)" stroke="rgb(60, 60, 60)" stroke-width="1px" opacity="0.25"></line><line x1="0" y1="347.71805108747407" x2="1368.015998840332" y2="347.71805108747407" fill="rgb(0, 0, 0)" stroke="rgb(60, 60, 60)" stroke-width="1px" opacity="0.25"></line><line x1="0" y1="324.5314300217009" x2="1368.015998840332" y2="324.5314300217009" fill="rgb(0, 0, 0)" stroke="rgb(60, 60, 60)" stroke-width="1px" opacity="0.25"></line><line x1="0" y1="305.5865811806488" x2="1368.015998840332" y2="305.5865811806488" fill="rgb(0, 0, 0)" stroke="rgb(60, 60, 60)" stroke-width="1px" opacity="0.25"></line><line x1="0" y1="289.56893971561243" x2="1368.015998840332" y2="289.56893971561243" fill="rgb(0, 0, 0)" stroke="rgb(60, 60, 60)" stroke-width="1px" opacity="0.25"></line><line x1="0" y1="275.69382756052227" x2="1368.015998840332" y2="275.69382756052227" fill="rgb(0, 0, 0)" stroke="rgb(60, 60, 60)" stroke-width="1px" opacity="0.25"></line><line x1="0" y1="263.45511127382355" x2="1368.015998840332" y2="263.45511127382355" fill="rgb(0, 0, 0)" stroke="rgb(60, 60, 60)" stroke-width="1px" opacity="0.25"></line><line x1="0" y1="252.50720649474908" x2="1368.015998840332" y2="252.50720649474908" fill="rgb(0, 0, 0)" stroke="rgb(60, 60, 60)" stroke-width="1px" opacity="0.25"></line><line x1="0" y1="180.48298296779728" x2="1368.015998840332" y2="180.48298296779728" fill="rgb(0, 0, 0)" stroke="rgb(60, 60, 60)" stroke-width="1px" opacity="0.25"></line><line x1="0" y1="138.35151306097202" x2="1368.015998840332" y2="138.35151306097202" fill="rgb(0, 0, 0)" stroke="rgb(60, 60, 60)" stroke-width="1px" opacity="0.25"></line><line x1="0" y1="108.45875944084548" x2="1368.015998840332" y2="108.45875944084548" fill="rgb(0, 0, 0)" stroke="rgb(60, 60, 60)" stroke-width="1px" opacity="0.25"></line><line x1="0" y1="85.27213837507236" x2="1368.015998840332" y2="85.27213837507236" fill="rgb(0, 0, 0)" stroke="rgb(60, 60, 60)" stroke-width="1px" opacity="0.25"></line><line x1="0" y1="66.32728953402022" x2="1368.015998840332" y2="66.32728953402022" fill="rgb(0, 0, 0)" stroke="rgb(60, 60, 60)" stroke-width="1px" opacity="0.25"></line><line x1="0" y1="50.30964806898385" x2="1368.015998840332" y2="50.30964806898385" fill="rgb(0, 0, 0)" stroke="rgb(60, 60, 60)" stroke-width="1px" opacity="0.25"></line><line x1="0" y1="36.434535913893626" x2="1368.015998840332" y2="36.434535913893626" fill="rgb(0, 0, 0)" stroke="rgb(60, 60, 60)" stroke-width="1px" opacity="0.25"></line><line x1="0" y1="24.195819627194965" x2="1368.015998840332" y2="24.195819627194965" fill="rgb(0, 0, 0)" stroke="rgb(60, 60, 60)" stroke-width="1px" opacity="0.25"></line><line x1="0" y1="13.247914848120558" x2="1368.015998840332" y2="13.247914848120558" fill="rgb(0, 0, 0)" stroke="rgb(60, 60, 60)" stroke-width="1px" opacity="0.25"></line></g></g></g><g><g><line x1="114.00133323669434" y1="0" x2="114.00133323669434" y2="378.6199998855591" fill="rgb(0, 0, 0)" stroke="rgb(153, 153, 153)" stroke-width="1.5px"></line></g></g><g><g><g><g><g><path style="fill: none;" stroke="rgb(0, 119, 187)" stroke-width="2px" d="M114.00133323669434,54.088571412222734L125.40146656036376,92.81288497969229L136.8015998840332,88.43712079943987L148.20173320770263,99.74271858228695L159.60186653137208,76.3174978070245L171.0019998550415,88.43712079943987L182.40213317871093,78.2417914465218L193.80226650238038,78.2417914465218L205.2023998260498,83.2144693143224L216.60253314971922,95.07186284052051L228.00266647338867,93.93623526839463L239.4027997970581,83.2144693143224L250.80293312072752,103.38902599907613L262.203066444397,91.70154935138436L273.6031997680664,122.33387336549526L285.00333309173584,203.66960635611738L296.40346641540526,210.37573245895163L307.80359973907474,180.4829814194327L319.20373306274416,170.57939900053017L330.6038663864136,90.60197409798934L342.003999710083,85.27213837507236L353.4041330337525,89.5139129223403L364.80426635742185,102.1593132977601L376.20439968109133,122.33387336549526L387.60453300476075,168.24426943374678L399.0046663284302,197.37015971209044L410.4047996520996,130.03435995260728L421.8049329757691,237.98468232229823L433.20506629943844,200.4721479286428L444.6051996231079,247.43747305297973L456.00533294677734,138.35150893199983L467.40546627044677,233.5623599762439L478.8055995941162,217.54471574627073L490.20573291778567,221.32363723802607L501.60586624145503,157.2963619020242L513.0059995651245,203.66960635611738L524.406132888794,183.11373463850697L535.8062662124634,203.66960635611738L547.2063995361328,229.32058542897596L558.6065328598022,237.98468232229823L570.0066661834717,252.5072049463845L581.406799507141,197.37015971209044L592.8069328308105,188.58388666991243L604.20706615448,242.60362252748195L615.6071994781495,229.32058542897596L627.0073328018188,206.96857841346932L638.4074661254883,210.37573245895163L649.8075994491577,252.5072049463845L661.2077327728272,213.89841557552296L672.6078660964965,221.32363723802607L684.007999420166,206.96857841346932L695.4081327438354,213.89841557552296L706.808266067505,200.4721479286428L718.2083993911743,213.89841557552296L729.6085327148437,191.4308836178995L741.0086660385132,133.281777161481L752.4087993621827,138.35150893199983L763.808932685852,175.41324952602793L775.2090660095215,242.60362252748195L786.6091993331909,210.37573245895163L798.0093326568604,237.98468232229823L809.4094659805298,200.4721479286428L820.8095993041992,203.66960635611738L832.2097326278686,197.37015971209044L843.6098659515382,237.98468232229823L855.0099992752075,200.4721479286428L866.4101325988769,133.281777161481L877.8102659225465,88.43712079943987L889.2103992462158,217.54471574627073L900.6105325698852,197.37015971209044L912.0106658935547,257.83704221766607L923.4107992172242,213.89841557552296L934.8109325408935,221.32363723802607L946.211065864563,305.5865835031957L957.6111991882324,247.43747305297973L969.0113325119019,242.60362252748195L980.4114658355713,140.09792837067332L991.8115991592407,206.96857841346932L1003.2117324829101,206.96857841346932L1014.6118658065797,210.37573245895163L1026.011999130249,210.37573245895163L1037.4121324539185,237.98468232229823L1048.812265777588,225.24520454533223L1060.2123991012575,225.24520454533223L1071.6125324249267,206.96857841346932L1083.0126657485962,257.83704221766607L1094.4127990722657,247.43747305297973" fill="none"></path></g><g><path style="fill: none;" stroke="rgb(51, 187, 238)" stroke-width="2px" d="M114.00133323669434,54.088571412222734L125.40146656036376,76.3174978070245L136.8015998840332,82.20071597167623L148.20173320770263,103.38902599907613L159.60186653137208,81.19675749142857L171.0019998550415,83.2144693143224L182.40213317871093,81.19675749142857L193.80226650238038,103.38902599907613L205.2023998260498,92.81288497969229L216.60253314971922,86.31645762287496L228.00266647338867,87.37137926749341L239.4027997970581,89.5139129223403L250.80293312072752,93.93623526839463L262.203066444397,111.08951111155517L273.6031997680664,88.43712079943987L285.00333309173584,90.60197409798934L296.40346641540526,74.42819323613543L307.80359973907474,79.21748058648848L319.20373306274416,89.5139129223403L330.6038663864136,107.1679476273714L342.003999710083,90.60197409798934L353.4041330337525,86.31645762287496L364.80426635742185,98.55517547357834L376.20439968109133,103.38902599907613L387.60453300476075,133.281777161481L399.0046663284302,140.09792837067332L410.4047996520996,130.03435995260728L421.8049329757691,143.68134878388904L433.20506629943844,138.35150893199983L444.6051996231079,149.29941371107427L456.00533294677734,185.8128186907143L467.40546627044677,141.87419204857113L478.8055995941162,170.57939900053017L490.20573291778567,180.4829814194327L501.60586624145503,177.91719943680766L513.0059995651245,161.5381364492921L524.406132888794,170.57939900053017L535.8062662124634,151.24170411344028L547.2063995361328,145.52049221931892L558.6065328598022,177.91719943680766L570.0066661834717,172.96821433083826L581.406799507141,180.4829814194327L592.8069328308105,168.24426943374678L604.20706615448,168.24426943374678L615.6071994781495,149.29941371107427L627.0073328018188,180.4829814194327L638.4074661254883,191.4308836178995L649.8075994491577,122.33387336549526L661.2077327728272,161.5381364492921L672.6078660964965,177.91719943680766L684.007999420166,147.39277511954865L695.4081327438354,177.91719943680766L706.808266067505,170.57939900053017L718.2083993911743,147.39277511954865L729.6085327148437,185.8128186907143L741.0086660385132,206.96857841346932L752.4087993621827,210.37573245895163L763.808932685852,200.4721479286428L775.2090660095215,206.96857841346932L786.6091993331909,191.4308836178995L798.0093326568604,210.37573245895163L809.4094659805298,221.32363723802607L820.8095993041992,188.58388666991243L832.2097326278686,217.54471574627073L843.6098659515382,233.5623599762439L855.0099992752075,257.83704221766607L866.4101325988769,225.24520454533223L877.8102659225465,237.98468232229823L889.2103992462158,161.5381364492921L900.6105325698852,229.32058542897596L912.0106658935547,247.43747305297973L923.4107992172242,252.5072049463845L934.8109325408935,217.54471574627073L946.211065864563,210.37573245895163L957.6111991882324,269.39438323904227L969.0113325119019,155.23869284127426L980.4114658355713,257.83704221766607L991.8115991592407,324.5314284733363L1003.2117324829101,225.24520454533223L1014.6118658065797,217.54471574627073L1026.011999130249,213.89841557552296L1037.4121324539185,183.11373463850697L1048.812265777588,115.1648919951989L1060.2123991012575,229.32058542897596L1071.6125324249267,197.37015971209044L1083.0126657485962,229.32058542897596L1094.4127990722657,206.96857841346932L1105.8129323959351,242.60362252748195L1117.2130657196044,242.60362252748195L1128.6131990432739,269.39438323904227L1140.0133323669434,206.96857841346932L1151.4134656906128,225.24520454533223L1162.813599014282,225.24520454533223L1174.2137323379516,210.37573245895163L1185.613865661621,225.24520454533223L1197.0139989852905,217.54471574627073L1208.41413230896,200.4721479286428L1219.8142656326295,247.43747305297973L1231.214398956299,289.56893927322255L1242.6145322799682,247.43747305297973L1254.0146656036377,217.54471574627073L1265.4147989273072,221.32363723802607L1276.8149322509767,203.66960635611738L1288.215065574646,200.4721479286428L1299.6151988983154,237.98468232229823" fill="none"></path></g><g><path style="fill: none;" stroke="rgb(204, 51, 17)" stroke-width="2px" d="M114.00133323669434,68.95804120472991L125.40146656036376,93.93623526839463L136.8015998840332,85.27213837507236L148.20173320770263,86.31645762287496L159.60186653137208,75.36855159259682L171.0019998550415,89.5139129223403L182.40213317871093,78.2417914465218L193.80226650238038,83.2144693143224L205.2023998260498,90.60197409798934L216.60253314971922,71.6571252569372L228.00266647338867,79.21748058648848L239.4027997970581,90.60197409798934L250.80293312072752,112.43028963953174L262.203066444397,104.63345876122634L273.6031997680664,131.64538282916558L285.00333309173584,133.281777161481L296.40346641540526,108.45875789248095L307.80359973907474,120.85996363924147L319.20373306274416,113.78859516376247L330.6038663864136,103.38902599907613L342.003999710083,87.37137926749341L353.4041330337525,85.27213837507236L364.80426635742185,85.27213837507236L376.20439968109133,85.27213837507236L387.60453300476075,83.2144693143224L399.0046663284302,83.2144693143224L410.4047996520996,89.5139129223403L421.8049329757691,88.43712079943987L433.20506629943844,81.19675749142857L444.6051996231079,81.19675749142857L456.00533294677734,83.2144693143224L467.40546627044677,83.2144693143224L478.8055995941162,82.20071597167623L490.20573291778567,84.23821052603893L501.60586624145503,91.70154935138436L513.0059995651245,153.22098101838043L524.406132888794,116.55966314296063L535.8062662124634,138.35150893199983L547.2063995361328,147.39277511954865L558.6065328598022,140.09792837067332L570.0066661834717,76.3174978070245L581.406799507141,79.21748058648848L592.8069328308105,87.37137926749341L604.20706615448,102.1593132977601L615.6071994781495,119.4066600909477L627.0073328018188,138.35150893199983L638.4074661254883,163.7257728783362L649.8075994491577,210.37573245895163L661.2077327728272,282.39995598590343L672.6078660964965,221.32363723802607L684.007999420166,120.85996363924147L695.4081327438354,128.44792440169098L706.808266067505,210.37573245895163L718.2083993911743,263.45510714485135L729.6085327148437,210.37573245895163L741.0086660385132,159.3956027944452L752.4087993621827,213.89841557552296L763.808932685852,217.54471574627073L775.2090660095215,133.281777161481L786.6091993331909,191.4308836178995L798.0093326568604,155.23869284127426L809.4094659805298,175.41324952602793L820.8095993041992,157.2963619020242L832.2097326278686,233.5623599762439L843.6098659515382,175.41324952602793L855.0099992752075,112.43028963953174L866.4101325988769,200.4721479286428L877.8102659225465,188.58388666991243L889.2103992462158,197.37015971209044L900.6105325698852,233.5623599762439L912.0106658935547,131.64538282916558L923.4107992172242,107.1679476273714L934.8109325408935,213.89841557552296L946.211065864563,200.4721479286428L957.6111991882324,213.89841557552296L969.0113325119019,225.24520454533223L980.4114658355713,242.60362252748195L991.8115991592407,197.37015971209044L1003.2117324829101,242.60362252748195L1014.6118658065797,237.98468232229823L1026.011999130249,247.43747305297973L1037.4121324539185,237.98468232229823L1048.812265777588,213.89841557552296L1060.2123991012575,185.8128186907143L1071.6125324249267,297.26942807228403L1083.0126657485962,252.5072049463845L1094.4127990722657,289.56893927322255L1105.8129323959351,229.32058542897596L1117.2130657196044,233.5623599762439L1128.6131990432739,305.5865835031957L1140.0133323669434,233.5623599762439L1151.4134656906128,177.91719943680766L1162.813599014282,210.37573245895163L1174.2137323379516,210.37573245895163L1185.613865661621,213.89841557552296L1197.0139989852905,159.3956027944452L1208.41413230896,242.60362252748195L1219.8142656326295,133.281777161481L1231.214398956299,177.91719943680766L1242.6145322799682,123.82899113252785L1254.0146656036377,185.8128186907143L1265.4147989273072,252.5072049463845L1276.8149322509767,210.37573245895163L1288.215065574646,269.39438323904227L1299.6151988983154,242.60362252748195L1311.0153322219849,210.37573245895163" fill="none"></path></g></g></g></g></g></g><g transform="translate(49, 378)" clip-path="url(#clip_1)"><clipPath id="clip_1"><rect width="1368" height="21"></rect></clipPath><g><g><line x1="0" y1="0" x2="0" y2="5" style="visibility: inherit;" fill="rgb(0, 0, 0)" stroke="rgb(204, 204, 204)" stroke-width="1px"></line><line x1="114.00133323669434" y1="0" x2="114.00133323669434" y2="5" style="visibility: inherit;" fill="rgb(0, 0, 0)" stroke="rgb(204, 204, 204)" stroke-width="1px"></line><line x1="228.00266647338867" y1="0" x2="228.00266647338867" y2="5" style="visibility: inherit;" fill="rgb(0, 0, 0)" stroke="rgb(204, 204, 204)" stroke-width="1px"></line><line x1="342.003999710083" y1="0" x2="342.003999710083" y2="5" style="visibility: inherit;" fill="rgb(0, 0, 0)" stroke="rgb(204, 204, 204)" stroke-width="1px"></line><line x1="456.00533294677734" y1="0" x2="456.00533294677734" y2="5" style="visibility: inherit;" fill="rgb(0, 0, 0)" stroke="rgb(204, 204, 204)" stroke-width="1px"></line><line x1="570.0066661834717" y1="0" x2="570.0066661834717" y2="5" style="visibility: inherit;" fill="rgb(0, 0, 0)" stroke="rgb(204, 204, 204)" stroke-width="1px"></line><line x1="684.007999420166" y1="0" x2="684.007999420166" y2="5" style="visibility: inherit;" fill="rgb(0, 0, 0)" stroke="rgb(204, 204, 204)" stroke-width="1px"></line><line x1="798.0093326568604" y1="0" x2="798.0093326568604" y2="5" style="visibility: inherit;" fill="rgb(0, 0, 0)" stroke="rgb(204, 204, 204)" stroke-width="1px"></line><line x1="912.0106658935547" y1="0" x2="912.0106658935547" y2="5" style="visibility: inherit;" fill="rgb(0, 0, 0)" stroke="rgb(204, 204, 204)" stroke-width="1px"></line><line x1="1026.011999130249" y1="0" x2="1026.011999130249" y2="5" style="visibility: inherit;" fill="rgb(0, 0, 0)" stroke="rgb(204, 204, 204)" stroke-width="1px"></line><line x1="1140.0133323669434" y1="0" x2="1140.0133323669434" y2="5" style="visibility: inherit;" fill="rgb(0, 0, 0)" stroke="rgb(204, 204, 204)" stroke-width="1px"></line><line x1="1254.0146656036377" y1="0" x2="1254.0146656036377" y2="5" style="visibility: inherit;" fill="rgb(0, 0, 0)" stroke="rgb(204, 204, 204)" stroke-width="1px"></line><line x1="1368.015998840332" y1="0" x2="1368.015998840332" y2="5" style="visibility: inherit;" fill="rgb(0, 0, 0)" stroke="rgb(204, 204, 204)" stroke-width="1px"></line></g><g transform="translate(0, 8)"><text style="text-anchor: middle; visibility: hidden; font-family: &quot;Helvetica Neue&quot;, sans-serif; font-size: 12px; font-weight: 200;" x="0" y="0" dx="0em" dy="0.95em" fill="rgb(50, 49, 63)" stroke="none" stroke-width="1px">-100</text><text style="text-anchor: middle; visibility: inherit; font-family: &quot;Helvetica Neue&quot;, sans-serif; font-size: 12px; font-weight: 200;" x="114.00133323669434" y="0" dx="0em" dy="0.95em" fill="rgb(50, 49, 63)" stroke="none" stroke-width="1px">0</text><text style="text-anchor: middle; visibility: inherit; font-family: &quot;Helvetica Neue&quot;, sans-serif; font-size: 12px; font-weight: 200;" x="228.00266647338867" y="0" dx="0em" dy="0.95em" fill="rgb(50, 49, 63)" stroke="none" stroke-width="1px">100</text><text style="text-anchor: middle; visibility: inherit; font-family: &quot;Helvetica Neue&quot;, sans-serif; font-size: 12px; font-weight: 200;" x="342.003999710083" y="0" dx="0em" dy="0.95em" fill="rgb(50, 49, 63)" stroke="none" stroke-width="1px">200</text><text style="text-anchor: middle; visibility: inherit; font-family: &quot;Helvetica Neue&quot;, sans-serif; font-size: 12px; font-weight: 200;" x="456.00533294677734" y="0" dx="0em" dy="0.95em" fill="rgb(50, 49, 63)" stroke="none" stroke-width="1px">300</text><text style="text-anchor: middle; visibility: inherit; font-family: &quot;Helvetica Neue&quot;, sans-serif; font-size: 12px; font-weight: 200;" x="570.0066661834717" y="0" dx="0em" dy="0.95em" fill="rgb(50, 49, 63)" stroke="none" stroke-width="1px">400</text><text style="text-anchor: middle; visibility: inherit; font-family: &quot;Helvetica Neue&quot;, sans-serif; font-size: 12px; font-weight: 200;" x="684.007999420166" y="0" dx="0em" dy="0.95em" fill="rgb(50, 49, 63)" stroke="none" stroke-width="1px">500</text><text style="text-anchor: middle; visibility: inherit; font-family: &quot;Helvetica Neue&quot;, sans-serif; font-size: 12px; font-weight: 200;" x="798.0093326568604" y="0" dx="0em" dy="0.95em" fill="rgb(50, 49, 63)" stroke="none" stroke-width="1px">600</text><text style="text-anchor: middle; visibility: inherit; font-family: &quot;Helvetica Neue&quot;, sans-serif; font-size: 12px; font-weight: 200;" x="912.0106658935547" y="0" dx="0em" dy="0.95em" fill="rgb(50, 49, 63)" stroke="none" stroke-width="1px">700</text><text style="text-anchor: middle; visibility: inherit; font-family: &quot;Helvetica Neue&quot;, sans-serif; font-size: 12px; font-weight: 200;" x="1026.011999130249" y="0" dx="0em" dy="0.95em" fill="rgb(50, 49, 63)" stroke="none" stroke-width="1px">800</text><text style="text-anchor: middle; visibility: inherit; font-family: &quot;Helvetica Neue&quot;, sans-serif; font-size: 12px; font-weight: 200;" x="1140.0133323669434" y="0" dx="0em" dy="0.95em" fill="rgb(50, 49, 63)" stroke="none" stroke-width="1px">900</text><text style="text-anchor: middle; visibility: inherit; font-family: &quot;Helvetica Neue&quot;, sans-serif; font-size: 12px; font-weight: 200;" x="1254.0146656036377" y="0" dx="0em" dy="0.95em" fill="rgb(50, 49, 63)" stroke="none" stroke-width="1px">1k</text><text style="text-anchor: middle; visibility: hidden; font-family: &quot;Helvetica Neue&quot;, sans-serif; font-size: 12px; font-weight: 200;" x="1368.015998840332" y="0" dx="0em" dy="0.95em" fill="rgb(50, 49, 63)" stroke="none" stroke-width="1px">1.1k</text></g><line x1="0" y1="0" x2="1368.015998840332" y2="0" fill="rgb(0, 0, 0)" stroke="rgb(204, 204, 204)" stroke-width="1px"></line></g></g></g></g></svg>