<svg viewBox="0 0 1418 400" xmlns="http://www.w3.org/2000/svg"><g><g><g><g><g><line x1="49.98400115966797" y1="373.7052785343374" x2="44.98400115966797" y2="373.7052785343374" style="visibility: inherit;" fill="rgb(0, 0, 0)" stroke="rgb(204, 204, 204)" stroke-width="1px"></line><line x1="49.98400115966797" y1="346.012003128481" x2="44.98400115966797" y2="346.012003128481" style="visibility: inherit;" fill="rgb(0, 0, 0)" stroke="rgb(204, 204, 204)" stroke-width="1px"></line><line x1="49.98400115966797" y1="324.5314299077738" x2="44.98400115966797" y2="324.5314299077738" style="visibility: inherit;" fill="rgb(0, 0, 0)" stroke="rgb(204, 204, 204)" stroke-width="1px"></line><line x1="49.98400115966797" y1="306.9805236532113" x2="44.98400115966797" y2="306.9805236532113" style="visibility: inherit;" fill="rgb(0, 0, 0)" stroke="rgb(204, 204, 204)" stroke-width="1px"></line><line x1="49.98400115966797" y1="292.1414438521167" x2="44.98400115966797" y2="292.1414438521167" style="visibility: inherit;" fill="rgb(0, 0, 0)" stroke="rgb(204, 204, 204)" stroke-width="1px"></line><line x1="49.98400115966797" y1="279.2872482473549" x2="44.98400115966797" y2="279.2872482473549" style="visibility: inherit;" fill="rgb(0, 0, 0)" stroke="rgb(204, 204, 204)" stroke-width="1px"></line><line x1="49.98400115966797" y1="267.94904417794163" x2="44.98400115966797" y2="267.94904417794163" style="visibility: inherit;" fill="rgb(0, 0, 0)" stroke="rgb(204, 204, 204)" stroke-width="1px"></line><line x1="49.98400115966797" y1="257.8066750266478" x2="44.98400115966797" y2="257.8066750266478" style="visibility: inherit;" fill="rgb(0, 0, 0)" stroke="rgb(204, 204, 204)" stroke-width="1px"></line><line x1="49.98400115966797" y1="191.08192014552165" x2="44.98400115966797" y2="191.08192014552165" style="visibility: inherit;" fill="rgb(0, 0, 0)" stroke="rgb(204, 204, 204)" stroke-width="1px"></line><line x1="49.98400115966797" y1="152.05044067025193" x2="44.98400115966797" y2="152.05044067025193" style="visibility: inherit;" fill="rgb(0, 0, 0)" stroke="rgb(204, 204, 204)" stroke-width="1px"></line><line x1="49.98400115966797" y1="124.35716526439555" x2="44.98400115966797" y2="124.35716526439555" style="visibility: inherit;" fill="rgb(0, 0, 0)" stroke="rgb(204, 204, 204)" stroke-width="1px"></line><line x1="49.98400115966797" y1="102.87659204368839" x2="44.98400115966797" y2="102.87659204368839" style="visibility: inherit;" fill="rgb(0, 0, 0)" stroke="rgb(204, 204, 204)" stroke-width="1px"></line><line x1="49.98400115966797" y1="85.32568578912588" x2="44.98400115966797" y2="85.32568578912588" style="visibility: inherit;" fill="rgb(0, 0, 0)" stroke="rgb(204, 204, 204)" stroke-width="1px"></line><line x1="49.98400115966797" y1="70.48660598803127" x2="44.98400115966797" y2="70.48660598803127" style="visibility: inherit;" fill="rgb(0, 0, 0)" stroke="rgb(204, 204, 204)" stroke-width="1px"></line><line x1="49.98400115966797" y1="57.632410383269416" x2="44.98400115966797" y2="57.632410383269416" style="visibility: inherit;" fill="rgb(0, 0, 0)" stroke="rgb(204, 204, 204)" stroke-width="1px"></line><line x1="49.98400115966797" y1="46.29420631385614" x2="44.98400115966797" y2="46.29420631385614" style="visibility: inherit;" fill="rgb(0, 0, 0)" stroke="rgb(204, 204, 204)" stroke-width="1px"></line><line x1="49.98400115966797" y1="36.15183716256229" x2="44.98400115966797" y2="36.15183716256229" style="visibility: inherit;" fill="rgb(0, 0, 0)" stroke="rgb(204, 204, 204)" stroke-width="1px"></line></g><g transform="translate(39.98400115966797, 0)"><text style="text-anchor: end; visibility: hidden; font-family: &quot;Helvetica Neue&quot;, sans-serif; font-size: 12px; font-weight: 200;" x="0" y="373.7052785343374" dx="0em" dy="0.3em" fill="rgb(50, 49, 63)" stroke="none" stroke-width="1px">0.03</text><text style="text-anchor: end; visibility: inherit; font-family: &quot;Helvetica Neue&quot;, sans-serif; font-size: 12px; font-weight: 200;" x="0" y="346.012003128481" dx="0em" dy="0.3em" fill="rgb(50, 49, 63)" stroke="none" stroke-width="1px">0.04</text><text style="text-anchor: end; visibility: hidden; font-family: &quot;Helvetica Neue&quot;, sans-serif; font-size: 12px; font-weight: 200;" x="0" y="324.5314299077738" dx="0em" dy="0.3em" fill="rgb(50, 49, 63)" stroke="none" stroke-width="1px">0.05</text><text style="text-anchor: end; visibility: hidden; font-family: &quot;Helvetica Neue&quot;, sans-serif; font-size: 12px; font-weight: 200;" x="0" y="306.9805236532113" dx="0em" dy="0.3em" fill="rgb(50, 49, 63)" stroke="none" stroke-width="1px">0.06</text><text style="text-anchor: end; visibility: inherit; font-family: &quot;Helvetica Neue&quot;, sans-serif; font-size: 12px; font-weight: 200;" x="0" y="292.1414438521167" dx="0em" dy="0.3em" fill="rgb(50, 49, 63)" stroke="none" stroke-width="1px">0.07</text><text style="text-anchor: end; visibility: hidden; font-family: &quot;Helvetica Neue&quot;, sans-serif; font-size: 12px; font-weight: 200;" x="0" y="279.2872482473549" dx="0em" dy="0.3em" fill="rgb(50, 49, 63)" stroke="none" stroke-width="1px">0.08</text><text style="text-anchor: end; visibility: hidden; font-family: &quot;Helvetica Neue&quot;, sans-serif; font-size: 12px; font-weight: 200;" x="0" y="267.94904417794163" dx="0em" dy="0.3em" fill="rgb(50, 49, 63)" stroke="none" stroke-width="1px">0.09</text><text style="text-anchor: end; visibility: inherit; font-family: &quot;Helvetica Neue&quot;, sans-serif; font-size: 12px; font-weight: 200;" x="0" y="257.8066750266478" dx="0em" dy="0.3em" fill="rgb(50, 49, 63)" stroke="none" stroke-width="1px">0.1</text><text style="text-anchor: end; visibility: hidden; font-family: &quot;Helvetica Neue&quot;, sans-serif; font-size: 12px; font-weight: 200;" x="0" y="191.08192014552165" dx="0em" dy="0.3em" fill="rgb(50, 49, 63)" stroke="none" stroke-width="1px">0.2</text><text style="text-anchor: end; visibility: hidden; font-family: &quot;Helvetica Neue&quot;, sans-serif; font-size: 12px; font-weight: 200;" x="0" y="152.05044067025193" dx="0em" dy="0.3em" fill="rgb(50, 49, 63)" stroke="none" stroke-width="1px">0.3</text><text style="text-anchor: end; visibility: inherit; font-family: &quot;Helvetica Neue&quot;, sans-serif; font-size: 12px; font-weight: 200;" x="0" y="124.35716526439555" dx="0em" dy="0.3em" fill="rgb(50, 49, 63)" stroke="none" stroke-width="1px">0.4</text><text style="text-anchor: end; visibility: hidden; font-family: &quot;Helvetica Neue&quot;, sans-serif; font-size: 12px; font-weight: 200;" x="0" y="102.87659204368839" dx="0em" dy="0.3em" fill="rgb(50, 49, 63)" stroke="none" stroke-width="1px">0.5</text><text style="text-anchor: end; visibility: hidden; font-family: &quot;Helvetica Neue&quot;, sans-serif; font-size: 12px; font-weight: 200;" x="0" y="85.32568578912588" dx="0em" dy="0.3em" fill="rgb(50, 49, 63)" stroke="none" stroke-width="1px">0.6</text><text style="text-anchor: end; visibility: inherit; font-family: &quot;Helvetica Neue&quot;, sans-serif; font-size: 12px; font-weight: 200;" x="0" y="70.48660598803127" dx="0em" dy="0.3em" fill="rgb(50, 49, 63)" stroke="none" stroke-width="1px">0.7</text><text style="text-anchor: end; visibility: hidden; font-family: &quot;Helvetica Neue&quot;, sans-serif; font-size: 12px; font-weight: 200;" x="0" y="57.632410383269416" dx="0em" dy="0.3em" fill="rgb(50, 49, 63)" stroke="none" stroke-width="1px">0.8</text><text style="text-anchor: end; visibility: hidden; font-family: &quot;Helvetica Neue&quot;, sans-serif; font-size: 12px; font-weight: 200;" x="0" y="46.29420631385614" dx="0em" dy="0.3em" fill="rgb(50, 49, 63)" stroke="none" stroke-width="1px">0.9</text><text style="text-anchor: end; visibility: inherit; font-family: &quot;Helvetica Neue&quot;, sans-serif; font-size: 12px; font-weight: 200;" x="0" y="36.15183716256229" dx="0em" dy="0.3em" fill="rgb(50, 49, 63)" stroke="none" stroke-width="1px">1</text></g><line x1="49.98400115966797" y1="0" x2="49.98400115966797" y2="378.6199998855591" fill="rgb(0, 0, 0)" stroke="rgb(204, 204, 204)" stroke-width="1px"></line></g></g><g transform="translate(49, 0)" clip-path="url(#clip_0)"><clipPath id="clip_0"><rect width="1368" height="378"></rect></clipPath><g><g><g><line x1="0" y1="0" x2="0" y2="378.6199998855591" fill="rgb(0, 0, 0)" stroke="rgb(60, 60, 60)" stroke-width="1px" opacity="0.25"></line><line x1="114.00133323669434" y1="0" x2="114.00133323669434" y2="378.6199998855591" fill="rgb(0, 0, 0)" stroke="rgb(60, 60, 60)" stroke-width="1px" opacity="0.25"></line><line x1="228.00266647338867" y1="0" x2="228.00266647338867" y2="378.6199998855591" fill="rgb(0, 0, 0)" stroke="rgb(60, 60, 60)" stroke-width="1px" opacity="0.25"></line><line x1="342.003999710083" y1="0" x2="342.003999710083" y2="378.6199998855591" fill="rgb(0, 0, 0)" stroke="rgb(60, 60, 60)" stroke-width="1px" opacity="0.25"></line><line x1="456.00533294677734" y1="0" x2="456.00533294677734" y2="378.6199998855591" fill="rgb(0, 0, 0)" stroke="rgb(60, 60, 60)" stroke-width="1px" opacity="0.25"></line><line x1="570.0066661834717" y1="0" x2="570.0066661834717" y2="378.6199998855591" fill="rgb(0, 0, 0)" stroke="rgb(60, 60, 60)" stroke-width="1px" opacity="0.25"></line><line x1="684.007999420166" y1="0" x2="684.007999420166" y2="378.6199998855591" fill="rgb(0, 0, 0)" stroke="rgb(60, 60, 60)" stroke-width="1px" opacity="0.25"></line><line x1="798.0093326568604" y1="0" x2="798.0093326568604" y2="378.6199998855591" fill="rgb(0, 0, 0)" stroke="rgb(60, 60, 60)" stroke-width="1px" opacity="0.25"></line><line x1="912.0106658935547" y1="0" x2="912.0106658935547" y2="378.6199998855591" fill="rgb(0, 0, 0)" stroke="rgb(60, 60, 60)" stroke-width="1px" opacity="0.25"></line><line x1="1026.011999130249" y1="0" x2="1026.011999130249" y2="378.6199998855591" fill="rgb(0, 0, 0)" stroke="rgb(60, 60, 60)" stroke-width="1px" opacity="0.25"></line><line x1="1140.0133323669434" y1="0" x2="1140.0133323669434" y2="378.6199998855591" fill="rgb(0, 0, 0)" stroke="rgb(60, 60, 60)" stroke-width="1px" opacity="0.25"></line><line x1="1254.0146656036377" y1="0" x2="1254.0146656036377" y2="378.6199998855591" fill="rgb(0, 0, 0)" stroke="rgb(60, 60, 60)" stroke-width="1px" opacity="0.25"></line><line x1="1368.015998840332" y1="0" x2="1368.015998840332" y2="378.6199998855591" fill="rgb(0, 0, 0)" stroke="rgb(60, 60, 60)" stroke-width="1px" opacity="0.25"></line></g><g><line x1="0" y1="373.7052785343374" x2="1368.015998840332" y2="373.7052785343374" fill="rgb(0, 0, 0)" stroke="rgb(60, 60, 60)" stroke-width="1px" opacity="0.25"></line><line x1="0" y1="346.012003128481" x2="1368.015998840332" y2="346.012003128481" fill="rgb(0, 0, 0)" stroke="rgb(60, 60, 60)" stroke-width="1px" opacity="0.25"></line><line x1="0" y1="324.5314299077738" x2="1368.015998840332" y2="324.5314299077738" fill="rgb(0, 0, 0)" stroke="rgb(60, 60, 60)" stroke-width="1px" opacity="0.25"></line><line x1="0" y1="306.9805236532113" x2="1368.015998840332" y2="306.9805236532113" fill="rgb(0, 0, 0)" stroke="rgb(60, 60, 60)" stroke-width="1px" opacity="0.25"></line><line x1="0" y1="292.1414438521167" x2="1368.015998840332" y2="292.1414438521167" fill="rgb(0, 0, 0)" stroke="rgb(60, 60, 60)" stroke-width="1px" opacity="0.25"></line><line x1="0" y1="279.2872482473549" x2="1368.015998840332" y2="279.2872482473549" fill="rgb(0, 0, 0)" stroke="rgb(60, 60, 60)" stroke-width="1px" opacity="0.25"></line><line x1="0" y1="267.94904417794163" x2="1368.015998840332" y2="267.94904417794163" fill="rgb(0, 0, 0)" stroke="rgb(60, 60, 60)" stroke-width="1px" opacity="0.25"></line><line x1="0" y1="257.8066750266478" x2="1368.015998840332" y2="257.8066750266478" fill="rgb(0, 0, 0)" stroke="rgb(60, 60, 60)" stroke-width="1px" opacity="0.25"></line><line x1="0" y1="191.08192014552165" x2="1368.015998840332" y2="191.08192014552165" fill="rgb(0, 0, 0)" stroke="rgb(60, 60, 60)" stroke-width="1px" opacity="0.25"></line><line x1="0" y1="152.05044067025193" x2="1368.015998840332" y2="152.05044067025193" fill="rgb(0, 0, 0)" stroke="rgb(60, 60, 60)" stroke-width="1px" opacity="0.25"></line><line x1="0" y1="124.35716526439555" x2="1368.015998840332" y2="124.35716526439555" fill="rgb(0, 0, 0)" stroke="rgb(60, 60, 60)" stroke-width="1px" opacity="0.25"></line><line x1="0" y1="102.87659204368839" x2="1368.015998840332" y2="102.87659204368839" fill="rgb(0, 0, 0)" stroke="rgb(60, 60, 60)" stroke-width="1px" opacity="0.25"></line><line x1="0" y1="85.32568578912588" x2="1368.015998840332" y2="85.32568578912588" fill="rgb(0, 0, 0)" stroke="rgb(60, 60, 60)" stroke-width="1px" opacity="0.25"></line><line x1="0" y1="70.48660598803127" x2="1368.015998840332" y2="70.48660598803127" fill="rgb(0, 0, 0)" stroke="rgb(60, 60, 60)" stroke-width="1px" opacity="0.25"></line><line x1="0" y1="57.632410383269416" x2="1368.015998840332" y2="57.632410383269416" fill="rgb(0, 0, 0)" stroke="rgb(60, 60, 60)" stroke-width="1px" opacity="0.25"></line><line x1="0" y1="46.29420631385614" x2="1368.015998840332" y2="46.29420631385614" fill="rgb(0, 0, 0)" stroke="rgb(60, 60, 60)" stroke-width="1px" opacity="0.25"></line><line x1="0" y1="36.15183716256229" x2="1368.015998840332" y2="36.15183716256229" fill="rgb(0, 0, 0)" stroke="rgb(60, 60, 60)" stroke-width="1px" opacity="0.25"></line></g></g></g><g><g><line x1="114.00133323669434" y1="0" x2="114.00133323669434" y2="378.6199998855591" fill="rgb(0, 0, 0)" stroke="rgb(153, 153, 153)" stroke-width="1.5px"></line></g></g><g><g><g><g><g><path style="fill: none;" stroke="rgb(0, 119, 187)" stroke-width="2px" d="M114.00133323669434,82.16922282570869L125.40146656036376,97.26742977786841L136.8015998840332,105.80869830082798L171.0019998550415,115.18227686850372L239.4027997970581,131.86201276388954L535.8062662124634,141.42795105365008L912.0106658935547,148.8939777068348L980.4114658355713,179.74371862621953" fill="none"></path></g><g><path style="fill: none;" stroke="rgb(255, 112, 67)" stroke-width="2px" d="M114.00133323669434,68.44561137584384L125.40146656036376,106.80626116148932L250.80293312072752,117.39532561190936L273.6031997680664,119.66045762008304L456.00533294677734,129.29483713023978L490.20573291778567,175.55768842239286L513.0059995651245,191.08191871108414" fill="none"></path></g><g><path style="fill: none;" stroke="rgb(187, 187, 187)" stroke-width="2px" d="M114.00133323669434,72.5718165628981L125.40146656036376,97.26742977786841L136.8015998840332,103.84407135016363L182.40213317871093,104.82137293994919L193.80226650238038,105.80869830082798L262.203066444397,117.39532561190936L353.4041330337525,147.35373074905442L376.20439968109133,181.90703174962977L991.8115991592407,198.58676764501564L1003.2117324829101,209.6003028087059L1071.6125324249267,212.56249551788514L1197.0139989852905,222.03867942475136L1219.8142656326295,244.35270331809605" fill="none"></path></g><g><path style="fill: none;" stroke="rgb(0, 153, 136)" stroke-width="2px" d="M114.00133323669434,82.16922282570869L125.40146656036376,94.5808247630041L136.8015998840332,105.80869830082798L171.0019998550415,113.0189637450934L216.60253314971922,117.39532561190936L262.203066444397,118.52122592064217L273.6031997680664,144.34525517447543L296.40346641540526,156.98811253609622L319.20373306274416,173.53101604261542L353.4041330337525,186.38521250120914L547.2063995361328,188.70492434050266L592.8069328308105,198.58676764501564L615.6071994781495,225.41668856115135" fill="none"></path></g><g><path style="fill: none;" stroke="rgb(238, 51, 119)" stroke-width="2px" d="M114.00133323669434,60.06959403878682L125.40146656036376,108.83293354126675L148.20173320770263,111.95526281359832L353.4041330337525,119.66045762008304L364.80426635742185,137.21136250851455L399.0046663284302,160.42645592085444L444.6051996231079,177.62794843696997L456.00533294677734,181.90703174962977L467.40546627044677,193.519103801039L535.8062662124634,196.01959201136586L649.8075994491577,222.03867942475136" fill="none"></path></g><g><path style="fill: none;" stroke="rgb(204, 51, 17)" stroke-width="2px" d="M114.00133323669434,78.36385058450793L125.40146656036376,109.8624982315651L148.20173320770263,120.81332629334884L159.60186653137208,142.87554792757982L171.0019998550415,145.83774063675904L182.40213317871093,215.6187325879609L307.80359973907474,225.41668856115135L342.003999710083,236.3261018059406L387.60453300476075,240.25577092374152L592.8069328308105,248.63178663075593" fill="none"></path></g><g><path style="fill: none;" stroke="rgb(51, 187, 238)" stroke-width="2px" d="M114.00133323669434,54.670225041882986L125.40146656036376,108.83293354126675L136.8015998840332,117.39532561190936L148.20173320770263,137.21136250851455L159.60186653137208,145.83774063675904L171.0019998550415,163.99218465899452L182.40213317871093,181.90703174962977L923.4107992172242,218.7751917262114L1105.8129323959351,236.3261018059406" fill="none"></path></g><g><path style="fill: none;" stroke="rgb(0, 119, 187)" stroke-width="2px" d="M114.00133323669434,87.76286944464317L125.40146656036376,104.82137293994919L159.60186653137208,107.8142639095326L193.80226650238038,120.81332629334884L205.2023998260498,137.21136250851455L285.00333309173584,148.8939777068348L296.40346641540526,153.66835652903046L319.20373306274416,209.6003028087059" fill="none"></path></g><g><path style="fill: none;" stroke="rgb(187, 187, 187)" stroke-width="2px" d="M114.00133323669434,85.3256819639592L125.40146656036376,97.26742977786841L136.8015998840332,106.80626116148932L159.60186653137208,156.98811253609622L171.0019998550415,165.82582839518258L193.80226650238038,188.70492434050266" fill="none"></path></g><g><path style="fill: none;" stroke="rgb(255, 112, 67)" stroke-width="2px" d="M114.00133323669434,67.77477570939669L125.40146656036376,116.28244177079802L159.60186653137208,121.98016945937661L182.40213317871093,129.29483713023978L216.60253314971922,133.1717388082376L307.80359973907474,138.59647104059522L399.0046663284302,141.42795105365008L444.6051996231079,145.83774063675904L649.8075994491577,155.31392454362532L661.2077327728272,156.98811253609622" fill="none"></path></g><g><path style="fill: none;" stroke="rgb(238, 51, 119)" stroke-width="2px" d="M114.00133323669434,54.08857141222268L125.40146656036376,96.36353084614177L136.8015998840332,117.39532561190936L193.80226650238038,158.6919336800252L216.60253314971922,165.82582839518258L319.20373306274416,169.6013469248145L649.8075994491577,173.53101604261542L775.2090660095215,186.38521250120914L798.0093326568604,188.70492434050266L1174.2137323379516,191.08191871108414L1185.613865661621,203.93611738964063" fill="none"></path></g><g><path style="fill: none;" stroke="rgb(0, 153, 136)" stroke-width="2px" d="M114.00133323669434,86.13123793632957L125.40146656036376,92.83053328861985L136.8015998840332,107.8142639095326L148.20173320770263,138.59647104059522L159.60186653137208,162.19280599637915L182.40213317871093,188.70492434050266L296.40346641540526,198.58676764501564" fill="none"></path></g><g><path style="fill: none;" stroke="rgb(204, 51, 17)" stroke-width="2px" d="M114.00133323669434,76.88284622376227L125.40146656036376,98.17988576550692L148.20173320770263,103.84407135016363L159.60186653137208,133.1717388082376L193.80226650238038,171.5461278210753L205.2023998260498,188.70492434050266L558.6065328598022,198.58676764501564L809.4094659805298,206.72655571004896" fill="none"></path></g><g><path style="fill: none;" stroke="rgb(0, 119, 187)" stroke-width="2px" d="M114.00133323669434,73.9874800196385L125.40146656036376,109.8624982315651L148.20173320770263,116.28244177079802L250.80293312072752,119.66045762008304L273.6031997680664,137.21136250851455L285.00333309173584,212.56249551788514L296.40346641540526,218.7751917262114L421.8049329757691,244.35270331809605L444.6051996231079,253.1099673823352L570.0066661834717,257.80667359221025L912.0106658935547,262.744346892492L946.211065864563,306.9805258048676" fill="none"></path></g><g><path style="fill: none;" stroke="rgb(51, 187, 238)" stroke-width="2px" d="M114.00133323669434,76.15079304645371L125.40146656036376,100.97032416627576L171.0019998550415,113.0189637450934L182.40213317871093,145.83774063675904L193.80226650238038,160.42645592085444L205.2023998260498,165.82582839518258L228.00266647338867,169.6013469248145L262.203066444397,171.5461278210753L319.20373306274416,177.62794843696997L592.8069328308105,232.5505832763087L649.8075994491577,253.1099673823352" fill="none"></path></g><g><path style="fill: none;" stroke="rgb(255, 112, 67)" stroke-width="2px" d="M114.00133323669434,86.94360164790436L125.40146656036376,97.26742977786841L136.8015998840332,114.09454346237118L307.80359973907474,116.28244177079802L376.20439968109133,145.83774063675904L387.60453300476075,179.74371862621953" fill="none"></path></g><g><path style="fill: none;" stroke="rgb(0, 119, 187)" stroke-width="2px" d="M114.00133323669434,92.83053328861985L125.40146656036376,107.8142639095326L136.8015998840332,114.09454346237118L239.4027997970581,120.81332629334884" fill="none"></path></g><g><path style="fill: none;" stroke="rgb(187, 187, 187)" stroke-width="2px" d="M114.00133323669434,67.77477570939669L125.40146656036376,102.87659204368839L205.2023998260498,105.80869830082798L216.60253314971922,107.8142639095326L273.6031997680664,108.83293354126675L307.80359973907474,109.8624982315651L319.20373306274416,110.90319355584387L330.6038663864136,111.95526281359832L399.0046663284302,115.18227686850372L547.2063995361328,163.99218465899452L558.6065328598022,201.22428547164887L581.406799507141,206.72655571004896L592.8069328308105,218.7751917262114L718.2083993911743,240.25577092374152L786.6091993331909,248.63178663075593L832.2097326278686,257.80667359221025" fill="none"></path></g><g><path style="fill: none;" stroke="rgb(0, 153, 136)" stroke-width="2px" d="M114.00133323669434,63.845112568418756L125.40146656036376,97.26742977786841L136.8015998840332,101.91873954749718L159.60186653137208,104.82137293994919L205.2023998260498,110.90319355584387L239.4027997970581,114.09454346237118L273.6031997680664,119.66045762008304L307.80359973907474,121.98016945937661L319.20373306274416,131.86201276388954L353.4041330337525,134.49953059052277L399.0046663284302,145.83774063675904L433.20506629943844,158.6919336800252L444.6051996231079,160.42645592085444L1140.0133323669434,184.1200804930354L1174.2137323379516,188.70492434050266L1231.214398956299,206.72655571004896" fill="none"></path></g><g><path style="fill: none;" stroke="rgb(255, 112, 67)" stroke-width="2px" d="M114.00133323669434,79.1129857556329L125.40146656036376,103.84407135016363L159.60186653137208,117.39532561190936L216.60253314971922,121.98016945937661L330.6038663864136,137.21136250851455L353.4041330337525,150.45927040115788L410.4047996520996,186.38521250120914L820.8095993041992,206.72655571004896L877.8102659225465,209.6003028087059" fill="none"></path></g><g><path style="fill: none;" stroke="rgb(0, 153, 136)" stroke-width="2px" d="M114.00133323669434,82.16922282570869L125.40146656036376,102.87659204368839L136.8015998840332,117.39532561190936L193.80226650238038,121.98016945937661L239.4027997970581,138.59647104059522L273.6031997680664,145.83774063675904L285.00333309173584,171.5461278210753L296.40346641540526,177.62794843696997L319.20373306274416,193.519103801039L342.003999710083,206.72655571004896L364.80426635742185,225.41668856115135L399.0046663284302,248.63178663075593L570.0066661834717,253.1099673823352L592.8069328308105,279.2872503990112L866.4101325988769,292.1414434422774" fill="none"></path></g><g><path style="fill: none;" stroke="rgb(187, 187, 187)" stroke-width="2px" d="M114.00133323669434,86.13123793632957L125.40146656036376,107.8142639095326L159.60186653137208,117.39532561190936L182.40213317871093,123.16133006293046L193.80226650238038,134.49953059052277L205.2023998260498,137.21136250851455L216.60253314971922,160.42645592085444L273.6031997680664,175.55768842239286L307.80359973907474,179.74371862621953L319.20373306274416,181.90703174962977L330.6038663864136,212.56249551788514" fill="none"></path></g><g><path style="fill: none;" stroke="rgb(238, 51, 119)" stroke-width="2px" d="M114.00133323669434,73.9874800196385L125.40146656036376,103.84407135016363L171.0019998550415,113.0189637450934L342.003999710083,140.00180082892288L433.20506629943844,163.99218465899452L444.6051996231079,165.82582839518258L456.00533294677734,203.93611738964063" fill="none"></path></g><g><path style="fill: none;" stroke="rgb(51, 187, 238)" stroke-width="2px" d="M114.00133323669434,76.15079304645371L125.40146656036376,99.10107351405651L136.8015998840332,107.8142639095326L171.0019998550415,108.83293354126675L205.2023998260498,123.16133006293046L239.4027997970581,125.5680399107095L273.6031997680664,126.79434891991286L285.00333309173584,131.86201276388954L296.40346641540526,147.35373074905442L307.80359973907474,169.6013469248145L387.60453300476075,171.5461278210753L399.0046663284302,193.519103801039L524.406132888794,203.93611738964063L1083.0126657485962,209.6003028087059" fill="none"></path></g><g><path style="fill: none;" stroke="rgb(204, 51, 17)" stroke-width="2px" d="M114.00133323669434,84.5268111738344L125.40146656036376,98.17988576550692L136.8015998840332,121.98016945937661L159.60186653137208,137.21136250851455L672.6078660964965,141.42795105365008L820.8095993041992,145.83774063675904L843.6098659515382,169.6013469248145" fill="none"></path></g><g><path style="fill: none;" stroke="rgb(238, 51, 119)" stroke-width="2px" d="M114.00133323669434,58.843285029583456L125.40146656036376,100.97032416627576L148.20173320770263,120.81332629334884L159.60186653137208,123.16133006293046L171.0019998550415,126.79434891991286L193.80226650238038,135.8459015512799L205.2023998260498,158.6919336800252L296.40346641540526,167.6950790474019" fill="none"></path></g><g><path style="fill: none;" stroke="rgb(51, 187, 238)" stroke-width="2px" d="M114.00133323669434,73.9874800196385L125.40146656036376,94.5808247630041L136.8015998840332,100.03116175694163L148.20173320770263,119.66045762008304L262.203066444397,126.79434891991286L387.60453300476075,147.35373074905442L399.0046663284302,153.66835652903046L421.8049329757691,156.98811253609622L444.6051996231079,162.19280599637915L456.00533294677734,196.01959201136586L638.4074661254883,201.22428547164887L741.0086660385132,215.6187325879609L752.4087993621827,218.7751917262114L809.4094659805298,228.91756087750525L843.6098659515382,240.25577092374152L855.0099992752075,262.744346892492L957.6111991882324,273.45131059117506L991.8115991592407,324.53142847333635" fill="none"></path></g><g><path style="fill: none;" stroke="rgb(204, 51, 17)" stroke-width="2px" d="M114.00133323669434,87.76286944464317L125.40146656036376,110.90319355584387L250.80293312072752,128.0364743361714L273.6031997680664,145.83774063675904L285.00333309173584,147.35373074905442L513.0059995651245,165.82582839518258L638.4074661254883,175.55768842239286L649.8075994491577,218.7751917262114L661.2077327728272,285.4999466073375L1071.6125324249267,299.2753381574348L1128.6131990432739,306.9805258048676" fill="none"></path></g><g><path style="fill: none;" stroke="rgb(0, 119, 187)" stroke-width="2px" d="M114.00133323669434,80.62897586792832L125.40146656036376,98.17988576550692L136.8015998840332,103.84407135016363L159.60186653137208,110.90319355584387L193.80226650238038,116.28244177079802L205.2023998260498,140.00180082892288L216.60253314971922,145.83774063675904L250.80293312072752,163.99218465899452L262.203066444397,167.6950790474019L456.00533294677734,181.90703174962977L501.60586624145503,191.08191871108414L741.0086660385132,193.519103801039" fill="none"></path></g><g><path style="fill: none;" stroke="rgb(255, 112, 67)" stroke-width="2px" d="M114.00133323669434,74.70319617252403L125.40146656036376,114.09454346237118L216.60253314971922,137.21136250851455L228.00266647338867,181.90703174962977L262.203066444397,188.70492434050266L638.4074661254883,198.58676764501564L786.6091993331909,232.5505832763087" fill="none"></path></g></g></g></g></g></g><g transform="translate(49, 378)" clip-path="url(#clip_1)"><clipPath id="clip_1"><rect width="1368" height="21"></rect></clipPath><g><g><line x1="0" y1="0" x2="0" y2="5" style="visibility: inherit;" fill="rgb(0, 0, 0)" stroke="rgb(204, 204, 204)" stroke-width="1px"></line><line x1="114.00133323669434" y1="0" x2="114.00133323669434" y2="5" style="visibility: inherit;" fill="rgb(0, 0, 0)" stroke="rgb(204, 204, 204)" stroke-width="1px"></line><line x1="228.00266647338867" y1="0" x2="228.00266647338867" y2="5" style="visibility: inherit;" fill="rgb(0, 0, 0)" stroke="rgb(204, 204, 204)" stroke-width="1px"></line><line x1="342.003999710083" y1="0" x2="342.003999710083" y2="5" style="visibility: inherit;" fill="rgb(0, 0, 0)" stroke="rgb(204, 204, 204)" stroke-width="1px"></line><line x1="456.00533294677734" y1="0" x2="456.00533294677734" y2="5" style="visibility: inherit;" fill="rgb(0, 0, 0)" stroke="rgb(204, 204, 204)" stroke-width="1px"></line><line x1="570.0066661834717" y1="0" x2="570.0066661834717" y2="5" style="visibility: inherit;" fill="rgb(0, 0, 0)" stroke="rgb(204, 204, 204)" stroke-width="1px"></line><line x1="684.007999420166" y1="0" x2="684.007999420166" y2="5" style="visibility: inherit;" fill="rgb(0, 0, 0)" stroke="rgb(204, 204, 204)" stroke-width="1px"></line><line x1="798.0093326568604" y1="0" x2="798.0093326568604" y2="5" style="visibility: inherit;" fill="rgb(0, 0, 0)" stroke="rgb(204, 204, 204)" stroke-width="1px"></line><line x1="912.0106658935547" y1="0" x2="912.0106658935547" y2="5" style="visibility: inherit;" fill="rgb(0, 0, 0)" stroke="rgb(204, 204, 204)" stroke-width="1px"></line><line x1="1026.011999130249" y1="0" x2="1026.011999130249" y2="5" style="visibility: inherit;" fill="rgb(0, 0, 0)" stroke="rgb(204, 204, 204)" stroke-width="1px"></line><line x1="1140.0133323669434" y1="0" x2="1140.0133323669434" y2="5" style="visibility: inherit;" fill="rgb(0, 0, 0)" stroke="rgb(204, 204, 204)" stroke-width="1px"></line><line x1="1254.0146656036377" y1="0" x2="1254.0146656036377" y2="5" style="visibility: inherit;" fill="rgb(0, 0, 0)" stroke="rgb(204, 204, 204)" stroke-width="1px"></line><line x1="1368.015998840332" y1="0" x2="1368.015998840332" y2="5" style="visibility: inherit;" fill="rgb(0, 0, 0)" stroke="rgb(204, 204, 204)" stroke-width="1px"></line></g><g transform="translate(0, 8)"><text style="text-anchor: middle; visibility: hidden; font-family: &quot;Helvetica Neue&quot;, sans-serif; font-size: 12px; font-weight: 200;" x="0" y="0" dx="0em" dy="0.95em" fill="rgb(50, 49, 63)" stroke="none" stroke-width="1px">-100</text><text style="text-anchor: middle; visibility: inherit; font-family: &quot;Helvetica Neue&quot;, sans-serif; font-size: 12px; font-weight: 200;" x="114.00133323669434" y="0" dx="0em" dy="0.95em" fill="rgb(50, 49, 63)" stroke="none" stroke-width="1px">0</text><text style="text-anchor: middle; visibility: inherit; font-family: &quot;Helvetica Neue&quot;, sans-serif; font-size: 12px; font-weight: 200;" x="228.00266647338867" y="0" dx="0em" dy="0.95em" fill="rgb(50, 49, 63)" stroke="none" stroke-width="1px">100</text><text style="text-anchor: middle; visibility: inherit; font-family: &quot;Helvetica Neue&quot;, sans-serif; font-size: 12px; font-weight: 200;" x="342.003999710083" y="0" dx="0em" dy="0.95em" fill="rgb(50, 49, 63)" stroke="none" stroke-width="1px">200</text><text style="text-anchor: middle; visibility: inherit; font-family: &quot;Helvetica Neue&quot;, sans-serif; font-size: 12px; font-weight: 200;" x="456.00533294677734" y="0" dx="0em" dy="0.95em" fill="rgb(50, 49, 63)" stroke="none" stroke-width="1px">300</text><text style="text-anchor: middle; visibility: inherit; font-family: &quot;Helvetica Neue&quot;, sans-serif; font-size: 12px; font-weight: 200;" x="570.0066661834717" y="0" dx="0em" dy="0.95em" fill="rgb(50, 49, 63)" stroke="none" stroke-width="1px">400</text><text style="text-anchor: middle; visibility: inherit; font-family: &quot;Helvetica Neue&quot;, sans-serif; font-size: 12px; font-weight: 200;" x="684.007999420166" y="0" dx="0em" dy="0.95em" fill="rgb(50, 49, 63)" stroke="none" stroke-width="1px">500</text><text style="text-anchor: middle; visibility: inherit; font-family: &quot;Helvetica Neue&quot;, sans-serif; font-size: 12px; font-weight: 200;" x="798.0093326568604" y="0" dx="0em" dy="0.95em" fill="rgb(50, 49, 63)" stroke="none" stroke-width="1px">600</text><text style="text-anchor: middle; visibility: inherit; font-family: &quot;Helvetica Neue&quot;, sans-serif; font-size: 12px; font-weight: 200;" x="912.0106658935547" y="0" dx="0em" dy="0.95em" fill="rgb(50, 49, 63)" stroke="none" stroke-width="1px">700</text><text style="text-anchor: middle; visibility: inherit; font-family: &quot;Helvetica Neue&quot;, sans-serif; font-size: 12px; font-weight: 200;" x="1026.011999130249" y="0" dx="0em" dy="0.95em" fill="rgb(50, 49, 63)" stroke="none" stroke-width="1px">800</text><text style="text-anchor: middle; visibility: inherit; font-family: &quot;Helvetica Neue&quot;, sans-serif; font-size: 12px; font-weight: 200;" x="1140.0133323669434" y="0" dx="0em" dy="0.95em" fill="rgb(50, 49, 63)" stroke="none" stroke-width="1px">900</text><text style="text-anchor: middle; visibility: inherit; font-family: &quot;Helvetica Neue&quot;, sans-serif; font-size: 12px; font-weight: 200;" x="1254.0146656036377" y="0" dx="0em" dy="0.95em" fill="rgb(50, 49, 63)" stroke="none" stroke-width="1px">1k</text><text style="text-anchor: middle; visibility: hidden; font-family: &quot;Helvetica Neue&quot;, sans-serif; font-size: 12px; font-weight: 200;" x="1368.015998840332" y="0" dx="0em" dy="0.95em" fill="rgb(50, 49, 63)" stroke="none" stroke-width="1px">1.1k</text></g><line x1="0" y1="0" x2="1368.015998840332" y2="0" fill="rgb(0, 0, 0)" stroke="rgb(204, 204, 204)" stroke-width="1px"></line></g></g></g></g></svg>