<svg viewBox="0 0 1630.683349609375 400" xmlns="http://www.w3.org/2000/svg"><g><g><g><g><g><line x1="49.98400115966797" y1="350.93620404289817" x2="44.98400115966797" y2="350.93620404289817" style="visibility: inherit;" fill="rgb(0, 0, 0)" stroke="rgb(204, 204, 204)" stroke-width="1px"></line><line x1="49.98400115966797" y1="326.11959390683865" x2="44.98400115966797" y2="326.11959390683865" style="visibility: inherit;" fill="rgb(0, 0, 0)" stroke="rgb(204, 204, 204)" stroke-width="1px"></line><line x1="49.98400115966797" y1="306.87033561922425" x2="44.98400115966797" y2="306.87033561922425" style="visibility: inherit;" fill="rgb(0, 0, 0)" stroke="rgb(204, 204, 204)" stroke-width="1px"></line><line x1="49.98400115966797" y1="291.1425464115273" x2="44.98400115966797" y2="291.1425464115273" style="visibility: inherit;" fill="rgb(0, 0, 0)" stroke="rgb(204, 204, 204)" stroke-width="1px"></line><line x1="49.98400115966797" y1="277.8448901103242" x2="44.98400115966797" y2="277.8448901103242" style="visibility: inherit;" fill="rgb(0, 0, 0)" stroke="rgb(204, 204, 204)" stroke-width="1px"></line><line x1="49.98400115966797" y1="266.3259362754678" x2="44.98400115966797" y2="266.3259362754678" style="visibility: inherit;" fill="rgb(0, 0, 0)" stroke="rgb(204, 204, 204)" stroke-width="1px"></line><line x1="49.98400115966797" y1="256.165498916216" x2="44.98400115966797" y2="256.165498916216" style="visibility: inherit;" fill="rgb(0, 0, 0)" stroke="rgb(204, 204, 204)" stroke-width="1px"></line><line x1="49.98400115966797" y1="247.0766779878534" x2="44.98400115966797" y2="247.0766779878534" style="visibility: inherit;" fill="rgb(0, 0, 0)" stroke="rgb(204, 204, 204)" stroke-width="1px"></line><line x1="49.98400115966797" y1="187.28302035648255" x2="44.98400115966797" y2="187.28302035648255" style="visibility: inherit;" fill="rgb(0, 0, 0)" stroke="rgb(204, 204, 204)" stroke-width="1px"></line><line x1="49.98400115966797" y1="152.30597286117117" x2="44.98400115966797" y2="152.30597286117117" style="visibility: inherit;" fill="rgb(0, 0, 0)" stroke="rgb(204, 204, 204)" stroke-width="1px"></line><line x1="49.98400115966797" y1="127.48936272511168" x2="44.98400115966797" y2="127.48936272511168" style="visibility: inherit;" fill="rgb(0, 0, 0)" stroke="rgb(204, 204, 204)" stroke-width="1px"></line><line x1="49.98400115966797" y1="108.24010443749728" x2="44.98400115966797" y2="108.24010443749728" style="visibility: inherit;" fill="rgb(0, 0, 0)" stroke="rgb(204, 204, 204)" stroke-width="1px"></line><line x1="49.98400115966797" y1="92.51231522980032" x2="44.98400115966797" y2="92.51231522980032" style="visibility: inherit;" fill="rgb(0, 0, 0)" stroke="rgb(204, 204, 204)" stroke-width="1px"></line><line x1="49.98400115966797" y1="79.2146589285972" x2="44.98400115966797" y2="79.2146589285972" style="visibility: inherit;" fill="rgb(0, 0, 0)" stroke="rgb(204, 204, 204)" stroke-width="1px"></line><line x1="49.98400115966797" y1="67.6957050937408" x2="44.98400115966797" y2="67.6957050937408" style="visibility: inherit;" fill="rgb(0, 0, 0)" stroke="rgb(204, 204, 204)" stroke-width="1px"></line><line x1="49.98400115966797" y1="57.535267734489025" x2="44.98400115966797" y2="57.535267734489025" style="visibility: inherit;" fill="rgb(0, 0, 0)" stroke="rgb(204, 204, 204)" stroke-width="1px"></line><line x1="49.98400115966797" y1="48.4464468061264" x2="44.98400115966797" y2="48.4464468061264" style="visibility: inherit;" fill="rgb(0, 0, 0)" stroke="rgb(204, 204, 204)" stroke-width="1px"></line></g><g transform="translate(39.98400115966797, 0)"><text style="text-anchor: end; visibility: inherit; font-family: &quot;Helvetica Neue&quot;, sans-serif; font-size: 12px; font-weight: 200;" x="0" y="350.93620404289817" dx="0em" dy="0.3em" fill="rgb(50, 49, 63)" stroke="none" stroke-width="1px">0.03</text><text style="text-anchor: end; visibility: hidden; font-family: &quot;Helvetica Neue&quot;, sans-serif; font-size: 12px; font-weight: 200;" x="0" y="326.11959390683865" dx="0em" dy="0.3em" fill="rgb(50, 49, 63)" stroke="none" stroke-width="1px">0.04</text><text style="text-anchor: end; visibility: hidden; font-family: &quot;Helvetica Neue&quot;, sans-serif; font-size: 12px; font-weight: 200;" x="0" y="306.87033561922425" dx="0em" dy="0.3em" fill="rgb(50, 49, 63)" stroke="none" stroke-width="1px">0.05</text><text style="text-anchor: end; visibility: inherit; font-family: &quot;Helvetica Neue&quot;, sans-serif; font-size: 12px; font-weight: 200;" x="0" y="291.1425464115273" dx="0em" dy="0.3em" fill="rgb(50, 49, 63)" stroke="none" stroke-width="1px">0.06</text><text style="text-anchor: end; visibility: hidden; font-family: &quot;Helvetica Neue&quot;, sans-serif; font-size: 12px; font-weight: 200;" x="0" y="277.8448901103242" dx="0em" dy="0.3em" fill="rgb(50, 49, 63)" stroke="none" stroke-width="1px">0.07</text><text style="text-anchor: end; visibility: hidden; font-family: &quot;Helvetica Neue&quot;, sans-serif; font-size: 12px; font-weight: 200;" x="0" y="266.3259362754678" dx="0em" dy="0.3em" fill="rgb(50, 49, 63)" stroke="none" stroke-width="1px">0.08</text><text style="text-anchor: end; visibility: inherit; font-family: &quot;Helvetica Neue&quot;, sans-serif; font-size: 12px; font-weight: 200;" x="0" y="256.165498916216" dx="0em" dy="0.3em" fill="rgb(50, 49, 63)" stroke="none" stroke-width="1px">0.09</text><text style="text-anchor: end; visibility: hidden; font-family: &quot;Helvetica Neue&quot;, sans-serif; font-size: 12px; font-weight: 200;" x="0" y="247.0766779878534" dx="0em" dy="0.3em" fill="rgb(50, 49, 63)" stroke="none" stroke-width="1px">0.1</text><text style="text-anchor: end; visibility: hidden; font-family: &quot;Helvetica Neue&quot;, sans-serif; font-size: 12px; font-weight: 200;" x="0" y="187.28302035648255" dx="0em" dy="0.3em" fill="rgb(50, 49, 63)" stroke="none" stroke-width="1px">0.2</text><text style="text-anchor: end; visibility: inherit; font-family: &quot;Helvetica Neue&quot;, sans-serif; font-size: 12px; font-weight: 200;" x="0" y="152.30597286117117" dx="0em" dy="0.3em" fill="rgb(50, 49, 63)" stroke="none" stroke-width="1px">0.3</text><text style="text-anchor: end; visibility: hidden; font-family: &quot;Helvetica Neue&quot;, sans-serif; font-size: 12px; font-weight: 200;" x="0" y="127.48936272511168" dx="0em" dy="0.3em" fill="rgb(50, 49, 63)" stroke="none" stroke-width="1px">0.4</text><text style="text-anchor: end; visibility: hidden; font-family: &quot;Helvetica Neue&quot;, sans-serif; font-size: 12px; font-weight: 200;" x="0" y="108.24010443749728" dx="0em" dy="0.3em" fill="rgb(50, 49, 63)" stroke="none" stroke-width="1px">0.5</text><text style="text-anchor: end; visibility: inherit; font-family: &quot;Helvetica Neue&quot;, sans-serif; font-size: 12px; font-weight: 200;" x="0" y="92.51231522980032" dx="0em" dy="0.3em" fill="rgb(50, 49, 63)" stroke="none" stroke-width="1px">0.6</text><text style="text-anchor: end; visibility: hidden; font-family: &quot;Helvetica Neue&quot;, sans-serif; font-size: 12px; font-weight: 200;" x="0" y="79.2146589285972" dx="0em" dy="0.3em" fill="rgb(50, 49, 63)" stroke="none" stroke-width="1px">0.7</text><text style="text-anchor: end; visibility: hidden; font-family: &quot;Helvetica Neue&quot;, sans-serif; font-size: 12px; font-weight: 200;" x="0" y="67.6957050937408" dx="0em" dy="0.3em" fill="rgb(50, 49, 63)" stroke="none" stroke-width="1px">0.8</text><text style="text-anchor: end; visibility: inherit; font-family: &quot;Helvetica Neue&quot;, sans-serif; font-size: 12px; font-weight: 200;" x="0" y="57.535267734489025" dx="0em" dy="0.3em" fill="rgb(50, 49, 63)" stroke="none" stroke-width="1px">0.9</text><text style="text-anchor: end; visibility: hidden; font-family: &quot;Helvetica Neue&quot;, sans-serif; font-size: 12px; font-weight: 200;" x="0" y="48.4464468061264" dx="0em" dy="0.3em" fill="rgb(50, 49, 63)" stroke="none" stroke-width="1px">1</text></g><line x1="49.98400115966797" y1="0" x2="49.98400115966797" y2="378.5999994277954" fill="rgb(0, 0, 0)" stroke="rgb(204, 204, 204)" stroke-width="1px"></line></g></g><g transform="translate(49, 0)" clip-path="url(#clip_0)"><clipPath id="clip_0"><rect width="1580" height="378"></rect></clipPath><g><g><g><line x1="0" y1="0" x2="0" y2="378.5999994277954" fill="rgb(0, 0, 0)" stroke="rgb(60, 60, 60)" stroke-width="1px" opacity="0.25"></line><line x1="197.5869998550415" y1="0" x2="197.5869998550415" y2="378.5999994277954" fill="rgb(0, 0, 0)" stroke="rgb(60, 60, 60)" stroke-width="1px" opacity="0.25"></line><line x1="395.173999710083" y1="0" x2="395.173999710083" y2="378.5999994277954" fill="rgb(0, 0, 0)" stroke="rgb(60, 60, 60)" stroke-width="1px" opacity="0.25"></line><line x1="592.7609995651245" y1="0" x2="592.7609995651245" y2="378.5999994277954" fill="rgb(0, 0, 0)" stroke="rgb(60, 60, 60)" stroke-width="1px" opacity="0.25"></line><line x1="790.347999420166" y1="0" x2="790.347999420166" y2="378.5999994277954" fill="rgb(0, 0, 0)" stroke="rgb(60, 60, 60)" stroke-width="1px" opacity="0.25"></line><line x1="987.9349992752076" y1="0" x2="987.9349992752076" y2="378.5999994277954" fill="rgb(0, 0, 0)" stroke="rgb(60, 60, 60)" stroke-width="1px" opacity="0.25"></line><line x1="1185.521999130249" y1="0" x2="1185.521999130249" y2="378.5999994277954" fill="rgb(0, 0, 0)" stroke="rgb(60, 60, 60)" stroke-width="1px" opacity="0.25"></line><line x1="1383.1089989852906" y1="0" x2="1383.1089989852906" y2="378.5999994277954" fill="rgb(0, 0, 0)" stroke="rgb(60, 60, 60)" stroke-width="1px" opacity="0.25"></line><line x1="1580.695998840332" y1="0" x2="1580.695998840332" y2="378.5999994277954" fill="rgb(0, 0, 0)" stroke="rgb(60, 60, 60)" stroke-width="1px" opacity="0.25"></line></g><g><line x1="0" y1="350.93620404289817" x2="1580.695998840332" y2="350.93620404289817" fill="rgb(0, 0, 0)" stroke="rgb(60, 60, 60)" stroke-width="1px" opacity="0.25"></line><line x1="0" y1="326.11959390683865" x2="1580.695998840332" y2="326.11959390683865" fill="rgb(0, 0, 0)" stroke="rgb(60, 60, 60)" stroke-width="1px" opacity="0.25"></line><line x1="0" y1="306.87033561922425" x2="1580.695998840332" y2="306.87033561922425" fill="rgb(0, 0, 0)" stroke="rgb(60, 60, 60)" stroke-width="1px" opacity="0.25"></line><line x1="0" y1="291.1425464115273" x2="1580.695998840332" y2="291.1425464115273" fill="rgb(0, 0, 0)" stroke="rgb(60, 60, 60)" stroke-width="1px" opacity="0.25"></line><line x1="0" y1="277.8448901103242" x2="1580.695998840332" y2="277.8448901103242" fill="rgb(0, 0, 0)" stroke="rgb(60, 60, 60)" stroke-width="1px" opacity="0.25"></line><line x1="0" y1="266.3259362754678" x2="1580.695998840332" y2="266.3259362754678" fill="rgb(0, 0, 0)" stroke="rgb(60, 60, 60)" stroke-width="1px" opacity="0.25"></line><line x1="0" y1="256.165498916216" x2="1580.695998840332" y2="256.165498916216" fill="rgb(0, 0, 0)" stroke="rgb(60, 60, 60)" stroke-width="1px" opacity="0.25"></line><line x1="0" y1="247.0766779878534" x2="1580.695998840332" y2="247.0766779878534" fill="rgb(0, 0, 0)" stroke="rgb(60, 60, 60)" stroke-width="1px" opacity="0.25"></line><line x1="0" y1="187.28302035648255" x2="1580.695998840332" y2="187.28302035648255" fill="rgb(0, 0, 0)" stroke="rgb(60, 60, 60)" stroke-width="1px" opacity="0.25"></line><line x1="0" y1="152.30597286117117" x2="1580.695998840332" y2="152.30597286117117" fill="rgb(0, 0, 0)" stroke="rgb(60, 60, 60)" stroke-width="1px" opacity="0.25"></line><line x1="0" y1="127.48936272511168" x2="1580.695998840332" y2="127.48936272511168" fill="rgb(0, 0, 0)" stroke="rgb(60, 60, 60)" stroke-width="1px" opacity="0.25"></line><line x1="0" y1="108.24010443749728" x2="1580.695998840332" y2="108.24010443749728" fill="rgb(0, 0, 0)" stroke="rgb(60, 60, 60)" stroke-width="1px" opacity="0.25"></line><line x1="0" y1="92.51231522980032" x2="1580.695998840332" y2="92.51231522980032" fill="rgb(0, 0, 0)" stroke="rgb(60, 60, 60)" stroke-width="1px" opacity="0.25"></line><line x1="0" y1="79.2146589285972" x2="1580.695998840332" y2="79.2146589285972" fill="rgb(0, 0, 0)" stroke="rgb(60, 60, 60)" stroke-width="1px" opacity="0.25"></line><line x1="0" y1="67.6957050937408" x2="1580.695998840332" y2="67.6957050937408" fill="rgb(0, 0, 0)" stroke="rgb(60, 60, 60)" stroke-width="1px" opacity="0.25"></line><line x1="0" y1="57.535267734489025" x2="1580.695998840332" y2="57.535267734489025" fill="rgb(0, 0, 0)" stroke="rgb(60, 60, 60)" stroke-width="1px" opacity="0.25"></line><line x1="0" y1="48.4464468061264" x2="1580.695998840332" y2="48.4464468061264" fill="rgb(0, 0, 0)" stroke="rgb(60, 60, 60)" stroke-width="1px" opacity="0.25"></line></g></g></g><g><g><line x1="197.5869998550415" y1="0" x2="197.5869998550415" y2="378.5999994277954" fill="rgb(0, 0, 0)" stroke="rgb(153, 153, 153)" stroke-width="1.5px"></line></g></g><g><g><g><g><g><path style="fill: none;" stroke="rgb(51, 187, 238)" stroke-width="2px" d="M1195.4013491230012,292.0458438454521L1256.653319078064,292.75818424189833L1260.6050590751647,296.5633149918459L1483.8783689113618,305.9143011387538" fill="none"></path></g><g><path style="fill: none;" stroke="rgb(204, 51, 17)" stroke-width="2px" d="M197.5869998550415,75.90912132105001L199.56286985359193,84.04066738857483L201.53873985214236,89.9668195073674L203.51460985069275,94.44114536701989L205.49047984924317,98.36607546675441L207.4663498477936,102.21390997994263L209.44221984634402,106.19988915115471L211.41808984489444,108.99286363601465L213.39395984344483,111.98002464380409L215.36982984199526,115.91150333500826L217.34569984054568,118.9538072124343L223.2733098361969,122.02081469424434L225.2491798347473,124.88690938195862L227.22504983329773,129.9875504545403L229.20091983184813,133.99261184118978L231.17678983039855,138.68442917700128L233.15265982894897,142.82562737204998L235.1285298274994,147.93425359677352L237.10439982604981,151.86318055765705L239.08026982460024,154.95546712557666L245.00787982025147,159.36443986148598L248.95961981735232,162.9314413727792L250.9354898159027,166.0882809935797L254.88722981300356,171.67347373652322L270.6941898014069,176.14939283475988L278.5976697956085,179.56489720775969L282.54940979270935,183.59685946115383L286.5011497898102,188.53693728749317L296.38049978256225,192.06911644082587L298.3563697811127,195.88272819475245L314.163329769516,198.40774100107058L318.11506976661684,200.7431719243213L329.9702897579193,202.496364788041L341.8255097492218,203.72858234516235L347.75311974487306,206.81099214893032L369.48768972892765,210.28413210122315L383.31877971878055,213.34403839154436L410.98095969848634,218.46133117976612L420.8603096912384,223.3058993682224L440.61900967674256,228.93106119488004L452.47422966804504,235.738414120875L456.4259696651459,244.16914728050077L458.40183966369625,250.21103691634724L468.2811896564484,259.790304777045L472.23292965354926,267.79084098301513L476.18466965065005,274.4416935804863L503.84684963035585,281.459403080675L531.5090296100617,291.1942698432439L559.1712095897675,301.0686306843447L618.4473095462799,308.67993385544764L693.5303694911956,315.9548786192881L1057.090449224472,324.51428522382463" fill="none"></path></g><g><path style="fill: none;" stroke="rgb(51, 187, 238)" stroke-width="2px" d="M197.5869998550415,70.60857016842033L199.56286985359193,77.64054236774979L201.53873985214236,86.33636067856315L203.51460985069275,93.81086465561242L205.49047984924317,99.08910283364975L207.4663498477936,104.5816394179331L209.44221984634402,108.92792362099806L211.41808984489444,113.69582412725407L213.39395984344483,116.81359471639121L215.36982984199526,119.5805290628926L217.34569984054568,123.11792491431817L219.3215698390961,127.77508664773879L221.29743983764652,136.70583477944376L223.2733098361969,142.9387179733219L225.2491798347473,150.43689986906907L231.17678983039855,159.75430396735462L235.1285298274994,166.28937032188006L248.95961981735232,173.16528490124384L256.863099811554,177.9318805768447L258.8389698101044,184.11193921699717L264.76657980575567,188.1802465708247L300.3322397796631,191.70404032562263L304.28397977676394,197.3030587503034L343.8013797477722,201.6379251234872L410.98095969848634,204.8416237641555L476.18466965065005,207.84287495325836L535.4607696071625,209.87001128161364L549.2918595970153,212.18219590237757L561.1470795883179,213.78291505105952L744.9029894535065,215.68951796766865L754.7823394462586,218.5802949344339L806.1549594085694,221.75813636227159L814.058439402771,225.5934835292551L819.9860493984223,229.72517497381634L825.9136593940734,233.6763831691721L837.7688793853761,242.54324914095463L851.5999693752289,248.8854851267683L859.5034493694305,253.7972881243428L912.8519393302918,258.40802471665006L922.7312893230438,265.8669409158048L1153.9080791534425,273.18995245480846L1175.642649137497,279.4574181150678" fill="none"></path></g></g></g></g><g opacity="0.2"><g><g><g><path style="fill: none;" stroke="rgb(51, 187, 238)" stroke-width="2px" d="M1195.4013491230012,292.0458438454521L1256.653319078064,293.1884291800549L1260.6050590751647,300.38126021371335L1483.8783689113618,318.389290923148" fill="none"></path></g><g><path style="fill: none;" stroke="rgb(204, 51, 17)" stroke-width="2px" d="M197.5869998550415,75.90912132105001L199.56286985359193,89.31494756749169L201.53873985214236,96.06655495992663L203.51460985069275,100.01826394556446L205.49047984924317,103.77491027121471L207.4663498477936,107.83668255425164L209.44221984634402,112.24027388946405L211.41808984489444,113.23426918493294L213.39395984344483,116.58333946929577L215.36982984199526,122.10121155537081L217.34569984054568,123.6987389390336L223.2733098361969,126.81804660913244L225.2491798347473,129.3628923926045L227.22504983329773,138.24151882530902L229.20091983184813,140.3668360203445L231.17678983039855,146.23464127290106L233.15265982894897,149.43392059842552L235.1285298274994,156.21206636782406L237.10439982604981,158.11327672866037L239.08026982460024,159.8119215769353L245.00787982025147,166.43129253365183L248.95961981735232,168.5746061191478L250.9354898159027,171.0512540713481L254.88722981300356,180.79394495097162L270.6941898014069,183.33130838487048L278.5976697956085,184.95591413782145L282.54940979270935,190.02179314526248L286.5011497898102,196.5217353509551L296.38049978256225,197.65431782374816L298.3563697811127,201.93919160981295L314.163329769516,202.33949089726144L318.11506976661684,204.36932603978403L329.9702897579193,205.19482845405622L341.8255097492218,205.61055309988689L347.75311974487306,211.65150815021272L369.48768972892765,215.77099542699943L383.31877971878055,218.1475648838449L410.98095969848634,226.7557992067437L420.8603096912384,231.12453704971L440.61900967674256,238.1227511516075L452.47422966804504,247.07667670241943L456.4259696651459,258.5956332917772L458.40183966369625,260.14998042178473L468.2811896564484,276.5074331399725L472.23292965354926,281.38240298983874L476.18466965065005,285.4909954762113L503.84684963035585,293.1884291800549L531.5090296100617,308.22884948315345L559.1712095897675,318.389290923148L618.4473095462799,321.52650687255465L693.5303694911956,328.1654766753663L1057.090449224472,339.1928944710479" fill="none"></path></g><g><path style="fill: none;" stroke="rgb(51, 187, 238)" stroke-width="2px" d="M197.5869998550415,70.60857016842033L199.56286985359193,82.15242493554342L201.53873985214236,95.59962908334819L203.51460985069275,103.51931690776405L205.49047984924317,106.5054214227921L207.4663498477936,112.8068671925488L209.44221984634402,115.55022401880251L211.41808984489444,121.15670801225968L213.39395984344483,121.62766712066923L215.36982984199526,123.86012850121699L217.34569984054568,128.67689002017033L219.3215698390961,135.2407317055751L221.29743983764652,152.08161899389938L223.2733098361969,153.20926921262526L225.2491798347473,163.05812653459063L231.17678983039855,175.9327134188732L235.1285298274994,177.1225852824467L248.95961981735232,184.6285348291984L256.863099811554,185.6144174909119L258.8389698101044,194.30022028923324L264.76657980575567,194.66652377685122L300.3322397796631,197.2751405228878L304.28397977676394,206.44807755069493L343.8013797477722,208.57816141262458L410.98095969848634,209.88192112548427L476.18466965065005,212.5500946149148L535.4607696071625,213.00292684399614L549.2918595970153,215.77099542699943L561.1470795883179,216.24110201334952L744.9029894535065,218.63083979027934L754.7823394462586,223.10663217050578L806.1549594085694,226.7557992067437L814.058439402771,231.68651636801607L819.9860493984223,236.3192554547289L825.9136593940734,239.964758574534L837.7688793853761,257.82883408805077L851.5999693752289,259.3693023251527L859.5034493694305,261.7328492411838L912.8519393302918,265.8219565356428L922.7312893230438,278.4244974216502L1153.9080791534425,285.4909954762113L1175.642649137497,289.8050909479113" fill="none"></path></g></g></g></g></g></g><g transform="translate(49, 378)" clip-path="url(#clip_1)"><clipPath id="clip_1"><rect width="1580" height="21"></rect></clipPath><g><g><line x1="0" y1="0" x2="0" y2="5" style="visibility: inherit;" fill="rgb(0, 0, 0)" stroke="rgb(204, 204, 204)" stroke-width="1px"></line><line x1="197.5869998550415" y1="0" x2="197.5869998550415" y2="5" style="visibility: inherit;" fill="rgb(0, 0, 0)" stroke="rgb(204, 204, 204)" stroke-width="1px"></line><line x1="395.173999710083" y1="0" x2="395.173999710083" y2="5" style="visibility: inherit;" fill="rgb(0, 0, 0)" stroke="rgb(204, 204, 204)" stroke-width="1px"></line><line x1="592.7609995651245" y1="0" x2="592.7609995651245" y2="5" style="visibility: inherit;" fill="rgb(0, 0, 0)" stroke="rgb(204, 204, 204)" stroke-width="1px"></line><line x1="790.347999420166" y1="0" x2="790.347999420166" y2="5" style="visibility: inherit;" fill="rgb(0, 0, 0)" stroke="rgb(204, 204, 204)" stroke-width="1px"></line><line x1="987.9349992752076" y1="0" x2="987.9349992752076" y2="5" style="visibility: inherit;" fill="rgb(0, 0, 0)" stroke="rgb(204, 204, 204)" stroke-width="1px"></line><line x1="1185.521999130249" y1="0" x2="1185.521999130249" y2="5" style="visibility: inherit;" fill="rgb(0, 0, 0)" stroke="rgb(204, 204, 204)" stroke-width="1px"></line><line x1="1383.1089989852906" y1="0" x2="1383.1089989852906" y2="5" style="visibility: inherit;" fill="rgb(0, 0, 0)" stroke="rgb(204, 204, 204)" stroke-width="1px"></line><line x1="1580.695998840332" y1="0" x2="1580.695998840332" y2="5" style="visibility: inherit;" fill="rgb(0, 0, 0)" stroke="rgb(204, 204, 204)" stroke-width="1px"></line></g><g transform="translate(0, 8)"><text style="text-anchor: middle; visibility: hidden; font-family: &quot;Helvetica Neue&quot;, sans-serif; font-size: 12px; font-weight: 200;" x="0" y="0" dx="0em" dy="0.95em" fill="rgb(50, 49, 63)" stroke="none" stroke-width="1px">-1k</text><text style="text-anchor: middle; visibility: hidden; font-family: &quot;Helvetica Neue&quot;, sans-serif; font-size: 12px; font-weight: 200;" x="197.5869998550415" y="0" dx="0em" dy="0.95em" fill="rgb(50, 49, 63)" stroke="none" stroke-width="1px">0</text><text style="text-anchor: middle; visibility: hidden; font-family: &quot;Helvetica Neue&quot;, sans-serif; font-size: 12px; font-weight: 200;" x="395.173999710083" y="0" dx="0em" dy="0.95em" fill="rgb(50, 49, 63)" stroke="none" stroke-width="1px">1k</text><text style="text-anchor: middle; visibility: hidden; font-family: &quot;Helvetica Neue&quot;, sans-serif; font-size: 12px; font-weight: 200;" x="592.7609995651245" y="0" dx="0em" dy="0.95em" fill="rgb(50, 49, 63)" stroke="none" stroke-width="1px">2k</text><text style="text-anchor: middle; visibility: hidden; font-family: &quot;Helvetica Neue&quot;, sans-serif; font-size: 12px; font-weight: 200;" x="790.347999420166" y="0" dx="0em" dy="0.95em" fill="rgb(50, 49, 63)" stroke="none" stroke-width="1px">3k</text><text style="text-anchor: middle; visibility: hidden; font-family: &quot;Helvetica Neue&quot;, sans-serif; font-size: 12px; font-weight: 200;" x="987.9349992752076" y="0" dx="0em" dy="0.95em" fill="rgb(50, 49, 63)" stroke="none" stroke-width="1px">4k</text><text style="text-anchor: middle; visibility: hidden; font-family: &quot;Helvetica Neue&quot;, sans-serif; font-size: 12px; font-weight: 200;" x="1185.521999130249" y="0" dx="0em" dy="0.95em" fill="rgb(50, 49, 63)" stroke="none" stroke-width="1px">5k</text><text style="text-anchor: middle; visibility: hidden; font-family: &quot;Helvetica Neue&quot;, sans-serif; font-size: 12px; font-weight: 200;" x="1383.1089989852906" y="0" dx="0em" dy="0.95em" fill="rgb(50, 49, 63)" stroke="none" stroke-width="1px">6k</text><text style="text-anchor: middle; visibility: hidden; font-family: &quot;Helvetica Neue&quot;, sans-serif; font-size: 12px; font-weight: 200;" x="1580.695998840332" y="0" dx="0em" dy="0.95em" fill="rgb(50, 49, 63)" stroke="none" stroke-width="1px">7k</text></g><line x1="0" y1="0" x2="1580.695998840332" y2="0" fill="rgb(0, 0, 0)" stroke="rgb(204, 204, 204)" stroke-width="1px"></line></g></g></g></g></svg>