<svg viewBox="0 0 1418 400" xmlns="http://www.w3.org/2000/svg"><g><g><g><g><g><line x1="49.98400115966797" y1="374.3239806685992" x2="44.98400115966797" y2="374.3239806685992" style="visibility: inherit;" fill="rgb(0, 0, 0)" stroke="rgb(204, 204, 204)" stroke-width="1px"></line><line x1="49.98400115966797" y1="352.29042477959905" x2="44.98400115966797" y2="352.29042477959905" style="visibility: inherit;" fill="rgb(0, 0, 0)" stroke="rgb(204, 204, 204)" stroke-width="1px"></line><line x1="49.98400115966797" y1="336.65736808773016" x2="44.98400115966797" y2="336.65736808773016" style="visibility: inherit;" fill="rgb(0, 0, 0)" stroke="rgb(204, 204, 204)" stroke-width="1px"></line><line x1="49.98400115966797" y1="324.5314272587106" x2="44.98400115966797" y2="324.5314272587106" style="visibility: inherit;" fill="rgb(0, 0, 0)" stroke="rgb(204, 204, 204)" stroke-width="1px"></line><line x1="49.98400115966797" y1="314.62381219873004" x2="44.98400115966797" y2="314.62381219873004" style="visibility: inherit;" fill="rgb(0, 0, 0)" stroke="rgb(204, 204, 204)" stroke-width="1px"></line><line x1="49.98400115966797" y1="306.2470430233287" x2="44.98400115966797" y2="306.2470430233287" style="visibility: inherit;" fill="rgb(0, 0, 0)" stroke="rgb(204, 204, 204)" stroke-width="1px"></line><line x1="49.98400115966797" y1="298.9907555068611" x2="44.98400115966797" y2="298.9907555068611" style="visibility: inherit;" fill="rgb(0, 0, 0)" stroke="rgb(204, 204, 204)" stroke-width="1px"></line><line x1="49.98400115966797" y1="292.59025630972997" x2="44.98400115966797" y2="292.59025630972997" style="visibility: inherit;" fill="rgb(0, 0, 0)" stroke="rgb(204, 204, 204)" stroke-width="1px"></line><line x1="49.98400115966797" y1="286.8648146778416" x2="44.98400115966797" y2="286.8648146778416" style="visibility: inherit;" fill="rgb(0, 0, 0)" stroke="rgb(204, 204, 204)" stroke-width="1px"></line><line x1="49.98400115966797" y1="249.19820209697258" x2="44.98400115966797" y2="249.19820209697258" style="visibility: inherit;" fill="rgb(0, 0, 0)" stroke="rgb(204, 204, 204)" stroke-width="1px"></line><line x1="49.98400115966797" y1="227.16464620797248" x2="44.98400115966797" y2="227.16464620797248" style="visibility: inherit;" fill="rgb(0, 0, 0)" stroke="rgb(204, 204, 204)" stroke-width="1px"></line><line x1="49.98400115966797" y1="211.53158951610357" x2="44.98400115966797" y2="211.53158951610357" style="visibility: inherit;" fill="rgb(0, 0, 0)" stroke="rgb(204, 204, 204)" stroke-width="1px"></line><line x1="49.98400115966797" y1="199.40564868708404" x2="44.98400115966797" y2="199.40564868708404" style="visibility: inherit;" fill="rgb(0, 0, 0)" stroke="rgb(204, 204, 204)" stroke-width="1px"></line><line x1="49.98400115966797" y1="189.49803362710347" x2="44.98400115966797" y2="189.49803362710347" style="visibility: inherit;" fill="rgb(0, 0, 0)" stroke="rgb(204, 204, 204)" stroke-width="1px"></line><line x1="49.98400115966797" y1="181.12126445170207" x2="44.98400115966797" y2="181.12126445170207" style="visibility: inherit;" fill="rgb(0, 0, 0)" stroke="rgb(204, 204, 204)" stroke-width="1px"></line><line x1="49.98400115966797" y1="173.86497693523455" x2="44.98400115966797" y2="173.86497693523455" style="visibility: inherit;" fill="rgb(0, 0, 0)" stroke="rgb(204, 204, 204)" stroke-width="1px"></line><line x1="49.98400115966797" y1="167.46447773810334" x2="44.98400115966797" y2="167.46447773810334" style="visibility: inherit;" fill="rgb(0, 0, 0)" stroke="rgb(204, 204, 204)" stroke-width="1px"></line><line x1="49.98400115966797" y1="161.73903610621502" x2="44.98400115966797" y2="161.73903610621502" style="visibility: inherit;" fill="rgb(0, 0, 0)" stroke="rgb(204, 204, 204)" stroke-width="1px"></line><line x1="49.98400115966797" y1="124.07242352534601" x2="44.98400115966797" y2="124.07242352534601" style="visibility: inherit;" fill="rgb(0, 0, 0)" stroke="rgb(204, 204, 204)" stroke-width="1px"></line><line x1="49.98400115966797" y1="102.03886763634591" x2="44.98400115966797" y2="102.03886763634591" style="visibility: inherit;" fill="rgb(0, 0, 0)" stroke="rgb(204, 204, 204)" stroke-width="1px"></line><line x1="49.98400115966797" y1="86.40581094447697" x2="44.98400115966797" y2="86.40581094447697" style="visibility: inherit;" fill="rgb(0, 0, 0)" stroke="rgb(204, 204, 204)" stroke-width="1px"></line><line x1="49.98400115966797" y1="74.27987011545747" x2="44.98400115966797" y2="74.27987011545747" style="visibility: inherit;" fill="rgb(0, 0, 0)" stroke="rgb(204, 204, 204)" stroke-width="1px"></line><line x1="49.98400115966797" y1="64.37225505547684" x2="44.98400115966797" y2="64.37225505547684" style="visibility: inherit;" fill="rgb(0, 0, 0)" stroke="rgb(204, 204, 204)" stroke-width="1px"></line><line x1="49.98400115966797" y1="55.995485880075535" x2="44.98400115966797" y2="55.995485880075535" style="visibility: inherit;" fill="rgb(0, 0, 0)" stroke="rgb(204, 204, 204)" stroke-width="1px"></line><line x1="49.98400115966797" y1="48.739198363607954" x2="44.98400115966797" y2="48.739198363607954" style="visibility: inherit;" fill="rgb(0, 0, 0)" stroke="rgb(204, 204, 204)" stroke-width="1px"></line><line x1="49.98400115966797" y1="42.33869916647677" x2="44.98400115966797" y2="42.33869916647677" style="visibility: inherit;" fill="rgb(0, 0, 0)" stroke="rgb(204, 204, 204)" stroke-width="1px"></line><line x1="49.98400115966797" y1="36.613257534588456" x2="44.98400115966797" y2="36.613257534588456" style="visibility: inherit;" fill="rgb(0, 0, 0)" stroke="rgb(204, 204, 204)" stroke-width="1px"></line></g><g transform="translate(39.98400115966797, 0)"><text style="text-anchor: end; visibility: hidden; font-family: &quot;Helvetica Neue&quot;, sans-serif; font-size: 12px; font-weight: 200;" x="0" y="374.3239806685992" dx="0em" dy="0.3em" fill="rgb(50, 49, 63)" stroke="none" stroke-width="1px">2e-3</text><text style="text-anchor: end; visibility: inherit; font-family: &quot;Helvetica Neue&quot;, sans-serif; font-size: 12px; font-weight: 200;" x="0" y="352.29042477959905" dx="0em" dy="0.3em" fill="rgb(50, 49, 63)" stroke="none" stroke-width="1px">3e-3</text><text style="text-anchor: end; visibility: hidden; font-family: &quot;Helvetica Neue&quot;, sans-serif; font-size: 12px; font-weight: 200;" x="0" y="336.65736808773016" dx="0em" dy="0.3em" fill="rgb(50, 49, 63)" stroke="none" stroke-width="1px">4e-3</text><text style="text-anchor: end; visibility: hidden; font-family: &quot;Helvetica Neue&quot;, sans-serif; font-size: 12px; font-weight: 200;" x="0" y="324.5314272587106" dx="0em" dy="0.3em" fill="rgb(50, 49, 63)" stroke="none" stroke-width="1px">5e-3</text><text style="text-anchor: end; visibility: hidden; font-family: &quot;Helvetica Neue&quot;, sans-serif; font-size: 12px; font-weight: 200;" x="0" y="314.62381219873004" dx="0em" dy="0.3em" fill="rgb(50, 49, 63)" stroke="none" stroke-width="1px">6e-3</text><text style="text-anchor: end; visibility: inherit; font-family: &quot;Helvetica Neue&quot;, sans-serif; font-size: 12px; font-weight: 200;" x="0" y="306.2470430233287" dx="0em" dy="0.3em" fill="rgb(50, 49, 63)" stroke="none" stroke-width="1px">7e-3</text><text style="text-anchor: end; visibility: hidden; font-family: &quot;Helvetica Neue&quot;, sans-serif; font-size: 12px; font-weight: 200;" x="0" y="298.9907555068611" dx="0em" dy="0.3em" fill="rgb(50, 49, 63)" stroke="none" stroke-width="1px">8e-3</text><text style="text-anchor: end; visibility: hidden; font-family: &quot;Helvetica Neue&quot;, sans-serif; font-size: 12px; font-weight: 200;" x="0" y="292.59025630972997" dx="0em" dy="0.3em" fill="rgb(50, 49, 63)" stroke="none" stroke-width="1px">9e-3</text><text style="text-anchor: end; visibility: hidden; font-family: &quot;Helvetica Neue&quot;, sans-serif; font-size: 12px; font-weight: 200;" x="0" y="286.8648146778416" dx="0em" dy="0.3em" fill="rgb(50, 49, 63)" stroke="none" stroke-width="1px">0.01</text><text style="text-anchor: end; visibility: inherit; font-family: &quot;Helvetica Neue&quot;, sans-serif; font-size: 12px; font-weight: 200;" x="0" y="249.19820209697258" dx="0em" dy="0.3em" fill="rgb(50, 49, 63)" stroke="none" stroke-width="1px">0.02</text><text style="text-anchor: end; visibility: hidden; font-family: &quot;Helvetica Neue&quot;, sans-serif; font-size: 12px; font-weight: 200;" x="0" y="227.16464620797248" dx="0em" dy="0.3em" fill="rgb(50, 49, 63)" stroke="none" stroke-width="1px">0.03</text><text style="text-anchor: end; visibility: hidden; font-family: &quot;Helvetica Neue&quot;, sans-serif; font-size: 12px; font-weight: 200;" x="0" y="211.53158951610357" dx="0em" dy="0.3em" fill="rgb(50, 49, 63)" stroke="none" stroke-width="1px">0.04</text><text style="text-anchor: end; visibility: hidden; font-family: &quot;Helvetica Neue&quot;, sans-serif; font-size: 12px; font-weight: 200;" x="0" y="199.40564868708404" dx="0em" dy="0.3em" fill="rgb(50, 49, 63)" stroke="none" stroke-width="1px">0.05</text><text style="text-anchor: end; visibility: inherit; font-family: &quot;Helvetica Neue&quot;, sans-serif; font-size: 12px; font-weight: 200;" x="0" y="189.49803362710347" dx="0em" dy="0.3em" fill="rgb(50, 49, 63)" stroke="none" stroke-width="1px">0.06</text><text style="text-anchor: end; visibility: hidden; font-family: &quot;Helvetica Neue&quot;, sans-serif; font-size: 12px; font-weight: 200;" x="0" y="181.12126445170207" dx="0em" dy="0.3em" fill="rgb(50, 49, 63)" stroke="none" stroke-width="1px">0.07</text><text style="text-anchor: end; visibility: hidden; font-family: &quot;Helvetica Neue&quot;, sans-serif; font-size: 12px; font-weight: 200;" x="0" y="173.86497693523455" dx="0em" dy="0.3em" fill="rgb(50, 49, 63)" stroke="none" stroke-width="1px">0.08</text><text style="text-anchor: end; visibility: hidden; font-family: &quot;Helvetica Neue&quot;, sans-serif; font-size: 12px; font-weight: 200;" x="0" y="167.46447773810334" dx="0em" dy="0.3em" fill="rgb(50, 49, 63)" stroke="none" stroke-width="1px">0.09</text><text style="text-anchor: end; visibility: inherit; font-family: &quot;Helvetica Neue&quot;, sans-serif; font-size: 12px; font-weight: 200;" x="0" y="161.73903610621502" dx="0em" dy="0.3em" fill="rgb(50, 49, 63)" stroke="none" stroke-width="1px">0.1</text><text style="text-anchor: end; visibility: hidden; font-family: &quot;Helvetica Neue&quot;, sans-serif; font-size: 12px; font-weight: 200;" x="0" y="124.07242352534601" dx="0em" dy="0.3em" fill="rgb(50, 49, 63)" stroke="none" stroke-width="1px">0.2</text><text style="text-anchor: end; visibility: hidden; font-family: &quot;Helvetica Neue&quot;, sans-serif; font-size: 12px; font-weight: 200;" x="0" y="102.03886763634591" dx="0em" dy="0.3em" fill="rgb(50, 49, 63)" stroke="none" stroke-width="1px">0.3</text><text style="text-anchor: end; visibility: hidden; font-family: &quot;Helvetica Neue&quot;, sans-serif; font-size: 12px; font-weight: 200;" x="0" y="86.40581094447697" dx="0em" dy="0.3em" fill="rgb(50, 49, 63)" stroke="none" stroke-width="1px">0.4</text><text style="text-anchor: end; visibility: inherit; font-family: &quot;Helvetica Neue&quot;, sans-serif; font-size: 12px; font-weight: 200;" x="0" y="74.27987011545747" dx="0em" dy="0.3em" fill="rgb(50, 49, 63)" stroke="none" stroke-width="1px">0.5</text><text style="text-anchor: end; visibility: hidden; font-family: &quot;Helvetica Neue&quot;, sans-serif; font-size: 12px; font-weight: 200;" x="0" y="64.37225505547684" dx="0em" dy="0.3em" fill="rgb(50, 49, 63)" stroke="none" stroke-width="1px">0.6</text><text style="text-anchor: end; visibility: hidden; font-family: &quot;Helvetica Neue&quot;, sans-serif; font-size: 12px; font-weight: 200;" x="0" y="55.995485880075535" dx="0em" dy="0.3em" fill="rgb(50, 49, 63)" stroke="none" stroke-width="1px">0.7</text><text style="text-anchor: end; visibility: hidden; font-family: &quot;Helvetica Neue&quot;, sans-serif; font-size: 12px; font-weight: 200;" x="0" y="48.739198363607954" dx="0em" dy="0.3em" fill="rgb(50, 49, 63)" stroke="none" stroke-width="1px">0.8</text><text style="text-anchor: end; visibility: inherit; font-family: &quot;Helvetica Neue&quot;, sans-serif; font-size: 12px; font-weight: 200;" x="0" y="42.33869916647677" dx="0em" dy="0.3em" fill="rgb(50, 49, 63)" stroke="none" stroke-width="1px">0.9</text><text style="text-anchor: end; visibility: hidden; font-family: &quot;Helvetica Neue&quot;, sans-serif; font-size: 12px; font-weight: 200;" x="0" y="36.613257534588456" dx="0em" dy="0.3em" fill="rgb(50, 49, 63)" stroke="none" stroke-width="1px">1</text></g><line x1="49.98400115966797" y1="0" x2="49.98400115966797" y2="378.6199998855591" fill="rgb(0, 0, 0)" stroke="rgb(204, 204, 204)" stroke-width="1px"></line></g></g><g transform="translate(49, 0)" clip-path="url(#clip_0)"><clipPath id="clip_0"><rect width="1368" height="378"></rect></clipPath><g><g><g><line x1="0" y1="0" x2="0" y2="378.6199998855591" fill="rgb(0, 0, 0)" stroke="rgb(60, 60, 60)" stroke-width="1px" opacity="0.25"></line><line x1="124.36509080366655" y1="0" x2="124.36509080366655" y2="378.6199998855591" fill="rgb(0, 0, 0)" stroke="rgb(60, 60, 60)" stroke-width="1px" opacity="0.25"></line><line x1="248.7301816073331" y1="0" x2="248.7301816073331" y2="378.6199998855591" fill="rgb(0, 0, 0)" stroke="rgb(60, 60, 60)" stroke-width="1px" opacity="0.25"></line><line x1="373.0952724109996" y1="0" x2="373.0952724109996" y2="378.6199998855591" fill="rgb(0, 0, 0)" stroke="rgb(60, 60, 60)" stroke-width="1px" opacity="0.25"></line><line x1="497.4603632146662" y1="0" x2="497.4603632146662" y2="378.6199998855591" fill="rgb(0, 0, 0)" stroke="rgb(60, 60, 60)" stroke-width="1px" opacity="0.25"></line><line x1="621.8254540183327" y1="0" x2="621.8254540183327" y2="378.6199998855591" fill="rgb(0, 0, 0)" stroke="rgb(60, 60, 60)" stroke-width="1px" opacity="0.25"></line><line x1="746.1905448219992" y1="0" x2="746.1905448219992" y2="378.6199998855591" fill="rgb(0, 0, 0)" stroke="rgb(60, 60, 60)" stroke-width="1px" opacity="0.25"></line><line x1="870.5556356256658" y1="0" x2="870.5556356256658" y2="378.6199998855591" fill="rgb(0, 0, 0)" stroke="rgb(60, 60, 60)" stroke-width="1px" opacity="0.25"></line><line x1="994.9207264293324" y1="0" x2="994.9207264293324" y2="378.6199998855591" fill="rgb(0, 0, 0)" stroke="rgb(60, 60, 60)" stroke-width="1px" opacity="0.25"></line><line x1="1119.285817232999" y1="0" x2="1119.285817232999" y2="378.6199998855591" fill="rgb(0, 0, 0)" stroke="rgb(60, 60, 60)" stroke-width="1px" opacity="0.25"></line><line x1="1243.6509080366654" y1="0" x2="1243.6509080366654" y2="378.6199998855591" fill="rgb(0, 0, 0)" stroke="rgb(60, 60, 60)" stroke-width="1px" opacity="0.25"></line><line x1="1368.015998840332" y1="0" x2="1368.015998840332" y2="378.6199998855591" fill="rgb(0, 0, 0)" stroke="rgb(60, 60, 60)" stroke-width="1px" opacity="0.25"></line></g><g><line x1="0" y1="374.3239806685992" x2="1368.015998840332" y2="374.3239806685992" fill="rgb(0, 0, 0)" stroke="rgb(60, 60, 60)" stroke-width="1px" opacity="0.25"></line><line x1="0" y1="352.29042477959905" x2="1368.015998840332" y2="352.29042477959905" fill="rgb(0, 0, 0)" stroke="rgb(60, 60, 60)" stroke-width="1px" opacity="0.25"></line><line x1="0" y1="336.65736808773016" x2="1368.015998840332" y2="336.65736808773016" fill="rgb(0, 0, 0)" stroke="rgb(60, 60, 60)" stroke-width="1px" opacity="0.25"></line><line x1="0" y1="324.5314272587106" x2="1368.015998840332" y2="324.5314272587106" fill="rgb(0, 0, 0)" stroke="rgb(60, 60, 60)" stroke-width="1px" opacity="0.25"></line><line x1="0" y1="314.62381219873004" x2="1368.015998840332" y2="314.62381219873004" fill="rgb(0, 0, 0)" stroke="rgb(60, 60, 60)" stroke-width="1px" opacity="0.25"></line><line x1="0" y1="306.2470430233287" x2="1368.015998840332" y2="306.2470430233287" fill="rgb(0, 0, 0)" stroke="rgb(60, 60, 60)" stroke-width="1px" opacity="0.25"></line><line x1="0" y1="298.9907555068611" x2="1368.015998840332" y2="298.9907555068611" fill="rgb(0, 0, 0)" stroke="rgb(60, 60, 60)" stroke-width="1px" opacity="0.25"></line><line x1="0" y1="292.59025630972997" x2="1368.015998840332" y2="292.59025630972997" fill="rgb(0, 0, 0)" stroke="rgb(60, 60, 60)" stroke-width="1px" opacity="0.25"></line><line x1="0" y1="286.8648146778416" x2="1368.015998840332" y2="286.8648146778416" fill="rgb(0, 0, 0)" stroke="rgb(60, 60, 60)" stroke-width="1px" opacity="0.25"></line><line x1="0" y1="249.19820209697258" x2="1368.015998840332" y2="249.19820209697258" fill="rgb(0, 0, 0)" stroke="rgb(60, 60, 60)" stroke-width="1px" opacity="0.25"></line><line x1="0" y1="227.16464620797248" x2="1368.015998840332" y2="227.16464620797248" fill="rgb(0, 0, 0)" stroke="rgb(60, 60, 60)" stroke-width="1px" opacity="0.25"></line><line x1="0" y1="211.53158951610357" x2="1368.015998840332" y2="211.53158951610357" fill="rgb(0, 0, 0)" stroke="rgb(60, 60, 60)" stroke-width="1px" opacity="0.25"></line><line x1="0" y1="199.40564868708404" x2="1368.015998840332" y2="199.40564868708404" fill="rgb(0, 0, 0)" stroke="rgb(60, 60, 60)" stroke-width="1px" opacity="0.25"></line><line x1="0" y1="189.49803362710347" x2="1368.015998840332" y2="189.49803362710347" fill="rgb(0, 0, 0)" stroke="rgb(60, 60, 60)" stroke-width="1px" opacity="0.25"></line><line x1="0" y1="181.12126445170207" x2="1368.015998840332" y2="181.12126445170207" fill="rgb(0, 0, 0)" stroke="rgb(60, 60, 60)" stroke-width="1px" opacity="0.25"></line><line x1="0" y1="173.86497693523455" x2="1368.015998840332" y2="173.86497693523455" fill="rgb(0, 0, 0)" stroke="rgb(60, 60, 60)" stroke-width="1px" opacity="0.25"></line><line x1="0" y1="167.46447773810334" x2="1368.015998840332" y2="167.46447773810334" fill="rgb(0, 0, 0)" stroke="rgb(60, 60, 60)" stroke-width="1px" opacity="0.25"></line><line x1="0" y1="161.73903610621502" x2="1368.015998840332" y2="161.73903610621502" fill="rgb(0, 0, 0)" stroke="rgb(60, 60, 60)" stroke-width="1px" opacity="0.25"></line><line x1="0" y1="124.07242352534601" x2="1368.015998840332" y2="124.07242352534601" fill="rgb(0, 0, 0)" stroke="rgb(60, 60, 60)" stroke-width="1px" opacity="0.25"></line><line x1="0" y1="102.03886763634591" x2="1368.015998840332" y2="102.03886763634591" fill="rgb(0, 0, 0)" stroke="rgb(60, 60, 60)" stroke-width="1px" opacity="0.25"></line><line x1="0" y1="86.40581094447697" x2="1368.015998840332" y2="86.40581094447697" fill="rgb(0, 0, 0)" stroke="rgb(60, 60, 60)" stroke-width="1px" opacity="0.25"></line><line x1="0" y1="74.27987011545747" x2="1368.015998840332" y2="74.27987011545747" fill="rgb(0, 0, 0)" stroke="rgb(60, 60, 60)" stroke-width="1px" opacity="0.25"></line><line x1="0" y1="64.37225505547684" x2="1368.015998840332" y2="64.37225505547684" fill="rgb(0, 0, 0)" stroke="rgb(60, 60, 60)" stroke-width="1px" opacity="0.25"></line><line x1="0" y1="55.995485880075535" x2="1368.015998840332" y2="55.995485880075535" fill="rgb(0, 0, 0)" stroke="rgb(60, 60, 60)" stroke-width="1px" opacity="0.25"></line><line x1="0" y1="48.739198363607954" x2="1368.015998840332" y2="48.739198363607954" fill="rgb(0, 0, 0)" stroke="rgb(60, 60, 60)" stroke-width="1px" opacity="0.25"></line><line x1="0" y1="42.33869916647677" x2="1368.015998840332" y2="42.33869916647677" fill="rgb(0, 0, 0)" stroke="rgb(60, 60, 60)" stroke-width="1px" opacity="0.25"></line><line x1="0" y1="36.613257534588456" x2="1368.015998840332" y2="36.613257534588456" fill="rgb(0, 0, 0)" stroke="rgb(60, 60, 60)" stroke-width="1px" opacity="0.25"></line></g></g></g><g><g><line x1="124.36509080366655" y1="0" x2="124.36509080366655" y2="378.6199998855591" fill="rgb(0, 0, 0)" stroke="rgb(153, 153, 153)" stroke-width="1.5px"></line></g></g><g><g><g><g><g><path style="fill: none;" stroke="rgb(0, 153, 136)" stroke-width="2px" d="M124.36509080366655,60.44224811920003L130.58334534384989,71.62854503975547L136.8015998840332,70.60319939136804L143.01985442421653,71.62854503975547L149.23810896439986,78.22346529799262L155.45636350458318,80.00531318690224L161.6746180447665,93.66209938637365L167.89287258494983,86.4058101347265L174.11112712513315,105.78803905860678L180.32938166531648,89.91292680732636L186.5476362054998,88.48280784943017L192.76589074568315,100.25702118699269L198.98414528586648,103.8811281728029L205.2023998260498,78.81094542683184L211.42065436623312,83.75448509758405L217.63890890641645,76.49819709912214L223.8571634465998,96.85957351941818L230.07541798678312,71.11345695521021L236.29367252696645,89.19316285837397L242.51192706714977,89.19316285837397L248.7301816073331,96.04239448712758L254.94843614751645,93.66209938637365L261.16669068769977,105.78803905860678L267.38494522788307,111.94648269632648L273.6031997680664,104.82621955024285L279.82145430824977,111.94648269632648L286.03970884843307,89.91292680732636L292.25796338861636,94.4440032922522L298.4762179287997,74.82601926627757L304.694472468983,81.2265192813386L310.91272700916636,87.78161895912382L317.1309815493497,96.04239448712758L323.349236089533,96.04239448712758L329.56749062971636,96.04239448712758L335.78574516989966,121.42109767845307L342.003999710083,128.30896487713602L348.2222542502663,143.4546516394758L354.44050879044966,126.85977543924295L360.65876333063295,124.07242271559554L366.8770178708163,132.90393482617836L373.0952724109996,136.19836556899125L379.313526951183,151.83142226086017L385.5317814913663,129.79786299789978L391.75003603154966,97.68923401910439L397.96829057173295,93.66209938637365L404.1865451119163,105.78803905860678L410.4047996520996,159.0877102593221L416.62305419228295,125.44823153999283L422.84130873246625,147.48178742899293L429.0595632726496,151.83142226086017L435.2778178128329,156.55974444307668L441.4960723530163,136.19836556899125L447.7143268931996,113.04432574879837L453.93258143338295,118.89313186220767L460.15083597356625,101.14064037147335L466.36909051374954,143.4546516394758L472.5873450539329,151.83142226086017L478.8055995941162,139.70547805788033L485.02385413429954,109.81517484812389L491.24210867448284,87.78161895912382L497.4603632146662,147.48178742899293L503.6786177548495,139.70547805788033L509.8968722950329,129.79786299789978L516.1151268352162,156.55974444307668L522.3333813753995,125.44823153999283L528.5516359155828,156.55974444307668L534.7698904557661,159.0877102593221L540.9881449959495,159.0877102593221L547.2063995361328,161.73903529646455L553.4246540763162,181.12126422034484L559.6429086164995,177.37209063874937L565.8611631566828,177.37209063874937L572.0794176968661,129.79786299789978L578.2976722370495,205.1310881596378L584.5159267772327,170.5705474070474L590.7341813174161,145.4309196897687L596.9524358575994,218.78787680121383L603.1706903977828,194.22635702394567L609.388944937966,185.14840000986194L615.6071994781495,194.22635702394567L621.8254540183327,249.19820331159832L628.0437085585161,120.14241407821493L634.2619630986994,177.37209063874937L640.4802176388828,161.73903529646455L646.698472179066,211.5315907307293L652.9167267192494,249.19820331159832L659.1349812594327,177.37209063874937L665.3532357996161,211.5315907307293L671.5714903397993,177.37209063874937L677.7897448799828,227.16464742259822L684.007999420166,286.86481589246733L690.2262539603493,264.83126000346726L696.4445085005326,237.07226045820258L702.6627630407161,237.07226045820258L708.8810175808993,286.86481589246733L715.0992721210827,189.49803484172918L721.3175266612659,249.19820331159832L727.5357812014494,249.19820331159832L733.7540357416326,211.5315907307293L739.972290281816,249.19820331159832L746.1905448219992,237.07226045820258L752.4087993621827,194.22635702394567L758.627053902366,324.53142847333635L764.8453084425493,286.86481589246733L771.0635629827326,264.83126000346726L777.281817522916,286.86481589246733L783.5000720630993,237.07226045820258L789.7183266032825,249.19820331159832L795.9365811434659,264.83126000346726L802.1548356836491,264.83126000346726L808.3730902238326,324.53142847333635L814.5913447640158,249.19820331159832L820.8095993041992,264.83126000346726L827.0278538443824,227.16464742259822L833.2461083845659,264.83126000346726M845.6826174649325,286.86481589246733L851.9008720051158,237.07226045820258L858.1191265452992,249.19820331159832L864.3373810854825,237.07226045820258L870.5556356256658,237.07226045820258L876.7738901658491,218.78787680121383L882.9921447060326,227.16464742259822L889.2103992462158,237.07226045820258L895.4286537863992,264.83126000346726L901.6469083265824,218.78787680121383L907.8651628667659,211.5315907307293L914.0834174069491,249.19820331159832L920.3016719471325,237.07226045820258L926.5199264873157,286.86481589246733L932.7381810274991,324.53142847333635L938.9564355676824,286.86481589246733L945.1746901078658,286.86481589246733L951.392944648049,286.86481589246733L957.6111991882324,264.83126000346726L963.8294537284158,218.78787680121383L970.0477082685991,286.86481589246733L976.2659628087824,264.83126000346726L982.4842173489657,286.86481589246733L988.7024718891491,286.86481589246733L994.9207264293324,205.1310881596378L1001.1389809695157,227.16464742259822L1007.357235509699,286.86481589246733L1013.5754900498824,324.53142847333635L1019.7937445900658,324.53142847333635M1032.2302536704324,211.5315907307293L1038.4485082106155,264.83126000346726L1044.666762750799,286.86481589246733L1050.8850172909824,264.83126000346726L1057.1032718311656,227.16464742259822L1063.321526371349,237.07226045820258L1069.5397809115323,264.83126000346726L1075.7580354517156,237.07226045820258L1081.976289991899,324.53142847333635L1088.1945445320823,264.83126000346726L1094.4127990722657,286.86481589246733L1100.631053612449,286.86481589246733L1106.8493081526324,264.83126000346726L1113.0675626928155,249.19820331159832L1119.285817232999,227.16464742259822M1131.7223263133656,205.1310881596378L1137.940580853549,264.83126000346726L1144.1588353937323,249.19820331159832L1150.3770899339156,237.07226045820258L1156.595344474099,264.83126000346726L1162.813599014282,264.83126000346726L1169.0318535544654,249.19820331159832L1175.250108094649,264.83126000346726M1187.6866171750155,121.42109767845307L1193.9048717151989,164.52638802011197L1200.1231262553822,161.73903529646455L1206.3413807955656,167.46447557876877L1212.559635335749,181.12126422034484L1218.777889875932,185.14840000986194" fill="none"></path></g><g><path style="fill: none;" stroke="rgb(238, 51, 119)" stroke-width="2px" d="M124.36509080366655,54.088571412222734L130.58334534384989,80.00531318690224L136.8015998840332,74.27987011545747L143.01985442421653,71.11345695521021L149.23810896439986,75.93506556174088L155.45636350458318,78.22346529799262L161.6746180447665,70.60319939136804L167.89287258494983,78.81094542683184L174.11112712513315,78.22346529799262L180.32938166531648,77.64226849351581L186.5476362054998,85.73075321928343L192.76589074568315,71.11345695521021L198.98414528586648,78.22346529799262L205.2023998260498,72.14856226725493L211.42065436623312,72.67360388896174L217.63890890641645,73.2037679440553L223.8571634465998,75.93506556174088L230.07541798678312,79.40484622437964L236.29367252696645,84.40528790307786L242.51192706714977,93.66209938637365L248.7301816073331,91.38170223599207L254.94843614751645,102.95219298238311L261.16669068769977,103.8811281728029L267.38494522788307,94.4440032922522L273.6031997680664,104.82621955024285L279.82145430824977,111.94648269632648L286.03970884843307,114.16480967999115L292.25796338861636,92.89128668032345L298.4762179287997,115.30888107438483L304.694472468983,117.67192576777126L310.91272700916636,99.38754050413468L317.1309815493497,134.52618610028722L323.349236089533,108.78006953607922L329.56749062971636,117.67192576777126L335.78574516989966,118.89313186220767L342.003999710083,121.42109767845307L348.2222542502663,114.16480967999115L354.44050879044966,118.89313186220767L360.65876333063295,116.47755800770085L366.8770178708163,107.76430710889969L373.0952724109996,134.52618610028722L379.313526951183,139.70547805788033L385.5317814913663,126.85977543924295L391.75003603154966,106.76718956091452L397.96829057173295,126.85977543924295L404.1865451119163,126.85977543924295L410.4047996520996,121.42109767845307L416.62305419228295,109.81517484812389L422.84130873246625,113.04432574879837L429.0595632726496,103.8811281728029L435.2778178128329,104.82621955024285L441.4960723530163,117.67192576777126L447.7143268931996,132.90393482617836L453.93258143338295,107.76430710889969L460.15083597356625,118.89313186220767L466.36909051374954,115.30888107438483L472.5873450539329,117.67192576777126L478.8055995941162,100.25702118699269L485.02385413429954,122.73059199290338L491.24210867448284,109.81517484812389L497.4603632146662,128.30896487713602L503.6786177548495,132.90393482617836L509.8968722950329,147.48178742899293L516.1151268352162,139.70547805788033L522.3333813753995,114.16480967999115L528.5516359155828,129.79786299789978L534.7698904557661,139.70547805788033L540.9881449959495,96.04239448712758L547.2063995361328,110.87038052492431L553.4246540763162,141.54774075367195L559.6429086164995,121.42109767845307L565.8611631566828,120.14241407821493L572.0794176968661,134.52618610028722L578.2976722370495,159.0877102593221L584.5159267772327,137.92363376786173L590.7341813174161,132.90393482617836L596.9524358575994,147.48178742899293L603.1706903977828,143.4546516394758L609.388944937966,147.48178742899293L615.6071994781495,170.5705474070474L621.8254540183327,149.61309527719553L628.0437085585161,167.46447557876877L634.2619630986994,149.61309527719553L640.4802176388828,173.86497814986026L646.698472179066,194.22635702394567L652.9167267192494,170.5705474070474L659.1349812594327,126.85977543924295L665.3532357996161,156.55974444307668L671.5714903397993,205.1310881596378L677.7897448799828,199.4056478773336L684.007999420166,218.78787680121383L690.2262539603493,286.86481589246733L696.4445085005326,199.4056478773336L702.6627630407161,227.16464742259822L708.8810175808993,189.49803484172918L715.0992721210827,227.16464742259822L721.3175266612659,218.78787680121383L727.5357812014494,199.4056478773336L733.7540357416326,249.19820331159832L739.972290281816,218.78787680121383L746.1905448219992,249.19820331159832L752.4087993621827,249.19820331159832L758.627053902366,237.07226045820258L764.8453084425493,324.53142847333635L771.0635629827326,286.86481589246733L777.281817522916,194.22635702394567L783.5000720630993,237.07226045820258L789.7183266032825,227.16464742259822L795.9365811434659,264.83126000346726L802.1548356836491,264.83126000346726L808.3730902238326,237.07226045820258L814.5913447640158,264.83126000346726L820.8095993041992,249.19820331159832M833.2461083845659,286.86481589246733L839.4643629247493,237.07226045820258L845.6826174649325,264.83126000346726L851.9008720051158,286.86481589246733L858.1191265452992,264.83126000346726L864.3373810854825,286.86481589246733L870.5556356256658,218.78787680121383L876.7738901658491,286.86481589246733L882.9921447060326,286.86481589246733L889.2103992462158,249.19820331159832L895.4286537863992,227.16464742259822L901.6469083265824,249.19820331159832L907.8651628667659,264.83126000346726L914.0834174069491,249.19820331159832L920.3016719471325,286.86481589246733L926.5199264873157,249.19820331159832L932.7381810274991,237.07226045820258L938.9564355676824,286.86481589246733L945.1746901078658,264.83126000346726L951.392944648049,286.86481589246733L957.6111991882324,264.83126000346726L963.8294537284158,264.83126000346726L970.0477082685991,218.78787680121383L976.2659628087824,286.86481589246733L982.4842173489657,249.19820331159832L988.7024718891491,237.07226045820258L994.9207264293324,286.86481589246733L1001.1389809695157,286.86481589246733L1007.357235509699,237.07226045820258L1013.5754900498824,264.83126000346726L1019.7937445900658,324.53142847333635L1026.011999130249,264.83126000346726L1032.2302536704324,324.53142847333635L1038.4485082106155,286.86481589246733L1044.666762750799,264.83126000346726L1050.8850172909824,264.83126000346726L1057.1032718311656,249.19820331159832L1063.321526371349,237.07226045820258L1069.5397809115323,237.07226045820258L1075.7580354517156,194.22635702394567L1081.976289991899,205.1310881596378L1088.1945445320823,264.83126000346726L1094.4127990722657,324.53142847333635L1100.631053612449,324.53142847333635L1106.8493081526324,249.19820331159832L1113.0675626928155,286.86481589246733L1119.285817232999,264.83126000346726L1125.5040717731822,227.16464742259822L1131.7223263133656,324.53142847333635L1137.940580853549,237.07226045820258L1144.1588353937323,264.83126000346726L1150.3770899339156,264.83126000346726L1156.595344474099,264.83126000346726L1162.813599014282,249.19820331159832L1169.0318535544654,286.86481589246733L1175.250108094649,324.53142847333635L1181.4683626348321,286.86481589246733L1187.6866171750155,286.86481589246733L1193.9048717151989,286.86481589246733L1200.1231262553822,286.86481589246733L1206.3413807955656,286.86481589246733L1212.559635335749,324.53142847333635L1218.777889875932,264.83126000346726L1224.9961444161156,264.83126000346726L1231.214398956299,249.19820331159832L1237.432653496482,264.83126000346726L1243.6509080366654,264.83126000346726L1249.8691625768488,286.86481589246733L1256.0874171170321,286.86481589246733" fill="none"></path></g></g></g></g></g></g><g transform="translate(49, 378)" clip-path="url(#clip_1)"><clipPath id="clip_1"><rect width="1368" height="21"></rect></clipPath><g><g><line x1="0" y1="0" x2="0" y2="5" style="visibility: inherit;" fill="rgb(0, 0, 0)" stroke="rgb(204, 204, 204)" stroke-width="1px"></line><line x1="124.36509080366655" y1="0" x2="124.36509080366655" y2="5" style="visibility: inherit;" fill="rgb(0, 0, 0)" stroke="rgb(204, 204, 204)" stroke-width="1px"></line><line x1="248.7301816073331" y1="0" x2="248.7301816073331" y2="5" style="visibility: inherit;" fill="rgb(0, 0, 0)" stroke="rgb(204, 204, 204)" stroke-width="1px"></line><line x1="373.0952724109996" y1="0" x2="373.0952724109996" y2="5" style="visibility: inherit;" fill="rgb(0, 0, 0)" stroke="rgb(204, 204, 204)" stroke-width="1px"></line><line x1="497.4603632146662" y1="0" x2="497.4603632146662" y2="5" style="visibility: inherit;" fill="rgb(0, 0, 0)" stroke="rgb(204, 204, 204)" stroke-width="1px"></line><line x1="621.8254540183327" y1="0" x2="621.8254540183327" y2="5" style="visibility: inherit;" fill="rgb(0, 0, 0)" stroke="rgb(204, 204, 204)" stroke-width="1px"></line><line x1="746.1905448219992" y1="0" x2="746.1905448219992" y2="5" style="visibility: inherit;" fill="rgb(0, 0, 0)" stroke="rgb(204, 204, 204)" stroke-width="1px"></line><line x1="870.5556356256658" y1="0" x2="870.5556356256658" y2="5" style="visibility: inherit;" fill="rgb(0, 0, 0)" stroke="rgb(204, 204, 204)" stroke-width="1px"></line><line x1="994.9207264293324" y1="0" x2="994.9207264293324" y2="5" style="visibility: inherit;" fill="rgb(0, 0, 0)" stroke="rgb(204, 204, 204)" stroke-width="1px"></line><line x1="1119.285817232999" y1="0" x2="1119.285817232999" y2="5" style="visibility: inherit;" fill="rgb(0, 0, 0)" stroke="rgb(204, 204, 204)" stroke-width="1px"></line><line x1="1243.6509080366654" y1="0" x2="1243.6509080366654" y2="5" style="visibility: inherit;" fill="rgb(0, 0, 0)" stroke="rgb(204, 204, 204)" stroke-width="1px"></line><line x1="1368.015998840332" y1="0" x2="1368.015998840332" y2="5" style="visibility: inherit;" fill="rgb(0, 0, 0)" stroke="rgb(204, 204, 204)" stroke-width="1px"></line></g><g transform="translate(0, 8)"><text style="text-anchor: middle; visibility: hidden; font-family: &quot;Helvetica Neue&quot;, sans-serif; font-size: 12px; font-weight: 200;" x="0" y="0" dx="0em" dy="0.95em" fill="rgb(50, 49, 63)" stroke="none" stroke-width="1px">-200</text><text style="text-anchor: middle; visibility: inherit; font-family: &quot;Helvetica Neue&quot;, sans-serif; font-size: 12px; font-weight: 200;" x="124.36509080366655" y="0" dx="0em" dy="0.95em" fill="rgb(50, 49, 63)" stroke="none" stroke-width="1px">0</text><text style="text-anchor: middle; visibility: inherit; font-family: &quot;Helvetica Neue&quot;, sans-serif; font-size: 12px; font-weight: 200;" x="248.7301816073331" y="0" dx="0em" dy="0.95em" fill="rgb(50, 49, 63)" stroke="none" stroke-width="1px">200</text><text style="text-anchor: middle; visibility: inherit; font-family: &quot;Helvetica Neue&quot;, sans-serif; font-size: 12px; font-weight: 200;" x="373.0952724109996" y="0" dx="0em" dy="0.95em" fill="rgb(50, 49, 63)" stroke="none" stroke-width="1px">400</text><text style="text-anchor: middle; visibility: inherit; font-family: &quot;Helvetica Neue&quot;, sans-serif; font-size: 12px; font-weight: 200;" x="497.4603632146662" y="0" dx="0em" dy="0.95em" fill="rgb(50, 49, 63)" stroke="none" stroke-width="1px">600</text><text style="text-anchor: middle; visibility: inherit; font-family: &quot;Helvetica Neue&quot;, sans-serif; font-size: 12px; font-weight: 200;" x="621.8254540183327" y="0" dx="0em" dy="0.95em" fill="rgb(50, 49, 63)" stroke="none" stroke-width="1px">800</text><text style="text-anchor: middle; visibility: inherit; font-family: &quot;Helvetica Neue&quot;, sans-serif; font-size: 12px; font-weight: 200;" x="746.1905448219992" y="0" dx="0em" dy="0.95em" fill="rgb(50, 49, 63)" stroke="none" stroke-width="1px">1k</text><text style="text-anchor: middle; visibility: inherit; font-family: &quot;Helvetica Neue&quot;, sans-serif; font-size: 12px; font-weight: 200;" x="870.5556356256658" y="0" dx="0em" dy="0.95em" fill="rgb(50, 49, 63)" stroke="none" stroke-width="1px">1.2k</text><text style="text-anchor: middle; visibility: inherit; font-family: &quot;Helvetica Neue&quot;, sans-serif; font-size: 12px; font-weight: 200;" x="994.9207264293324" y="0" dx="0em" dy="0.95em" fill="rgb(50, 49, 63)" stroke="none" stroke-width="1px">1.4k</text><text style="text-anchor: middle; visibility: inherit; font-family: &quot;Helvetica Neue&quot;, sans-serif; font-size: 12px; font-weight: 200;" x="1119.285817232999" y="0" dx="0em" dy="0.95em" fill="rgb(50, 49, 63)" stroke="none" stroke-width="1px">1.6k</text><text style="text-anchor: middle; visibility: inherit; font-family: &quot;Helvetica Neue&quot;, sans-serif; font-size: 12px; font-weight: 200;" x="1243.6509080366654" y="0" dx="0em" dy="0.95em" fill="rgb(50, 49, 63)" stroke="none" stroke-width="1px">1.8k</text><text style="text-anchor: middle; visibility: hidden; font-family: &quot;Helvetica Neue&quot;, sans-serif; font-size: 12px; font-weight: 200;" x="1368.015998840332" y="0" dx="0em" dy="0.95em" fill="rgb(50, 49, 63)" stroke="none" stroke-width="1px">2k</text></g><line x1="0" y1="0" x2="1368.015998840332" y2="0" fill="rgb(0, 0, 0)" stroke="rgb(204, 204, 204)" stroke-width="1px"></line></g></g></g></g></svg>