<svg viewBox="0 0 1418 400" xmlns="http://www.w3.org/2000/svg"><g><g><g><g><g><line x1="49.98400115966797" y1="362.47446653537713" x2="44.98400115966797" y2="362.47446653537713" style="visibility: inherit;" fill="rgb(0, 0, 0)" stroke="rgb(204, 204, 204)" stroke-width="1px"></line><line x1="49.98400115966797" y1="350.7722033073055" x2="44.98400115966797" y2="350.7722033073055" style="visibility: inherit;" fill="rgb(0, 0, 0)" stroke="rgb(204, 204, 204)" stroke-width="1px"></line><line x1="49.98400115966797" y1="341.6952227611393" x2="44.98400115966797" y2="341.6952227611393" style="visibility: inherit;" fill="rgb(0, 0, 0)" stroke="rgb(204, 204, 204)" stroke-width="1px"></line><line x1="49.98400115966797" y1="334.2787896425539" x2="44.98400115966797" y2="334.2787896425539" style="visibility: inherit;" fill="rgb(0, 0, 0)" stroke="rgb(204, 204, 204)" stroke-width="1px"></line><line x1="49.98400115966797" y1="328.0082847871388" x2="44.98400115966797" y2="328.0082847871388" style="visibility: inherit;" fill="rgb(0, 0, 0)" stroke="rgb(204, 204, 204)" stroke-width="1px"></line><line x1="49.98400115966797" y1="322.5765264144822" x2="44.98400115966797" y2="322.5765264144822" style="visibility: inherit;" fill="rgb(0, 0, 0)" stroke="rgb(204, 204, 204)" stroke-width="1px"></line><line x1="49.98400115966797" y1="317.78537597780223" x2="44.98400115966797" y2="317.78537597780223" style="visibility: inherit;" fill="rgb(0, 0, 0)" stroke="rgb(204, 204, 204)" stroke-width="1px"></line><line x1="49.98400115966797" y1="313.499545868316" x2="44.98400115966797" y2="313.499545868316" style="visibility: inherit;" fill="rgb(0, 0, 0)" stroke="rgb(204, 204, 204)" stroke-width="1px"></line><line x1="49.98400115966797" y1="285.30386897549266" x2="44.98400115966797" y2="285.30386897549266" style="visibility: inherit;" fill="rgb(0, 0, 0)" stroke="rgb(204, 204, 204)" stroke-width="1px"></line><line x1="49.98400115966797" y1="268.810455310741" x2="44.98400115966797" y2="268.810455310741" style="visibility: inherit;" fill="rgb(0, 0, 0)" stroke="rgb(204, 204, 204)" stroke-width="1px"></line><line x1="49.98400115966797" y1="257.10819208266935" x2="44.98400115966797" y2="257.10819208266935" style="visibility: inherit;" fill="rgb(0, 0, 0)" stroke="rgb(204, 204, 204)" stroke-width="1px"></line><line x1="49.98400115966797" y1="248.03121153650312" x2="44.98400115966797" y2="248.03121153650312" style="visibility: inherit;" fill="rgb(0, 0, 0)" stroke="rgb(204, 204, 204)" stroke-width="1px"></line><line x1="49.98400115966797" y1="240.61477841791773" x2="44.98400115966797" y2="240.61477841791773" style="visibility: inherit;" fill="rgb(0, 0, 0)" stroke="rgb(204, 204, 204)" stroke-width="1px"></line><line x1="49.98400115966797" y1="234.34427356250262" x2="44.98400115966797" y2="234.34427356250262" style="visibility: inherit;" fill="rgb(0, 0, 0)" stroke="rgb(204, 204, 204)" stroke-width="1px"></line><line x1="49.98400115966797" y1="228.91251518984606" x2="44.98400115966797" y2="228.91251518984606" style="visibility: inherit;" fill="rgb(0, 0, 0)" stroke="rgb(204, 204, 204)" stroke-width="1px"></line><line x1="49.98400115966797" y1="224.12136475316606" x2="44.98400115966797" y2="224.12136475316606" style="visibility: inherit;" fill="rgb(0, 0, 0)" stroke="rgb(204, 204, 204)" stroke-width="1px"></line><line x1="49.98400115966797" y1="219.8355346436798" x2="44.98400115966797" y2="219.8355346436798" style="visibility: inherit;" fill="rgb(0, 0, 0)" stroke="rgb(204, 204, 204)" stroke-width="1px"></line><line x1="49.98400115966797" y1="191.63985775085652" x2="44.98400115966797" y2="191.63985775085652" style="visibility: inherit;" fill="rgb(0, 0, 0)" stroke="rgb(204, 204, 204)" stroke-width="1px"></line><line x1="49.98400115966797" y1="175.14644408610488" x2="44.98400115966797" y2="175.14644408610488" style="visibility: inherit;" fill="rgb(0, 0, 0)" stroke="rgb(204, 204, 204)" stroke-width="1px"></line><line x1="49.98400115966797" y1="163.44418085803323" x2="44.98400115966797" y2="163.44418085803323" style="visibility: inherit;" fill="rgb(0, 0, 0)" stroke="rgb(204, 204, 204)" stroke-width="1px"></line><line x1="49.98400115966797" y1="154.367200311867" x2="44.98400115966797" y2="154.367200311867" style="visibility: inherit;" fill="rgb(0, 0, 0)" stroke="rgb(204, 204, 204)" stroke-width="1px"></line><line x1="49.98400115966797" y1="146.9507671932816" x2="44.98400115966797" y2="146.9507671932816" style="visibility: inherit;" fill="rgb(0, 0, 0)" stroke="rgb(204, 204, 204)" stroke-width="1px"></line><line x1="49.98400115966797" y1="140.68026233786648" x2="44.98400115966797" y2="140.68026233786648" style="visibility: inherit;" fill="rgb(0, 0, 0)" stroke="rgb(204, 204, 204)" stroke-width="1px"></line><line x1="49.98400115966797" y1="135.2485039652099" x2="44.98400115966797" y2="135.2485039652099" style="visibility: inherit;" fill="rgb(0, 0, 0)" stroke="rgb(204, 204, 204)" stroke-width="1px"></line><line x1="49.98400115966797" y1="130.45735352852995" x2="44.98400115966797" y2="130.45735352852995" style="visibility: inherit;" fill="rgb(0, 0, 0)" stroke="rgb(204, 204, 204)" stroke-width="1px"></line><line x1="49.98400115966797" y1="126.1715234190437" x2="44.98400115966797" y2="126.1715234190437" style="visibility: inherit;" fill="rgb(0, 0, 0)" stroke="rgb(204, 204, 204)" stroke-width="1px"></line><line x1="49.98400115966797" y1="97.97584652622038" x2="44.98400115966797" y2="97.97584652622038" style="visibility: inherit;" fill="rgb(0, 0, 0)" stroke="rgb(204, 204, 204)" stroke-width="1px"></line><line x1="49.98400115966797" y1="81.48243286146874" x2="44.98400115966797" y2="81.48243286146874" style="visibility: inherit;" fill="rgb(0, 0, 0)" stroke="rgb(204, 204, 204)" stroke-width="1px"></line><line x1="49.98400115966797" y1="69.78016963339707" x2="44.98400115966797" y2="69.78016963339707" style="visibility: inherit;" fill="rgb(0, 0, 0)" stroke="rgb(204, 204, 204)" stroke-width="1px"></line><line x1="49.98400115966797" y1="60.70318908723084" x2="44.98400115966797" y2="60.70318908723084" style="visibility: inherit;" fill="rgb(0, 0, 0)" stroke="rgb(204, 204, 204)" stroke-width="1px"></line><line x1="49.98400115966797" y1="53.28675596864542" x2="44.98400115966797" y2="53.28675596864542" style="visibility: inherit;" fill="rgb(0, 0, 0)" stroke="rgb(204, 204, 204)" stroke-width="1px"></line><line x1="49.98400115966797" y1="47.01625111323034" x2="44.98400115966797" y2="47.01625111323034" style="visibility: inherit;" fill="rgb(0, 0, 0)" stroke="rgb(204, 204, 204)" stroke-width="1px"></line><line x1="49.98400115966797" y1="41.58449274057375" x2="44.98400115966797" y2="41.58449274057375" style="visibility: inherit;" fill="rgb(0, 0, 0)" stroke="rgb(204, 204, 204)" stroke-width="1px"></line><line x1="49.98400115966797" y1="36.79334230389378" x2="44.98400115966797" y2="36.79334230389378" style="visibility: inherit;" fill="rgb(0, 0, 0)" stroke="rgb(204, 204, 204)" stroke-width="1px"></line><line x1="49.98400115966797" y1="32.50751219440758" x2="44.98400115966797" y2="32.50751219440758" style="visibility: inherit;" fill="rgb(0, 0, 0)" stroke="rgb(204, 204, 204)" stroke-width="1px"></line><line x1="49.98400115966797" y1="4.311835301584267" x2="44.98400115966797" y2="4.311835301584267" style="visibility: inherit;" fill="rgb(0, 0, 0)" stroke="rgb(204, 204, 204)" stroke-width="1px"></line></g><g transform="translate(39.98400115966797, 0)"><text style="text-anchor: end; visibility: inherit; font-family: &quot;Helvetica Neue&quot;, sans-serif; font-size: 12px; font-weight: 200;" x="0" y="362.47446653537713" dx="0em" dy="0.3em" fill="rgb(50, 49, 63)" stroke="none" stroke-width="1px">3e-4</text><text style="text-anchor: end; visibility: hidden; font-family: &quot;Helvetica Neue&quot;, sans-serif; font-size: 12px; font-weight: 200;" x="0" y="350.7722033073055" dx="0em" dy="0.3em" fill="rgb(50, 49, 63)" stroke="none" stroke-width="1px">4e-4</text><text style="text-anchor: end; visibility: hidden; font-family: &quot;Helvetica Neue&quot;, sans-serif; font-size: 12px; font-weight: 200;" x="0" y="341.6952227611393" dx="0em" dy="0.3em" fill="rgb(50, 49, 63)" stroke="none" stroke-width="1px">5e-4</text><text style="text-anchor: end; visibility: hidden; font-family: &quot;Helvetica Neue&quot;, sans-serif; font-size: 12px; font-weight: 200;" x="0" y="334.2787896425539" dx="0em" dy="0.3em" fill="rgb(50, 49, 63)" stroke="none" stroke-width="1px">6e-4</text><text style="text-anchor: end; visibility: hidden; font-family: &quot;Helvetica Neue&quot;, sans-serif; font-size: 12px; font-weight: 200;" x="0" y="328.0082847871388" dx="0em" dy="0.3em" fill="rgb(50, 49, 63)" stroke="none" stroke-width="1px">7e-4</text><text style="text-anchor: end; visibility: inherit; font-family: &quot;Helvetica Neue&quot;, sans-serif; font-size: 12px; font-weight: 200;" x="0" y="322.5765264144822" dx="0em" dy="0.3em" fill="rgb(50, 49, 63)" stroke="none" stroke-width="1px">8e-4</text><text style="text-anchor: end; visibility: hidden; font-family: &quot;Helvetica Neue&quot;, sans-serif; font-size: 12px; font-weight: 200;" x="0" y="317.78537597780223" dx="0em" dy="0.3em" fill="rgb(50, 49, 63)" stroke="none" stroke-width="1px">9e-4</text><text style="text-anchor: end; visibility: hidden; font-family: &quot;Helvetica Neue&quot;, sans-serif; font-size: 12px; font-weight: 200;" x="0" y="313.499545868316" dx="0em" dy="0.3em" fill="rgb(50, 49, 63)" stroke="none" stroke-width="1px">1e-3</text><text style="text-anchor: end; visibility: hidden; font-family: &quot;Helvetica Neue&quot;, sans-serif; font-size: 12px; font-weight: 200;" x="0" y="285.30386897549266" dx="0em" dy="0.3em" fill="rgb(50, 49, 63)" stroke="none" stroke-width="1px">2e-3</text><text style="text-anchor: end; visibility: hidden; font-family: &quot;Helvetica Neue&quot;, sans-serif; font-size: 12px; font-weight: 200;" x="0" y="268.810455310741" dx="0em" dy="0.3em" fill="rgb(50, 49, 63)" stroke="none" stroke-width="1px">3e-3</text><text style="text-anchor: end; visibility: inherit; font-family: &quot;Helvetica Neue&quot;, sans-serif; font-size: 12px; font-weight: 200;" x="0" y="257.10819208266935" dx="0em" dy="0.3em" fill="rgb(50, 49, 63)" stroke="none" stroke-width="1px">4e-3</text><text style="text-anchor: end; visibility: hidden; font-family: &quot;Helvetica Neue&quot;, sans-serif; font-size: 12px; font-weight: 200;" x="0" y="248.03121153650312" dx="0em" dy="0.3em" fill="rgb(50, 49, 63)" stroke="none" stroke-width="1px">5e-3</text><text style="text-anchor: end; visibility: hidden; font-family: &quot;Helvetica Neue&quot;, sans-serif; font-size: 12px; font-weight: 200;" x="0" y="240.61477841791773" dx="0em" dy="0.3em" fill="rgb(50, 49, 63)" stroke="none" stroke-width="1px">6e-3</text><text style="text-anchor: end; visibility: hidden; font-family: &quot;Helvetica Neue&quot;, sans-serif; font-size: 12px; font-weight: 200;" x="0" y="234.34427356250262" dx="0em" dy="0.3em" fill="rgb(50, 49, 63)" stroke="none" stroke-width="1px">7e-3</text><text style="text-anchor: end; visibility: hidden; font-family: &quot;Helvetica Neue&quot;, sans-serif; font-size: 12px; font-weight: 200;" x="0" y="228.91251518984606" dx="0em" dy="0.3em" fill="rgb(50, 49, 63)" stroke="none" stroke-width="1px">8e-3</text><text style="text-anchor: end; visibility: inherit; font-family: &quot;Helvetica Neue&quot;, sans-serif; font-size: 12px; font-weight: 200;" x="0" y="224.12136475316606" dx="0em" dy="0.3em" fill="rgb(50, 49, 63)" stroke="none" stroke-width="1px">9e-3</text><text style="text-anchor: end; visibility: hidden; font-family: &quot;Helvetica Neue&quot;, sans-serif; font-size: 12px; font-weight: 200;" x="0" y="219.8355346436798" dx="0em" dy="0.3em" fill="rgb(50, 49, 63)" stroke="none" stroke-width="1px">0.01</text><text style="text-anchor: end; visibility: hidden; font-family: &quot;Helvetica Neue&quot;, sans-serif; font-size: 12px; font-weight: 200;" x="0" y="191.63985775085652" dx="0em" dy="0.3em" fill="rgb(50, 49, 63)" stroke="none" stroke-width="1px">0.02</text><text style="text-anchor: end; visibility: hidden; font-family: &quot;Helvetica Neue&quot;, sans-serif; font-size: 12px; font-weight: 200;" x="0" y="175.14644408610488" dx="0em" dy="0.3em" fill="rgb(50, 49, 63)" stroke="none" stroke-width="1px">0.03</text><text style="text-anchor: end; visibility: hidden; font-family: &quot;Helvetica Neue&quot;, sans-serif; font-size: 12px; font-weight: 200;" x="0" y="163.44418085803323" dx="0em" dy="0.3em" fill="rgb(50, 49, 63)" stroke="none" stroke-width="1px">0.04</text><text style="text-anchor: end; visibility: inherit; font-family: &quot;Helvetica Neue&quot;, sans-serif; font-size: 12px; font-weight: 200;" x="0" y="154.367200311867" dx="0em" dy="0.3em" fill="rgb(50, 49, 63)" stroke="none" stroke-width="1px">0.05</text><text style="text-anchor: end; visibility: hidden; font-family: &quot;Helvetica Neue&quot;, sans-serif; font-size: 12px; font-weight: 200;" x="0" y="146.9507671932816" dx="0em" dy="0.3em" fill="rgb(50, 49, 63)" stroke="none" stroke-width="1px">0.06</text><text style="text-anchor: end; visibility: hidden; font-family: &quot;Helvetica Neue&quot;, sans-serif; font-size: 12px; font-weight: 200;" x="0" y="140.68026233786648" dx="0em" dy="0.3em" fill="rgb(50, 49, 63)" stroke="none" stroke-width="1px">0.07</text><text style="text-anchor: end; visibility: hidden; font-family: &quot;Helvetica Neue&quot;, sans-serif; font-size: 12px; font-weight: 200;" x="0" y="135.2485039652099" dx="0em" dy="0.3em" fill="rgb(50, 49, 63)" stroke="none" stroke-width="1px">0.08</text><text style="text-anchor: end; visibility: hidden; font-family: &quot;Helvetica Neue&quot;, sans-serif; font-size: 12px; font-weight: 200;" x="0" y="130.45735352852995" dx="0em" dy="0.3em" fill="rgb(50, 49, 63)" stroke="none" stroke-width="1px">0.09</text><text style="text-anchor: end; visibility: inherit; font-family: &quot;Helvetica Neue&quot;, sans-serif; font-size: 12px; font-weight: 200;" x="0" y="126.1715234190437" dx="0em" dy="0.3em" fill="rgb(50, 49, 63)" stroke="none" stroke-width="1px">0.1</text><text style="text-anchor: end; visibility: hidden; font-family: &quot;Helvetica Neue&quot;, sans-serif; font-size: 12px; font-weight: 200;" x="0" y="97.97584652622038" dx="0em" dy="0.3em" fill="rgb(50, 49, 63)" stroke="none" stroke-width="1px">0.2</text><text style="text-anchor: end; visibility: hidden; font-family: &quot;Helvetica Neue&quot;, sans-serif; font-size: 12px; font-weight: 200;" x="0" y="81.48243286146874" dx="0em" dy="0.3em" fill="rgb(50, 49, 63)" stroke="none" stroke-width="1px">0.3</text><text style="text-anchor: end; visibility: hidden; font-family: &quot;Helvetica Neue&quot;, sans-serif; font-size: 12px; font-weight: 200;" x="0" y="69.78016963339707" dx="0em" dy="0.3em" fill="rgb(50, 49, 63)" stroke="none" stroke-width="1px">0.4</text><text style="text-anchor: end; visibility: hidden; font-family: &quot;Helvetica Neue&quot;, sans-serif; font-size: 12px; font-weight: 200;" x="0" y="60.70318908723084" dx="0em" dy="0.3em" fill="rgb(50, 49, 63)" stroke="none" stroke-width="1px">0.5</text><text style="text-anchor: end; visibility: inherit; font-family: &quot;Helvetica Neue&quot;, sans-serif; font-size: 12px; font-weight: 200;" x="0" y="53.28675596864542" dx="0em" dy="0.3em" fill="rgb(50, 49, 63)" stroke="none" stroke-width="1px">0.6</text><text style="text-anchor: end; visibility: hidden; font-family: &quot;Helvetica Neue&quot;, sans-serif; font-size: 12px; font-weight: 200;" x="0" y="47.01625111323034" dx="0em" dy="0.3em" fill="rgb(50, 49, 63)" stroke="none" stroke-width="1px">0.7</text><text style="text-anchor: end; visibility: hidden; font-family: &quot;Helvetica Neue&quot;, sans-serif; font-size: 12px; font-weight: 200;" x="0" y="41.58449274057375" dx="0em" dy="0.3em" fill="rgb(50, 49, 63)" stroke="none" stroke-width="1px">0.8</text><text style="text-anchor: end; visibility: hidden; font-family: &quot;Helvetica Neue&quot;, sans-serif; font-size: 12px; font-weight: 200;" x="0" y="36.79334230389378" dx="0em" dy="0.3em" fill="rgb(50, 49, 63)" stroke="none" stroke-width="1px">0.9</text><text style="text-anchor: end; visibility: hidden; font-family: &quot;Helvetica Neue&quot;, sans-serif; font-size: 12px; font-weight: 200;" x="0" y="32.50751219440758" dx="0em" dy="0.3em" fill="rgb(50, 49, 63)" stroke="none" stroke-width="1px">1</text><text style="text-anchor: end; visibility: hidden; font-family: &quot;Helvetica Neue&quot;, sans-serif; font-size: 12px; font-weight: 200;" x="0" y="4.311835301584267" dx="0em" dy="0.3em" fill="rgb(50, 49, 63)" stroke="none" stroke-width="1px">2</text></g><line x1="49.98400115966797" y1="0" x2="49.98400115966797" y2="378.6199998855591" fill="rgb(0, 0, 0)" stroke="rgb(204, 204, 204)" stroke-width="1px"></line></g></g><g transform="translate(49, 0)" clip-path="url(#clip_0)"><clipPath id="clip_0"><rect width="1368" height="378"></rect></clipPath><g><g><g><line x1="0" y1="0" x2="0" y2="378.6199998855591" fill="rgb(0, 0, 0)" stroke="rgb(60, 60, 60)" stroke-width="1px" opacity="0.25"></line><line x1="152.00177764892578" y1="0" x2="152.00177764892578" y2="378.6199998855591" fill="rgb(0, 0, 0)" stroke="rgb(60, 60, 60)" stroke-width="1px" opacity="0.25"></line><line x1="304.00355529785156" y1="0" x2="304.00355529785156" y2="378.6199998855591" fill="rgb(0, 0, 0)" stroke="rgb(60, 60, 60)" stroke-width="1px" opacity="0.25"></line><line x1="456.00533294677734" y1="0" x2="456.00533294677734" y2="378.6199998855591" fill="rgb(0, 0, 0)" stroke="rgb(60, 60, 60)" stroke-width="1px" opacity="0.25"></line><line x1="608.0071105957031" y1="0" x2="608.0071105957031" y2="378.6199998855591" fill="rgb(0, 0, 0)" stroke="rgb(60, 60, 60)" stroke-width="1px" opacity="0.25"></line><line x1="760.0088882446289" y1="0" x2="760.0088882446289" y2="378.6199998855591" fill="rgb(0, 0, 0)" stroke="rgb(60, 60, 60)" stroke-width="1px" opacity="0.25"></line><line x1="912.0106658935547" y1="0" x2="912.0106658935547" y2="378.6199998855591" fill="rgb(0, 0, 0)" stroke="rgb(60, 60, 60)" stroke-width="1px" opacity="0.25"></line><line x1="1064.0124435424805" y1="0" x2="1064.0124435424805" y2="378.6199998855591" fill="rgb(0, 0, 0)" stroke="rgb(60, 60, 60)" stroke-width="1px" opacity="0.25"></line><line x1="1216.0142211914062" y1="0" x2="1216.0142211914062" y2="378.6199998855591" fill="rgb(0, 0, 0)" stroke="rgb(60, 60, 60)" stroke-width="1px" opacity="0.25"></line><line x1="1368.015998840332" y1="0" x2="1368.015998840332" y2="378.6199998855591" fill="rgb(0, 0, 0)" stroke="rgb(60, 60, 60)" stroke-width="1px" opacity="0.25"></line></g><g><line x1="0" y1="362.47446653537713" x2="1368.015998840332" y2="362.47446653537713" fill="rgb(0, 0, 0)" stroke="rgb(60, 60, 60)" stroke-width="1px" opacity="0.25"></line><line x1="0" y1="350.7722033073055" x2="1368.015998840332" y2="350.7722033073055" fill="rgb(0, 0, 0)" stroke="rgb(60, 60, 60)" stroke-width="1px" opacity="0.25"></line><line x1="0" y1="341.6952227611393" x2="1368.015998840332" y2="341.6952227611393" fill="rgb(0, 0, 0)" stroke="rgb(60, 60, 60)" stroke-width="1px" opacity="0.25"></line><line x1="0" y1="334.2787896425539" x2="1368.015998840332" y2="334.2787896425539" fill="rgb(0, 0, 0)" stroke="rgb(60, 60, 60)" stroke-width="1px" opacity="0.25"></line><line x1="0" y1="328.0082847871388" x2="1368.015998840332" y2="328.0082847871388" fill="rgb(0, 0, 0)" stroke="rgb(60, 60, 60)" stroke-width="1px" opacity="0.25"></line><line x1="0" y1="322.5765264144822" x2="1368.015998840332" y2="322.5765264144822" fill="rgb(0, 0, 0)" stroke="rgb(60, 60, 60)" stroke-width="1px" opacity="0.25"></line><line x1="0" y1="317.78537597780223" x2="1368.015998840332" y2="317.78537597780223" fill="rgb(0, 0, 0)" stroke="rgb(60, 60, 60)" stroke-width="1px" opacity="0.25"></line><line x1="0" y1="313.499545868316" x2="1368.015998840332" y2="313.499545868316" fill="rgb(0, 0, 0)" stroke="rgb(60, 60, 60)" stroke-width="1px" opacity="0.25"></line><line x1="0" y1="285.30386897549266" x2="1368.015998840332" y2="285.30386897549266" fill="rgb(0, 0, 0)" stroke="rgb(60, 60, 60)" stroke-width="1px" opacity="0.25"></line><line x1="0" y1="268.810455310741" x2="1368.015998840332" y2="268.810455310741" fill="rgb(0, 0, 0)" stroke="rgb(60, 60, 60)" stroke-width="1px" opacity="0.25"></line><line x1="0" y1="257.10819208266935" x2="1368.015998840332" y2="257.10819208266935" fill="rgb(0, 0, 0)" stroke="rgb(60, 60, 60)" stroke-width="1px" opacity="0.25"></line><line x1="0" y1="248.03121153650312" x2="1368.015998840332" y2="248.03121153650312" fill="rgb(0, 0, 0)" stroke="rgb(60, 60, 60)" stroke-width="1px" opacity="0.25"></line><line x1="0" y1="240.61477841791773" x2="1368.015998840332" y2="240.61477841791773" fill="rgb(0, 0, 0)" stroke="rgb(60, 60, 60)" stroke-width="1px" opacity="0.25"></line><line x1="0" y1="234.34427356250262" x2="1368.015998840332" y2="234.34427356250262" fill="rgb(0, 0, 0)" stroke="rgb(60, 60, 60)" stroke-width="1px" opacity="0.25"></line><line x1="0" y1="228.91251518984606" x2="1368.015998840332" y2="228.91251518984606" fill="rgb(0, 0, 0)" stroke="rgb(60, 60, 60)" stroke-width="1px" opacity="0.25"></line><line x1="0" y1="224.12136475316606" x2="1368.015998840332" y2="224.12136475316606" fill="rgb(0, 0, 0)" stroke="rgb(60, 60, 60)" stroke-width="1px" opacity="0.25"></line><line x1="0" y1="219.8355346436798" x2="1368.015998840332" y2="219.8355346436798" fill="rgb(0, 0, 0)" stroke="rgb(60, 60, 60)" stroke-width="1px" opacity="0.25"></line><line x1="0" y1="191.63985775085652" x2="1368.015998840332" y2="191.63985775085652" fill="rgb(0, 0, 0)" stroke="rgb(60, 60, 60)" stroke-width="1px" opacity="0.25"></line><line x1="0" y1="175.14644408610488" x2="1368.015998840332" y2="175.14644408610488" fill="rgb(0, 0, 0)" stroke="rgb(60, 60, 60)" stroke-width="1px" opacity="0.25"></line><line x1="0" y1="163.44418085803323" x2="1368.015998840332" y2="163.44418085803323" fill="rgb(0, 0, 0)" stroke="rgb(60, 60, 60)" stroke-width="1px" opacity="0.25"></line><line x1="0" y1="154.367200311867" x2="1368.015998840332" y2="154.367200311867" fill="rgb(0, 0, 0)" stroke="rgb(60, 60, 60)" stroke-width="1px" opacity="0.25"></line><line x1="0" y1="146.9507671932816" x2="1368.015998840332" y2="146.9507671932816" fill="rgb(0, 0, 0)" stroke="rgb(60, 60, 60)" stroke-width="1px" opacity="0.25"></line><line x1="0" y1="140.68026233786648" x2="1368.015998840332" y2="140.68026233786648" fill="rgb(0, 0, 0)" stroke="rgb(60, 60, 60)" stroke-width="1px" opacity="0.25"></line><line x1="0" y1="135.2485039652099" x2="1368.015998840332" y2="135.2485039652099" fill="rgb(0, 0, 0)" stroke="rgb(60, 60, 60)" stroke-width="1px" opacity="0.25"></line><line x1="0" y1="130.45735352852995" x2="1368.015998840332" y2="130.45735352852995" fill="rgb(0, 0, 0)" stroke="rgb(60, 60, 60)" stroke-width="1px" opacity="0.25"></line><line x1="0" y1="126.1715234190437" x2="1368.015998840332" y2="126.1715234190437" fill="rgb(0, 0, 0)" stroke="rgb(60, 60, 60)" stroke-width="1px" opacity="0.25"></line><line x1="0" y1="97.97584652622038" x2="1368.015998840332" y2="97.97584652622038" fill="rgb(0, 0, 0)" stroke="rgb(60, 60, 60)" stroke-width="1px" opacity="0.25"></line><line x1="0" y1="81.48243286146874" x2="1368.015998840332" y2="81.48243286146874" fill="rgb(0, 0, 0)" stroke="rgb(60, 60, 60)" stroke-width="1px" opacity="0.25"></line><line x1="0" y1="69.78016963339707" x2="1368.015998840332" y2="69.78016963339707" fill="rgb(0, 0, 0)" stroke="rgb(60, 60, 60)" stroke-width="1px" opacity="0.25"></line><line x1="0" y1="60.70318908723084" x2="1368.015998840332" y2="60.70318908723084" fill="rgb(0, 0, 0)" stroke="rgb(60, 60, 60)" stroke-width="1px" opacity="0.25"></line><line x1="0" y1="53.28675596864542" x2="1368.015998840332" y2="53.28675596864542" fill="rgb(0, 0, 0)" stroke="rgb(60, 60, 60)" stroke-width="1px" opacity="0.25"></line><line x1="0" y1="47.01625111323034" x2="1368.015998840332" y2="47.01625111323034" fill="rgb(0, 0, 0)" stroke="rgb(60, 60, 60)" stroke-width="1px" opacity="0.25"></line><line x1="0" y1="41.58449274057375" x2="1368.015998840332" y2="41.58449274057375" fill="rgb(0, 0, 0)" stroke="rgb(60, 60, 60)" stroke-width="1px" opacity="0.25"></line><line x1="0" y1="36.79334230389378" x2="1368.015998840332" y2="36.79334230389378" fill="rgb(0, 0, 0)" stroke="rgb(60, 60, 60)" stroke-width="1px" opacity="0.25"></line><line x1="0" y1="32.50751219440758" x2="1368.015998840332" y2="32.50751219440758" fill="rgb(0, 0, 0)" stroke="rgb(60, 60, 60)" stroke-width="1px" opacity="0.25"></line><line x1="0" y1="4.311835301584267" x2="1368.015998840332" y2="4.311835301584267" fill="rgb(0, 0, 0)" stroke="rgb(60, 60, 60)" stroke-width="1px" opacity="0.25"></line></g></g></g><g><g><line x1="152.00177764892578" y1="0" x2="152.00177764892578" y2="378.6199998855591" fill="rgb(0, 0, 0)" stroke="rgb(153, 153, 153)" stroke-width="1.5px"></line></g></g><g><g><g><g><g><path style="fill: none;" stroke="rgb(187, 187, 187)" stroke-width="2px" d="M154.28180431365968,54.08857141222268L155.80182209014893,60.16299174259643L156.56183097839354,62.84394359837489L158.0818487548828,65.02793998553551L159.60186653137208,67.18888222273699L160.3618754196167,67.43413141754814L161.1218843078613,68.79974316127982L161.88189319610595,67.19750518795303L162.6419020843506,66.51325703675724L163.40191097259523,64.5105919131446L164.16191986083984,66.09388604622018L164.92192874908446,66.27132380321461L165.6819376373291,70.05156803167023L166.44194652557374,68.50274963042938L167.20195541381835,69.34318702283099L168.7219731903076,69.88443537684026L170.24199096679686,66.3406891885744L171.0019998550415,69.61466163955373L174.80204429626463,71.3765033236669L175.56205318450927,69.8656009888162L176.3220620727539,69.71376239435665L177.08207096099855,68.96519022040735L177.84207984924316,70.92738156066758L179.36209762573245,66.31387287824867L181.6421242904663,72.10057643540114L182.40213317871093,75.44515168075509L183.9221509552002,73.28557663233283L184.68215984344485,74.5866479930238L185.44216873168946,74.8576475498686L186.20217761993408,75.18306907460925L187.72219539642333,80.85859339202017L189.2422131729126,78.98904990188902L190.00222206115723,79.9838749052891L192.2822487258911,88.51794908331192L193.04225761413574,84.7300155023346L193.80226650238038,93.265591618254L194.562275390625,95.53957899740203L195.32228427886963,85.89474717429056L197.6023109436035,76.07377257789415L198.36231983184814,75.93612826051782L199.8823376083374,92.2365760607534L200.64234649658204,97.77883236088036L201.40235538482668,81.8071308338221L202.1623642730713,80.965096037418L202.92237316131593,83.51492303015249L203.68238204956052,78.6377432137997L204.44239093780516,91.8659795254074L205.96240871429444,83.43944645376712L206.72241760253905,81.96249172051324L207.4824264907837,88.65172881182815L208.24243537902834,88.65927731195433L209.76245315551756,99.83378709948386L211.28247093200682,85.47224425647693L212.04247982025146,81.60046942773806L213.56249759674074,73.38568965134186L214.32250648498535,76.4128493349674L215.8425242614746,84.58363823616162L216.60253314971922,74.45465759625421L217.36254203796386,81.90415978869993L218.1225509262085,73.88833468613262L218.88255981445312,63.49187118732368L219.64256870269776,69.75493391046399L221.16258647918698,70.32664830743965L221.92259536743163,78.2610914414517L222.68260425567627,82.26467216821152L223.44261314392088,83.70038858747148L227.24265758514403,80.81539926055564L228.00266647338867,74.12157924928886L229.52268424987793,80.7948762516703L231.04270202636718,77.98656178510782L231.80271091461182,71.80382277346229L232.56271980285646,73.81413114946406L234.84274646759033,73.47066195371337L235.60275535583497,80.81700529294346L237.88278202056887,75.09519332688694L240.16280868530274,74.64706498483821L241.682826461792,85.83559025751515L242.44283535003663,82.00625060223814L243.20284423828127,87.95647235168173L246.24287979125975,101.4189644531748L247.0028886795044,99.40648809090305L247.76289756774904,109.14101173993987L248.52290645599365,108.8683213237324L250.04292423248293,88.37540591017807L250.80293312072752,86.18917964063354L253.0829597854614,102.70135676780376L255.36298645019534,111.03851445411351L256.12299533844,112.93456079740383L257.6430131149292,109.33238915624258L259.16303089141843,92.13799873621019L259.9230397796631,96.60617326654267L260.6830486679077,94.45338527022614L261.4430575561524,109.72469489051502L262.203066444397,114.11297710475714L262.9630753326416,100.04786240173053L264.48309310913083,112.88867260204108L265.2431019973755,95.06670301110199L266.0031108856201,78.43612639757345L266.76311977386473,75.55555054419142L268.283137550354,71.86355945140753L269.0431464385986,61.21862451948169L269.80315532684324,62.83525548692057L271.3231731033325,64.69048301269203L272.08318199157713,66.6976619223181L272.8431908798218,66.75296899051017L274.36320865631103,69.61894802644127L275.12321754455564,68.2048531130398L276.6432353210449,74.36251848533419L277.40324420928954,83.95490716648942L278.9232619857788,80.75054312175445L279.68327087402344,75.90216678839795L280.44327976226805,100.83118942637253L281.96329753875733,90.43481756716358L282.72330642700194,84.35950333644985L285.00333309173584,108.71757950094644L285.7633419799805,105.0263971493481L286.52335086822507,68.10756508376335L287.28335975646974,97.59501369904649L288.80337753295896,92.59443334601843L289.56338642120363,94.47792857852625L291.08340419769286,105.55013011413968L292.60342197418214,106.7130289174101L293.36343086242675,98.26603743295857L294.12343975067137,116.633641693664L294.88344863891604,99.10273171856346L296.40346641540526,83.16833862771114L297.16347530364993,89.41639846459026L302.48353752136234,87.40974547179627L305.5235730743408,104.23530930614413L307.80359973907474,99.86407544248101L308.56360862731935,89.20723632427547L309.32361751556397,105.52519401892243L310.0836264038086,97.39179736090745L313.1236619567871,126.68121338369355L313.88367084503176,93.92961123630789L314.6436797332764,106.64046533408805L315.40368862152104,104.60633585823666L317.6837152862549,108.45523176327447L318.4437241744995,114.04252122018369L319.20373306274416,129.56682900345479L319.9637419509888,117.7795694088876L320.7237508392334,118.42332769068383L321.483759727478,132.91191919872026L323.0037775039673,113.14337278133718L323.7637863922119,101.13037508760408L324.52379528045657,94.53109162718681L326.0438130569458,103.77839166315505L326.80382194519046,109.63110646416732L327.563830833435,105.44759289252653L328.3238397216797,102.89243294107251L329.0838486099243,115.94336545545173L329.8438574981689,100.67342661332356L332.12388416290287,128.17937408703705L332.8838930511475,94.61341091808725L334.4039108276367,100.51442804354986L337.4439463806152,105.07371320045013L338.2039552688599,112.35955221452832L339.7239730453491,97.00029012771927L340.4839819335937,104.69793253299855L341.2439908218384,110.80971471394531L342.003999710083,103.73368900025991L342.7640085983276,101.34537049054478L343.5240174865723,99.23252105779125L345.80404415130613,126.16838612881531L348.08407081604,136.58214018525308L348.8440797042847,111.54297090586203L349.60408859252925,82.55449090752057L350.3640974807739,98.54527742347295L351.8841152572632,110.02734488535725L353.4041330337525,99.74436127469932L354.92415081024166,107.84361304107603L356.44416858673094,130.71369556727413L357.9641863632202,128.90751763802714L358.7241952514649,123.88844467528847L359.48420413970945,128.48466009391888L360.24421302795406,127.56919145704833L361.00422191619873,125.41444679865916L362.524239692688,131.46382077937167L363.2842485809326,151.87802116136686L364.80426635742185,136.90779456866917L366.32428413391114,138.52708629474168L367.8443019104004,105.5429893540499L371.64434635162354,109.31173547377591L373.1643641281128,107.45741273593995L373.9243730163574,114.82711862361003L375.44439079284666,129.93827448312402L376.20439968109133,108.09525418342031L376.96440856933594,121.72019135256107L377.72441745758056,130.11276018518205L378.4844263458252,118.93494530751622L379.2444352340698,128.86052878528264L380.00444412231445,136.12448385681583L380.76445301055907,118.50680282396553L381.52446189880374,105.99263632247693L382.28447078704835,107.72903454048026L385.32450634002686,128.42782722085255L386.08451522827147,131.48047584632926L387.60453300476075,93.97482075564761L389.8845596694946,101.68009988875878L392.92459522247316,86.40768901584147L393.6846041107178,94.61984023849999L394.4446129989624,106.92146875803138L395.204621887207,114.53700124111276L396.7246396636963,124.74779128399916L397.48464855194095,118.84495809050634L398.2446574401855,107.00724862325217L399.0046663284302,121.66952065050776L399.7646752166748,116.63135955966408L400.52468410491946,130.84569180137342L402.80471076965335,151.26761973340595L403.5647196578979,137.44394672389006L405.0847374343872,149.62320679401148L406.6047552108765,139.5810190025867L408.12477298736576,151.0369549823666L409.644790763855,141.9068490288225L411.16480854034427,146.4652822810942L411.9248174285889,145.3189369701804L412.68482631683355,143.7049575903238L413.4448352050781,142.0883813222976L414.2048440933227,140.48207277758075L414.9648529815674,137.60304575670702L415.724861869812,134.12277049140354L416.4848707580567,154.97843936438753L417.2448796463013,139.28598635250768L418.7648974227905,153.82786909700502L420.2849151992798,128.08475148919987L421.0449240875244,151.0424062921928L422.56494186401363,151.85663414445062L424.0849596405029,167.8145399763888L424.84496852874753,164.7181385956862L425.6049774169922,150.69986086574465L426.3649863052368,144.9344161686377L427.1249951934815,148.207112473107L427.88500408172604,149.00385693828073L428.6450129699707,140.5351890270661L429.4050218582153,107.11562010070662L430.16503074646,117.92309283496479L430.9250396347046,159.89662445611032L431.6850485229492,136.78914160407408L433.20506629943844,156.39502643097143L433.9650751876831,148.93591109884787L435.4850929641724,144.25791084861575L437.00511074066156,160.2413384335585L437.76511962890623,158.7994540050512L438.52512851715085,144.08317435351526L439.2851374053955,152.36368006437212L440.04514629364013,141.54021773662546L441.5651640701294,151.65363076722366L442.32517295837397,175.699638094543L443.84519073486325,208.4999180803553L444.6051996231079,179.53601979482198L445.36520851135253,193.914003036954L446.1252173995972,193.85776226779922L446.88522628784176,156.60797608826266L448.40524406433104,154.5221252057543L449.16525295257566,166.20200330786986L449.9252618408203,196.82495818349335L450.68527072906494,137.04655629043685L454.48531517028806,167.4475718025983L455.24532405853273,187.8841250593139L456.765341835022,207.6395217693605L457.52535072326657,189.54478763018275L458.28535961151124,173.11325304003557L459.8053773880005,146.9672156609365L460.56538627624514,129.4257768792377L462.08540405273436,141.70992070264853L463.60542182922364,170.49814851024854L467.40546627044677,179.93036020856997L468.1654751586914,192.33338711640306L470.44550182342533,184.95133196065476L471.20551071166994,185.58662477909803L471.9655195999145,174.7293373692959L472.72552848815917,182.56427378883382L473.4855373764038,154.95009516466862L474.24554626464845,190.91585104245578L475.76556404113774,163.5830821017055L477.28558181762696,237.57570894601483L478.8055995941162,179.35349158205062L480.32561737060547,163.54611917100812L482.60564403533937,177.58132708260956L483.365652923584,116.2398325017665L485.6456795883178,186.95189473921906L486.40568847656255,143.5403781526604L487.1656973648071,99.06246977616007L487.92570625305177,107.42851163439258L489.445724029541,135.56942611028038L490.20573291778567,161.7903646314982L492.4857595825195,164.4666194381183L493.2457684707642,177.2518019076931L494.76578624725346,150.06367943848298L497.0458129119873,166.24457805225555L497.8058218002319,164.46898148985798L499.3258395767212,173.12224889644932L500.08584846496586,149.35935950076737L500.8458573532104,174.52681511659355L501.60586624145503,157.23298712923625L502.3658751296997,182.6461158320315L503.885892906189,190.6020698508425L504.6459017944336,162.75812218884235L505.40591068267827,177.81901314816233L506.1659195709228,193.4798086376839L506.9259284591675,190.98068795295882L507.6859373474121,197.72795696448955L508.4459462356567,216.5044850844059L509.965964012146,189.2598864778458L511.48598178863523,153.63709662364226L512.24599067688,178.43654785715114L514.5260173416137,187.69092307504667L515.2860262298584,194.16218400510937L518.3260617828369,189.27807057310187L520.6060884475708,180.90611618312153L521.3660973358154,183.05899242945532L522.8861151123048,196.56455745404034L523.6461240005493,163.5031190962845L525.1661417770385,175.27324356734454L525.9261506652832,152.84231415148741L526.6861595535279,184.88196848581924L528.9661862182617,203.5211642182341L529.7261951065063,199.61381080383825L531.2462128829956,203.44493029032375L534.2862484359741,211.94096445314125L536.566275100708,196.6433116520256L537.3262839889527,183.7706557949896L538.0862928771973,161.97586178316192L538.8463017654419,212.83615767074744L539.6063106536865,189.9163199451136L540.3663195419311,161.6024073179717L541.1263284301758,132.71882326434354L542.646346206665,218.43175434378907L543.4063550949096,184.31284693464275L544.1663639831543,174.65021933902284L544.9263728713989,184.96326412107862L545.6863817596436,182.65184997444302L546.4463906478882,197.10270146173278L547.2063995361328,174.10231459784407L550.2464350891113,145.14782617905217L551.006443977356,192.21493190068443L555.5664973068237,164.61139283425604L557.086515083313,197.69854014208204L557.8465239715576,229.18916778025437L558.6065328598022,204.9691607259783L559.3665417480469,150.5914431729581L560.1265506362915,160.31109335518647L560.8865595245361,206.4058991926833L561.6465684127808,216.5688737637084L562.4065773010253,163.56623791687994L563.16658618927,237.09332143808876L563.9265950775147,131.91295883097501L564.6866039657593,85.69042143755223L565.4466128540039,110.39231176144222L566.2066217422484,162.16532173424568L566.9666306304931,104.83669123538931L567.7266395187378,129.10524159279004L568.4866484069825,171.81658598401827L569.246657295227,172.01657432559634L570.7666750717163,120.86623618826223L571.526683959961,133.93362467140065L572.2866928482056,164.28385263304227L573.8067106246948,152.2566808742465L575.3267284011841,132.16039439526685L576.8467461776734,198.9337335588165L577.6067550659179,178.53551245417847L579.8867817306518,167.75162082428022L580.6467906188965,175.07744080564973L581.406799507141,188.9452994860601L582.9268172836304,234.53122642908207L583.686826171875,181.03294694524482L584.4468350601196,191.23915330975814L585.966852836609,193.2395264258067L587.4868706130982,178.01358373647767L588.2468795013427,181.77608679222203L589.7668972778321,182.00158739848885L590.5269061660766,181.10455698350884L591.2869150543213,220.4047073716338L592.0469239425659,186.9884262830388L592.8069328308105,199.0605486611181L593.5669417190552,200.10508031066627L594.3269506072999,179.8002098429183L595.0869594955444,161.6358474411606L595.846968383789,133.75706829831492L597.3669861602783,146.3827502564533L598.126995048523,150.98341905871337L598.8870039367675,143.26004556975684L601.1670306015016,196.69022569530483L601.9270394897461,153.47647547822072L602.6870483779907,194.41643096136394L604.20706615448,166.4350867498933L604.9670750427247,213.84032234348464L605.7270839309692,185.4480242249822L606.4870928192139,172.2125123393845L608.0071105957031,173.14140054903567L609.5271283721924,197.17764337153383L610.287137260437,180.05089779260462L611.0471461486816,150.84354952097917L612.5671639251709,190.27157937590664L614.0871817016601,178.06547628283724L615.6071994781495,203.51629395188607L616.367208366394,217.4249318348828L617.1272172546387,207.38182359062546L619.4072439193726,221.36553438880986L622.447279472351,194.53874986209303L623.2072883605957,163.12963689237068L623.9672972488404,177.75252428841634L624.727306137085,193.95068468380876L625.4873150253295,177.42794015218064L627.0073328018188,239.01658085097853L627.7673416900635,170.90177027565417L630.0473683547974,202.0134428945943L630.8073772430421,215.71533971404628L632.3273950195312,191.21839154168978L633.8474127960205,165.17064284862215L634.6074216842652,219.60588745310278L636.887448348999,194.0844807639712L638.4074661254883,218.84776569990728L639.1674750137329,176.28517959198098L639.9274839019776,168.67447528880425L641.4475016784668,157.86072310311178L642.2075105667114,179.48689379411894L642.967519454956,176.32975304588655L643.7275283432007,191.18648948145727L644.4875372314452,188.34479068859076L645.24754611969,184.83835578946648L646.0075550079346,207.03944787726147L646.7675638961792,179.49534715727677L647.5275727844238,189.32053176740945L650.5676083374024,263.1177999745219L651.3276172256469,187.62815374109564L652.8476350021363,211.09672081977837L654.3676527786255,191.83871274946767L655.12766166687,209.5340762481421L655.8876705551147,160.57306704283593L656.6476794433594,231.12773132166748L657.407688331604,191.84066196843077L658.1676972198486,241.37602227348853L658.9277061080933,257.69605558442856L659.6877149963378,188.75908635370757L660.4477238845825,271.60758426640655L661.9677416610717,212.50903006384L662.7277505493164,190.98152292526302L663.4877594375611,222.7149038646489L664.2477683258057,221.13533083449067L665.0077772140503,185.27100330903784L666.5277949905395,223.25034868263756L667.2878038787842,217.41693485838942L668.0478127670289,237.56558501597053L669.5678305435181,185.8595711301736L670.3278394317626,221.79196310127435L671.0878483200073,187.24528748740943L671.847857208252,194.76524823914175L672.6078660964965,165.30747673910392L673.3678749847412,209.92593900763853L674.1278838729858,171.41503689451278L674.8878927612304,197.92202086662888L675.6479016494751,210.1105027647092L677.927928314209,194.0127082604939L679.4479460906982,214.67722500499488L680.9679638671874,206.19954897998642L683.2479905319215,234.78323592776954L684.007999420166,207.2974733333908L684.7680083084106,256.94719386318764L685.5280171966552,206.28078198966514L686.2880260848999,226.74370499496553L687.0480349731446,206.4236799927523L687.8080438613891,177.13230932001525L688.5680527496337,206.7461251237485L689.3280616378785,195.5127677625063L690.088070526123,186.05185598035675L690.8480794143677,235.07382649803998L691.6080883026123,249.1576480470788L692.3680971908569,239.30824325762154L694.6481238555908,186.19592615317575L695.4081327438354,242.17054889962589L697.6881594085694,255.73030286764333L698.448168296814,186.2318908936462L699.9681860733033,189.95666132040904L700.7281949615478,193.02159460711252L701.4882038497925,216.39583696918265L702.2482127380371,214.4272493749365L703.0082216262816,257.8284893438107L703.7682305145264,242.26217972237714L706.0482571792602,247.09458934346276L706.808266067505,219.5562525041046L707.5682749557495,225.76371678730092L710.6083105087281,196.42400113825028L711.3683193969727,193.97918067092743L712.8883371734619,210.05632297123017L713.6483460617064,184.39372210156765L714.4083549499512,180.28406226928922L715.1683638381958,224.51876104700264L716.688381614685,198.93460379239394L718.2083993911743,276.1494143712214L718.9684082794189,234.2679749354814L719.7284171676636,175.23864064114443L721.2484349441529,271.73157153383613L722.0084438323975,271.9213173017354L722.768452720642,215.90706765327735L723.5284616088867,273.756688840922L724.2884704971315,212.00991508152967L725.048479385376,235.64700230622097L725.8084882736206,231.43742121092038L726.5684971618653,163.4343406633864L728.8485238265991,251.34778755553583L729.6085327148437,230.36366729142972L731.128550491333,206.34216140188764L732.6485682678223,215.16929205746766L733.4085771560668,238.5241991397195L734.1685860443115,196.26259959233946L734.9285949325562,198.79834915469542L736.4486127090454,256.15261914937116L737.20862159729,210.0159258881656L737.9686304855346,249.8712892620971L738.7286393737794,194.10456886663977L739.488648262024,275.9736209431516L740.2486571502685,267.8288395167619L741.0086660385132,270.19194133214074L741.7686749267579,297.44626167581424L744.0487015914916,193.2362481777099L744.8087104797363,235.6291241708343L747.0887371444702,175.6618058533792L747.8487460327148,289.51566690789184L748.6087549209595,269.3643047329355L750.1287726974488,231.99492421596193L751.6487904739379,254.56185402492366L752.4087993621827,282.3958879557946L753.1688082504272,282.33836736826044L753.9288171386719,209.6607537231676L754.6888260269164,217.78343571920806L755.4488349151611,190.35547757465503L756.2088438034058,223.8790755170445L756.9688526916505,250.01003375859221L758.4888704681396,246.45936473161174L759.2488793563844,202.52588402584638L760.0088882446289,187.86268645413952L761.5289060211181,228.7950103283207L763.808932685852,182.9945435761228L764.5689415740967,275.93027242575226L765.3289504623413,199.1125218672126L766.088959350586,196.06329834811837L766.8489682388306,216.2151034241276L768.3689860153198,208.41395206930048L769.1289949035644,191.01827868465926L769.8890037918092,181.80834713098946L771.4090215682984,232.85662365828367L772.1690304565429,171.62135552377185L773.6890482330323,225.84542359615392L775.9690748977661,202.14742335583475L777.4890926742554,243.70863164643916L778.2491015625,175.55366231541527L779.0091104507446,211.59438956769264L781.2891371154785,188.18245140540583L782.0491460037231,205.5645065326103L783.5691637802124,153.06994842170843L784.3291726684571,187.79435727583166L785.8491904449463,191.34576914244718L786.6091993331909,274.814442397938L787.3692082214357,162.00879126494365L788.8892259979248,198.1276780179639L789.6492348861694,217.4656265195182L791.9292615509033,218.82174343712512L792.6892704391479,261.1174692041437L794.2092882156372,210.018592383237L794.9692971038819,279.78831486380926L795.7293059921265,247.99828931876775L796.489314880371,199.34085348880697L798.0093326568604,172.31460546092336L798.769341545105,184.7425721335704L799.5293504333496,152.69293787230848L800.2893593215941,167.28896613405303L801.8093770980836,188.87422284542774L803.3293948745727,188.02463943223484L804.849412651062,205.38479915567066L805.6094215393067,198.0803557322786L806.3694304275513,166.41773678992757L807.1294393157958,190.07827603882774L807.8894482040405,163.92904451096217L810.9294837570189,193.30047427912942L811.6894926452637,192.4641864768709L812.4495015335083,228.108201675959L813.209510421753,181.6774661534312L815.4895370864868,197.47907925132301L816.2495459747315,177.68700420055973L817.0095548629761,235.33632849886925L817.7695637512206,195.1232892886438L818.5295726394654,165.84987922580558L820.0495904159546,181.97701166449747L820.8095993041992,186.49767675158805L821.5696081924438,287.2664036008816L822.3296170806885,266.3469493466263L823.8496348571778,236.72404590445848L824.6096437454223,268.921854070432L825.3696526336671,194.82079229723968L826.1296615219117,212.31126817281506L826.8896704101562,195.4022469391342L827.6496792984009,217.05144240067753L828.4096881866454,209.0056283261338L829.9297059631348,167.4873869848603L830.6897148513793,218.00813061308975L831.449723739624,188.44721316148895L832.9697415161133,177.8276448328085L833.7297504043579,195.20234277155535L835.2497681808471,226.84958278395888L836.0097770690919,249.41972151861475L839.0498126220702,237.38490355927777L839.809821510315,236.46450448385562L841.3298392868041,205.19640714969518L842.0898481750488,189.69532805071015L842.8498570632935,143.4909854281347L843.6098659515382,181.0306119259954L844.3698748397827,174.30415410501567L845.1298837280273,213.82212317163552L845.8898926162719,246.63703596068677L847.4099103927613,195.3788497368639L848.1699192810058,236.07158481965365L848.9299281692505,276.4008990701147L851.2099548339844,209.47220062053177L851.969963722229,232.11213429702207L852.7299726104736,237.0152028115211L853.4899814987183,220.38209318252325L855.0099992752075,288.42912855324886L859.5700526046752,211.8241155039128L860.33006149292,213.42751565813938L861.0900703811645,242.00504457973153L861.8500792694092,277.3040001347654L862.6100881576538,204.05028621237685L865.6501237106323,141.53579585802947L867.9301503753662,251.64825102286903L868.6901592636109,260.7167522874844L870.2101770401,177.07133860378565L872.490203704834,174.99361745883556L873.2502125930786,254.6399320106914L874.7702303695679,201.128893544715L875.5302392578125,181.23717167468402L876.2902481460571,197.4202061163326L877.0502570343017,260.0004453598675L878.570274810791,184.94649837460761L879.3302836990357,158.2098536994797L880.0902925872803,203.97059272106367L880.8503014755248,215.0092009381413L881.6103103637696,173.03790441198396L882.3703192520142,208.17588396349524L883.1303281402588,180.0110736034005L883.8903370285034,196.51997488255807L884.6503459167479,209.7652954365423L886.1703636932373,172.26759272731385L886.930372581482,132.03157368345816L888.4503903579713,100.23479016933794L889.9704081344604,127.20324938255061L890.7304170227051,160.27098648057438L892.2504347991944,182.44389764005888L893.7704525756835,220.5608914125319L894.5304614639282,245.77009847680455L895.290470352173,270.07505352666743L896.0504792404175,222.67016672180748L898.3305059051513,239.49376202688214L899.0905147933961,208.62359482103423L899.8505236816407,200.44128871959134L900.6105325698852,210.00221524527944L902.1305503463745,168.75948776125927L902.8905592346192,160.83111097011448L904.4105770111083,143.41578606612288L905.170585899353,140.20752860085904L908.9706303405761,192.32389306337126L909.7306392288209,242.40888186910536L911.25065700531,231.66216527244111L912.0106658935547,194.72403224387344L913.530683670044,185.72611850143844L914.2906925582886,225.1694962859449L915.0507014465331,177.46505622873676L915.8107103347778,204.16871780195694L917.3307281112671,199.11732946769638L918.0907369995117,203.93039446232615L918.8507458877563,184.24486602604614L920.3707636642456,176.05485938551683L921.1307725524903,243.1857177766956L921.8907814407348,211.2028667562842L922.6507903289794,241.7175415224702L924.9308169937134,229.87849184993036L926.4508347702026,210.26772686096965L928.7308614349365,238.21293600667545L930.2508792114259,288.4474601277943L931.0108880996704,229.45336071930242L931.7708969879151,256.6074965674104L932.5309058761596,256.06390505200676L934.050923652649,293.6726253740508L935.5709414291382,202.54632634762118L936.3309503173828,212.7433840170906L937.0909592056275,206.19486740595582L937.8509680938721,209.17709778076414L938.6109769821167,265.8607355711084L939.3709858703613,214.3261207155575L940.1309947586059,215.8217436512709L940.8910036468507,210.35828180577658L941.6510125350952,192.49450695297907L943.931039199829,262.222021174776L944.6910480880738,237.05850124396883L945.4510569763183,194.53250151771255L949.2511014175415,143.05445305730208L950.0111103057861,185.53317269198806L950.7711191940307,208.33748699113664L951.5311280822755,204.0688764219136L953.0511458587646,221.5027182938432L953.8111547470093,230.34043200524357L954.5711636352539,165.36208527224065L955.3311725234986,224.38161083692603L956.0911814117432,277.70631756122566L959.8912258529663,186.10440734389235L960.6512347412109,225.92842138159187L961.4112436294555,281.6743445066852L962.1712525177003,211.13742304687307L962.9312614059448,240.70835204454764L963.6912702941894,279.8974942133344L965.2112880706787,233.8049355115008L965.9712969589234,292.7858574407358L966.731305847168,190.73072982261942L967.4913147354125,282.4263729924625L968.2513236236572,319.0313588304502L969.0113325119019,291.1591870387341L969.7713414001465,177.20612211817337L970.5313502883911,204.14678442075643L971.2913591766356,307.4591643956877L972.8113769531251,251.37673389527924L973.5713858413696,304.1105476379608L974.3313947296142,302.6287872333122L975.0914036178589,187.6206850341257L975.8514125061035,289.8681147516452L976.6114213943482,259.234535563928L977.3714302825928,223.31315560065931L978.891448059082,254.54705320966988L980.4114658355713,290.46102386622175L981.9314836120604,227.9122653108427L982.6914925003052,273.61728612698784L983.4515013885498,277.9383014665023L984.971519165039,231.61938443856212L986.4915369415284,212.63131866966125L987.251545829773,205.78275330674552L988.7715636062621,256.4998675559063L990.2915813827515,263.3390323143056L991.0515902709961,199.06564113846247L991.8115991592407,198.07126706212054L993.33161693573,232.9877355486145L995.6116436004638,231.3157056430597L996.3716524887086,220.82262100019076L998.6516791534424,218.97100588878442L1000.1716969299317,324.53142847333635L1002.4517235946655,260.87071424805305L1004.7317502593994,213.1819923370186L1005.4917591476441,191.70978462192906L1006.2517680358886,198.59719247482934L1007.0117769241334,201.75083980637572L1007.771785812378,228.58011128127194L1008.5317947006225,237.84359410725045L1009.2918035888672,242.7443153927622L1010.0518124771118,211.69807218970158L1010.8118213653565,227.2974201453696L1011.5718302536011,263.05882022670977L1013.0918480300903,231.28485165812623L1013.851856918335,217.34662917393229L1014.6118658065797,210.29763374017006L1016.8918924713134,261.30251472780975L1017.6519013595581,193.21469397247185L1019.1719191360473,209.1784037947057L1019.931928024292,217.399575406589L1020.6919369125366,262.00403061758357L1021.4519458007813,235.93988949679448L1022.9719635772705,271.8550668583813L1025.2519902420045,199.83815942888708L1026.011999130249,221.48302010795493L1026.7720080184936,209.10719396980383L1027.5320169067381,195.87761361777694L1028.292025794983,180.28864750816433L1029.0520346832275,311.9235004537558L1029.8120435714723,204.12453330223298L1030.5720524597168,224.34502511608127L1031.3320613479616,197.84922662770023L1032.0920702362062,244.89385904657186L1032.8520791244507,185.88629322712748L1033.6120880126953,216.48929706349898L1034.3720969009398,264.09919985800065L1035.1321057891846,197.81845195467594L1036.6521235656737,293.20326420752656L1037.4121324539185,198.5658469153179L1038.172141342163,246.2096030993239L1038.9321502304078,204.04749019026352L1046.532239112854,215.69759625160248L1048.812265777588,271.4149845414428L1049.5722746658325,267.0823085019657L1050.332283554077,210.22826810203688L1051.0922924423217,199.42033205651924L1052.612310218811,284.0874381102041L1053.3723191070558,196.91995124924105L1054.1323279953003,289.8545545930998L1054.8923368835449,171.0548886782935L1055.6523457717894,196.03654634970806L1057.1723635482788,215.99698326748336L1057.9323724365233,276.07301510252273L1058.6923813247681,215.6544746730757L1059.4523902130127,292.6825349206767L1060.2123991012575,234.8007460495275L1060.972407989502,209.33505608219113L1061.7324168777466,197.65930392012058L1062.4924257659911,192.65266306669858L1063.252434654236,210.9288637405891L1064.0124435424805,273.8929077530332L1064.772452430725,227.55250160902054L1066.2924702072144,232.8005619571708L1067.052479095459,236.95532712022458L1068.5724968719483,196.00900207375778L1069.3325057601928,200.63788203416942L1070.0925146484376,193.3722649797631L1071.6125324249267,294.2002341066136L1072.3725413131713,288.7669671106985L1073.132550201416,175.7802512358561L1073.8925590896606,207.10499775205327L1074.6525679779054,241.1260478960539L1075.41257686615,268.39446853895674L1078.4526124191284,204.32622647880515L1079.9726301956175,203.90629456099117L1082.2526568603516,232.34724277204677L1083.0126657485962,187.68883286959942L1084.5326835250855,209.02105145674932L1085.29269241333,182.85227448795635L1086.0527013015746,225.6315369039392L1087.572719078064,227.4769500581623L1088.3327279663085,250.67936285268132L1089.0927368545533,272.0077793604071L1089.8527457427979,193.17866975459108L1090.6127546310427,256.6158796608584L1091.3727635192872,226.47507160663574L1092.1327724075318,245.08780625873166L1092.8927812957763,198.1413307080985L1093.652790184021,258.6461227746313L1095.9328168487548,207.11067189637058L1096.6928257369996,213.7220686970414L1097.4528346252441,222.05305509472697L1098.9728524017335,163.85905286242536L1099.732861289978,172.23297066192788L1100.4928701782226,167.1718114445276L1101.2528790664674,224.76351843119718L1102.012887954712,207.15112310072263L1104.2929146194458,206.18429249978556L1105.0529235076906,183.2753519780073L1105.8129323959351,169.92148030303596L1106.5729412841797,289.7178497849145L1107.3329501724243,213.2042327767349L1108.092959060669,202.24642894794587L1108.8529679489136,237.45887469654056L1110.3729857254027,250.6803979366079L1111.1329946136475,303.2308500605954L1111.893003501892,222.7534380373776L1112.6530123901368,275.0634379725418L1113.4130212783814,205.4137031383149L1114.173030166626,213.7122644890094L1114.9330390548705,288.6812561170342L1115.6930479431153,212.2202857907519L1117.973074607849,291.4035155306051L1118.7330834960937,286.85754025227783L1120.253101272583,212.8862004938774L1123.2931368255615,201.47540599073085L1124.053145713806,207.95911354038097L1125.5731634902954,215.5696783079517L1126.33317237854,222.09583671850223L1127.0931812667848,257.7132783719957L1128.6131990432739,203.54909833949614L1130.1332168197632,206.4543788764532L1130.8932257080078,200.00697605171732L1131.6532345962523,189.33416078955898L1133.1732523727417,286.75188039785183L1133.9332612609862,266.1042502593467L1134.693270149231,298.41187274921134L1135.4532790374756,218.11141584240278L1136.973296813965,185.6475748137266L1137.7333057022095,244.7567202007895L1138.493314590454,242.01842748658424L1139.2533234786986,184.6875601683603L1140.0133323669434,223.55499495716225L1141.5333501434327,180.75722250494107L1142.2933590316773,270.0708851678427L1143.053367919922,291.3683204538903L1144.5733856964112,223.7171125927205L1145.3333945846557,251.485334519984L1147.6134212493896,196.63714277764336L1149.133439025879,178.60637429457506L1149.8934479141235,170.70463928052604L1151.4134656906128,256.06626825210196L1152.1734745788574,232.7365859076485L1152.933483467102,221.9929295126948L1153.6934923553467,248.22178339639845L1154.4535012435913,206.66097687130335L1155.2135101318358,230.7603942597872L1155.9735190200806,212.44064399657714L1158.2535456848145,246.30941676715406L1159.013554573059,287.4794200786121L1159.7735634613036,295.12799404270135L1160.5335723495484,258.57002430779016L1161.293581237793,251.06101866152954L1162.0535901260375,256.0869521113785L1162.813599014282,218.3671571032079L1164.3336167907714,237.79191153435107L1165.0936256790162,269.46930718487465L1165.8536345672608,209.6107519437601L1166.6136434555053,281.38046547461886L1167.37365234375,226.96498077121745L1168.1336612319947,245.4056948829505L1170.4136878967286,203.34975751773405L1171.933705673218,266.8167224053434L1172.6937145614625,259.19112892348915L1173.453723449707,218.31480566471748L1174.2137323379516,281.74092750370056L1174.9737412261964,280.8326563923996L1175.733750114441,312.884056189335L1176.4937590026855,299.4026785024364L1177.25376789093,303.75027678121495L1178.0137767791748,232.64213877481683L1178.7737856674194,229.49115519698998L1181.0538123321533,178.33913469998663L1181.813821220398,164.19743792111777L1184.0938478851317,258.08285964402114L1184.8538567733765,206.38795195447568L1186.3738745498658,234.96641408050664L1187.1338834381104,286.89660320650756L1187.893892326355,227.04508615936894L1189.4139101028443,162.87421134872122L1190.1739189910888,190.16516642007198L1190.9339278793334,171.00135208385169L1192.4539456558227,207.13781234324478L1193.2139545440673,252.16671110322685L1193.973963432312,188.09113476792328L1195.4939812088014,276.9786635796901L1196.253990097046,173.40497670880038L1197.0139989852905,282.4252435095256L1198.5340167617796,221.28304357986516L1199.2940256500244,183.41831875488137L1200.054034538269,236.36355213270608L1201.5740523147583,298.2115797185787L1202.334061203003,215.45500393633478L1203.8540789794922,183.06134865973752L1204.6140878677368,296.82038769770185L1205.3740967559813,248.69762091295453L1206.134105644226,206.81366812511624L1206.8941145324707,279.26871285044155L1207.6541234207152,278.88901560132985L1209.1741411972046,225.67293693335358L1209.9341500854493,226.47164639922147L1212.214176750183,215.2985574937387L1213.7341945266724,239.40933041148168L1216.0142211914062,233.12733845346764L1219.0542567443847,309.15778513940654L1222.854301185608,207.27022618615518L1225.1343278503418,206.44007310487254L1225.8943367385864,239.49887281723733L1226.654345626831,206.68957382626618L1227.4143545150757,192.94804088998822L1228.1743634033203,240.62783123738237L1228.9343722915648,288.0668162074261L1230.4543900680542,261.4890809482389L1231.214398956299,288.7735677505668L1232.734416732788,256.9701428958448L1233.4944256210326,201.14849241620735L1235.014443397522,190.35759193172294L1235.7744522857665,265.94726882678606L1236.534461174011,288.07330419940564L1237.2944700622559,212.41417022091557L1238.8144878387452,173.85595638453245L1239.5744967269898,187.49370741311276L1240.3345056152343,193.68721017962844L1241.094514503479,281.87664996281933L1241.8545233917237,299.40953700240675L1242.6145322799682,280.1167359785927L1243.3745411682128,180.06293473824522L1244.1345500564576,198.05777981058085L1244.894558944702,168.81776036778916L1246.4145767211915,161.56077599707916L1247.9345944976808,269.55235242238984L1248.6946033859253,262.35558513720434L1250.2146211624145,190.01788918963894L1252.4946478271484,135.31117557724747L1254.0146656036377,146.31709165681195L1257.0547011566161,180.17426275955975L1257.8147100448607,233.2650609430912L1258.5747189331055,264.9877184778531L1259.33472782135,173.85219836312157L1261.6147544860842,218.1451273079691L1262.3747633743287,239.7706677244059L1263.1347722625733,267.58500502919526L1265.4147989273072,264.5428524549037L1266.1748078155517,255.88470237367477L1267.694825592041,257.20399342381285L1268.4548344802856,248.81856750105553L1269.2148433685304,204.09010926426058L1271.494870033264,170.71021901684665L1272.2548789215089,225.9554673930731L1273.0148878097534,257.741588791604L1274.5349055862425,211.72130318142067L1275.2949144744873,266.9539312647478L1276.054923362732,285.0469873479675L1276.8149322509767,271.75068008565785L1277.5749411392212,275.98904488844255L1278.3349500274658,273.9579782574896L1279.0949589157105,195.07049632687477L1279.854967803955,291.3626920664272" fill="none"></path></g></g></g></g></g></g><g transform="translate(49, 378)" clip-path="url(#clip_1)"><clipPath id="clip_1"><rect width="1368" height="21"></rect></clipPath><g><g><line x1="0" y1="0" x2="0" y2="5" style="visibility: inherit;" fill="rgb(0, 0, 0)" stroke="rgb(204, 204, 204)" stroke-width="1px"></line><line x1="152.00177764892578" y1="0" x2="152.00177764892578" y2="5" style="visibility: inherit;" fill="rgb(0, 0, 0)" stroke="rgb(204, 204, 204)" stroke-width="1px"></line><line x1="304.00355529785156" y1="0" x2="304.00355529785156" y2="5" style="visibility: inherit;" fill="rgb(0, 0, 0)" stroke="rgb(204, 204, 204)" stroke-width="1px"></line><line x1="456.00533294677734" y1="0" x2="456.00533294677734" y2="5" style="visibility: inherit;" fill="rgb(0, 0, 0)" stroke="rgb(204, 204, 204)" stroke-width="1px"></line><line x1="608.0071105957031" y1="0" x2="608.0071105957031" y2="5" style="visibility: inherit;" fill="rgb(0, 0, 0)" stroke="rgb(204, 204, 204)" stroke-width="1px"></line><line x1="760.0088882446289" y1="0" x2="760.0088882446289" y2="5" style="visibility: inherit;" fill="rgb(0, 0, 0)" stroke="rgb(204, 204, 204)" stroke-width="1px"></line><line x1="912.0106658935547" y1="0" x2="912.0106658935547" y2="5" style="visibility: inherit;" fill="rgb(0, 0, 0)" stroke="rgb(204, 204, 204)" stroke-width="1px"></line><line x1="1064.0124435424805" y1="0" x2="1064.0124435424805" y2="5" style="visibility: inherit;" fill="rgb(0, 0, 0)" stroke="rgb(204, 204, 204)" stroke-width="1px"></line><line x1="1216.0142211914062" y1="0" x2="1216.0142211914062" y2="5" style="visibility: inherit;" fill="rgb(0, 0, 0)" stroke="rgb(204, 204, 204)" stroke-width="1px"></line><line x1="1368.015998840332" y1="0" x2="1368.015998840332" y2="5" style="visibility: inherit;" fill="rgb(0, 0, 0)" stroke="rgb(204, 204, 204)" stroke-width="1px"></line></g><g transform="translate(0, 8)"><text style="text-anchor: middle; visibility: hidden; font-family: &quot;Helvetica Neue&quot;, sans-serif; font-size: 12px; font-weight: 200;" x="0" y="0" dx="0em" dy="0.95em" fill="rgb(50, 49, 63)" stroke="none" stroke-width="1px">-200</text><text style="text-anchor: middle; visibility: inherit; font-family: &quot;Helvetica Neue&quot;, sans-serif; font-size: 12px; font-weight: 200;" x="152.00177764892578" y="0" dx="0em" dy="0.95em" fill="rgb(50, 49, 63)" stroke="none" stroke-width="1px">0</text><text style="text-anchor: middle; visibility: inherit; font-family: &quot;Helvetica Neue&quot;, sans-serif; font-size: 12px; font-weight: 200;" x="304.00355529785156" y="0" dx="0em" dy="0.95em" fill="rgb(50, 49, 63)" stroke="none" stroke-width="1px">200</text><text style="text-anchor: middle; visibility: inherit; font-family: &quot;Helvetica Neue&quot;, sans-serif; font-size: 12px; font-weight: 200;" x="456.00533294677734" y="0" dx="0em" dy="0.95em" fill="rgb(50, 49, 63)" stroke="none" stroke-width="1px">400</text><text style="text-anchor: middle; visibility: inherit; font-family: &quot;Helvetica Neue&quot;, sans-serif; font-size: 12px; font-weight: 200;" x="608.0071105957031" y="0" dx="0em" dy="0.95em" fill="rgb(50, 49, 63)" stroke="none" stroke-width="1px">600</text><text style="text-anchor: middle; visibility: inherit; font-family: &quot;Helvetica Neue&quot;, sans-serif; font-size: 12px; font-weight: 200;" x="760.0088882446289" y="0" dx="0em" dy="0.95em" fill="rgb(50, 49, 63)" stroke="none" stroke-width="1px">800</text><text style="text-anchor: middle; visibility: inherit; font-family: &quot;Helvetica Neue&quot;, sans-serif; font-size: 12px; font-weight: 200;" x="912.0106658935547" y="0" dx="0em" dy="0.95em" fill="rgb(50, 49, 63)" stroke="none" stroke-width="1px">1k</text><text style="text-anchor: middle; visibility: inherit; font-family: &quot;Helvetica Neue&quot;, sans-serif; font-size: 12px; font-weight: 200;" x="1064.0124435424805" y="0" dx="0em" dy="0.95em" fill="rgb(50, 49, 63)" stroke="none" stroke-width="1px">1.2k</text><text style="text-anchor: middle; visibility: inherit; font-family: &quot;Helvetica Neue&quot;, sans-serif; font-size: 12px; font-weight: 200;" x="1216.0142211914062" y="0" dx="0em" dy="0.95em" fill="rgb(50, 49, 63)" stroke="none" stroke-width="1px">1.4k</text><text style="text-anchor: middle; visibility: hidden; font-family: &quot;Helvetica Neue&quot;, sans-serif; font-size: 12px; font-weight: 200;" x="1368.015998840332" y="0" dx="0em" dy="0.95em" fill="rgb(50, 49, 63)" stroke="none" stroke-width="1px">1.6k</text></g><line x1="0" y1="0" x2="1368.015998840332" y2="0" fill="rgb(0, 0, 0)" stroke="rgb(204, 204, 204)" stroke-width="1px"></line></g></g></g></g></svg>