<svg viewBox="0 0 1418 400" xmlns="http://www.w3.org/2000/svg"><g><g><g><g><g><line x1="49.98400115966797" y1="368.39100897834834" x2="44.98400115966797" y2="368.39100897834834" style="visibility: inherit;" fill="rgb(0, 0, 0)" stroke="rgb(204, 204, 204)" stroke-width="1px"></line><line x1="49.98400115966797" y1="360.785208583202" x2="44.98400115966797" y2="360.785208583202" style="visibility: inherit;" fill="rgb(0, 0, 0)" stroke="rgb(204, 204, 204)" stroke-width="1px"></line><line x1="49.98400115966797" y1="355.3888073230804" x2="44.98400115966797" y2="355.3888073230804" style="visibility: inherit;" fill="rgb(0, 0, 0)" stroke="rgb(204, 204, 204)" stroke-width="1px"></line><line x1="49.98400115966797" y1="351.20303331485866" x2="44.98400115966797" y2="351.20303331485866" style="visibility: inherit;" fill="rgb(0, 0, 0)" stroke="rgb(204, 204, 204)" stroke-width="1px"></line><line x1="49.98400115966797" y1="347.78300692793414" x2="44.98400115966797" y2="347.78300692793414" style="visibility: inherit;" fill="rgb(0, 0, 0)" stroke="rgb(204, 204, 204)" stroke-width="1px"></line><line x1="49.98400115966797" y1="344.8914158191143" x2="44.98400115966797" y2="344.8914158191143" style="visibility: inherit;" fill="rgb(0, 0, 0)" stroke="rgb(204, 204, 204)" stroke-width="1px"></line><line x1="49.98400115966797" y1="342.3866056678125" x2="44.98400115966797" y2="342.3866056678125" style="visibility: inherit;" fill="rgb(0, 0, 0)" stroke="rgb(204, 204, 204)" stroke-width="1px"></line><line x1="49.98400115966797" y1="340.17720653278786" x2="44.98400115966797" y2="340.17720653278786" style="visibility: inherit;" fill="rgb(0, 0, 0)" stroke="rgb(204, 204, 204)" stroke-width="1px"></line><line x1="49.98400115966797" y1="338.2008316595908" x2="44.98400115966797" y2="338.2008316595908" style="visibility: inherit;" fill="rgb(0, 0, 0)" stroke="rgb(204, 204, 204)" stroke-width="1px"></line><line x1="49.98400115966797" y1="325.1986300043228" x2="44.98400115966797" y2="325.1986300043228" style="visibility: inherit;" fill="rgb(0, 0, 0)" stroke="rgb(204, 204, 204)" stroke-width="1px"></line><line x1="49.98400115966797" y1="317.59282960917653" x2="44.98400115966797" y2="317.59282960917653" style="visibility: inherit;" fill="rgb(0, 0, 0)" stroke="rgb(204, 204, 204)" stroke-width="1px"></line><line x1="49.98400115966797" y1="312.19642834905494" x2="44.98400115966797" y2="312.19642834905494" style="visibility: inherit;" fill="rgb(0, 0, 0)" stroke="rgb(204, 204, 204)" stroke-width="1px"></line><line x1="49.98400115966797" y1="308.0106543408332" x2="44.98400115966797" y2="308.0106543408332" style="visibility: inherit;" fill="rgb(0, 0, 0)" stroke="rgb(204, 204, 204)" stroke-width="1px"></line><line x1="49.98400115966797" y1="304.59062795390867" x2="44.98400115966797" y2="304.59062795390867" style="visibility: inherit;" fill="rgb(0, 0, 0)" stroke="rgb(204, 204, 204)" stroke-width="1px"></line><line x1="49.98400115966797" y1="301.6990368450888" x2="44.98400115966797" y2="301.6990368450888" style="visibility: inherit;" fill="rgb(0, 0, 0)" stroke="rgb(204, 204, 204)" stroke-width="1px"></line><line x1="49.98400115966797" y1="299.194226693787" x2="44.98400115966797" y2="299.194226693787" style="visibility: inherit;" fill="rgb(0, 0, 0)" stroke="rgb(204, 204, 204)" stroke-width="1px"></line><line x1="49.98400115966797" y1="296.9848275587624" x2="44.98400115966797" y2="296.9848275587624" style="visibility: inherit;" fill="rgb(0, 0, 0)" stroke="rgb(204, 204, 204)" stroke-width="1px"></line><line x1="49.98400115966797" y1="295.0084526855653" x2="44.98400115966797" y2="295.0084526855653" style="visibility: inherit;" fill="rgb(0, 0, 0)" stroke="rgb(204, 204, 204)" stroke-width="1px"></line><line x1="49.98400115966797" y1="282.0062510302974" x2="44.98400115966797" y2="282.0062510302974" style="visibility: inherit;" fill="rgb(0, 0, 0)" stroke="rgb(204, 204, 204)" stroke-width="1px"></line><line x1="49.98400115966797" y1="274.40045063515106" x2="44.98400115966797" y2="274.40045063515106" style="visibility: inherit;" fill="rgb(0, 0, 0)" stroke="rgb(204, 204, 204)" stroke-width="1px"></line><line x1="49.98400115966797" y1="269.00404937502947" x2="44.98400115966797" y2="269.00404937502947" style="visibility: inherit;" fill="rgb(0, 0, 0)" stroke="rgb(204, 204, 204)" stroke-width="1px"></line><line x1="49.98400115966797" y1="264.8182753668077" x2="44.98400115966797" y2="264.8182753668077" style="visibility: inherit;" fill="rgb(0, 0, 0)" stroke="rgb(204, 204, 204)" stroke-width="1px"></line><line x1="49.98400115966797" y1="261.3982489798832" x2="44.98400115966797" y2="261.3982489798832" style="visibility: inherit;" fill="rgb(0, 0, 0)" stroke="rgb(204, 204, 204)" stroke-width="1px"></line><line x1="49.98400115966797" y1="258.50665787106334" x2="44.98400115966797" y2="258.50665787106334" style="visibility: inherit;" fill="rgb(0, 0, 0)" stroke="rgb(204, 204, 204)" stroke-width="1px"></line><line x1="49.98400115966797" y1="256.00184771976154" x2="44.98400115966797" y2="256.00184771976154" style="visibility: inherit;" fill="rgb(0, 0, 0)" stroke="rgb(204, 204, 204)" stroke-width="1px"></line><line x1="49.98400115966797" y1="253.79244858473692" x2="44.98400115966797" y2="253.79244858473692" style="visibility: inherit;" fill="rgb(0, 0, 0)" stroke="rgb(204, 204, 204)" stroke-width="1px"></line><line x1="49.98400115966797" y1="251.81607371153981" x2="44.98400115966797" y2="251.81607371153981" style="visibility: inherit;" fill="rgb(0, 0, 0)" stroke="rgb(204, 204, 204)" stroke-width="1px"></line><line x1="49.98400115966797" y1="238.8138720562719" x2="44.98400115966797" y2="238.8138720562719" style="visibility: inherit;" fill="rgb(0, 0, 0)" stroke="rgb(204, 204, 204)" stroke-width="1px"></line><line x1="49.98400115966797" y1="231.20807166112562" x2="44.98400115966797" y2="231.20807166112562" style="visibility: inherit;" fill="rgb(0, 0, 0)" stroke="rgb(204, 204, 204)" stroke-width="1px"></line><line x1="49.98400115966797" y1="225.811670401004" x2="44.98400115966797" y2="225.811670401004" style="visibility: inherit;" fill="rgb(0, 0, 0)" stroke="rgb(204, 204, 204)" stroke-width="1px"></line><line x1="49.98400115966797" y1="221.62589639278227" x2="44.98400115966797" y2="221.62589639278227" style="visibility: inherit;" fill="rgb(0, 0, 0)" stroke="rgb(204, 204, 204)" stroke-width="1px"></line><line x1="49.98400115966797" y1="218.2058700058577" x2="44.98400115966797" y2="218.2058700058577" style="visibility: inherit;" fill="rgb(0, 0, 0)" stroke="rgb(204, 204, 204)" stroke-width="1px"></line><line x1="49.98400115966797" y1="215.3142788970379" x2="44.98400115966797" y2="215.3142788970379" style="visibility: inherit;" fill="rgb(0, 0, 0)" stroke="rgb(204, 204, 204)" stroke-width="1px"></line><line x1="49.98400115966797" y1="212.80946874573607" x2="44.98400115966797" y2="212.80946874573607" style="visibility: inherit;" fill="rgb(0, 0, 0)" stroke="rgb(204, 204, 204)" stroke-width="1px"></line><line x1="49.98400115966797" y1="210.60006961071142" x2="44.98400115966797" y2="210.60006961071142" style="visibility: inherit;" fill="rgb(0, 0, 0)" stroke="rgb(204, 204, 204)" stroke-width="1px"></line><line x1="49.98400115966797" y1="208.62369473751434" x2="44.98400115966797" y2="208.62369473751434" style="visibility: inherit;" fill="rgb(0, 0, 0)" stroke="rgb(204, 204, 204)" stroke-width="1px"></line><line x1="49.98400115966797" y1="195.62149308224642" x2="44.98400115966797" y2="195.62149308224642" style="visibility: inherit;" fill="rgb(0, 0, 0)" stroke="rgb(204, 204, 204)" stroke-width="1px"></line><line x1="49.98400115966797" y1="188.01569268710017" x2="44.98400115966797" y2="188.01569268710017" style="visibility: inherit;" fill="rgb(0, 0, 0)" stroke="rgb(204, 204, 204)" stroke-width="1px"></line><line x1="49.98400115966797" y1="182.6192914269785" x2="44.98400115966797" y2="182.6192914269785" style="visibility: inherit;" fill="rgb(0, 0, 0)" stroke="rgb(204, 204, 204)" stroke-width="1px"></line><line x1="49.98400115966797" y1="178.4335174187568" x2="44.98400115966797" y2="178.4335174187568" style="visibility: inherit;" fill="rgb(0, 0, 0)" stroke="rgb(204, 204, 204)" stroke-width="1px"></line><line x1="49.98400115966797" y1="175.01349103183222" x2="44.98400115966797" y2="175.01349103183222" style="visibility: inherit;" fill="rgb(0, 0, 0)" stroke="rgb(204, 204, 204)" stroke-width="1px"></line><line x1="49.98400115966797" y1="172.12189992301245" x2="44.98400115966797" y2="172.12189992301245" style="visibility: inherit;" fill="rgb(0, 0, 0)" stroke="rgb(204, 204, 204)" stroke-width="1px"></line><line x1="49.98400115966797" y1="169.61708977171057" x2="44.98400115966797" y2="169.61708977171057" style="visibility: inherit;" fill="rgb(0, 0, 0)" stroke="rgb(204, 204, 204)" stroke-width="1px"></line><line x1="49.98400115966797" y1="167.40769063668594" x2="44.98400115966797" y2="167.40769063668594" style="visibility: inherit;" fill="rgb(0, 0, 0)" stroke="rgb(204, 204, 204)" stroke-width="1px"></line><line x1="49.98400115966797" y1="165.4313157634889" x2="44.98400115966797" y2="165.4313157634889" style="visibility: inherit;" fill="rgb(0, 0, 0)" stroke="rgb(204, 204, 204)" stroke-width="1px"></line><line x1="49.98400115966797" y1="152.42911410822094" x2="44.98400115966797" y2="152.42911410822094" style="visibility: inherit;" fill="rgb(0, 0, 0)" stroke="rgb(204, 204, 204)" stroke-width="1px"></line><line x1="49.98400115966797" y1="144.82331371307467" x2="44.98400115966797" y2="144.82331371307467" style="visibility: inherit;" fill="rgb(0, 0, 0)" stroke="rgb(204, 204, 204)" stroke-width="1px"></line><line x1="49.98400115966797" y1="139.42691245295305" x2="44.98400115966797" y2="139.42691245295305" style="visibility: inherit;" fill="rgb(0, 0, 0)" stroke="rgb(204, 204, 204)" stroke-width="1px"></line><line x1="49.98400115966797" y1="135.24113844473132" x2="44.98400115966797" y2="135.24113844473132" style="visibility: inherit;" fill="rgb(0, 0, 0)" stroke="rgb(204, 204, 204)" stroke-width="1px"></line><line x1="49.98400115966797" y1="131.82111205780677" x2="44.98400115966797" y2="131.82111205780677" style="visibility: inherit;" fill="rgb(0, 0, 0)" stroke="rgb(204, 204, 204)" stroke-width="1px"></line><line x1="49.98400115966797" y1="128.92952094898695" x2="44.98400115966797" y2="128.92952094898695" style="visibility: inherit;" fill="rgb(0, 0, 0)" stroke="rgb(204, 204, 204)" stroke-width="1px"></line><line x1="49.98400115966797" y1="126.42471079768512" x2="44.98400115966797" y2="126.42471079768512" style="visibility: inherit;" fill="rgb(0, 0, 0)" stroke="rgb(204, 204, 204)" stroke-width="1px"></line><line x1="49.98400115966797" y1="124.21531166266047" x2="44.98400115966797" y2="124.21531166266047" style="visibility: inherit;" fill="rgb(0, 0, 0)" stroke="rgb(204, 204, 204)" stroke-width="1px"></line><line x1="49.98400115966797" y1="122.23893678946342" x2="44.98400115966797" y2="122.23893678946342" style="visibility: inherit;" fill="rgb(0, 0, 0)" stroke="rgb(204, 204, 204)" stroke-width="1px"></line><line x1="49.98400115966797" y1="109.2367351341955" x2="44.98400115966797" y2="109.2367351341955" style="visibility: inherit;" fill="rgb(0, 0, 0)" stroke="rgb(204, 204, 204)" stroke-width="1px"></line><line x1="49.98400115966797" y1="101.63093473904922" x2="44.98400115966797" y2="101.63093473904922" style="visibility: inherit;" fill="rgb(0, 0, 0)" stroke="rgb(204, 204, 204)" stroke-width="1px"></line><line x1="49.98400115966797" y1="96.23453347892757" x2="44.98400115966797" y2="96.23453347892757" style="visibility: inherit;" fill="rgb(0, 0, 0)" stroke="rgb(204, 204, 204)" stroke-width="1px"></line><line x1="49.98400115966797" y1="92.04875947070587" x2="44.98400115966797" y2="92.04875947070587" style="visibility: inherit;" fill="rgb(0, 0, 0)" stroke="rgb(204, 204, 204)" stroke-width="1px"></line><line x1="49.98400115966797" y1="88.6287330837813" x2="44.98400115966797" y2="88.6287330837813" style="visibility: inherit;" fill="rgb(0, 0, 0)" stroke="rgb(204, 204, 204)" stroke-width="1px"></line><line x1="49.98400115966797" y1="85.73714197496145" x2="44.98400115966797" y2="85.73714197496145" style="visibility: inherit;" fill="rgb(0, 0, 0)" stroke="rgb(204, 204, 204)" stroke-width="1px"></line><line x1="49.98400115966797" y1="83.23233182365965" x2="44.98400115966797" y2="83.23233182365965" style="visibility: inherit;" fill="rgb(0, 0, 0)" stroke="rgb(204, 204, 204)" stroke-width="1px"></line><line x1="49.98400115966797" y1="81.02293268863502" x2="44.98400115966797" y2="81.02293268863502" style="visibility: inherit;" fill="rgb(0, 0, 0)" stroke="rgb(204, 204, 204)" stroke-width="1px"></line><line x1="49.98400115966797" y1="79.0465578154379" x2="44.98400115966797" y2="79.0465578154379" style="visibility: inherit;" fill="rgb(0, 0, 0)" stroke="rgb(204, 204, 204)" stroke-width="1px"></line><line x1="49.98400115966797" y1="66.04435616017008" x2="44.98400115966797" y2="66.04435616017008" style="visibility: inherit;" fill="rgb(0, 0, 0)" stroke="rgb(204, 204, 204)" stroke-width="1px"></line><line x1="49.98400115966797" y1="58.43855576502369" x2="44.98400115966797" y2="58.43855576502369" style="visibility: inherit;" fill="rgb(0, 0, 0)" stroke="rgb(204, 204, 204)" stroke-width="1px"></line><line x1="49.98400115966797" y1="53.0421545049021" x2="44.98400115966797" y2="53.0421545049021" style="visibility: inherit;" fill="rgb(0, 0, 0)" stroke="rgb(204, 204, 204)" stroke-width="1px"></line><line x1="49.98400115966797" y1="48.8563804966804" x2="44.98400115966797" y2="48.8563804966804" style="visibility: inherit;" fill="rgb(0, 0, 0)" stroke="rgb(204, 204, 204)" stroke-width="1px"></line><line x1="49.98400115966797" y1="45.436354109755825" x2="44.98400115966797" y2="45.436354109755825" style="visibility: inherit;" fill="rgb(0, 0, 0)" stroke="rgb(204, 204, 204)" stroke-width="1px"></line><line x1="49.98400115966797" y1="42.54476300093603" x2="44.98400115966797" y2="42.54476300093603" style="visibility: inherit;" fill="rgb(0, 0, 0)" stroke="rgb(204, 204, 204)" stroke-width="1px"></line><line x1="49.98400115966797" y1="40.03995284963423" x2="44.98400115966797" y2="40.03995284963423" style="visibility: inherit;" fill="rgb(0, 0, 0)" stroke="rgb(204, 204, 204)" stroke-width="1px"></line><line x1="49.98400115966797" y1="37.83055371460955" x2="44.98400115966797" y2="37.83055371460955" style="visibility: inherit;" fill="rgb(0, 0, 0)" stroke="rgb(204, 204, 204)" stroke-width="1px"></line><line x1="49.98400115966797" y1="35.85417884141242" x2="44.98400115966797" y2="35.85417884141242" style="visibility: inherit;" fill="rgb(0, 0, 0)" stroke="rgb(204, 204, 204)" stroke-width="1px"></line><line x1="49.98400115966797" y1="22.851977186144552" x2="44.98400115966797" y2="22.851977186144552" style="visibility: inherit;" fill="rgb(0, 0, 0)" stroke="rgb(204, 204, 204)" stroke-width="1px"></line><line x1="49.98400115966797" y1="15.246176790998277" x2="44.98400115966797" y2="15.246176790998277" style="visibility: inherit;" fill="rgb(0, 0, 0)" stroke="rgb(204, 204, 204)" stroke-width="1px"></line><line x1="49.98400115966797" y1="9.84977553087657" x2="44.98400115966797" y2="9.84977553087657" style="visibility: inherit;" fill="rgb(0, 0, 0)" stroke="rgb(204, 204, 204)" stroke-width="1px"></line><line x1="49.98400115966797" y1="5.664001522654871" x2="44.98400115966797" y2="5.664001522654871" style="visibility: inherit;" fill="rgb(0, 0, 0)" stroke="rgb(204, 204, 204)" stroke-width="1px"></line><line x1="49.98400115966797" y1="2.2439751357302953" x2="44.98400115966797" y2="2.2439751357302953" style="visibility: inherit;" fill="rgb(0, 0, 0)" stroke="rgb(204, 204, 204)" stroke-width="1px"></line></g><g transform="translate(39.98400115966797, 0)"><text style="text-anchor: end; visibility: inherit; font-family: &quot;Helvetica Neue&quot;, sans-serif; font-size: 12px; font-weight: 200;" x="0" y="368.39100897834834" dx="0em" dy="0.3em" fill="rgb(50, 49, 63)" stroke="none" stroke-width="1px">2e-8</text><text style="text-anchor: end; visibility: hidden; font-family: &quot;Helvetica Neue&quot;, sans-serif; font-size: 12px; font-weight: 200;" x="0" y="360.785208583202" dx="0em" dy="0.3em" fill="rgb(50, 49, 63)" stroke="none" stroke-width="1px">3e-8</text><text style="text-anchor: end; visibility: hidden; font-family: &quot;Helvetica Neue&quot;, sans-serif; font-size: 12px; font-weight: 200;" x="0" y="355.3888073230804" dx="0em" dy="0.3em" fill="rgb(50, 49, 63)" stroke="none" stroke-width="1px">4e-8</text><text style="text-anchor: end; visibility: hidden; font-family: &quot;Helvetica Neue&quot;, sans-serif; font-size: 12px; font-weight: 200;" x="0" y="351.20303331485866" dx="0em" dy="0.3em" fill="rgb(50, 49, 63)" stroke="none" stroke-width="1px">5e-8</text><text style="text-anchor: end; visibility: hidden; font-family: &quot;Helvetica Neue&quot;, sans-serif; font-size: 12px; font-weight: 200;" x="0" y="347.78300692793414" dx="0em" dy="0.3em" fill="rgb(50, 49, 63)" stroke="none" stroke-width="1px">6e-8</text><text style="text-anchor: end; visibility: hidden; font-family: &quot;Helvetica Neue&quot;, sans-serif; font-size: 12px; font-weight: 200;" x="0" y="344.8914158191143" dx="0em" dy="0.3em" fill="rgb(50, 49, 63)" stroke="none" stroke-width="1px">7e-8</text><text style="text-anchor: end; visibility: inherit; font-family: &quot;Helvetica Neue&quot;, sans-serif; font-size: 12px; font-weight: 200;" x="0" y="342.3866056678125" dx="0em" dy="0.3em" fill="rgb(50, 49, 63)" stroke="none" stroke-width="1px">8e-8</text><text style="text-anchor: end; visibility: hidden; font-family: &quot;Helvetica Neue&quot;, sans-serif; font-size: 12px; font-weight: 200;" x="0" y="340.17720653278786" dx="0em" dy="0.3em" fill="rgb(50, 49, 63)" stroke="none" stroke-width="1px">9e-8</text><text style="text-anchor: end; visibility: hidden; font-family: &quot;Helvetica Neue&quot;, sans-serif; font-size: 12px; font-weight: 200;" x="0" y="338.2008316595908" dx="0em" dy="0.3em" fill="rgb(50, 49, 63)" stroke="none" stroke-width="1px">1e-7</text><text style="text-anchor: end; visibility: hidden; font-family: &quot;Helvetica Neue&quot;, sans-serif; font-size: 12px; font-weight: 200;" x="0" y="325.1986300043228" dx="0em" dy="0.3em" fill="rgb(50, 49, 63)" stroke="none" stroke-width="1px">2e-7</text><text style="text-anchor: end; visibility: hidden; font-family: &quot;Helvetica Neue&quot;, sans-serif; font-size: 12px; font-weight: 200;" x="0" y="317.59282960917653" dx="0em" dy="0.3em" fill="rgb(50, 49, 63)" stroke="none" stroke-width="1px">3e-7</text><text style="text-anchor: end; visibility: hidden; font-family: &quot;Helvetica Neue&quot;, sans-serif; font-size: 12px; font-weight: 200;" x="0" y="312.19642834905494" dx="0em" dy="0.3em" fill="rgb(50, 49, 63)" stroke="none" stroke-width="1px">4e-7</text><text style="text-anchor: end; visibility: inherit; font-family: &quot;Helvetica Neue&quot;, sans-serif; font-size: 12px; font-weight: 200;" x="0" y="308.0106543408332" dx="0em" dy="0.3em" fill="rgb(50, 49, 63)" stroke="none" stroke-width="1px">5e-7</text><text style="text-anchor: end; visibility: hidden; font-family: &quot;Helvetica Neue&quot;, sans-serif; font-size: 12px; font-weight: 200;" x="0" y="304.59062795390867" dx="0em" dy="0.3em" fill="rgb(50, 49, 63)" stroke="none" stroke-width="1px">6e-7</text><text style="text-anchor: end; visibility: hidden; font-family: &quot;Helvetica Neue&quot;, sans-serif; font-size: 12px; font-weight: 200;" x="0" y="301.6990368450888" dx="0em" dy="0.3em" fill="rgb(50, 49, 63)" stroke="none" stroke-width="1px">7e-7</text><text style="text-anchor: end; visibility: hidden; font-family: &quot;Helvetica Neue&quot;, sans-serif; font-size: 12px; font-weight: 200;" x="0" y="299.194226693787" dx="0em" dy="0.3em" fill="rgb(50, 49, 63)" stroke="none" stroke-width="1px">8e-7</text><text style="text-anchor: end; visibility: hidden; font-family: &quot;Helvetica Neue&quot;, sans-serif; font-size: 12px; font-weight: 200;" x="0" y="296.9848275587624" dx="0em" dy="0.3em" fill="rgb(50, 49, 63)" stroke="none" stroke-width="1px">9e-7</text><text style="text-anchor: end; visibility: hidden; font-family: &quot;Helvetica Neue&quot;, sans-serif; font-size: 12px; font-weight: 200;" x="0" y="295.0084526855653" dx="0em" dy="0.3em" fill="rgb(50, 49, 63)" stroke="none" stroke-width="1px">1e-6</text><text style="text-anchor: end; visibility: inherit; font-family: &quot;Helvetica Neue&quot;, sans-serif; font-size: 12px; font-weight: 200;" x="0" y="282.0062510302974" dx="0em" dy="0.3em" fill="rgb(50, 49, 63)" stroke="none" stroke-width="1px">2e-6</text><text style="text-anchor: end; visibility: hidden; font-family: &quot;Helvetica Neue&quot;, sans-serif; font-size: 12px; font-weight: 200;" x="0" y="274.40045063515106" dx="0em" dy="0.3em" fill="rgb(50, 49, 63)" stroke="none" stroke-width="1px">3e-6</text><text style="text-anchor: end; visibility: hidden; font-family: &quot;Helvetica Neue&quot;, sans-serif; font-size: 12px; font-weight: 200;" x="0" y="269.00404937502947" dx="0em" dy="0.3em" fill="rgb(50, 49, 63)" stroke="none" stroke-width="1px">4e-6</text><text style="text-anchor: end; visibility: hidden; font-family: &quot;Helvetica Neue&quot;, sans-serif; font-size: 12px; font-weight: 200;" x="0" y="264.8182753668077" dx="0em" dy="0.3em" fill="rgb(50, 49, 63)" stroke="none" stroke-width="1px">5e-6</text><text style="text-anchor: end; visibility: hidden; font-family: &quot;Helvetica Neue&quot;, sans-serif; font-size: 12px; font-weight: 200;" x="0" y="261.3982489798832" dx="0em" dy="0.3em" fill="rgb(50, 49, 63)" stroke="none" stroke-width="1px">6e-6</text><text style="text-anchor: end; visibility: hidden; font-family: &quot;Helvetica Neue&quot;, sans-serif; font-size: 12px; font-weight: 200;" x="0" y="258.50665787106334" dx="0em" dy="0.3em" fill="rgb(50, 49, 63)" stroke="none" stroke-width="1px">7e-6</text><text style="text-anchor: end; visibility: inherit; font-family: &quot;Helvetica Neue&quot;, sans-serif; font-size: 12px; font-weight: 200;" x="0" y="256.00184771976154" dx="0em" dy="0.3em" fill="rgb(50, 49, 63)" stroke="none" stroke-width="1px">8e-6</text><text style="text-anchor: end; visibility: hidden; font-family: &quot;Helvetica Neue&quot;, sans-serif; font-size: 12px; font-weight: 200;" x="0" y="253.79244858473692" dx="0em" dy="0.3em" fill="rgb(50, 49, 63)" stroke="none" stroke-width="1px">9e-6</text><text style="text-anchor: end; visibility: hidden; font-family: &quot;Helvetica Neue&quot;, sans-serif; font-size: 12px; font-weight: 200;" x="0" y="251.81607371153981" dx="0em" dy="0.3em" fill="rgb(50, 49, 63)" stroke="none" stroke-width="1px">1e-5</text><text style="text-anchor: end; visibility: hidden; font-family: &quot;Helvetica Neue&quot;, sans-serif; font-size: 12px; font-weight: 200;" x="0" y="238.8138720562719" dx="0em" dy="0.3em" fill="rgb(50, 49, 63)" stroke="none" stroke-width="1px">2e-5</text><text style="text-anchor: end; visibility: hidden; font-family: &quot;Helvetica Neue&quot;, sans-serif; font-size: 12px; font-weight: 200;" x="0" y="231.20807166112562" dx="0em" dy="0.3em" fill="rgb(50, 49, 63)" stroke="none" stroke-width="1px">3e-5</text><text style="text-anchor: end; visibility: hidden; font-family: &quot;Helvetica Neue&quot;, sans-serif; font-size: 12px; font-weight: 200;" x="0" y="225.811670401004" dx="0em" dy="0.3em" fill="rgb(50, 49, 63)" stroke="none" stroke-width="1px">4e-5</text><text style="text-anchor: end; visibility: inherit; font-family: &quot;Helvetica Neue&quot;, sans-serif; font-size: 12px; font-weight: 200;" x="0" y="221.62589639278227" dx="0em" dy="0.3em" fill="rgb(50, 49, 63)" stroke="none" stroke-width="1px">5e-5</text><text style="text-anchor: end; visibility: hidden; font-family: &quot;Helvetica Neue&quot;, sans-serif; font-size: 12px; font-weight: 200;" x="0" y="218.2058700058577" dx="0em" dy="0.3em" fill="rgb(50, 49, 63)" stroke="none" stroke-width="1px">6e-5</text><text style="text-anchor: end; visibility: hidden; font-family: &quot;Helvetica Neue&quot;, sans-serif; font-size: 12px; font-weight: 200;" x="0" y="215.3142788970379" dx="0em" dy="0.3em" fill="rgb(50, 49, 63)" stroke="none" stroke-width="1px">7e-5</text><text style="text-anchor: end; visibility: hidden; font-family: &quot;Helvetica Neue&quot;, sans-serif; font-size: 12px; font-weight: 200;" x="0" y="212.80946874573607" dx="0em" dy="0.3em" fill="rgb(50, 49, 63)" stroke="none" stroke-width="1px">8e-5</text><text style="text-anchor: end; visibility: hidden; font-family: &quot;Helvetica Neue&quot;, sans-serif; font-size: 12px; font-weight: 200;" x="0" y="210.60006961071142" dx="0em" dy="0.3em" fill="rgb(50, 49, 63)" stroke="none" stroke-width="1px">9e-5</text><text style="text-anchor: end; visibility: hidden; font-family: &quot;Helvetica Neue&quot;, sans-serif; font-size: 12px; font-weight: 200;" x="0" y="208.62369473751434" dx="0em" dy="0.3em" fill="rgb(50, 49, 63)" stroke="none" stroke-width="1px">1e-4</text><text style="text-anchor: end; visibility: inherit; font-family: &quot;Helvetica Neue&quot;, sans-serif; font-size: 12px; font-weight: 200;" x="0" y="195.62149308224642" dx="0em" dy="0.3em" fill="rgb(50, 49, 63)" stroke="none" stroke-width="1px">2e-4</text><text style="text-anchor: end; visibility: hidden; font-family: &quot;Helvetica Neue&quot;, sans-serif; font-size: 12px; font-weight: 200;" x="0" y="188.01569268710017" dx="0em" dy="0.3em" fill="rgb(50, 49, 63)" stroke="none" stroke-width="1px">3e-4</text><text style="text-anchor: end; visibility: hidden; font-family: &quot;Helvetica Neue&quot;, sans-serif; font-size: 12px; font-weight: 200;" x="0" y="182.6192914269785" dx="0em" dy="0.3em" fill="rgb(50, 49, 63)" stroke="none" stroke-width="1px">4e-4</text><text style="text-anchor: end; visibility: hidden; font-family: &quot;Helvetica Neue&quot;, sans-serif; font-size: 12px; font-weight: 200;" x="0" y="178.4335174187568" dx="0em" dy="0.3em" fill="rgb(50, 49, 63)" stroke="none" stroke-width="1px">5e-4</text><text style="text-anchor: end; visibility: hidden; font-family: &quot;Helvetica Neue&quot;, sans-serif; font-size: 12px; font-weight: 200;" x="0" y="175.01349103183222" dx="0em" dy="0.3em" fill="rgb(50, 49, 63)" stroke="none" stroke-width="1px">6e-4</text><text style="text-anchor: end; visibility: hidden; font-family: &quot;Helvetica Neue&quot;, sans-serif; font-size: 12px; font-weight: 200;" x="0" y="172.12189992301245" dx="0em" dy="0.3em" fill="rgb(50, 49, 63)" stroke="none" stroke-width="1px">7e-4</text><text style="text-anchor: end; visibility: inherit; font-family: &quot;Helvetica Neue&quot;, sans-serif; font-size: 12px; font-weight: 200;" x="0" y="169.61708977171057" dx="0em" dy="0.3em" fill="rgb(50, 49, 63)" stroke="none" stroke-width="1px">8e-4</text><text style="text-anchor: end; visibility: hidden; font-family: &quot;Helvetica Neue&quot;, sans-serif; font-size: 12px; font-weight: 200;" x="0" y="167.40769063668594" dx="0em" dy="0.3em" fill="rgb(50, 49, 63)" stroke="none" stroke-width="1px">9e-4</text><text style="text-anchor: end; visibility: hidden; font-family: &quot;Helvetica Neue&quot;, sans-serif; font-size: 12px; font-weight: 200;" x="0" y="165.4313157634889" dx="0em" dy="0.3em" fill="rgb(50, 49, 63)" stroke="none" stroke-width="1px">1e-3</text><text style="text-anchor: end; visibility: hidden; font-family: &quot;Helvetica Neue&quot;, sans-serif; font-size: 12px; font-weight: 200;" x="0" y="152.42911410822094" dx="0em" dy="0.3em" fill="rgb(50, 49, 63)" stroke="none" stroke-width="1px">2e-3</text><text style="text-anchor: end; visibility: hidden; font-family: &quot;Helvetica Neue&quot;, sans-serif; font-size: 12px; font-weight: 200;" x="0" y="144.82331371307467" dx="0em" dy="0.3em" fill="rgb(50, 49, 63)" stroke="none" stroke-width="1px">3e-3</text><text style="text-anchor: end; visibility: hidden; font-family: &quot;Helvetica Neue&quot;, sans-serif; font-size: 12px; font-weight: 200;" x="0" y="139.42691245295305" dx="0em" dy="0.3em" fill="rgb(50, 49, 63)" stroke="none" stroke-width="1px">4e-3</text><text style="text-anchor: end; visibility: inherit; font-family: &quot;Helvetica Neue&quot;, sans-serif; font-size: 12px; font-weight: 200;" x="0" y="135.24113844473132" dx="0em" dy="0.3em" fill="rgb(50, 49, 63)" stroke="none" stroke-width="1px">5e-3</text><text style="text-anchor: end; visibility: hidden; font-family: &quot;Helvetica Neue&quot;, sans-serif; font-size: 12px; font-weight: 200;" x="0" y="131.82111205780677" dx="0em" dy="0.3em" fill="rgb(50, 49, 63)" stroke="none" stroke-width="1px">6e-3</text><text style="text-anchor: end; visibility: hidden; font-family: &quot;Helvetica Neue&quot;, sans-serif; font-size: 12px; font-weight: 200;" x="0" y="128.92952094898695" dx="0em" dy="0.3em" fill="rgb(50, 49, 63)" stroke="none" stroke-width="1px">7e-3</text><text style="text-anchor: end; visibility: hidden; font-family: &quot;Helvetica Neue&quot;, sans-serif; font-size: 12px; font-weight: 200;" x="0" y="126.42471079768512" dx="0em" dy="0.3em" fill="rgb(50, 49, 63)" stroke="none" stroke-width="1px">8e-3</text><text style="text-anchor: end; visibility: hidden; font-family: &quot;Helvetica Neue&quot;, sans-serif; font-size: 12px; font-weight: 200;" x="0" y="124.21531166266047" dx="0em" dy="0.3em" fill="rgb(50, 49, 63)" stroke="none" stroke-width="1px">9e-3</text><text style="text-anchor: end; visibility: hidden; font-family: &quot;Helvetica Neue&quot;, sans-serif; font-size: 12px; font-weight: 200;" x="0" y="122.23893678946342" dx="0em" dy="0.3em" fill="rgb(50, 49, 63)" stroke="none" stroke-width="1px">0.01</text><text style="text-anchor: end; visibility: inherit; font-family: &quot;Helvetica Neue&quot;, sans-serif; font-size: 12px; font-weight: 200;" x="0" y="109.2367351341955" dx="0em" dy="0.3em" fill="rgb(50, 49, 63)" stroke="none" stroke-width="1px">0.02</text><text style="text-anchor: end; visibility: hidden; font-family: &quot;Helvetica Neue&quot;, sans-serif; font-size: 12px; font-weight: 200;" x="0" y="101.63093473904922" dx="0em" dy="0.3em" fill="rgb(50, 49, 63)" stroke="none" stroke-width="1px">0.03</text><text style="text-anchor: end; visibility: hidden; font-family: &quot;Helvetica Neue&quot;, sans-serif; font-size: 12px; font-weight: 200;" x="0" y="96.23453347892757" dx="0em" dy="0.3em" fill="rgb(50, 49, 63)" stroke="none" stroke-width="1px">0.04</text><text style="text-anchor: end; visibility: hidden; font-family: &quot;Helvetica Neue&quot;, sans-serif; font-size: 12px; font-weight: 200;" x="0" y="92.04875947070587" dx="0em" dy="0.3em" fill="rgb(50, 49, 63)" stroke="none" stroke-width="1px">0.05</text><text style="text-anchor: end; visibility: hidden; font-family: &quot;Helvetica Neue&quot;, sans-serif; font-size: 12px; font-weight: 200;" x="0" y="88.6287330837813" dx="0em" dy="0.3em" fill="rgb(50, 49, 63)" stroke="none" stroke-width="1px">0.06</text><text style="text-anchor: end; visibility: hidden; font-family: &quot;Helvetica Neue&quot;, sans-serif; font-size: 12px; font-weight: 200;" x="0" y="85.73714197496145" dx="0em" dy="0.3em" fill="rgb(50, 49, 63)" stroke="none" stroke-width="1px">0.07</text><text style="text-anchor: end; visibility: inherit; font-family: &quot;Helvetica Neue&quot;, sans-serif; font-size: 12px; font-weight: 200;" x="0" y="83.23233182365965" dx="0em" dy="0.3em" fill="rgb(50, 49, 63)" stroke="none" stroke-width="1px">0.08</text><text style="text-anchor: end; visibility: hidden; font-family: &quot;Helvetica Neue&quot;, sans-serif; font-size: 12px; font-weight: 200;" x="0" y="81.02293268863502" dx="0em" dy="0.3em" fill="rgb(50, 49, 63)" stroke="none" stroke-width="1px">0.09</text><text style="text-anchor: end; visibility: hidden; font-family: &quot;Helvetica Neue&quot;, sans-serif; font-size: 12px; font-weight: 200;" x="0" y="79.0465578154379" dx="0em" dy="0.3em" fill="rgb(50, 49, 63)" stroke="none" stroke-width="1px">0.1</text><text style="text-anchor: end; visibility: hidden; font-family: &quot;Helvetica Neue&quot;, sans-serif; font-size: 12px; font-weight: 200;" x="0" y="66.04435616017008" dx="0em" dy="0.3em" fill="rgb(50, 49, 63)" stroke="none" stroke-width="1px">0.2</text><text style="text-anchor: end; visibility: hidden; font-family: &quot;Helvetica Neue&quot;, sans-serif; font-size: 12px; font-weight: 200;" x="0" y="58.43855576502369" dx="0em" dy="0.3em" fill="rgb(50, 49, 63)" stroke="none" stroke-width="1px">0.3</text><text style="text-anchor: end; visibility: hidden; font-family: &quot;Helvetica Neue&quot;, sans-serif; font-size: 12px; font-weight: 200;" x="0" y="53.0421545049021" dx="0em" dy="0.3em" fill="rgb(50, 49, 63)" stroke="none" stroke-width="1px">0.4</text><text style="text-anchor: end; visibility: inherit; font-family: &quot;Helvetica Neue&quot;, sans-serif; font-size: 12px; font-weight: 200;" x="0" y="48.8563804966804" dx="0em" dy="0.3em" fill="rgb(50, 49, 63)" stroke="none" stroke-width="1px">0.5</text><text style="text-anchor: end; visibility: hidden; font-family: &quot;Helvetica Neue&quot;, sans-serif; font-size: 12px; font-weight: 200;" x="0" y="45.436354109755825" dx="0em" dy="0.3em" fill="rgb(50, 49, 63)" stroke="none" stroke-width="1px">0.6</text><text style="text-anchor: end; visibility: hidden; font-family: &quot;Helvetica Neue&quot;, sans-serif; font-size: 12px; font-weight: 200;" x="0" y="42.54476300093603" dx="0em" dy="0.3em" fill="rgb(50, 49, 63)" stroke="none" stroke-width="1px">0.7</text><text style="text-anchor: end; visibility: hidden; font-family: &quot;Helvetica Neue&quot;, sans-serif; font-size: 12px; font-weight: 200;" x="0" y="40.03995284963423" dx="0em" dy="0.3em" fill="rgb(50, 49, 63)" stroke="none" stroke-width="1px">0.8</text><text style="text-anchor: end; visibility: hidden; font-family: &quot;Helvetica Neue&quot;, sans-serif; font-size: 12px; font-weight: 200;" x="0" y="37.83055371460955" dx="0em" dy="0.3em" fill="rgb(50, 49, 63)" stroke="none" stroke-width="1px">0.9</text><text style="text-anchor: end; visibility: hidden; font-family: &quot;Helvetica Neue&quot;, sans-serif; font-size: 12px; font-weight: 200;" x="0" y="35.85417884141242" dx="0em" dy="0.3em" fill="rgb(50, 49, 63)" stroke="none" stroke-width="1px">1</text><text style="text-anchor: end; visibility: inherit; font-family: &quot;Helvetica Neue&quot;, sans-serif; font-size: 12px; font-weight: 200;" x="0" y="22.851977186144552" dx="0em" dy="0.3em" fill="rgb(50, 49, 63)" stroke="none" stroke-width="1px">2</text><text style="text-anchor: end; visibility: hidden; font-family: &quot;Helvetica Neue&quot;, sans-serif; font-size: 12px; font-weight: 200;" x="0" y="15.246176790998277" dx="0em" dy="0.3em" fill="rgb(50, 49, 63)" stroke="none" stroke-width="1px">3</text><text style="text-anchor: end; visibility: hidden; font-family: &quot;Helvetica Neue&quot;, sans-serif; font-size: 12px; font-weight: 200;" x="0" y="9.84977553087657" dx="0em" dy="0.3em" fill="rgb(50, 49, 63)" stroke="none" stroke-width="1px">4</text><text style="text-anchor: end; visibility: hidden; font-family: &quot;Helvetica Neue&quot;, sans-serif; font-size: 12px; font-weight: 200;" x="0" y="5.664001522654871" dx="0em" dy="0.3em" fill="rgb(50, 49, 63)" stroke="none" stroke-width="1px">5</text><text style="text-anchor: end; visibility: hidden; font-family: &quot;Helvetica Neue&quot;, sans-serif; font-size: 12px; font-weight: 200;" x="0" y="2.2439751357302953" dx="0em" dy="0.3em" fill="rgb(50, 49, 63)" stroke="none" stroke-width="1px">6</text></g><line x1="49.98400115966797" y1="0" x2="49.98400115966797" y2="378.6199998855591" fill="rgb(0, 0, 0)" stroke="rgb(204, 204, 204)" stroke-width="1px"></line></g></g><g transform="translate(49, 0)" clip-path="url(#clip_0)"><clipPath id="clip_0"><rect width="1368" height="378"></rect></clipPath><g><g><g><line x1="0" y1="0" x2="0" y2="378.6199998855591" fill="rgb(0, 0, 0)" stroke="rgb(60, 60, 60)" stroke-width="1px" opacity="0.25"></line><line x1="152.00177764892578" y1="0" x2="152.00177764892578" y2="378.6199998855591" fill="rgb(0, 0, 0)" stroke="rgb(60, 60, 60)" stroke-width="1px" opacity="0.25"></line><line x1="304.00355529785156" y1="0" x2="304.00355529785156" y2="378.6199998855591" fill="rgb(0, 0, 0)" stroke="rgb(60, 60, 60)" stroke-width="1px" opacity="0.25"></line><line x1="456.00533294677734" y1="0" x2="456.00533294677734" y2="378.6199998855591" fill="rgb(0, 0, 0)" stroke="rgb(60, 60, 60)" stroke-width="1px" opacity="0.25"></line><line x1="608.0071105957031" y1="0" x2="608.0071105957031" y2="378.6199998855591" fill="rgb(0, 0, 0)" stroke="rgb(60, 60, 60)" stroke-width="1px" opacity="0.25"></line><line x1="760.0088882446289" y1="0" x2="760.0088882446289" y2="378.6199998855591" fill="rgb(0, 0, 0)" stroke="rgb(60, 60, 60)" stroke-width="1px" opacity="0.25"></line><line x1="912.0106658935547" y1="0" x2="912.0106658935547" y2="378.6199998855591" fill="rgb(0, 0, 0)" stroke="rgb(60, 60, 60)" stroke-width="1px" opacity="0.25"></line><line x1="1064.0124435424805" y1="0" x2="1064.0124435424805" y2="378.6199998855591" fill="rgb(0, 0, 0)" stroke="rgb(60, 60, 60)" stroke-width="1px" opacity="0.25"></line><line x1="1216.0142211914062" y1="0" x2="1216.0142211914062" y2="378.6199998855591" fill="rgb(0, 0, 0)" stroke="rgb(60, 60, 60)" stroke-width="1px" opacity="0.25"></line><line x1="1368.015998840332" y1="0" x2="1368.015998840332" y2="378.6199998855591" fill="rgb(0, 0, 0)" stroke="rgb(60, 60, 60)" stroke-width="1px" opacity="0.25"></line></g><g><line x1="0" y1="368.39100897834834" x2="1368.015998840332" y2="368.39100897834834" fill="rgb(0, 0, 0)" stroke="rgb(60, 60, 60)" stroke-width="1px" opacity="0.25"></line><line x1="0" y1="360.785208583202" x2="1368.015998840332" y2="360.785208583202" fill="rgb(0, 0, 0)" stroke="rgb(60, 60, 60)" stroke-width="1px" opacity="0.25"></line><line x1="0" y1="355.3888073230804" x2="1368.015998840332" y2="355.3888073230804" fill="rgb(0, 0, 0)" stroke="rgb(60, 60, 60)" stroke-width="1px" opacity="0.25"></line><line x1="0" y1="351.20303331485866" x2="1368.015998840332" y2="351.20303331485866" fill="rgb(0, 0, 0)" stroke="rgb(60, 60, 60)" stroke-width="1px" opacity="0.25"></line><line x1="0" y1="347.78300692793414" x2="1368.015998840332" y2="347.78300692793414" fill="rgb(0, 0, 0)" stroke="rgb(60, 60, 60)" stroke-width="1px" opacity="0.25"></line><line x1="0" y1="344.8914158191143" x2="1368.015998840332" y2="344.8914158191143" fill="rgb(0, 0, 0)" stroke="rgb(60, 60, 60)" stroke-width="1px" opacity="0.25"></line><line x1="0" y1="342.3866056678125" x2="1368.015998840332" y2="342.3866056678125" fill="rgb(0, 0, 0)" stroke="rgb(60, 60, 60)" stroke-width="1px" opacity="0.25"></line><line x1="0" y1="340.17720653278786" x2="1368.015998840332" y2="340.17720653278786" fill="rgb(0, 0, 0)" stroke="rgb(60, 60, 60)" stroke-width="1px" opacity="0.25"></line><line x1="0" y1="338.2008316595908" x2="1368.015998840332" y2="338.2008316595908" fill="rgb(0, 0, 0)" stroke="rgb(60, 60, 60)" stroke-width="1px" opacity="0.25"></line><line x1="0" y1="325.1986300043228" x2="1368.015998840332" y2="325.1986300043228" fill="rgb(0, 0, 0)" stroke="rgb(60, 60, 60)" stroke-width="1px" opacity="0.25"></line><line x1="0" y1="317.59282960917653" x2="1368.015998840332" y2="317.59282960917653" fill="rgb(0, 0, 0)" stroke="rgb(60, 60, 60)" stroke-width="1px" opacity="0.25"></line><line x1="0" y1="312.19642834905494" x2="1368.015998840332" y2="312.19642834905494" fill="rgb(0, 0, 0)" stroke="rgb(60, 60, 60)" stroke-width="1px" opacity="0.25"></line><line x1="0" y1="308.0106543408332" x2="1368.015998840332" y2="308.0106543408332" fill="rgb(0, 0, 0)" stroke="rgb(60, 60, 60)" stroke-width="1px" opacity="0.25"></line><line x1="0" y1="304.59062795390867" x2="1368.015998840332" y2="304.59062795390867" fill="rgb(0, 0, 0)" stroke="rgb(60, 60, 60)" stroke-width="1px" opacity="0.25"></line><line x1="0" y1="301.6990368450888" x2="1368.015998840332" y2="301.6990368450888" fill="rgb(0, 0, 0)" stroke="rgb(60, 60, 60)" stroke-width="1px" opacity="0.25"></line><line x1="0" y1="299.194226693787" x2="1368.015998840332" y2="299.194226693787" fill="rgb(0, 0, 0)" stroke="rgb(60, 60, 60)" stroke-width="1px" opacity="0.25"></line><line x1="0" y1="296.9848275587624" x2="1368.015998840332" y2="296.9848275587624" fill="rgb(0, 0, 0)" stroke="rgb(60, 60, 60)" stroke-width="1px" opacity="0.25"></line><line x1="0" y1="295.0084526855653" x2="1368.015998840332" y2="295.0084526855653" fill="rgb(0, 0, 0)" stroke="rgb(60, 60, 60)" stroke-width="1px" opacity="0.25"></line><line x1="0" y1="282.0062510302974" x2="1368.015998840332" y2="282.0062510302974" fill="rgb(0, 0, 0)" stroke="rgb(60, 60, 60)" stroke-width="1px" opacity="0.25"></line><line x1="0" y1="274.40045063515106" x2="1368.015998840332" y2="274.40045063515106" fill="rgb(0, 0, 0)" stroke="rgb(60, 60, 60)" stroke-width="1px" opacity="0.25"></line><line x1="0" y1="269.00404937502947" x2="1368.015998840332" y2="269.00404937502947" fill="rgb(0, 0, 0)" stroke="rgb(60, 60, 60)" stroke-width="1px" opacity="0.25"></line><line x1="0" y1="264.8182753668077" x2="1368.015998840332" y2="264.8182753668077" fill="rgb(0, 0, 0)" stroke="rgb(60, 60, 60)" stroke-width="1px" opacity="0.25"></line><line x1="0" y1="261.3982489798832" x2="1368.015998840332" y2="261.3982489798832" fill="rgb(0, 0, 0)" stroke="rgb(60, 60, 60)" stroke-width="1px" opacity="0.25"></line><line x1="0" y1="258.50665787106334" x2="1368.015998840332" y2="258.50665787106334" fill="rgb(0, 0, 0)" stroke="rgb(60, 60, 60)" stroke-width="1px" opacity="0.25"></line><line x1="0" y1="256.00184771976154" x2="1368.015998840332" y2="256.00184771976154" fill="rgb(0, 0, 0)" stroke="rgb(60, 60, 60)" stroke-width="1px" opacity="0.25"></line><line x1="0" y1="253.79244858473692" x2="1368.015998840332" y2="253.79244858473692" fill="rgb(0, 0, 0)" stroke="rgb(60, 60, 60)" stroke-width="1px" opacity="0.25"></line><line x1="0" y1="251.81607371153981" x2="1368.015998840332" y2="251.81607371153981" fill="rgb(0, 0, 0)" stroke="rgb(60, 60, 60)" stroke-width="1px" opacity="0.25"></line><line x1="0" y1="238.8138720562719" x2="1368.015998840332" y2="238.8138720562719" fill="rgb(0, 0, 0)" stroke="rgb(60, 60, 60)" stroke-width="1px" opacity="0.25"></line><line x1="0" y1="231.20807166112562" x2="1368.015998840332" y2="231.20807166112562" fill="rgb(0, 0, 0)" stroke="rgb(60, 60, 60)" stroke-width="1px" opacity="0.25"></line><line x1="0" y1="225.811670401004" x2="1368.015998840332" y2="225.811670401004" fill="rgb(0, 0, 0)" stroke="rgb(60, 60, 60)" stroke-width="1px" opacity="0.25"></line><line x1="0" y1="221.62589639278227" x2="1368.015998840332" y2="221.62589639278227" fill="rgb(0, 0, 0)" stroke="rgb(60, 60, 60)" stroke-width="1px" opacity="0.25"></line><line x1="0" y1="218.2058700058577" x2="1368.015998840332" y2="218.2058700058577" fill="rgb(0, 0, 0)" stroke="rgb(60, 60, 60)" stroke-width="1px" opacity="0.25"></line><line x1="0" y1="215.3142788970379" x2="1368.015998840332" y2="215.3142788970379" fill="rgb(0, 0, 0)" stroke="rgb(60, 60, 60)" stroke-width="1px" opacity="0.25"></line><line x1="0" y1="212.80946874573607" x2="1368.015998840332" y2="212.80946874573607" fill="rgb(0, 0, 0)" stroke="rgb(60, 60, 60)" stroke-width="1px" opacity="0.25"></line><line x1="0" y1="210.60006961071142" x2="1368.015998840332" y2="210.60006961071142" fill="rgb(0, 0, 0)" stroke="rgb(60, 60, 60)" stroke-width="1px" opacity="0.25"></line><line x1="0" y1="208.62369473751434" x2="1368.015998840332" y2="208.62369473751434" fill="rgb(0, 0, 0)" stroke="rgb(60, 60, 60)" stroke-width="1px" opacity="0.25"></line><line x1="0" y1="195.62149308224642" x2="1368.015998840332" y2="195.62149308224642" fill="rgb(0, 0, 0)" stroke="rgb(60, 60, 60)" stroke-width="1px" opacity="0.25"></line><line x1="0" y1="188.01569268710017" x2="1368.015998840332" y2="188.01569268710017" fill="rgb(0, 0, 0)" stroke="rgb(60, 60, 60)" stroke-width="1px" opacity="0.25"></line><line x1="0" y1="182.6192914269785" x2="1368.015998840332" y2="182.6192914269785" fill="rgb(0, 0, 0)" stroke="rgb(60, 60, 60)" stroke-width="1px" opacity="0.25"></line><line x1="0" y1="178.4335174187568" x2="1368.015998840332" y2="178.4335174187568" fill="rgb(0, 0, 0)" stroke="rgb(60, 60, 60)" stroke-width="1px" opacity="0.25"></line><line x1="0" y1="175.01349103183222" x2="1368.015998840332" y2="175.01349103183222" fill="rgb(0, 0, 0)" stroke="rgb(60, 60, 60)" stroke-width="1px" opacity="0.25"></line><line x1="0" y1="172.12189992301245" x2="1368.015998840332" y2="172.12189992301245" fill="rgb(0, 0, 0)" stroke="rgb(60, 60, 60)" stroke-width="1px" opacity="0.25"></line><line x1="0" y1="169.61708977171057" x2="1368.015998840332" y2="169.61708977171057" fill="rgb(0, 0, 0)" stroke="rgb(60, 60, 60)" stroke-width="1px" opacity="0.25"></line><line x1="0" y1="167.40769063668594" x2="1368.015998840332" y2="167.40769063668594" fill="rgb(0, 0, 0)" stroke="rgb(60, 60, 60)" stroke-width="1px" opacity="0.25"></line><line x1="0" y1="165.4313157634889" x2="1368.015998840332" y2="165.4313157634889" fill="rgb(0, 0, 0)" stroke="rgb(60, 60, 60)" stroke-width="1px" opacity="0.25"></line><line x1="0" y1="152.42911410822094" x2="1368.015998840332" y2="152.42911410822094" fill="rgb(0, 0, 0)" stroke="rgb(60, 60, 60)" stroke-width="1px" opacity="0.25"></line><line x1="0" y1="144.82331371307467" x2="1368.015998840332" y2="144.82331371307467" fill="rgb(0, 0, 0)" stroke="rgb(60, 60, 60)" stroke-width="1px" opacity="0.25"></line><line x1="0" y1="139.42691245295305" x2="1368.015998840332" y2="139.42691245295305" fill="rgb(0, 0, 0)" stroke="rgb(60, 60, 60)" stroke-width="1px" opacity="0.25"></line><line x1="0" y1="135.24113844473132" x2="1368.015998840332" y2="135.24113844473132" fill="rgb(0, 0, 0)" stroke="rgb(60, 60, 60)" stroke-width="1px" opacity="0.25"></line><line x1="0" y1="131.82111205780677" x2="1368.015998840332" y2="131.82111205780677" fill="rgb(0, 0, 0)" stroke="rgb(60, 60, 60)" stroke-width="1px" opacity="0.25"></line><line x1="0" y1="128.92952094898695" x2="1368.015998840332" y2="128.92952094898695" fill="rgb(0, 0, 0)" stroke="rgb(60, 60, 60)" stroke-width="1px" opacity="0.25"></line><line x1="0" y1="126.42471079768512" x2="1368.015998840332" y2="126.42471079768512" fill="rgb(0, 0, 0)" stroke="rgb(60, 60, 60)" stroke-width="1px" opacity="0.25"></line><line x1="0" y1="124.21531166266047" x2="1368.015998840332" y2="124.21531166266047" fill="rgb(0, 0, 0)" stroke="rgb(60, 60, 60)" stroke-width="1px" opacity="0.25"></line><line x1="0" y1="122.23893678946342" x2="1368.015998840332" y2="122.23893678946342" fill="rgb(0, 0, 0)" stroke="rgb(60, 60, 60)" stroke-width="1px" opacity="0.25"></line><line x1="0" y1="109.2367351341955" x2="1368.015998840332" y2="109.2367351341955" fill="rgb(0, 0, 0)" stroke="rgb(60, 60, 60)" stroke-width="1px" opacity="0.25"></line><line x1="0" y1="101.63093473904922" x2="1368.015998840332" y2="101.63093473904922" fill="rgb(0, 0, 0)" stroke="rgb(60, 60, 60)" stroke-width="1px" opacity="0.25"></line><line x1="0" y1="96.23453347892757" x2="1368.015998840332" y2="96.23453347892757" fill="rgb(0, 0, 0)" stroke="rgb(60, 60, 60)" stroke-width="1px" opacity="0.25"></line><line x1="0" y1="92.04875947070587" x2="1368.015998840332" y2="92.04875947070587" fill="rgb(0, 0, 0)" stroke="rgb(60, 60, 60)" stroke-width="1px" opacity="0.25"></line><line x1="0" y1="88.6287330837813" x2="1368.015998840332" y2="88.6287330837813" fill="rgb(0, 0, 0)" stroke="rgb(60, 60, 60)" stroke-width="1px" opacity="0.25"></line><line x1="0" y1="85.73714197496145" x2="1368.015998840332" y2="85.73714197496145" fill="rgb(0, 0, 0)" stroke="rgb(60, 60, 60)" stroke-width="1px" opacity="0.25"></line><line x1="0" y1="83.23233182365965" x2="1368.015998840332" y2="83.23233182365965" fill="rgb(0, 0, 0)" stroke="rgb(60, 60, 60)" stroke-width="1px" opacity="0.25"></line><line x1="0" y1="81.02293268863502" x2="1368.015998840332" y2="81.02293268863502" fill="rgb(0, 0, 0)" stroke="rgb(60, 60, 60)" stroke-width="1px" opacity="0.25"></line><line x1="0" y1="79.0465578154379" x2="1368.015998840332" y2="79.0465578154379" fill="rgb(0, 0, 0)" stroke="rgb(60, 60, 60)" stroke-width="1px" opacity="0.25"></line><line x1="0" y1="66.04435616017008" x2="1368.015998840332" y2="66.04435616017008" fill="rgb(0, 0, 0)" stroke="rgb(60, 60, 60)" stroke-width="1px" opacity="0.25"></line><line x1="0" y1="58.43855576502369" x2="1368.015998840332" y2="58.43855576502369" fill="rgb(0, 0, 0)" stroke="rgb(60, 60, 60)" stroke-width="1px" opacity="0.25"></line><line x1="0" y1="53.0421545049021" x2="1368.015998840332" y2="53.0421545049021" fill="rgb(0, 0, 0)" stroke="rgb(60, 60, 60)" stroke-width="1px" opacity="0.25"></line><line x1="0" y1="48.8563804966804" x2="1368.015998840332" y2="48.8563804966804" fill="rgb(0, 0, 0)" stroke="rgb(60, 60, 60)" stroke-width="1px" opacity="0.25"></line><line x1="0" y1="45.436354109755825" x2="1368.015998840332" y2="45.436354109755825" fill="rgb(0, 0, 0)" stroke="rgb(60, 60, 60)" stroke-width="1px" opacity="0.25"></line><line x1="0" y1="42.54476300093603" x2="1368.015998840332" y2="42.54476300093603" fill="rgb(0, 0, 0)" stroke="rgb(60, 60, 60)" stroke-width="1px" opacity="0.25"></line><line x1="0" y1="40.03995284963423" x2="1368.015998840332" y2="40.03995284963423" fill="rgb(0, 0, 0)" stroke="rgb(60, 60, 60)" stroke-width="1px" opacity="0.25"></line><line x1="0" y1="37.83055371460955" x2="1368.015998840332" y2="37.83055371460955" fill="rgb(0, 0, 0)" stroke="rgb(60, 60, 60)" stroke-width="1px" opacity="0.25"></line><line x1="0" y1="35.85417884141242" x2="1368.015998840332" y2="35.85417884141242" fill="rgb(0, 0, 0)" stroke="rgb(60, 60, 60)" stroke-width="1px" opacity="0.25"></line><line x1="0" y1="22.851977186144552" x2="1368.015998840332" y2="22.851977186144552" fill="rgb(0, 0, 0)" stroke="rgb(60, 60, 60)" stroke-width="1px" opacity="0.25"></line><line x1="0" y1="15.246176790998277" x2="1368.015998840332" y2="15.246176790998277" fill="rgb(0, 0, 0)" stroke="rgb(60, 60, 60)" stroke-width="1px" opacity="0.25"></line><line x1="0" y1="9.84977553087657" x2="1368.015998840332" y2="9.84977553087657" fill="rgb(0, 0, 0)" stroke="rgb(60, 60, 60)" stroke-width="1px" opacity="0.25"></line><line x1="0" y1="5.664001522654871" x2="1368.015998840332" y2="5.664001522654871" fill="rgb(0, 0, 0)" stroke="rgb(60, 60, 60)" stroke-width="1px" opacity="0.25"></line><line x1="0" y1="2.2439751357302953" x2="1368.015998840332" y2="2.2439751357302953" fill="rgb(0, 0, 0)" stroke="rgb(60, 60, 60)" stroke-width="1px" opacity="0.25"></line></g></g></g><g><g><line x1="152.00177764892578" y1="0" x2="152.00177764892578" y2="378.6199998855591" fill="rgb(0, 0, 0)" stroke="rgb(153, 153, 153)" stroke-width="1.5px"></line></g></g><g><g><g><g><g><path style="fill: none;" stroke="rgb(187, 187, 187)" stroke-width="2px" d="M154.28180431365968,64.86435948443312L155.80182209014893,83.31252274748618L156.56183097839354,87.64431473257883L158.0818487548828,81.92443090283734L159.60186653137208,63.7315229830956L160.3618754196167,54.76966926205415L161.1218843078613,54.08857141222268L161.88189319610595,61.0502071826412L162.6419020843506,69.90863649460363L163.40191097259523,71.82711094356586L164.16191986083984,72.964013590317L164.92192874908446,72.21389515074361L165.6819376373291,64.58233606704448L166.44194652557374,63.53265492681271L167.20195541381835,65.46446414261482L168.7219731903076,73.44215173053766L170.24199096679686,79.98042724890882L171.0019998550415,82.11223814882095L174.80204429626463,79.38199619693052L175.56205318450927,77.06365828354052L176.3220620727539,71.5111017518754L177.08207096099855,68.35185641721716L177.84207984924316,67.25527858660257L179.36209762573245,72.97961890323705L181.6421242904663,74.50890980478886L182.40213317871093,62.310292416540335L183.9221509552002,65.75211627702936L184.68215984344485,69.25667503239299L185.44216873168946,73.6313477814864L186.20217761993408,76.81275998682077L187.72219539642333,79.77101975971493L189.2422131729126,78.72774986063229L190.00222206115723,77.50137787221865L192.2822487258911,75.23290712858807L193.04225761413574,75.05124692558076L193.80226650238038,83.09475726376559L194.562275390625,74.00043433760158L195.32228427886963,73.71331501274324L197.6023109436035,90.52344976754887L198.36231983184814,95.21754298221202L199.8823376083374,78.00493787090869L200.64234649658204,78.81492493415385L201.40235538482668,108.30606711066508L202.1623642730713,103.08166655078111L202.92237316131593,109.03906359624773L203.68238204956052,113.65427319086689L204.44239093780516,105.98056966163165L205.96240871429444,96.51825639307492L206.72241760253905,107.402802043458L207.4824264907837,105.01635059140096L208.24243537902834,89.88375748946123L209.76245315551756,109.55008313437736L211.28247093200682,104.598168933799L212.04247982025146,102.58205887720999L213.56249759674074,110.74111744436652L214.32250648498535,114.97597486076933L215.8425242614746,120.96053700759325L216.60253314971922,119.65810840288412L217.36254203796386,114.83351554527957L218.1225509262085,126.36278083843087L218.88255981445312,125.57724692953695L219.64256870269776,130.59392480441053L221.16258647918698,109.30361604039228L221.92259536743163,108.95270930664663L222.68260425567627,110.25769542998432L223.44261314392088,113.93495043746202L227.24265758514403,146.1720969383796L228.00266647338867,144.12115085607425L229.52268424987793,137.1155209000763L231.04270202636718,130.29867989667872L231.80271091461182,128.19496595147865L232.56271980285646,127.80723246737054L234.84274646759033,104.11869324377778L235.60275535583497,100.75648574578219L237.88278202056887,105.55490655525921L240.16280868530274,109.88825481651827L241.682826461792,111.12015101551549L242.44283535003663,122.38535852926833L243.20284423828127,121.27461472693494L246.24287979125975,109.43192073741977L247.0028886795044,144.63900416826777L247.76289756774904,99.11781755794948L248.52290645599365,140.06396871176216L250.04292423248293,131.3469418713051L250.80293312072752,152.97479257903714L253.0829597854614,124.31477393218563L255.36298645019534,156.3630473241477L256.12299533844,106.6368828771142L257.6430131149292,110.70019278569254L259.16303089141843,203.0338171356526L259.9230397796631,198.23720336338846L260.6830486679077,195.84227856946063L261.4430575561524,189.62330373206078L262.203066444397,143.1838676767741L262.9630753326416,184.6218239555173L264.48309310913083,163.19524814778327L265.2431019973755,170.54898035511604L266.0031108856201,152.0823175139977L266.76311977386473,152.19271861020871L268.283137550354,152.72276127306645L269.0431464385986,137.07976013331265L269.80315532684324,149.78866825669408L271.3231731033325,161.2551898125725L272.08318199157713,156.60842445914167L272.8431908798218,173.71661730539952L274.36320865631103,186.31536407978246L275.12321754455564,173.07860200514187L276.6432353210449,149.6414251464622L277.40324420928954,127.86779308805882L278.9232619857788,169.90880193651665L279.68327087402344,155.9281989369873L280.44327976226805,157.92854127812367L281.96329753875733,184.90483383244032L282.72330642700194,197.55961234236258L285.00333309173584,230.18900631293388L285.7633419799805,183.124770475108L286.52335086822507,242.65904364550258L287.28335975646974,106.83010355150839L288.80337753295896,221.35717904521616L289.56338642120363,159.58738326696343L291.08340419769286,112.33114229610493L292.60342197418214,91.86211117098003L293.36343086242675,93.99099812191724L294.12343975067137,95.34543077238925L294.88344863891604,140.18839704636468L296.40346641540526,184.0130384405221L297.16347530364993,197.46173783497625L302.48353752136234,214.69271192373984L305.5235730743408,104.42966517008318L307.80359973907474,222.83239957188886L308.56360862731935,189.6655553745448L309.32361751556397,122.68404182565371L310.0836264038086,104.65718696779851L313.1236619567871,128.24536718535725L313.88367084503176,100.54620163738446L314.6436797332764,97.89998272620653L315.40368862152104,93.54647778187916L317.6837152862549,84.60165104746358L318.4437241744995,97.96574747588483L319.20373306274416,84.85027938447894L319.9637419509888,87.56790134668779L320.7237508392334,140.0822091607892L321.483759727478,146.58988863388427L323.0037775039673,167.39997665236226L323.7637863922119,246.82844980791094L324.52379528045657,218.49756599798405L326.0438130569458,163.99947708465066L326.80382194519046,144.44487931951988L327.563830833435,178.69097635167162L328.3238397216797,134.31555317179576L329.0838486099243,257.23237739899673L329.8438574981689,125.42930305304623L332.12388416290287,324.53142847333635L332.8838930511475,179.235770662913L334.4039108276367,244.9375516055409L337.4439463806152,166.170938557863L338.2039552688599,126.25277277160936L339.7239730453491,125.56967788899507L340.4839819335937,159.61376454335593L341.2439908218384,149.19306567952063L342.003999710083,182.17325736362278L342.7640085983276,202.7353464435313L343.5240174865723,218.2834043888946L345.80404415130613,193.33365466005625L348.08407081604,235.65066654232584L348.8440797042847,255.3453768058873L349.60408859252925,254.76034751393314L350.3640974807739,102.30550889254027L351.8841152572632,85.9754539317554L353.4041330337525,167.87365711278193L354.92415081024166,144.23217537460258L356.44416858673094,87.47098668827942L357.9641863632202,107.65840377610601L358.7241952514649,114.26763112328734L359.48420413970945,120.75637366619367L360.24421302795406,122.12073836696834L361.00422191619873,126.33226656015285L362.524239692688,122.17020548787463L363.2842485809326,113.98932136794565L364.80426635742185,109.83390507988537L366.32428413391114,113.93573929794417L367.8443019104004,191.11785957662542L371.64434635162354,100.72088558056112L373.1643641281128,128.2411108837024L373.9243730163574,98.3799898933517L375.44439079284666,104.27711724728209L376.20439968109133,112.9664561312402L376.96440856933594,117.65974582141706L377.72441745758056,119.69260505580849L378.4844263458252,121.51138686783531L379.2444352340698,120.43170672299084L380.00444412231445,117.06904325644507L380.76445301055907,112.7878986485822L381.52446189880374,112.64672569565164L382.28447078704835,141.19368452508024L385.32450634002686,119.60347314482954L386.08451522827147,115.74495208926243L387.60453300476075,246.2715929444621L389.8845596694946,214.18793100235322L392.92459522247316,115.8559327624609L393.6846041107178,112.96639645516194L394.4446129989624,108.50123965289703L395.204621887207,103.39155338792744L396.7246396636963,95.97331101193117L397.48464855194095,211.9323117730158L398.2446574401855,97.095009566501L399.0046663284302,100.65563804265503L399.7646752166748,103.84890045351904L400.52468410491946,106.2511290793833L402.80471076965335,115.26461451264339L403.5647196578979,121.71312178059043L405.0847374343872,129.32293621866822L406.6047552108765,134.40108881102415L408.12477298736576,131.01065249685882L409.644790763855,131.4227835896804L411.16480854034427,131.398920297177L411.9248174285889,133.77129981277673L412.68482631683355,129.45804513720634L413.4448352050781,130.42187142373072L414.2048440933227,131.34306280727503L414.9648529815674,133.75469671433493L415.724861869812,134.37810032673377L416.4848707580567,129.45599162988105L417.2448796463013,128.5377584908177L418.7648974227905,123.02827003006405L420.2849151992798,123.45213318452008L421.0449240875244,122.62068615000996L422.56494186401363,127.33195755473022L424.0849596405029,135.49980976054695L424.84496852874753,137.7196223198665L425.6049774169922,137.5514546441312L426.3649863052368,134.89923879577543L427.1249951934815,132.8856560481081L427.88500408172604,131.94135777854274L428.6450129699707,131.31515238290078L429.4050218582153,159.19472465386178L430.16503074646,128.96860639145115L430.9250396347046,127.26432709254647L431.6850485229492,126.32082698986233L433.20506629943844,125.68440870232769L433.9650751876831,126.0887432244173L435.4850929641724,127.972957018117L437.00511074066156,130.92572079413898L437.76511962890623,133.6369536110052L438.52512851715085,185.9551551072419L439.2851374053955,138.2616723202915L440.04514629364013,139.3204206351214L441.5651640701294,132.09141465874387L442.32517295837397,129.33806444555398L443.84519073486325,124.65118325026918L444.6051996231079,122.29286926920696L445.36520851135253,122.05559803957175L446.1252173995972,121.08030350214887L446.88522628784176,120.45717681715888L448.40524406433104,259.4161363079129L449.16525295257566,125.33847690270184L449.9252618408203,127.13739172377325L450.68527072906494,129.54465080693566L454.48531517028806,134.5121248355742L455.24532405853273,135.65063795225458L456.765341835022,141.39014126869063L457.52535072326657,144.2471033361304L458.28535961151124,145.67483380587052L459.8053773880005,145.05102342464792L460.56538627624514,145.93773152424467L462.08540405273436,144.03963484705065L463.60542182922364,141.59561836563745L467.40546627044677,142.02574467209485L468.1654751586914,141.19472830187397L470.44550182342533,137.9103472361727L471.20551071166994,136.18864786233962L471.9655195999145,135.5627966135701L472.72552848815917,133.48909943420014L473.4855373764038,135.23545849754552L474.24554626464845,128.69051824148113L475.76556404113774,133.5209028762037L477.28558181762696,140.0330693882733L478.8055995941162,145.7667574790397L480.32561737060547,150.44664909118973L482.60564403533937,149.09377218461046L483.365652923584,150.1986879317603L485.6456795883178,157.34473436421558L486.40568847656255,232.9080130549777L487.1656973648071,188.54068861783935L487.92570625305177,159.2365649341891L489.445724029541,162.0027428977217L490.20573291778567,147.81010493201987L492.4857595825195,142.24305523446012L493.2457684707642,141.55874409129368L494.76578624725346,240.42410232893704L497.0458129119873,133.60667580022252L497.8058218002319,131.22755176245843L499.3258395767212,129.24164909410595L500.08584846496586,131.8291323143638L500.8458573532104,142.8166463872648L501.60586624145503,136.33758485725772L502.3658751296997,136.3934362343603L503.885892906189,144.3994751180327L504.6459017944336,200.00741041326935L505.40591068267827,169.60120205440322L506.1659195709228,149.4161225112281L506.9259284591675,147.5497693915426L507.6859373474121,144.2901076826727L508.4459462356567,143.03319696171212L509.965964012146,137.14302285102573L511.48598178863523,138.10949739916856L512.24599067688,136.66464821478422L514.5260173416137,144.78054205628632L515.2860262298584,145.96766697871087L518.3260617828369,149.17888933638307L520.6060884475708,146.5784134392964L521.3660973358154,148.36855406257948L522.8861151123048,145.52346340805173L523.6461240005493,144.74124193607975L525.1661417770385,145.9737415359991L525.9261506652832,184.6710533203823L526.6861595535279,148.05632026485816L528.9661862182617,141.05687184544107L529.7261951065063,138.89041181633618L531.2462128829956,139.67500219398252L534.2862484359741,140.1339529489186L536.566275100708,149.46537259046792L537.3262839889527,184.0471230258921L538.0862928771973,145.7765319022519L538.8463017654419,146.430001275021L539.6063106536865,147.8910734744834L540.3663195419311,149.89242513458842L541.1263284301758,152.102316419024L542.646346206665,155.2075840775992L543.4063550949096,155.9928782633578L544.1663639831543,156.38123845045834L544.9263728713989,206.82807179507554L545.6863817596436,157.70942343643424L546.4463906478882,159.10749734032805L547.2063995361328,158.50940712499232L550.2464350891113,233.99299646586587L551.006443977356,150.5306325900506L555.5664973068237,139.69895794643446L557.086515083313,137.73742711487515L557.8465239715576,139.22614855839032L558.6065328598022,142.23546845342074L559.3665417480469,144.45351316032085L560.1265506362915,146.02076241681038L560.8865595245361,146.59429124035236L561.6465684127808,147.6067440100309L562.4065773010253,148.693168542942L563.16658618927,149.934877546608L563.9265950775147,151.0161437057341L564.6866039657593,208.21006427238459L565.4466128540039,166.38507810417178L566.2066217422484,146.218976868377L566.9666306304931,242.6814564776342L567.7266395187378,142.99344025082826L568.4866484069825,172.58951295858242L569.246657295227,139.25093717604125L570.7666750717163,135.18677263558098L571.526683959961,134.24999720526876L572.2866928482056,132.25606281525387L573.8067106246948,134.93181069270048L575.3267284011841,208.93607727689806L576.8467461776734,145.93028175878118L577.6067550659179,141.0114037144711L579.8867817306518,143.57386878020154L580.6467906188965,144.83484871620018L581.406799507141,145.2299538777212L582.9268172836304,141.2424681303894L583.686826171875,139.9622262060541L584.4468350601196,138.51782484692177L585.966852836609,134.54770410678117L587.4868706130982,130.48651120468662L588.2468795013427,127.66749674418824L589.7668972778321,125.50154185219426L590.5269061660766,126.2274969337949L591.2869150543213,128.02992460822122L592.0469239425659,129.2963425796332L592.8069328308105,130.22565929221398L593.5669417190552,132.0781105005845L594.3269506072999,134.74030422000388L595.0869594955444,136.02989591827782L595.846968383789,136.068504135336L597.3669861602783,140.85795322835523L598.126995048523,145.13980150676295L598.8870039367675,151.33357764418827L601.1670306015016,148.21353079027384L601.9270394897461,150.46446390461932L602.6870483779907,154.47316533723384L604.20706615448,208.8725022746453L604.9670750427247,159.5831922443916L605.7270839309692,154.69916399698326L606.4870928192139,152.53338798883237L608.0071105957031,157.48817791808074L609.5271283721924,155.82850715767162L610.287137260437,156.41920396542335L611.0471461486816,154.78095829328282L612.5671639251709,147.09379779908392L614.0871817016601,146.210795378457L615.6071994781495,154.9328405751608L616.367208366394,157.45445873719984L617.1272172546387,159.72980154847653L619.4072439193726,152.18463386811456L622.447279472351,149.4293403722811L623.2072883605957,152.14458281954848L623.9672972488404,154.34455397170964L624.727306137085,155.43103769365018L625.4873150253295,258.2050457711348L627.0073328018188,163.50502982164844L627.7673416900635,200.98408138348947L630.0473683547974,171.58189560600573L630.8073772430421,170.7701733164431L632.3273950195312,172.99131698259774L633.8474127960205,245.39167364349066L634.6074216842652,169.63951567574287L636.887448348999,156.87481324390814L638.4074661254883,154.4990444862325L639.1674750137329,152.03155172245735L639.9274839019776,151.37734917841482L641.4475016784668,155.37229717431347L642.2075105667114,157.50791208748225L642.967519454956,159.2301119935234L643.7275283432007,159.8620049479427L644.4875372314452,161.51917726248402L645.24754611969,163.31758766266125L646.0075550079346,161.67446025624827L646.7675638961792,164.92322491222544L647.5275727844238,165.36588842157352L650.5676083374024,161.0826697226193L651.3276172256469,159.2834247006193L652.8476350021363,155.53952490956223L654.3676527786255,154.83738776339152L655.12766166687,154.94006786825292L655.8876705551147,156.58869650557682L656.6476794433594,158.08589838222494L657.407688331604,157.2879416512433L658.1676972198486,156.78366416715713L658.9277061080933,156.79982263339963L659.6877149963378,155.37441643197033L660.4477238845825,153.30140444895355L661.9677416610717,155.97321837510648L662.7277505493164,157.25478776890017L663.4877594375611,157.03570233742866L664.2477683258057,160.61947260767874L665.0077772140503,164.99639362108175L666.5277949905395,171.1046479103466L667.2878038787842,171.38806549901975L668.0478127670289,169.52414873684447L669.5678305435181,169.37668811795442L670.3278394317626,168.44248667550187L671.0878483200073,166.66253899264768L671.847857208252,167.58198813556382L672.6078660964965,216.7465634611703L673.3678749847412,176.88364374250153L674.1278838729858,180.35102280540895L674.8878927612304,180.99194894285384L675.6479016494751,178.37058409883377L677.927928314209,177.47759324598962L679.4479460906982,171.67837182332656L680.9679638671874,165.63201378333963L683.2479905319215,164.5485412233421L684.007999420166,161.66557361660617L684.7680083084106,159.90048479755225L685.5280171966552,160.5132550079635L686.2880260848999,158.885163215531L687.0480349731446,155.88593899283566L687.8080438613891,153.55475115102607L688.5680527496337,152.81811731155233L689.3280616378785,151.34680247913425L690.088070526123,149.86268932735345L690.8480794143677,152.63139919575704L691.6080883026123,156.94362280274706L692.3680971908569,160.34646163063346L694.6481238555908,163.97614320344465L695.4081327438354,167.4659222016262L697.6881594085694,169.5177925762184L698.448168296814,169.90989986303782L699.9681860733033,171.0488924168468L700.7281949615478,168.49771169500977L701.4882038497925,168.27780589224884L702.2482127380371,170.53619456142104L703.0082216262816,174.16320189388153L703.7682305145264,174.31448055205357L706.0482571792602,163.7911440491437L706.808266067505,161.6078389374454L707.5682749557495,158.64215375096364L710.6083105087281,157.55904501870808L711.3683193969727,158.8243515316984L712.8883371734619,158.71172421680728L713.6483460617064,161.177073286909L714.4083549499512,158.713412334425L715.1683638381958,163.2245575248305L716.688381614685,172.18468991477033L718.2083993911743,174.95517484904258L718.9684082794189,173.92895469234628L719.7284171676636,173.1128111110288L721.2484349441529,179.60840420441517L722.0084438323975,184.15612616751957L722.768452720642,186.23321437475812L723.5284616088867,185.28745981794847L724.2884704971315,178.36342283766444L725.048479385376,170.93621851917013L725.8084882736206,168.32734314429263L726.5684971618653,169.14686422929046L728.8485238265991,172.54813642908437L729.6085327148437,170.73538723150583L731.128550491333,205.67534429958522L732.6485682678223,175.54884260879345L733.4085771560668,176.20165842740693L734.1685860443115,175.0766884618121L734.9285949325562,174.4255491818075L736.4486127090454,170.25020643414982L737.20862159729,169.74145633719803L737.9686304855346,170.77989856273342L738.7286393737794,170.69443574948664L739.488648262024,168.43529733380308L740.2486571502685,165.7245969293551L741.0086660385132,165.31990641206576L741.7686749267579,167.06641379851257L744.0487015914916,176.43771269337807L744.8087104797363,176.2979953156695L747.0887371444702,167.46513362637634L747.8487460327148,165.7623679487493L748.6087549209595,162.20548049851948L750.1287726974488,158.26097272578673L751.6487904739379,157.16417276822773L752.4087993621827,156.6942729841591L753.1688082504272,156.7903625651461L753.9288171386719,155.80368115540176L754.6888260269164,154.28951086846592L755.4488349151611,157.195299997119L756.2088438034058,162.12267095424244L756.9688526916505,168.39337874646213L758.4888704681396,174.190367772733L759.2488793563844,173.04272668902607L760.0088882446289,175.05951982246754L761.5289060211181,183.466374078052L763.808932685852,184.9056077766979L764.5689415740967,182.67359687268717L765.3289504623413,178.29775651636368L766.088959350586,176.12073396965604L766.8489682388306,176.93261666696094L768.3689860153198,183.26255524532382L769.1289949035644,184.60966387536936L769.8890037918092,184.68328374636172L771.4090215682984,176.5844850896286L772.1690304565429,172.01410780315987L773.6890482330323,156.90430759646216L775.9690748977661,160.35693722588493L777.4890926742554,168.4922929296673L778.2491015625,172.2160687238912L779.0091104507446,171.71230658193184L781.2891371154785,173.62423425687473L782.0491460037231,177.65525123868557L783.5691637802124,183.2042916614976L784.3291726684571,183.75492746492085L785.8491904449463,182.19145848916014L786.6091993331909,181.78446873771028L787.3692082214357,180.49806311357014L788.8892259979248,180.7469882739518L789.6492348861694,183.08174818614404L791.9292615509033,187.59138334033975L792.6892704391479,188.14005238299654L794.2092882156372,187.29382361859462L794.9692971038819,186.36764470335524L795.7293059921265,184.38974067091448L796.489314880371,180.23604731743663L798.0093326568604,165.54750187895405L798.769341545105,276.5999727926956L799.5293504333496,217.7411908871443L800.2893593215941,259.8371415255281L801.8093770980836,164.38397801085804L803.3293948745727,164.028727867544L804.849412651062,162.58491956993967L805.6094215393067,156.7112435480365L806.3694304275513,153.5678221208669L807.1294393157958,153.86551985896182L807.8894482040405,157.30863738935216L810.9294837570189,180.1380487311728L811.6894926452637,181.46360860299086L812.4495015335083,179.85147748188447L813.209510421753,171.28896348843307L815.4895370864868,162.61870264614805L816.2495459747315,167.86555861319968L817.0095548629761,171.32516019853182L817.7695637512206,171.72597955312054L818.5295726394654,172.29414087260605L820.0495904159546,172.54200688359154L820.8095993041992,168.89111441845884L821.5696081924438,163.17122028182092L822.3296170806885,160.43859189609807L823.8496348571778,154.56410576219974L824.6096437454223,154.97318976852821L825.3696526336671,153.88038881035385L826.1296615219117,153.57610782346416L826.8896704101562,153.53881851383971L827.6496792984009,154.59809457831193L828.4096881866454,163.76920687927696L829.9297059631348,158.3118797365725L830.6897148513793,158.29495210123335L831.449723739624,159.66142321093128L832.9697415161133,173.4772646859399L833.7297504043579,181.20103170133513L835.2497681808471,183.26125865653563L836.0097770690919,180.9220034399698L839.0498126220702,168.05789591484455L839.809821510315,163.79126210331063L841.3298392868041,156.25526293591034L842.0898481750488,154.4523539084437L842.8498570632935,154.32903837871947L843.6098659515382,162.2566815193962L844.3698748397827,157.56388401963193L845.1298837280273,159.54579754708064L845.8898926162719,160.8808885767236L847.4099103927613,166.91451908932902L848.1699192810058,170.61307635678648L848.9299281692505,172.4867384741797L851.2099548339844,170.66069006581677L851.969963722229,171.0095607728228L852.7299726104736,173.58564163077722L853.4899814987183,172.27574114553826L855.0099992752075,165.201953590877L859.5700526046752,160.14684161482165L860.33006149292,160.95687222016085L861.0900703811645,163.43803409230327L861.8500792694092,165.30697283263186L862.6100881576538,166.30522585820313L865.6501237106323,201.75856019346264L867.9301503753662,181.32262488494027L868.6901592636109,180.98661862780864L870.2101770401,182.42950390189168L872.490203704834,178.78393198864353L873.2502125930786,174.48507973318502L874.7702303695679,169.66049044830092L875.5302392578125,172.62918438509996L876.2902481460571,171.98011234145213L877.0502570343017,172.1480488572272L878.570274810791,173.78390257058447L879.3302836990357,173.0593890184033L880.0902925872803,172.02841856856227L880.8503014755248,169.25632654149456L881.6103103637696,165.41490685337862L882.3703192520142,164.6785923846062L883.1303281402588,162.67082136967747L883.8903370285034,160.21533901122345L884.6503459167479,158.85332787636685L886.1703636932373,156.59223638223148L886.930372581482,155.53051451608994L888.4503903579713,235.31093536822797L889.9704081344604,164.21925937048235L890.7304170227051,168.6513633964929L892.2504347991944,177.4898931163021L893.7704525756835,188.6603191030961L894.5304614639282,194.92898379602536L895.290470352173,195.76014559485174L896.0504792404175,195.45133920937235L898.3305059051513,192.9019866838179L899.0905147933961,196.0385766905915L899.8505236816407,189.3778912141274L900.6105325698852,180.60603317444674L902.1305503463745,169.20452472537303L902.8905592346192,164.12228533926512L904.4105770111083,155.89802344340487L905.170585899353,230.23290719474002L908.9706303405761,154.21710785434695L909.7306392288209,155.5643119586745L911.25065700531,160.54480036512822L912.0106658935547,164.3389908943366L913.530683670044,166.68578129324774L914.2906925582886,165.06338092785703L915.0507014465331,183.95834634576389L915.8107103347778,167.11317289121584L917.3307281112671,173.74707758239265L918.0907369995117,176.62184755781618L918.8507458877563,177.77301104799645L920.3707636642456,178.57515686860538L921.1307725524903,178.2127968406891L921.8907814407348,176.5529524204773L922.6507903289794,174.5976644995899L924.9308169937134,171.67721562251586L926.4508347702026,171.181136218168L928.7308614349365,172.1941216912981L930.2508792114259,172.9213293330164L931.0108880996704,172.711305131985L931.7708969879151,172.67519941816474L932.5309058761596,173.05185750399122L934.050923652649,177.60768398531414L935.5709414291382,183.09906063878356L936.3309503173828,185.38775703731136L937.0909592056275,186.93138993667927L937.8509680938721,190.42936783203L938.6109769821167,195.56992851973283L939.3709858703613,202.68792295657337L940.1309947586059,205.75249672263743L940.8910036468507,202.97978801431051L941.6510125350952,192.85287131587305L943.931039199829,173.13311435910944L944.6910480880738,170.51230246129353L945.4510569763183,168.9964544267808L949.2511014175415,169.0420471570101L950.0111103057861,169.582640591441L950.7711191940307,171.93796241626936L951.5311280822755,174.56925940313798L953.0511458587646,182.02998148870049L953.8111547470093,180.49421298279444L954.5711636352539,178.46217164386798L955.3311725234986,175.4324745128022L956.0911814117432,172.0618518372575L959.8912258529663,175.91683575684755L960.6512347412109,176.79652142022235L961.4112436294555,176.72875953832778L962.1712525177003,177.08509064631232L962.9312614059448,178.58894458038614L963.6912702941894,181.90963096154013L965.2112880706787,187.67393098871145L965.9712969589234,191.1223581884985L966.731305847168,194.2067921455291L967.4913147354125,197.47864343990747L968.2513236236572,200.48558227798236L969.0113325119019,199.7666785290463L969.7713414001465,198.2154749783096L970.5313502883911,195.9167723567358L971.2913591766356,195.14770332282131L972.8113769531251,195.41384846016655L973.5713858413696,194.9316423504147L974.3313947296142,194.15997570452404L975.0914036178589,192.98685890623062L975.8514125061035,192.86541884531096L976.6114213943482,192.09400330007782L977.3714302825928,191.5891558123212L978.891448059082,193.15429477855835L980.4114658355713,192.950444998291L981.9314836120604,189.23275467243974L982.6914925003052,187.47175213320216L983.4515013885498,185.30204359068125L984.971519165039,189.82695594059726L986.4915369415284,201.84476616770826L987.251545829773,202.74243341081961L988.7715636062621,199.03281674256172L990.2915813827515,194.54067261371154L991.0515902709961,192.95142512574296L991.8115991592407,191.4570589373776L993.33161693573,187.98336205790758L995.6116436004638,179.50835934219495L996.3716524887086,180.0848887683755L998.6516791534424,189.67403025608434L1000.1716969299317,180.9990120662956L1002.4517235946655,172.8225523127635L1004.7317502593994,167.19333878469197L1005.4917591476441,209.76992471528197L1006.2517680358886,157.72646490179076L1007.0117769241334,167.18119273135127L1007.771785812378,168.24779095701288L1008.5317947006225,168.08865872841116L1009.2918035888672,165.18322330902686L1010.0518124771118,166.05917489596618L1010.8118213653565,169.96581542500672L1011.5718302536011,178.8532482480971L1013.0918480300903,183.3685239899759L1013.851856918335,180.17060337341758L1014.6118658065797,175.85387619080666L1016.8918924713134,172.214543446106L1017.6519013595581,175.94985638330007L1019.1719191360473,181.70544282935913L1019.931928024292,182.87923316105L1020.6919369125366,183.13551798365646L1021.4519458007813,182.11187194453655L1022.9719635772705,182.13285403087806L1025.2519902420045,186.7392087186163L1026.011999130249,177.05689776857093L1026.7720080184936,170.8723838734716L1027.5320169067381,185.65369271646838L1028.292025794983,170.96180511540283L1029.0520346832275,174.5128330707389L1029.8120435714723,178.0670515912151L1030.5720524597168,182.51428217818864L1031.3320613479616,185.60388519212322L1032.0920702362062,184.450651182483L1032.8520791244507,183.98767414052574L1033.6120880126953,183.9613324798433L1034.3720969009398,180.44001240503687L1035.1321057891846,181.47840821186153L1036.6521235656737,191.66009798785544L1037.4121324539185,193.73137707504682L1038.172141342163,192.91525354793328L1038.9321502304078,191.4039999399549L1046.532239112854,171.20196895465685L1048.812265777588,177.63538654355776L1049.5722746658325,182.21022746850952L1050.332283554077,188.64980132401135L1051.0922924423217,195.0881369709074L1052.612310218811,199.6953118556197L1053.3723191070558,197.30097640730656L1054.1323279953003,193.08010930902418L1054.8923368835449,219.61447101413674L1055.6523457717894,188.4665150904653L1057.1723635482788,195.9241402457595L1057.9323724365233,201.71511519337136L1058.6923813247681,206.16356028307933L1059.4523902130127,199.2972145426129L1060.2123991012575,191.94656703939935L1060.972407989502,181.2880343107983L1061.7324168777466,173.38993324006623L1062.4924257659911,167.12479814310933L1063.252434654236,164.3095468091206L1064.0124435424805,162.2778467834691L1064.772452430725,161.98487833441752L1066.2924702072144,163.1409580798823L1067.052479095459,163.21521793727888L1068.5724968719483,163.84622791157406L1069.3325057601928,166.78724675381363L1070.0925146484376,171.6921237373572L1071.6125324249267,183.89117342275307L1072.3725413131713,189.2667373034249L1073.132550201416,195.5744778437527L1073.8925590896606,199.74271947369215L1074.6525679779054,200.30658379071374L1075.41257686615,199.87873688218673L1078.4526124191284,181.8054639645985L1079.9726301956175,168.0808479164247L1082.2526568603516,158.3470427245675L1083.0126657485962,155.62843416119395L1084.5326835250855,146.62616254491755L1085.29269241333,144.769687661827L1086.0527013015746,146.2960118184576L1087.572719078064,164.29004854561146L1088.3327279663085,174.15486457647356L1089.0927368545533,181.2112669390522L1089.8527457427979,188.27166539921447L1090.6127546310427,193.62855357119406L1091.3727635192872,197.5675381726632L1092.1327724075318,201.9586006362822L1092.8927812957763,201.21495409142307L1093.652790184021,198.42903262881703L1095.9328168487548,188.05470852097116L1096.6928257369996,184.3488671008765L1097.4528346252441,182.3961559801318L1098.9728524017335,176.67711939259777L1099.732861289978,174.77250009832164L1100.4928701782226,190.7993480049102L1101.2528790664674,174.52669412246385L1102.012887954712,174.98361667732595L1104.2929146194458,202.24848175496768L1105.0529235076906,197.70344186346287L1105.8129323959351,177.89347945649519L1106.5729412841797,180.03111928546855L1107.3329501724243,181.61020297987258L1108.092959060669,181.67714754503015L1108.8529679489136,181.026031173184L1110.3729857254027,181.96584855296302L1111.1329946136475,184.9023827057705L1111.893003501892,188.24392369515246L1112.6530123901368,189.20697402560538L1113.4130212783814,187.91233660567642L1114.173030166626,185.42697364154682L1114.9330390548705,183.1790393600389L1115.6930479431153,182.63212851373245L1117.973074607849,182.34607954576944L1118.7330834960937,184.30056306244904L1120.253101272583,189.58189085228918L1123.2931368255615,188.54702262918218L1124.053145713806,204.14065631453835L1125.5731634902954,195.2737036939025L1126.33317237854,196.24423245136296L1127.0931812667848,197.5758233060747L1128.6131990432739,198.61050079285218L1130.1332168197632,186.9674335522501L1130.8932257080078,183.31920103247435L1131.6532345962523,197.46384869687108L1133.1732523727417,178.97184346321947L1133.9332612609862,180.84142609179798L1134.693270149231,182.170938488738L1135.4532790374756,183.45348469934402L1136.973296813965,189.13884144010365L1137.7333057022095,191.1957054926555L1138.493314590454,191.11575987796755L1139.2533234786986,191.77646885541793L1140.0133323669434,193.46649490475224L1141.5333501434327,194.06039400024014L1142.2933590316773,197.43338318006514L1143.053367919922,199.682425765946L1144.5733856964112,203.80831632292538L1145.3333945846557,203.2558004851508L1147.6134212493896,183.3955633964414L1149.133439025879,174.43762160500646L1149.8934479141235,171.07205789043596L1151.4134656906128,170.87760159507684L1152.1734745788574,172.88354874800325L1152.933483467102,175.08311317435667L1153.6934923553467,173.85782146851716L1154.4535012435913,183.63730594560042L1155.2135101318358,172.95446822491073L1155.9735190200806,175.351944536235L1158.2535456848145,183.13973844650425L1159.013554573059,186.34900662957423L1159.7735634613036,190.58801517010895L1160.5335723495484,191.9956509363708L1161.293581237793,193.8856448232986L1162.0535901260375,190.4008652269263L1162.813599014282,179.0275551629791L1164.3336167907714,168.5132708990517L1165.0936256790162,168.150254078472L1165.8536345672608,168.07125173744816L1166.6136434555053,168.79891870351236L1167.37365234375,170.23631348183625L1168.1336612319947,172.38777649464248L1170.4136878967286,181.12329430132868L1171.933705673218,182.83342858368988L1172.6937145614625,185.33827423383696L1173.453723449707,184.9611003964435L1174.2137323379516,183.26022483949913L1174.9737412261964,183.93762801889187L1175.733750114441,183.2678484605947L1176.4937590026855,184.09864100029097L1177.25376789093,182.59279452111616L1178.0137767791748,181.95406831461227L1178.7737856674194,179.39752546736136L1181.0538123321533,185.61745041983338L1181.813821220398,175.52815947499388L1184.0938478851317,196.83058287883992L1184.8538567733765,206.2145798177758L1186.3738745498658,208.49337005892372L1187.1338834381104,200.79459705216163L1187.893892326355,191.1689580795617L1189.4139101028443,187.66577542179007L1190.1739189910888,175.21248551301173L1190.9339278793334,172.66054894232767L1192.4539456558227,174.30982983314007L1193.2139545440673,178.15062946630175L1193.973963432312,182.40317997844772L1195.4939812088014,186.15450747525628L1196.253990097046,212.38337016987342L1197.0139989852905,188.14384661216636L1198.5340167617796,189.72431625430642L1199.2940256500244,209.37537632774576L1200.054034538269,189.50709808812934L1201.5740523147583,189.95596815995714L1202.334061203003,192.35577765812207L1203.8540789794922,194.5832078122015L1204.6140878677368,189.665155972971L1205.3740967559813,185.1059391790903L1206.134105644226,179.18814991488205L1206.8941145324707,173.0372179038775L1207.6541234207152,167.17016498167249L1209.1741411972046,163.0595422326144L1209.9341500854493,164.5424546462268L1212.214176750183,172.44009291651656L1213.7341945266724,170.50069614877827L1216.0142211914062,171.49407814749296L1219.0542567443847,186.69388354554616L1222.854301185608,191.44530071149873L1225.1343278503418,159.74533365301048L1225.8943367385864,154.10197560130703L1226.654345626831,150.69131428682317L1227.4143545150757,166.68252806473672L1228.1743634033203,151.25192771011848L1228.9343722915648,153.81067903912952L1230.4543900680542,160.53859808511427L1231.214398956299,163.56762657635466L1232.734416732788,171.22066314406268L1233.4944256210326,175.038594501521L1235.014443397522,182.64975664307937L1235.7744522857665,187.21785619825314L1236.534461174011,191.65286156420834L1237.2944700622559,194.76180799187938L1238.8144878387452,201.24276757080102L1239.5744967269898,202.34373261724528L1240.3345056152343,202.05508915040897L1241.094514503479,199.69876162830408L1241.8545233917237,196.81115921646193L1242.6145322799682,192.56426179357032L1243.3745411682128,188.8746448230196L1244.1345500564576,186.8365963032661L1244.894558944702,183.3111401732717L1246.4145767211915,183.15351908736582L1247.9345944976808,187.32645019146196L1248.6946033859253,187.79387901329412L1250.2146211624145,184.4441425038113L1252.4946478271484,176.93042156425565L1254.0146656036377,200.06267957162416L1257.0547011566161,183.51996342674445L1257.8147100448607,187.11892356702842L1258.5747189331055,191.51787994254343L1259.33472782135,196.35640580650872L1261.6147544860842,195.38396443241933L1262.3747633743287,194.9215770856438L1263.1347722625733,195.41528606793122L1265.4147989273072,193.18802102711018L1266.1748078155517,192.85246388568513L1267.694825592041,182.7099914979163L1268.4548344802856,176.11676734244736L1269.2148433685304,175.42131249354438L1271.494870033264,166.17267638690456L1272.2548789215089,165.80708708119948L1273.0148878097534,165.96750023369106L1274.5349055862425,169.47184953579543L1275.2949144744873,173.62297195877994L1276.054923362732,177.4164565930996L1276.8149322509767,180.85464818915946L1277.5749411392212,184.7840283504154L1278.3349500274658,188.2673251131377L1279.0949589157105,191.89679096746667L1279.854967803955,194.6091029812824" fill="none"></path></g></g></g></g></g></g><g transform="translate(49, 378)" clip-path="url(#clip_1)"><clipPath id="clip_1"><rect width="1368" height="21"></rect></clipPath><g><g><line x1="0" y1="0" x2="0" y2="5" style="visibility: inherit;" fill="rgb(0, 0, 0)" stroke="rgb(204, 204, 204)" stroke-width="1px"></line><line x1="152.00177764892578" y1="0" x2="152.00177764892578" y2="5" style="visibility: inherit;" fill="rgb(0, 0, 0)" stroke="rgb(204, 204, 204)" stroke-width="1px"></line><line x1="304.00355529785156" y1="0" x2="304.00355529785156" y2="5" style="visibility: inherit;" fill="rgb(0, 0, 0)" stroke="rgb(204, 204, 204)" stroke-width="1px"></line><line x1="456.00533294677734" y1="0" x2="456.00533294677734" y2="5" style="visibility: inherit;" fill="rgb(0, 0, 0)" stroke="rgb(204, 204, 204)" stroke-width="1px"></line><line x1="608.0071105957031" y1="0" x2="608.0071105957031" y2="5" style="visibility: inherit;" fill="rgb(0, 0, 0)" stroke="rgb(204, 204, 204)" stroke-width="1px"></line><line x1="760.0088882446289" y1="0" x2="760.0088882446289" y2="5" style="visibility: inherit;" fill="rgb(0, 0, 0)" stroke="rgb(204, 204, 204)" stroke-width="1px"></line><line x1="912.0106658935547" y1="0" x2="912.0106658935547" y2="5" style="visibility: inherit;" fill="rgb(0, 0, 0)" stroke="rgb(204, 204, 204)" stroke-width="1px"></line><line x1="1064.0124435424805" y1="0" x2="1064.0124435424805" y2="5" style="visibility: inherit;" fill="rgb(0, 0, 0)" stroke="rgb(204, 204, 204)" stroke-width="1px"></line><line x1="1216.0142211914062" y1="0" x2="1216.0142211914062" y2="5" style="visibility: inherit;" fill="rgb(0, 0, 0)" stroke="rgb(204, 204, 204)" stroke-width="1px"></line><line x1="1368.015998840332" y1="0" x2="1368.015998840332" y2="5" style="visibility: inherit;" fill="rgb(0, 0, 0)" stroke="rgb(204, 204, 204)" stroke-width="1px"></line></g><g transform="translate(0, 8)"><text style="text-anchor: middle; visibility: hidden; font-family: &quot;Helvetica Neue&quot;, sans-serif; font-size: 12px; font-weight: 200;" x="0" y="0" dx="0em" dy="0.95em" fill="rgb(50, 49, 63)" stroke="none" stroke-width="1px">-200</text><text style="text-anchor: middle; visibility: inherit; font-family: &quot;Helvetica Neue&quot;, sans-serif; font-size: 12px; font-weight: 200;" x="152.00177764892578" y="0" dx="0em" dy="0.95em" fill="rgb(50, 49, 63)" stroke="none" stroke-width="1px">0</text><text style="text-anchor: middle; visibility: inherit; font-family: &quot;Helvetica Neue&quot;, sans-serif; font-size: 12px; font-weight: 200;" x="304.00355529785156" y="0" dx="0em" dy="0.95em" fill="rgb(50, 49, 63)" stroke="none" stroke-width="1px">200</text><text style="text-anchor: middle; visibility: inherit; font-family: &quot;Helvetica Neue&quot;, sans-serif; font-size: 12px; font-weight: 200;" x="456.00533294677734" y="0" dx="0em" dy="0.95em" fill="rgb(50, 49, 63)" stroke="none" stroke-width="1px">400</text><text style="text-anchor: middle; visibility: inherit; font-family: &quot;Helvetica Neue&quot;, sans-serif; font-size: 12px; font-weight: 200;" x="608.0071105957031" y="0" dx="0em" dy="0.95em" fill="rgb(50, 49, 63)" stroke="none" stroke-width="1px">600</text><text style="text-anchor: middle; visibility: inherit; font-family: &quot;Helvetica Neue&quot;, sans-serif; font-size: 12px; font-weight: 200;" x="760.0088882446289" y="0" dx="0em" dy="0.95em" fill="rgb(50, 49, 63)" stroke="none" stroke-width="1px">800</text><text style="text-anchor: middle; visibility: inherit; font-family: &quot;Helvetica Neue&quot;, sans-serif; font-size: 12px; font-weight: 200;" x="912.0106658935547" y="0" dx="0em" dy="0.95em" fill="rgb(50, 49, 63)" stroke="none" stroke-width="1px">1k</text><text style="text-anchor: middle; visibility: inherit; font-family: &quot;Helvetica Neue&quot;, sans-serif; font-size: 12px; font-weight: 200;" x="1064.0124435424805" y="0" dx="0em" dy="0.95em" fill="rgb(50, 49, 63)" stroke="none" stroke-width="1px">1.2k</text><text style="text-anchor: middle; visibility: inherit; font-family: &quot;Helvetica Neue&quot;, sans-serif; font-size: 12px; font-weight: 200;" x="1216.0142211914062" y="0" dx="0em" dy="0.95em" fill="rgb(50, 49, 63)" stroke="none" stroke-width="1px">1.4k</text><text style="text-anchor: middle; visibility: hidden; font-family: &quot;Helvetica Neue&quot;, sans-serif; font-size: 12px; font-weight: 200;" x="1368.015998840332" y="0" dx="0em" dy="0.95em" fill="rgb(50, 49, 63)" stroke="none" stroke-width="1px">1.6k</text></g><line x1="0" y1="0" x2="1368.015998840332" y2="0" fill="rgb(0, 0, 0)" stroke="rgb(204, 204, 204)" stroke-width="1px"></line></g></g></g></g></svg>