<svg viewBox="0 0 1418 400" xmlns="http://www.w3.org/2000/svg"><g><g><g><g><g><line x1="49.98400115966797" y1="366.1834707830776" x2="44.98400115966797" y2="366.1834707830776" style="visibility: inherit;" fill="rgb(0, 0, 0)" stroke="rgb(204, 204, 204)" stroke-width="1px"></line><line x1="49.98400115966797" y1="347.97066902504775" x2="44.98400115966797" y2="347.97066902504775" style="visibility: inherit;" fill="rgb(0, 0, 0)" stroke="rgb(204, 204, 204)" stroke-width="1px"></line><line x1="49.98400115966797" y1="331.90583934937246" x2="44.98400115966797" y2="331.90583934937246" style="visibility: inherit;" fill="rgb(0, 0, 0)" stroke="rgb(204, 204, 204)" stroke-width="1px"></line><line x1="49.98400115966797" y1="317.53535951624747" x2="44.98400115966797" y2="317.53535951624747" style="visibility: inherit;" fill="rgb(0, 0, 0)" stroke="rgb(204, 204, 204)" stroke-width="1px"></line><line x1="49.98400115966797" y1="222.99465309095365" x2="44.98400115966797" y2="222.99465309095365" style="visibility: inherit;" fill="rgb(0, 0, 0)" stroke="rgb(204, 204, 204)" stroke-width="1px"></line><line x1="49.98400115966797" y1="167.69188504046906" x2="44.98400115966797" y2="167.69188504046906" style="visibility: inherit;" fill="rgb(0, 0, 0)" stroke="rgb(204, 204, 204)" stroke-width="1px"></line><line x1="49.98400115966797" y1="128.45394666565983" x2="44.98400115966797" y2="128.45394666565983" style="visibility: inherit;" fill="rgb(0, 0, 0)" stroke="rgb(204, 204, 204)" stroke-width="1px"></line><line x1="49.98400115966797" y1="98.0186371568596" x2="44.98400115966797" y2="98.0186371568596" style="visibility: inherit;" fill="rgb(0, 0, 0)" stroke="rgb(204, 204, 204)" stroke-width="1px"></line><line x1="49.98400115966797" y1="73.15117861517524" x2="44.98400115966797" y2="73.15117861517524" style="visibility: inherit;" fill="rgb(0, 0, 0)" stroke="rgb(204, 204, 204)" stroke-width="1px"></line><line x1="49.98400115966797" y1="52.12604199839592" x2="44.98400115966797" y2="52.12604199839592" style="visibility: inherit;" fill="rgb(0, 0, 0)" stroke="rgb(204, 204, 204)" stroke-width="1px"></line><line x1="49.98400115966797" y1="33.91324024036601" x2="44.98400115966797" y2="33.91324024036601" style="visibility: inherit;" fill="rgb(0, 0, 0)" stroke="rgb(204, 204, 204)" stroke-width="1px"></line><line x1="49.98400115966797" y1="17.84841056469071" x2="44.98400115966797" y2="17.84841056469071" style="visibility: inherit;" fill="rgb(0, 0, 0)" stroke="rgb(204, 204, 204)" stroke-width="1px"></line><line x1="49.98400115966797" y1="3.4779307315657775" x2="44.98400115966797" y2="3.4779307315657775" style="visibility: inherit;" fill="rgb(0, 0, 0)" stroke="rgb(204, 204, 204)" stroke-width="1px"></line></g><g transform="translate(39.98400115966797, 0)"><text style="text-anchor: end; visibility: inherit; font-family: &quot;Helvetica Neue&quot;, sans-serif; font-size: 12px; font-weight: 200;" x="0" y="366.1834707830776" dx="0em" dy="0.3em" fill="rgb(50, 49, 63)" stroke="none" stroke-width="1px">0.07</text><text style="text-anchor: end; visibility: hidden; font-family: &quot;Helvetica Neue&quot;, sans-serif; font-size: 12px; font-weight: 200;" x="0" y="347.97066902504775" dx="0em" dy="0.3em" fill="rgb(50, 49, 63)" stroke="none" stroke-width="1px">0.08</text><text style="text-anchor: end; visibility: inherit; font-family: &quot;Helvetica Neue&quot;, sans-serif; font-size: 12px; font-weight: 200;" x="0" y="331.90583934937246" dx="0em" dy="0.3em" fill="rgb(50, 49, 63)" stroke="none" stroke-width="1px">0.09</text><text style="text-anchor: end; visibility: hidden; font-family: &quot;Helvetica Neue&quot;, sans-serif; font-size: 12px; font-weight: 200;" x="0" y="317.53535951624747" dx="0em" dy="0.3em" fill="rgb(50, 49, 63)" stroke="none" stroke-width="1px">0.1</text><text style="text-anchor: end; visibility: inherit; font-family: &quot;Helvetica Neue&quot;, sans-serif; font-size: 12px; font-weight: 200;" x="0" y="222.99465309095365" dx="0em" dy="0.3em" fill="rgb(50, 49, 63)" stroke="none" stroke-width="1px">0.2</text><text style="text-anchor: end; visibility: hidden; font-family: &quot;Helvetica Neue&quot;, sans-serif; font-size: 12px; font-weight: 200;" x="0" y="167.69188504046906" dx="0em" dy="0.3em" fill="rgb(50, 49, 63)" stroke="none" stroke-width="1px">0.3</text><text style="text-anchor: end; visibility: inherit; font-family: &quot;Helvetica Neue&quot;, sans-serif; font-size: 12px; font-weight: 200;" x="0" y="128.45394666565983" dx="0em" dy="0.3em" fill="rgb(50, 49, 63)" stroke="none" stroke-width="1px">0.4</text><text style="text-anchor: end; visibility: hidden; font-family: &quot;Helvetica Neue&quot;, sans-serif; font-size: 12px; font-weight: 200;" x="0" y="98.0186371568596" dx="0em" dy="0.3em" fill="rgb(50, 49, 63)" stroke="none" stroke-width="1px">0.5</text><text style="text-anchor: end; visibility: inherit; font-family: &quot;Helvetica Neue&quot;, sans-serif; font-size: 12px; font-weight: 200;" x="0" y="73.15117861517524" dx="0em" dy="0.3em" fill="rgb(50, 49, 63)" stroke="none" stroke-width="1px">0.6</text><text style="text-anchor: end; visibility: hidden; font-family: &quot;Helvetica Neue&quot;, sans-serif; font-size: 12px; font-weight: 200;" x="0" y="52.12604199839592" dx="0em" dy="0.3em" fill="rgb(50, 49, 63)" stroke="none" stroke-width="1px">0.7</text><text style="text-anchor: end; visibility: inherit; font-family: &quot;Helvetica Neue&quot;, sans-serif; font-size: 12px; font-weight: 200;" x="0" y="33.91324024036601" dx="0em" dy="0.3em" fill="rgb(50, 49, 63)" stroke="none" stroke-width="1px">0.8</text><text style="text-anchor: end; visibility: hidden; font-family: &quot;Helvetica Neue&quot;, sans-serif; font-size: 12px; font-weight: 200;" x="0" y="17.84841056469071" dx="0em" dy="0.3em" fill="rgb(50, 49, 63)" stroke="none" stroke-width="1px">0.9</text><text style="text-anchor: end; visibility: hidden; font-family: &quot;Helvetica Neue&quot;, sans-serif; font-size: 12px; font-weight: 200;" x="0" y="3.4779307315657775" dx="0em" dy="0.3em" fill="rgb(50, 49, 63)" stroke="none" stroke-width="1px">1</text></g><line x1="49.98400115966797" y1="0" x2="49.98400115966797" y2="378.6199998855591" fill="rgb(0, 0, 0)" stroke="rgb(204, 204, 204)" stroke-width="1px"></line></g></g><g transform="translate(49, 0)" clip-path="url(#clip_0)"><clipPath id="clip_0"><rect width="1368" height="378"></rect></clipPath><g><g><g><line x1="0" y1="0" x2="0" y2="378.6199998855591" fill="rgb(0, 0, 0)" stroke="rgb(60, 60, 60)" stroke-width="1px" opacity="0.25"></line><line x1="171.0019998550415" y1="0" x2="171.0019998550415" y2="378.6199998855591" fill="rgb(0, 0, 0)" stroke="rgb(60, 60, 60)" stroke-width="1px" opacity="0.25"></line><line x1="342.003999710083" y1="0" x2="342.003999710083" y2="378.6199998855591" fill="rgb(0, 0, 0)" stroke="rgb(60, 60, 60)" stroke-width="1px" opacity="0.25"></line><line x1="513.0059995651245" y1="0" x2="513.0059995651245" y2="378.6199998855591" fill="rgb(0, 0, 0)" stroke="rgb(60, 60, 60)" stroke-width="1px" opacity="0.25"></line><line x1="684.007999420166" y1="0" x2="684.007999420166" y2="378.6199998855591" fill="rgb(0, 0, 0)" stroke="rgb(60, 60, 60)" stroke-width="1px" opacity="0.25"></line><line x1="855.0099992752075" y1="0" x2="855.0099992752075" y2="378.6199998855591" fill="rgb(0, 0, 0)" stroke="rgb(60, 60, 60)" stroke-width="1px" opacity="0.25"></line><line x1="1026.011999130249" y1="0" x2="1026.011999130249" y2="378.6199998855591" fill="rgb(0, 0, 0)" stroke="rgb(60, 60, 60)" stroke-width="1px" opacity="0.25"></line><line x1="1197.0139989852905" y1="0" x2="1197.0139989852905" y2="378.6199998855591" fill="rgb(0, 0, 0)" stroke="rgb(60, 60, 60)" stroke-width="1px" opacity="0.25"></line><line x1="1368.015998840332" y1="0" x2="1368.015998840332" y2="378.6199998855591" fill="rgb(0, 0, 0)" stroke="rgb(60, 60, 60)" stroke-width="1px" opacity="0.25"></line></g><g><line x1="0" y1="366.1834707830776" x2="1368.015998840332" y2="366.1834707830776" fill="rgb(0, 0, 0)" stroke="rgb(60, 60, 60)" stroke-width="1px" opacity="0.25"></line><line x1="0" y1="347.97066902504775" x2="1368.015998840332" y2="347.97066902504775" fill="rgb(0, 0, 0)" stroke="rgb(60, 60, 60)" stroke-width="1px" opacity="0.25"></line><line x1="0" y1="331.90583934937246" x2="1368.015998840332" y2="331.90583934937246" fill="rgb(0, 0, 0)" stroke="rgb(60, 60, 60)" stroke-width="1px" opacity="0.25"></line><line x1="0" y1="317.53535951624747" x2="1368.015998840332" y2="317.53535951624747" fill="rgb(0, 0, 0)" stroke="rgb(60, 60, 60)" stroke-width="1px" opacity="0.25"></line><line x1="0" y1="222.99465309095365" x2="1368.015998840332" y2="222.99465309095365" fill="rgb(0, 0, 0)" stroke="rgb(60, 60, 60)" stroke-width="1px" opacity="0.25"></line><line x1="0" y1="167.69188504046906" x2="1368.015998840332" y2="167.69188504046906" fill="rgb(0, 0, 0)" stroke="rgb(60, 60, 60)" stroke-width="1px" opacity="0.25"></line><line x1="0" y1="128.45394666565983" x2="1368.015998840332" y2="128.45394666565983" fill="rgb(0, 0, 0)" stroke="rgb(60, 60, 60)" stroke-width="1px" opacity="0.25"></line><line x1="0" y1="98.0186371568596" x2="1368.015998840332" y2="98.0186371568596" fill="rgb(0, 0, 0)" stroke="rgb(60, 60, 60)" stroke-width="1px" opacity="0.25"></line><line x1="0" y1="73.15117861517524" x2="1368.015998840332" y2="73.15117861517524" fill="rgb(0, 0, 0)" stroke="rgb(60, 60, 60)" stroke-width="1px" opacity="0.25"></line><line x1="0" y1="52.12604199839592" x2="1368.015998840332" y2="52.12604199839592" fill="rgb(0, 0, 0)" stroke="rgb(60, 60, 60)" stroke-width="1px" opacity="0.25"></line><line x1="0" y1="33.91324024036601" x2="1368.015998840332" y2="33.91324024036601" fill="rgb(0, 0, 0)" stroke="rgb(60, 60, 60)" stroke-width="1px" opacity="0.25"></line><line x1="0" y1="17.84841056469071" x2="1368.015998840332" y2="17.84841056469071" fill="rgb(0, 0, 0)" stroke="rgb(60, 60, 60)" stroke-width="1px" opacity="0.25"></line><line x1="0" y1="3.4779307315657775" x2="1368.015998840332" y2="3.4779307315657775" fill="rgb(0, 0, 0)" stroke="rgb(60, 60, 60)" stroke-width="1px" opacity="0.25"></line></g></g></g><g><g><line x1="171.0019998550415" y1="0" x2="171.0019998550415" y2="378.6199998855591" fill="rgb(0, 0, 0)" stroke="rgb(153, 153, 153)" stroke-width="1.5px"></line></g></g><g><g><g><g><g><path style="fill: none;" stroke="rgb(187, 187, 187)" stroke-width="2px" d="M171.0019998550415,77.77513072029632L179.55209984779358,98.0186371568596L188.10219984054567,103.5864911726058L196.65229983329772,87.52165302851324L205.2023998260498,92.66919541594802L213.75249981880188,88.79043680296957L222.30259981155396,110.8819882402629L230.85269980430604,117.01306442287529L239.4027997970581,117.01306442287529L247.95289978981017,117.01306442287529L256.50299978256226,109.39133651717083L265.05309977531437,88.79043680296957L273.6031997680664,80.14724757226412L282.15329976081847,95.31769187669317L290.7033997535705,109.39133651717083L299.25349974632263,105.01470611394848L307.80359973907474,109.39133651717083L316.3536997318268,115.45426713343574L324.90379972457885,130.16960593872795L333.4538997173309,161.0372292891551L342.003999710083,128.45394463323967L350.55409970283506,130.16960593872795L359.10419969558717,142.82442107899777L367.6542996883392,148.62927783751653L376.20439968109133,85.01895392932602L384.7544996738434,103.5864911726058L393.30459966659544,83.78461721649046L401.85469965934755,109.39133651717083L410.4047996520996,93.98701516181109L418.9548996448517,121.79929414040964L427.50499963760376,128.45394463323967L436.0550996303558,99.38943540481074L444.6051996231079,117.01306442287529L453.15529961586,144.73206183342617L461.7053996086121,219.62674468908972L470.25549960136414,226.44784021605113L478.8055995941162,206.92982702846984L487.3556995868683,209.9949735587295L495.90579957962035,253.42996564838418L504.45589957237246,93.98701516181109L513.0059995651245,92.66919541594802L521.5560995578766,106.45803470720762L530.1061995506287,98.0186371568596L538.6562995433807,131.9071337907573L547.2063995361328,103.5864911726058L555.7564995288849,112.38912060317602L564.3065995216369,140.9431047173779L572.8566995143891,118.58988287197104L581.406799507141,140.9431047173779L589.9568994998932,198.12719759789965L598.5069994926453,229.99072204804253L607.0570994853973,206.92982702846984L615.6071994781495,139.08738526697502L624.1572994709014,184.61185596665788L632.7073994636536,161.0372292891551L641.2574994564056,177.1020573517985L649.8075994491577,189.858398301987L658.3576994419099,206.92982702846984L666.9077994346618,219.62674468908972L675.457899427414,177.1020573517985L684.007999420166,179.55966035461987L692.5580994129181,229.99072204804253L701.1081994056701,233.62809169226887L709.6582993984223,167.69187962068207L718.2083993911743,179.55966035461987L726.7584993839264,137.25657553166883L735.3085993766784,174.687953997558L743.8586993694305,174.687953997558L752.4087993621827,158.88925922309033L760.9588993549347,179.55966035461987L769.5089993476868,253.42996564838418L778.0590993404388,222.99465105853352L786.6091993331909,182.06235945380706L795.159299325943,213.13058929726492L803.7093993186951,266.85654357088396L812.2594993114471,203.93204294246465L820.8095993041992,219.62674468908972L829.3596992969512,216.3400005657035L837.9097992897034,226.44784021605113L846.4598992824555,245.161162367334L855.0099992752075,163.21956829837873L863.5600992679596,198.12719759789965L872.1101992607116,229.99072204804253L880.6602992534638,219.62674468908972L889.2103992462158,241.20745717174947L897.7604992389679,241.20745717174947L906.31059923172,226.44784021605113L914.860699224472,209.9949735587295L923.4107992172242,233.62809169226887L931.9608992099762,203.93204294246465L940.5109992027283,177.1020573517985L949.0610991954803,165.4373940115986L957.6111991882324,152.64113402402808L966.1612991809845,200.9987411325014L974.7113991737366,103.5864911726058L983.2614991664886,226.44784021605113L991.8115991592407,174.687953997558L1000.3616991519928,233.62809169226887L1008.9117991447449,229.99072204804253L1017.461899137497,249.23290577468993L1026.011999130249,249.23290577468993L1034.562099123001,266.85654357088396L1043.1121991157531,257.7602747236726L1051.6622991085053,209.9949735587295L1060.2123991012575,195.31485703593032L1068.7624990940094,233.62809169226887L1077.3125990867613,209.9949735587295L1085.8626990795135,226.44784021605113L1094.4127990722657,184.61185596665788L1102.9628990650178,241.20745717174947L1111.5129990577698,262.23258604597595L1120.0630990505217,262.23258604597595L1128.6131990432739,222.99465105853352L1137.163299036026,262.23258604597595L1145.7133990287782,140.9431047173779L1154.2634990215302,310.8807069909973L1162.813599014282,298.47274936775847L1171.3636990070343,245.161162367334L1179.9137989997864,304.5356799840233L1188.4638989925386,249.23290577468993L1197.0139989852905,229.99072204804253L1205.5640989780425,257.7602747236726L1214.1141989707946,209.9949735587295L1222.6642989635468,271.64276377709234L1231.214398956299,271.64276377709234L1239.764498949051,200.9987411325014L1248.3145989418028,222.99465105853352L1256.864698934555,257.7602747236726L1265.4147989273072,257.7602747236726" fill="none"></path></g><g><path style="fill: none;" stroke="rgb(255, 112, 67)" stroke-width="2px" d="M171.0019998550415,54.088571412222734L179.55209984779358,96.66147890573552L188.10219984054567,99.38943540481074L196.65229983329772,102.1730682575485L205.2023998260498,113.91308373304156L213.75249981880188,113.91308373304156L222.30259981155396,93.98701516181109L230.85269980430604,99.38943540481074L239.4027997970581,118.58988287197104L247.95289978981017,105.01470611394848L256.50299978256226,117.01306442287529L265.05309977531437,125.0860382637959L273.6031997680664,99.38943540481074L282.15329976081847,107.91680024789417L290.7033997535705,99.38943540481074L299.25349974632263,120.18514404215739L307.80359973907474,140.9431047173779L316.3536997318268,107.91680024789417L324.90379972457885,117.01306442287529L333.4538997173309,106.45803470720762L342.003999710083,133.66707153097232L350.55409970283506,118.58988287197104L359.10419969558717,121.79929414040964L367.6542996883392,103.5864911726058L376.20439968109133,102.1730682575485L384.7544996738434,118.58988287197104L393.30459966659544,110.8819882402629L401.85469965934755,109.39133651717083L410.4047996520996,105.01470611394848L418.9548996448517,103.5864911726058L427.50499963760376,109.39133651717083L436.0550996303558,90.0711495413641L444.6051996231079,109.39133651717083L453.15529961586,109.39133651717083L461.7053996086121,106.45803470720762L470.25549960136414,125.0860382637959L478.8055995941162,123.43276614012422L487.3556995868683,95.31769187669317L495.90579957962035,110.8819882402629L504.45589957237246,113.91308373304156L513.0059995651245,152.64113402402808L521.5560995578766,117.01306442287529L530.1061995506287,144.73206183342617L538.6562995433807,142.82442107899777L547.2063995361328,142.82442107899777L555.7564995288849,152.64113402402808L564.3065995216369,192.5593435821534L572.8566995143891,172.3158371455901L581.406799507141,195.31485703593032L589.9568994998932,189.858398301987L598.5069994926453,167.69187962068207L607.0570994853973,169.98427125452278L615.6071994781495,152.64113402402808L624.1572994709014,144.73206183342617L632.7073994636536,156.77459233244159L641.2574994564056,179.55966035461987L649.8075994491577,187.20990184124184L658.3576994419099,195.31485703593032L666.9077994346618,189.858398301987L675.457899427414,189.858398301987L684.007999420166,192.5593435821534L692.5580994129181,128.45394463323967L701.1081994056701,184.61185596665788L709.6582993984223,195.31485703593032L718.2083993911743,209.9949735587295L726.7584993839264,213.13058929726492L735.3085993766784,209.9949735587295L743.8586993694305,133.66707153097232L752.4087993621827,144.73206183342617L760.9588993549347,146.66675074645562L769.5089993476868,167.69187962068207L778.0590993404388,195.31485703593032L786.6091993331909,203.93204294246465L795.159299325943,206.92982702846984L803.7093993186951,219.62674468908972L812.2594993114471,209.9949735587295L820.8095993041992,184.61185596665788L829.3596992969512,195.31485703593032L837.9097992897034,219.62674468908972L846.4598992824555,219.62674468908972L855.0099992752075,179.55966035461987L863.5600992679596,148.62927783751653L872.1101992607116,144.73206183342617L880.6602992534638,163.21956829837873L889.2103992462158,148.62927783751653L897.7604992389679,184.61185596665788L906.31059923172,203.93204294246465L914.860699224472,229.99072204804253L923.4107992172242,213.13058929726492L931.9608992099762,158.88925922309033L940.5109992027283,165.4373940115986L949.0610991954803,203.93204294246465L957.6111991882324,281.75060826653566L966.1612991809845,241.20745717174947L974.7113991737366,192.5593435821534L983.2614991664886,229.99072204804253L991.8115991592407,229.99072204804253L1000.3616991519928,266.85654357088396L1008.9117991447449,233.62809169226887L1017.461899137497,276.6030658791009L1026.011999130249,262.23258604597595L1034.562099123001,195.31485703593032L1043.1121991157531,198.12719759789965L1051.6622991085053,179.55966035461987L1060.2123991012575,209.9949735587295L1068.7624990940094,241.20745717174947L1077.3125990867613,200.9987411325014L1085.8626990795135,237.36512750429162L1094.4127990722657,233.62809169226887L1102.9628990650178,281.75060826653566L1111.5129990577698,324.53142847333635L1120.0630990505217,257.7602747236726L1128.6131990432739,304.5356799840233L1137.163299036026,310.8807069909973L1145.7133990287782,271.64276377709234L1154.2634990215302,253.42996564838418L1162.813599014282,292.6679040231935L1171.3636990070343,233.62809169226887L1179.9137989997864,253.42996564838418L1188.4638989925386,257.7602747236726L1197.0139989852905,292.6679040231935L1205.5640989780425,229.99072204804253L1214.1141989707946,241.20745717174947L1222.6642989635468,262.23258604597595L1231.214398956299,229.99072204804253L1239.764498949051,233.62809169226887L1248.3145989418028,287.10005000744724L1256.864698934555,292.6679040231935L1265.4147989273072,298.47274936775847" fill="none"></path></g></g></g></g></g></g><g transform="translate(49, 378)" clip-path="url(#clip_1)"><clipPath id="clip_1"><rect width="1368" height="21"></rect></clipPath><g><g><line x1="0" y1="0" x2="0" y2="5" style="visibility: inherit;" fill="rgb(0, 0, 0)" stroke="rgb(204, 204, 204)" stroke-width="1px"></line><line x1="171.0019998550415" y1="0" x2="171.0019998550415" y2="5" style="visibility: inherit;" fill="rgb(0, 0, 0)" stroke="rgb(204, 204, 204)" stroke-width="1px"></line><line x1="342.003999710083" y1="0" x2="342.003999710083" y2="5" style="visibility: inherit;" fill="rgb(0, 0, 0)" stroke="rgb(204, 204, 204)" stroke-width="1px"></line><line x1="513.0059995651245" y1="0" x2="513.0059995651245" y2="5" style="visibility: inherit;" fill="rgb(0, 0, 0)" stroke="rgb(204, 204, 204)" stroke-width="1px"></line><line x1="684.007999420166" y1="0" x2="684.007999420166" y2="5" style="visibility: inherit;" fill="rgb(0, 0, 0)" stroke="rgb(204, 204, 204)" stroke-width="1px"></line><line x1="855.0099992752075" y1="0" x2="855.0099992752075" y2="5" style="visibility: inherit;" fill="rgb(0, 0, 0)" stroke="rgb(204, 204, 204)" stroke-width="1px"></line><line x1="1026.011999130249" y1="0" x2="1026.011999130249" y2="5" style="visibility: inherit;" fill="rgb(0, 0, 0)" stroke="rgb(204, 204, 204)" stroke-width="1px"></line><line x1="1197.0139989852905" y1="0" x2="1197.0139989852905" y2="5" style="visibility: inherit;" fill="rgb(0, 0, 0)" stroke="rgb(204, 204, 204)" stroke-width="1px"></line><line x1="1368.015998840332" y1="0" x2="1368.015998840332" y2="5" style="visibility: inherit;" fill="rgb(0, 0, 0)" stroke="rgb(204, 204, 204)" stroke-width="1px"></line></g><g transform="translate(0, 8)"><text style="text-anchor: middle; visibility: hidden; font-family: &quot;Helvetica Neue&quot;, sans-serif; font-size: 12px; font-weight: 200;" x="0" y="0" dx="0em" dy="0.95em" fill="rgb(50, 49, 63)" stroke="none" stroke-width="1px">-200</text><text style="text-anchor: middle; visibility: inherit; font-family: &quot;Helvetica Neue&quot;, sans-serif; font-size: 12px; font-weight: 200;" x="171.0019998550415" y="0" dx="0em" dy="0.95em" fill="rgb(50, 49, 63)" stroke="none" stroke-width="1px">0</text><text style="text-anchor: middle; visibility: inherit; font-family: &quot;Helvetica Neue&quot;, sans-serif; font-size: 12px; font-weight: 200;" x="342.003999710083" y="0" dx="0em" dy="0.95em" fill="rgb(50, 49, 63)" stroke="none" stroke-width="1px">200</text><text style="text-anchor: middle; visibility: inherit; font-family: &quot;Helvetica Neue&quot;, sans-serif; font-size: 12px; font-weight: 200;" x="513.0059995651245" y="0" dx="0em" dy="0.95em" fill="rgb(50, 49, 63)" stroke="none" stroke-width="1px">400</text><text style="text-anchor: middle; visibility: inherit; font-family: &quot;Helvetica Neue&quot;, sans-serif; font-size: 12px; font-weight: 200;" x="684.007999420166" y="0" dx="0em" dy="0.95em" fill="rgb(50, 49, 63)" stroke="none" stroke-width="1px">600</text><text style="text-anchor: middle; visibility: inherit; font-family: &quot;Helvetica Neue&quot;, sans-serif; font-size: 12px; font-weight: 200;" x="855.0099992752075" y="0" dx="0em" dy="0.95em" fill="rgb(50, 49, 63)" stroke="none" stroke-width="1px">800</text><text style="text-anchor: middle; visibility: inherit; font-family: &quot;Helvetica Neue&quot;, sans-serif; font-size: 12px; font-weight: 200;" x="1026.011999130249" y="0" dx="0em" dy="0.95em" fill="rgb(50, 49, 63)" stroke="none" stroke-width="1px">1k</text><text style="text-anchor: middle; visibility: inherit; font-family: &quot;Helvetica Neue&quot;, sans-serif; font-size: 12px; font-weight: 200;" x="1197.0139989852905" y="0" dx="0em" dy="0.95em" fill="rgb(50, 49, 63)" stroke="none" stroke-width="1px">1.2k</text><text style="text-anchor: middle; visibility: hidden; font-family: &quot;Helvetica Neue&quot;, sans-serif; font-size: 12px; font-weight: 200;" x="1368.015998840332" y="0" dx="0em" dy="0.95em" fill="rgb(50, 49, 63)" stroke="none" stroke-width="1px">1.4k</text></g><line x1="0" y1="0" x2="1368.015998840332" y2="0" fill="rgb(0, 0, 0)" stroke="rgb(204, 204, 204)" stroke-width="1px"></line></g></g></g></g></svg>