<svg viewBox="0 0 1418 400" xmlns="http://www.w3.org/2000/svg"><g><g><g><g><g><line x1="49.98400115966797" y1="366.1260330228474" x2="44.98400115966797" y2="366.1260330228474" style="visibility: inherit;" fill="rgb(0, 0, 0)" stroke="rgb(204, 204, 204)" stroke-width="1px"></line><line x1="49.98400115966797" y1="335.41279771421785" x2="44.98400115966797" y2="335.41279771421785" style="visibility: inherit;" fill="rgb(0, 0, 0)" stroke="rgb(204, 204, 204)" stroke-width="1px"></line><line x1="49.98400115966797" y1="311.58976160804787" x2="44.98400115966797" y2="311.58976160804787" style="visibility: inherit;" fill="rgb(0, 0, 0)" stroke="rgb(204, 204, 204)" stroke-width="1px"></line><line x1="49.98400115966797" y1="292.1249238170626" x2="44.98400115966797" y2="292.1249238170626" style="visibility: inherit;" fill="rgb(0, 0, 0)" stroke="rgb(204, 204, 204)" stroke-width="1px"></line><line x1="49.98400115966797" y1="275.6676379592052" x2="44.98400115966797" y2="275.6676379592052" style="visibility: inherit;" fill="rgb(0, 0, 0)" stroke="rgb(204, 204, 204)" stroke-width="1px"></line><line x1="49.98400115966797" y1="261.41168850843303" x2="44.98400115966797" y2="261.41168850843303" style="visibility: inherit;" fill="rgb(0, 0, 0)" stroke="rgb(204, 204, 204)" stroke-width="1px"></line><line x1="49.98400115966797" y1="248.8370499199073" x2="44.98400115966797" y2="248.8370499199073" style="visibility: inherit;" fill="rgb(0, 0, 0)" stroke="rgb(204, 204, 204)" stroke-width="1px"></line><line x1="49.98400115966797" y1="237.58865240226302" x2="44.98400115966797" y2="237.58865240226302" style="visibility: inherit;" fill="rgb(0, 0, 0)" stroke="rgb(204, 204, 204)" stroke-width="1px"></line><line x1="49.98400115966797" y1="163.58754319647818" x2="44.98400115966797" y2="163.58754319647818" style="visibility: inherit;" fill="rgb(0, 0, 0)" stroke="rgb(204, 204, 204)" stroke-width="1px"></line><line x1="49.98400115966797" y1="120.29966929932289" x2="44.98400115966797" y2="120.29966929932289" style="visibility: inherit;" fill="rgb(0, 0, 0)" stroke="rgb(204, 204, 204)" stroke-width="1px"></line><line x1="49.98400115966797" y1="89.58643399069337" x2="44.98400115966797" y2="89.58643399069337" style="visibility: inherit;" fill="rgb(0, 0, 0)" stroke="rgb(204, 204, 204)" stroke-width="1px"></line><line x1="49.98400115966797" y1="65.76339788452339" x2="44.98400115966797" y2="65.76339788452339" style="visibility: inherit;" fill="rgb(0, 0, 0)" stroke="rgb(204, 204, 204)" stroke-width="1px"></line><line x1="49.98400115966797" y1="46.29856009353807" x2="44.98400115966797" y2="46.29856009353807" style="visibility: inherit;" fill="rgb(0, 0, 0)" stroke="rgb(204, 204, 204)" stroke-width="1px"></line><line x1="49.98400115966797" y1="29.841274235680658" x2="44.98400115966797" y2="29.841274235680658" style="visibility: inherit;" fill="rgb(0, 0, 0)" stroke="rgb(204, 204, 204)" stroke-width="1px"></line><line x1="49.98400115966797" y1="15.585324784908494" x2="44.98400115966797" y2="15.585324784908494" style="visibility: inherit;" fill="rgb(0, 0, 0)" stroke="rgb(204, 204, 204)" stroke-width="1px"></line><line x1="49.98400115966797" y1="3.0106861963827782" x2="44.98400115966797" y2="3.0106861963827782" style="visibility: inherit;" fill="rgb(0, 0, 0)" stroke="rgb(204, 204, 204)" stroke-width="1px"></line></g><g transform="translate(39.98400115966797, 0)"><text style="text-anchor: end; visibility: inherit; font-family: &quot;Helvetica Neue&quot;, sans-serif; font-size: 12px; font-weight: 200;" x="0" y="366.1260330228474" dx="0em" dy="0.3em" fill="rgb(50, 49, 63)" stroke="none" stroke-width="1px">0.03</text><text style="text-anchor: end; visibility: hidden; font-family: &quot;Helvetica Neue&quot;, sans-serif; font-size: 12px; font-weight: 200;" x="0" y="335.41279771421785" dx="0em" dy="0.3em" fill="rgb(50, 49, 63)" stroke="none" stroke-width="1px">0.04</text><text style="text-anchor: end; visibility: inherit; font-family: &quot;Helvetica Neue&quot;, sans-serif; font-size: 12px; font-weight: 200;" x="0" y="311.58976160804787" dx="0em" dy="0.3em" fill="rgb(50, 49, 63)" stroke="none" stroke-width="1px">0.05</text><text style="text-anchor: end; visibility: hidden; font-family: &quot;Helvetica Neue&quot;, sans-serif; font-size: 12px; font-weight: 200;" x="0" y="292.1249238170626" dx="0em" dy="0.3em" fill="rgb(50, 49, 63)" stroke="none" stroke-width="1px">0.06</text><text style="text-anchor: end; visibility: inherit; font-family: &quot;Helvetica Neue&quot;, sans-serif; font-size: 12px; font-weight: 200;" x="0" y="275.6676379592052" dx="0em" dy="0.3em" fill="rgb(50, 49, 63)" stroke="none" stroke-width="1px">0.07</text><text style="text-anchor: end; visibility: hidden; font-family: &quot;Helvetica Neue&quot;, sans-serif; font-size: 12px; font-weight: 200;" x="0" y="261.41168850843303" dx="0em" dy="0.3em" fill="rgb(50, 49, 63)" stroke="none" stroke-width="1px">0.08</text><text style="text-anchor: end; visibility: inherit; font-family: &quot;Helvetica Neue&quot;, sans-serif; font-size: 12px; font-weight: 200;" x="0" y="248.8370499199073" dx="0em" dy="0.3em" fill="rgb(50, 49, 63)" stroke="none" stroke-width="1px">0.09</text><text style="text-anchor: end; visibility: hidden; font-family: &quot;Helvetica Neue&quot;, sans-serif; font-size: 12px; font-weight: 200;" x="0" y="237.58865240226302" dx="0em" dy="0.3em" fill="rgb(50, 49, 63)" stroke="none" stroke-width="1px">0.1</text><text style="text-anchor: end; visibility: inherit; font-family: &quot;Helvetica Neue&quot;, sans-serif; font-size: 12px; font-weight: 200;" x="0" y="163.58754319647818" dx="0em" dy="0.3em" fill="rgb(50, 49, 63)" stroke="none" stroke-width="1px">0.2</text><text style="text-anchor: end; visibility: hidden; font-family: &quot;Helvetica Neue&quot;, sans-serif; font-size: 12px; font-weight: 200;" x="0" y="120.29966929932289" dx="0em" dy="0.3em" fill="rgb(50, 49, 63)" stroke="none" stroke-width="1px">0.3</text><text style="text-anchor: end; visibility: inherit; font-family: &quot;Helvetica Neue&quot;, sans-serif; font-size: 12px; font-weight: 200;" x="0" y="89.58643399069337" dx="0em" dy="0.3em" fill="rgb(50, 49, 63)" stroke="none" stroke-width="1px">0.4</text><text style="text-anchor: end; visibility: hidden; font-family: &quot;Helvetica Neue&quot;, sans-serif; font-size: 12px; font-weight: 200;" x="0" y="65.76339788452339" dx="0em" dy="0.3em" fill="rgb(50, 49, 63)" stroke="none" stroke-width="1px">0.5</text><text style="text-anchor: end; visibility: inherit; font-family: &quot;Helvetica Neue&quot;, sans-serif; font-size: 12px; font-weight: 200;" x="0" y="46.29856009353807" dx="0em" dy="0.3em" fill="rgb(50, 49, 63)" stroke="none" stroke-width="1px">0.6</text><text style="text-anchor: end; visibility: hidden; font-family: &quot;Helvetica Neue&quot;, sans-serif; font-size: 12px; font-weight: 200;" x="0" y="29.841274235680658" dx="0em" dy="0.3em" fill="rgb(50, 49, 63)" stroke="none" stroke-width="1px">0.7</text><text style="text-anchor: end; visibility: inherit; font-family: &quot;Helvetica Neue&quot;, sans-serif; font-size: 12px; font-weight: 200;" x="0" y="15.585324784908494" dx="0em" dy="0.3em" fill="rgb(50, 49, 63)" stroke="none" stroke-width="1px">0.8</text><text style="text-anchor: end; visibility: hidden; font-family: &quot;Helvetica Neue&quot;, sans-serif; font-size: 12px; font-weight: 200;" x="0" y="3.0106861963827782" dx="0em" dy="0.3em" fill="rgb(50, 49, 63)" stroke="none" stroke-width="1px">0.9</text></g><line x1="49.98400115966797" y1="0" x2="49.98400115966797" y2="378.6199998855591" fill="rgb(0, 0, 0)" stroke="rgb(204, 204, 204)" stroke-width="1px"></line></g></g><g transform="translate(49, 0)" clip-path="url(#clip_0)"><clipPath id="clip_0"><rect width="1368" height="378"></rect></clipPath><g><g><g><line x1="0" y1="0" x2="0" y2="378.6199998855591" fill="rgb(0, 0, 0)" stroke="rgb(60, 60, 60)" stroke-width="1px" opacity="0.25"></line><line x1="171.0019998550415" y1="0" x2="171.0019998550415" y2="378.6199998855591" fill="rgb(0, 0, 0)" stroke="rgb(60, 60, 60)" stroke-width="1px" opacity="0.25"></line><line x1="342.003999710083" y1="0" x2="342.003999710083" y2="378.6199998855591" fill="rgb(0, 0, 0)" stroke="rgb(60, 60, 60)" stroke-width="1px" opacity="0.25"></line><line x1="513.0059995651245" y1="0" x2="513.0059995651245" y2="378.6199998855591" fill="rgb(0, 0, 0)" stroke="rgb(60, 60, 60)" stroke-width="1px" opacity="0.25"></line><line x1="684.007999420166" y1="0" x2="684.007999420166" y2="378.6199998855591" fill="rgb(0, 0, 0)" stroke="rgb(60, 60, 60)" stroke-width="1px" opacity="0.25"></line><line x1="855.0099992752075" y1="0" x2="855.0099992752075" y2="378.6199998855591" fill="rgb(0, 0, 0)" stroke="rgb(60, 60, 60)" stroke-width="1px" opacity="0.25"></line><line x1="1026.011999130249" y1="0" x2="1026.011999130249" y2="378.6199998855591" fill="rgb(0, 0, 0)" stroke="rgb(60, 60, 60)" stroke-width="1px" opacity="0.25"></line><line x1="1197.0139989852905" y1="0" x2="1197.0139989852905" y2="378.6199998855591" fill="rgb(0, 0, 0)" stroke="rgb(60, 60, 60)" stroke-width="1px" opacity="0.25"></line><line x1="1368.015998840332" y1="0" x2="1368.015998840332" y2="378.6199998855591" fill="rgb(0, 0, 0)" stroke="rgb(60, 60, 60)" stroke-width="1px" opacity="0.25"></line></g><g><line x1="0" y1="366.1260330228474" x2="1368.015998840332" y2="366.1260330228474" fill="rgb(0, 0, 0)" stroke="rgb(60, 60, 60)" stroke-width="1px" opacity="0.25"></line><line x1="0" y1="335.41279771421785" x2="1368.015998840332" y2="335.41279771421785" fill="rgb(0, 0, 0)" stroke="rgb(60, 60, 60)" stroke-width="1px" opacity="0.25"></line><line x1="0" y1="311.58976160804787" x2="1368.015998840332" y2="311.58976160804787" fill="rgb(0, 0, 0)" stroke="rgb(60, 60, 60)" stroke-width="1px" opacity="0.25"></line><line x1="0" y1="292.1249238170626" x2="1368.015998840332" y2="292.1249238170626" fill="rgb(0, 0, 0)" stroke="rgb(60, 60, 60)" stroke-width="1px" opacity="0.25"></line><line x1="0" y1="275.6676379592052" x2="1368.015998840332" y2="275.6676379592052" fill="rgb(0, 0, 0)" stroke="rgb(60, 60, 60)" stroke-width="1px" opacity="0.25"></line><line x1="0" y1="261.41168850843303" x2="1368.015998840332" y2="261.41168850843303" fill="rgb(0, 0, 0)" stroke="rgb(60, 60, 60)" stroke-width="1px" opacity="0.25"></line><line x1="0" y1="248.8370499199073" x2="1368.015998840332" y2="248.8370499199073" fill="rgb(0, 0, 0)" stroke="rgb(60, 60, 60)" stroke-width="1px" opacity="0.25"></line><line x1="0" y1="237.58865240226302" x2="1368.015998840332" y2="237.58865240226302" fill="rgb(0, 0, 0)" stroke="rgb(60, 60, 60)" stroke-width="1px" opacity="0.25"></line><line x1="0" y1="163.58754319647818" x2="1368.015998840332" y2="163.58754319647818" fill="rgb(0, 0, 0)" stroke="rgb(60, 60, 60)" stroke-width="1px" opacity="0.25"></line><line x1="0" y1="120.29966929932289" x2="1368.015998840332" y2="120.29966929932289" fill="rgb(0, 0, 0)" stroke="rgb(60, 60, 60)" stroke-width="1px" opacity="0.25"></line><line x1="0" y1="89.58643399069337" x2="1368.015998840332" y2="89.58643399069337" fill="rgb(0, 0, 0)" stroke="rgb(60, 60, 60)" stroke-width="1px" opacity="0.25"></line><line x1="0" y1="65.76339788452339" x2="1368.015998840332" y2="65.76339788452339" fill="rgb(0, 0, 0)" stroke="rgb(60, 60, 60)" stroke-width="1px" opacity="0.25"></line><line x1="0" y1="46.29856009353807" x2="1368.015998840332" y2="46.29856009353807" fill="rgb(0, 0, 0)" stroke="rgb(60, 60, 60)" stroke-width="1px" opacity="0.25"></line><line x1="0" y1="29.841274235680658" x2="1368.015998840332" y2="29.841274235680658" fill="rgb(0, 0, 0)" stroke="rgb(60, 60, 60)" stroke-width="1px" opacity="0.25"></line><line x1="0" y1="15.585324784908494" x2="1368.015998840332" y2="15.585324784908494" fill="rgb(0, 0, 0)" stroke="rgb(60, 60, 60)" stroke-width="1px" opacity="0.25"></line><line x1="0" y1="3.0106861963827782" x2="1368.015998840332" y2="3.0106861963827782" fill="rgb(0, 0, 0)" stroke="rgb(60, 60, 60)" stroke-width="1px" opacity="0.25"></line></g></g></g><g><g><line x1="171.0019998550415" y1="0" x2="171.0019998550415" y2="378.6199998855591" fill="rgb(0, 0, 0)" stroke="rgb(153, 153, 153)" stroke-width="1.5px"></line></g></g><g><g><g><g><g><path style="fill: none;" stroke="rgb(187, 187, 187)" stroke-width="2px" d="M171.8570098543167,64.538046823647L173.5670298528671,75.17721589406278L175.27704985141753,81.65532055750367L176.13205985069274,82.9951160304384L177.84207984924316,83.47043225155011L179.55209984779358,84.55559377095005L180.40710984706877,86.54073263526925L181.262119846344,82.48105623986163L182.1171298456192,86.13315039061843L182.97213984489443,81.76369606098154L183.8271498441696,84.78500323939869L184.68215984344485,78.56302578276222L185.53716984272003,82.36380248751396L186.39217984199524,86.0431465665871L187.24718984127045,84.182634137646L188.10219984054567,82.79766808443401L188.95720983982085,80.06568333034022L189.8122198390961,81.40845110357316L190.66722983837127,83.47385752571154L191.5222398376465,81.92174248196807L192.3772498369217,80.14519240691885L194.0872698354721,86.02184988818118L196.65229983329772,83.0388268646094L197.50730983257293,84.11045921867475L198.36231983184814,74.4347313985258L199.21732983112335,86.9825992449205L200.07233983039853,82.00904791803345L201.78235982894896,79.66255809299366L204.34738982677462,84.43807197433972L205.2023998260498,85.11018000360025L206.91241982460022,82.25674728124778L207.76742982387543,84.09734174677527L208.62243982315064,83.68451262873515L209.47744982242585,82.72716903385367L210.33245982170104,83.16173791233342L211.18746982097628,82.43807899188198L212.8974898195267,85.16199994898017L213.75249981880188,80.05081288566788L216.31752981662748,82.78918902130346L217.17253981590272,81.73569762976916L218.0275498151779,83.34671533787207L218.88255981445312,83.33186093370853L219.73756981372833,83.37718083414558L222.30259981155396,84.92361689245013L223.15760981082914,85.13773482904372L224.01261981010438,92.13119105521355L224.86762980937957,89.72335827952412L225.7226398086548,91.06930560304704L226.57764980793,96.16649666010949L227.43265980720523,87.3442369681498L228.2876698064804,96.611742647639L229.14267980575562,93.49196433404165L229.99768980503083,101.96619518866055L231.70770980358122,101.13310619705851L232.56271980285646,93.62891457056355L233.41772980213165,96.15011936997831L234.27273980140689,93.74625616278962L235.98275979995725,96.22282122829824L236.8377697992325,102.7199119131792L237.69277979850767,87.46163502078616L238.5477897977829,93.74582610467695L240.2578097963333,87.94420849847421L241.11281979560852,111.63673824898933L242.8228397941589,65.39100972617103L243.67784979343415,73.07824991269672L244.53285979270933,83.29255924787651L245.38786979198457,91.96761053043701L246.24287979125975,72.28618823041609L247.097889790535,89.26583824622338L248.80790978908541,76.15824603633524L249.6629197883606,78.71303877551321L250.5179297876358,74.08204900591937L251.37293978691102,92.75213664406562L253.0829597854614,78.67626264524944L253.93796978473665,76.30196550618649L255.64798978328707,65.8206970662348L256.50299978256226,69.4171140688814L257.35800978183744,78.6540307236794L258.2130197811127,86.31335513287519L259.06802978038786,73.6182774237887L259.9230397796631,85.63552426198805L260.7780497789383,73.95986336441416L261.6330597782135,72.09087685579357L264.1980897760391,76.33869146249805L265.05309977531437,78.37740964650698L267.61812977313997,77.04557229933033L269.32814977169033,75.7130443578958L270.1831597709656,76.45316527394726L271.03816977024076,76.88494393640167L271.893179769516,78.61649972922879L272.7481897687912,69.6979514973462L273.6031997680664,72.26078429960324L274.4582097673416,77.08697000574796L276.168229765892,82.55639744775601L277.02323976516726,86.21512202151894L277.87824976444244,81.08528965961307L278.7332597637176,76.66982302282298L279.58826976299287,77.018161873655L281.2982897615433,83.35703961592236L282.15329976081847,87.69538121427206L284.71832975864413,90.14868170081485L285.5733397579193,85.09910515064041L287.28335975646974,98.62341586676712L288.1383697557449,74.7220424020681L289.84838975429534,71.30854657147097L291.55840975284576,87.58325281693618L292.41341975212094,79.06220921460039L293.2684297513962,64.19087973576876L294.12343975067137,92.90304031508595L294.9784497499466,86.33066709737204L295.8334597492218,70.56584883435056L297.5434797477722,85.09776282228455L298.39848974704745,93.42060322411248L299.25349974632263,86.59108617958009L300.1085097455978,83.40774511098175L301.81852974414824,66.95390611091943L302.6735397434235,119.97485991685113L303.52854974269866,94.34531877094838L305.2385697412491,75.92058905886614L306.0935797405243,78.74913767178276L306.9485897397995,72.7504469479561L308.6586097383499,81.2644642955679L309.5136197376251,77.887113305262L311.2236397361755,79.66896574223296L312.0786497354507,91.3443082820275L313.78866973400113,65.01967583105028L314.6436797332764,83.05004916477708L315.49868973255155,70.08438549733552L317.208709731102,84.25243652181246L318.0637197303772,84.27592604179193L318.9187297296524,71.95403401280464L320.6287497282028,75.95827619484504L321.483759727478,85.58929699290672L322.33876972675324,77.67727927511169L323.1937797260284,71.74196405673888L324.90379972457885,82.02229661624824L325.7588097238541,87.83460421100455L326.61381972312927,74.02293252498464L327.4688297224045,79.15646868830282L328.3238397216797,73.00557504873188L329.17884972095493,86.12369380488423L330.0338597202301,55.45600489044716L330.8888697195053,97.06612197001266L331.74387971878053,65.82849039916232L333.4538997173309,96.97514582088684L334.30890971660614,117.91350919305586L336.87393971443174,107.01535533521923L340.2939797115326,98.44882697230571L341.1489897108078,111.21752785905096L342.8590097093582,111.35308944767223L343.7140197086334,130.96974441418442L344.56902970790867,128.39263074036865L346.27904970645903,113.18273698449605L347.1340597057342,111.90031836027879L347.9890697050095,106.0087833122409L348.8440797042847,98.03426009285579L349.6990897035599,121.04637006676563L352.2641197013855,132.99123512723784L353.1191297006607,147.2211861647549L353.9741396999359,118.73094690682836L354.82914969921114,123.58456957672468L357.3941796970367,124.5625292759197L358.249189696312,122.8635824991461L359.10419969558717,117.64183560501874L359.95920969486235,140.2166063862526L360.81421969413753,119.88641719561946L361.66922969341283,127.30869644567613L363.3792496919632,125.53932618863257L364.2342596912384,139.2788347303123L365.08926969051356,121.00109564605424L366.79928968906404,134.62657846984968L367.6542996883392,133.0729193121388L368.5093096876144,120.5568884950855L369.3643196868897,84.2143073269745L370.2193296861649,77.53448288403337L371.07433968544007,87.48103714268609L371.92934968471525,75.13205017347923L373.63936968326567,69.02799198657846L374.4943796825409,70.0000794068996L376.20439968109133,75.39004358635668L377.0594096803665,71.71434783037427L377.9144196796417,72.5785109898058L379.6244396781922,79.87775806606737L380.47944967746736,82.67222280965956L381.33445967674254,79.79650284649495L382.1894696760177,84.40051291523827L383.044479675293,86.22156531729718L383.8994896745682,82.50043737608888L384.7544996738434,83.06238009202036L385.60950967311857,91.68580770766653L386.46451967239375,88.32204600392862L387.31952967166905,87.477106524509L388.1745396709442,94.52784775445025L389.0295496702194,89.28328669809764L391.59457966804507,98.17237370669704L392.44958966732025,79.49484930662209L393.30459966659544,81.84524969160162L394.1596096658707,69.22171844598597L395.8696296644211,74.39658464908052L397.5796496629715,90.50999030998298L399.2896696615219,84.31383498081817L400.99968966007236,89.6224158376815L402.7097096586227,78.81274280930683L403.5647196578979,81.41861909891838L404.4197296571732,75.22810232984767L405.2747396564484,85.63601484432127L406.1297496557236,86.61685980357652L407.83976965427394,86.96185942485323L408.69477965354923,93.86246839565428L409.5497896528244,82.305535924337L410.4047996520996,85.9506046078244L411.2598096513748,86.82066876534094L412.1148196506501,89.35650610579415L412.96982964992526,89.98481902731271L413.82483964920044,85.74703639681064L418.09988964557647,90.66800821044296L419.8099096441269,105.56677846787403L420.6649196434021,107.04941146906998L422.37493964195255,105.0385636442673L423.22994964122773,107.33852024588026L424.0849596405029,107.13439310534596L424.9399696397781,108.43977400163453L425.7949796390534,95.57889509094184L426.6499896383286,117.78672225876335L427.50499963760376,107.00876266347137L428.36000963687894,113.73314653908449L429.2150196361541,124.4106688881727L430.0700296354294,131.4716695533603L430.9250396347046,136.7505770461824L433.49006963253026,114.95237045752418L434.34507963180545,86.95186352540213L436.0550996303558,94.48936485179536L438.6201296281815,85.623597672617L439.47513962745666,80.15273588867836L441.1851596260071,72.92772315141781L442.04016962528226,84.34388101737869L442.89517962455744,97.11339740296376L443.75018962383274,92.15058075689677L444.6051996231079,98.55082611671412L445.4602096223831,94.02231365028075L446.3152196216583,93.68414725070704L447.1702296209336,111.57303624667037L448.02523962020877,93.57371045019988L448.88024961948395,119.49623413045538L449.73525961875913,115.77891438790425L450.5902696180343,122.33622377777397L451.4452796173096,106.90232490312292L453.15529961586,129.01960307412324L454.01030961513516,122.6721214235439L455.72032961368564,140.69902397161403L457.430349612236,135.7483607983283L459.1403696107864,141.29243603209684L460.85038960933684,138.49199777003568L461.7053996086121,154.35738524526124L462.56040960788727,164.86492452463557L463.41541960716245,181.7306726771386L464.27042960643763,173.51474918480096L465.1254396057129,201.38804755938924L465.9804496049881,185.4717114982575L466.8354596042633,171.668435090058L467.6904696035385,191.58078955853208L468.54547960281377,208.47664393888246L469.40048960208895,176.40181420790634L470.25549960136414,190.61824200516318L471.1105096006393,147.7865168742042L471.9655195999145,191.891617241409L472.8205295991898,228.86600694165554L473.675539598465,156.35071372031626L475.38555959701534,116.19396571738093L476.24056959629064,207.19782097760188L477.0955795955658,218.49113555112797L477.950589594841,175.1246616707184L478.8055995941162,249.15445236695547L479.6606095933914,157.03193155041413L480.5156195926666,151.03549301489662L481.37062959194185,133.4372672726486L482.22563959121703,210.91074364474852L483.08064959049227,175.64620755495122L483.93565958976745,198.74996453326833L484.79066958904264,137.49099352573373L485.6456795883178,157.01724070336618L487.3556995868683,161.87589381005697L488.2107095861435,204.99127270273803L489.92072958469396,201.23709866620246L490.77573958396914,183.472149462766L491.6307495832443,169.30481524531004L492.4857595825195,150.45226288797903L493.3407695817947,169.9590340290662L494.19577958107,237.27651086971855L495.05078958034517,225.99045047001906L496.76080957889553,199.83815680652089L497.61581957817083,165.90017447259777L499.3258395767212,158.8139637839057L500.1808495759964,125.98287567397162L501.0358595752716,65.01927139801018L501.8908695745468,60.86106651410455L502.74587957382204,63.80689392915974L504.45589957237246,66.4680782237262L505.31090957164764,64.59538430078862L506.1659195709228,66.08006706721369L507.020929570198,66.25746517428155L509.58595956802367,66.41658966097884L511.29597956657415,68.39184263342378L512.1509895658493,71.63294038281668L513.8610095643998,82.78599461934664L514.7160195636749,81.62811835266012L515.5710295629501,95.8532600889904L517.2810495615005,77.92946625524303L518.1360595607757,85.13498818181671L519.8460795593262,76.28016632351046L521.5560995578766,87.00309464158289L522.4111095571518,87.82537127502991L524.9761395549774,84.43594964138947L525.8311495542526,71.02858008245914L526.6861595535279,75.76835203672016L529.2511895513535,81.04193067188277L530.1061995506287,77.43999706071969L530.9612095499039,84.62952828082575L531.8162195491791,99.69818240291374L532.6712295484543,82.4157638386838L533.5262395477295,67.84004341130918L535.2362595462799,92.69247032339109L536.9462795448303,108.1168589702628L538.6562995433807,84.69877254079586L540.3663195419311,95.43723748879421L542.9313495397568,99.07285945253233L543.786359539032,112.41277054291112L545.4963795375824,86.28790146013216L546.3513895368576,85.93070995072071L547.2063995361328,84.20753022886919L548.0614095354081,82.35309808143086L548.9164195346832,91.8699529457067L550.6264395332337,106.12532891449104L551.4814495325089,107.91437503138656L552.336459531784,87.52013283384753L553.1914695310593,84.34657709333453L554.0464795303345,84.56779626863658L554.9014895296096,79.69326611484126L555.7564995288849,96.82573392693831L556.6115095281601,87.50449907989116L557.4665195274353,131.3179890072031L558.3215295267105,137.1059906292978L559.1765395259857,158.18769063525548L560.0315495252609,124.91619158929856L561.7415695238113,126.00162443411216L562.5965795230866,136.92482699575237L563.4515895223617,142.3258869425009L564.3065995216369,159.65329919883587L565.1616095209122,130.2928552446034L566.0166195201874,101.02545905005843L566.8716295194625,152.36753363688112L567.7266395187378,166.51826317372607L568.581649518013,144.19211187638783L569.4366595172883,136.21115861052738L570.2916695165634,130.2351511080072L571.1466795158386,143.4719308825619L572.0016895151139,141.13736617997137L572.8566995143891,168.317838294351L573.7117095136642,113.14853209023698L574.5667195129395,94.47260996593258L575.4217295122147,138.8880237510737L576.2767395114898,129.7289823944986L578.8417695093154,152.36549999218533L579.6967795085907,124.42588048590773L583.1168195056915,149.72632214808814L584.8268395042419,210.46539632439953L585.6818495035171,83.55829221670729L586.5368595027924,74.67944846121077L587.3918695020676,78.4455518218872L588.2468795013427,202.90079346362282L589.101889500618,187.72641718664877L590.8119094991685,155.36190153027545L591.6669194984436,156.3347785588049L592.5219294977188,171.3625076893753L595.0869594955444,184.45579759223583L595.9419694948197,178.47741827749442L597.65198949337,141.22663929683273L601.0720294904709,131.3050551055518L601.9270394897461,130.37529724466896L602.7820494890212,128.4514993484306L603.6370594882965,129.76239900984473L604.4920694875717,125.19403363280611L605.347079486847,142.43228713951822L606.2020894861221,146.54032723789123L607.0570994853973,137.723402626554L607.9121094846726,179.09261970107232L608.7671194839478,179.38598546830877L610.4771394824982,149.81124745843616L611.3321494817734,175.26260901708017L612.1871594810486,192.4606530072076L613.0421694803238,182.61924781487176L613.897179479599,162.45669712041592L614.7521894788742,154.44999077654683L615.6071994781495,135.16446622399747L618.1722294759751,127.91979413872824L619.0272394752502,142.66271890486746L619.8822494745255,167.46702104166383L625.0123094701767,163.52326621599144L626.7223294687271,140.89872556769237L627.5773394680023,139.08489440134915L628.4323494672775,121.70669235383991L629.2873594665527,122.61514016957011L630.142369465828,116.0813957110002L630.9973794651031,99.1152571974958L631.8523894643783,116.8007584725978L632.7073994636536,113.4418912465635L633.5624094629288,111.2216190889281L634.417419462204,124.24669767360348L635.2724294614792,156.25368285466354L636.1274394607544,119.66816074728405L636.9824494600297,133.8376758437105L637.8374594593048,133.1646195967301L638.69246945858,143.0120307205442L639.5474794578553,136.32181154772533L640.4024894571304,143.51950911590842L642.1125094556809,166.221277471511L642.967519454956,120.31994518731977L643.8225294542312,89.61948770252195L645.5325494527816,97.31857968209528L647.2425694513321,121.75157898916706L648.9525894498825,156.90976880353801L649.8075994491577,131.59194406627137L650.6626094484329,123.45611345981212L652.3726294469833,112.93149530980361L653.2276394462585,172.91793075429024L654.0826494455338,183.26119178934258L654.937659444809,174.62537254381243L655.7926694440841,155.01421707104274L656.6476794433594,185.02806219222242L657.5026894426346,189.09122432752275L658.3576994419099,209.03612103835974L659.212709441185,217.66651645294857L660.0677194404602,146.09016303686582L660.9227294397355,177.05103841643972L661.7777394390106,152.76618773518797L663.4877594375611,157.08523650292642L664.3427694368362,155.5861937104871L665.1977794361114,144.2881996131653L666.0527894353867,159.47922700424743L666.9077994346618,194.37450971966456L667.762809433937,201.29333978296827L668.6178194332123,144.60641019312908L669.4728294324875,146.9630949018602L670.3278394317626,147.14143214772372L671.1828494310379,159.97664117800582L672.0378594303131,139.06301880647112L672.8928694295884,131.9093513734957L673.7478794288635,177.99715512858936L674.6028894281387,126.43029747071733L676.3129094266892,121.89883985413053L677.1679194259643,130.81327310670892L678.0229294252396,141.45391176410124L679.73294942379,154.1518790777852L680.5879594230652,126.4744732109161L681.4429694223404,138.04885620451807L682.2979794216157,137.75504658505415L684.007999420166,132.74117044843882L684.8630094194413,141.7319301520318L685.7180194187164,136.5787356859596L686.5730294179916,135.6001045956631L687.4280394172667,106.18723631278345L688.2830494165421,138.3065606419118L689.1380594158173,151.8847294992325L690.8480794143677,184.79254759081272L692.5580994129181,213.77971864033606L693.4131094121932,194.00691177815335L694.2681194114684,180.2075455905166L696.8331494092942,179.20238549966356L700.2531894063949,156.3678109879918L701.1081994056701,170.76402312556127L701.9632094049455,159.67903116763506L702.8182194042206,196.85293800093672L703.6732294034958,179.72426503173602L704.528239402771,150.0181966254048L705.3832494020462,140.86289571664446L706.2382594013214,134.5594053750794L708.8032893991469,114.11528022879332L709.6582993984223,96.56173374740735L710.5133093976975,121.06461339646842L711.3683193969727,128.95673989097355L713.078339395523,139.3144156088457L713.9333493947983,138.02175766473005L714.7883593940734,161.0565626043555L716.498379392624,153.1222496845278L717.3533893918992,191.54688314735688L718.2083993911743,150.8886661540484L719.0634093904496,144.77234064906486L719.9184193897247,138.56081127751153L720.773429389,145.25107681163857L721.6284393882751,156.56633964825818L722.4834493875503,131.9354149126252L723.3384593868257,157.6454528128973L724.1934693861008,151.53657261260395L725.048479385376,146.4499418874589L725.9034893846512,146.17156779119324L726.7584993839264,134.83355284130738L727.6135093832016,116.51330766977395L728.4685193824768,110.55104048761302L729.323529381752,140.43484615499838L731.8885593795777,130.22635152313237L732.7435693788528,129.820451060214L734.4535893774032,150.10332648177544L735.3085993766784,118.13917901171607L736.1636093759536,129.2559701086883L737.0186193752288,141.46554930973696L737.8736293745042,144.54335763011642L738.7286393737794,158.14831499346127L739.5836493730545,157.94739886330348L740.4386593723298,160.2859720571466L741.2936693716049,121.34716317438455L742.1486793708801,135.07912028854574L743.0036893701553,125.91627484665355L744.7137093687058,127.9028009892265L745.568719367981,157.643707330716L746.4237293672562,143.73663466393663L747.2787393665313,159.5744550793229L748.1337493658066,192.82421148750544L749.843769364357,200.50392653241175L750.6987793636322,175.1856855543348L751.5537893629073,216.10558884764632L752.4087993621827,131.90282465939592L753.2638093614579,116.06675686906743L754.118819360733,100.52560513341496L754.9738293600083,103.27052693810913L755.8288393592834,93.56426484939237L756.6838493585586,93.84879174852455L757.5388593578338,119.77339161674661L758.393869357109,142.9005952219897L759.2488793563844,140.89517548368303L760.1038893556596,159.761359915256L762.6689193534851,146.57445174211458L764.3789393520354,222.12341674484634L766.088959350586,172.8168303467252L768.6539893484115,158.957061682568L769.5089993476868,237.80603277344167L770.364009346962,179.85498628404255L771.2190193462371,176.80307425547213L772.0740293455124,170.74976569750325L772.9290393447875,185.06933655256566L773.7840493440629,155.1755369032656L774.6390593433381,162.4498027789978L775.4940693426132,175.2578529152873L776.3490793418885,170.8184842889899L777.2040893411636,184.79433278074944L778.0590993404388,195.09458931990073L778.914109339714,173.3226651213226L781.4791393375398,214.44269209160535L782.3341493368149,231.27526719690638L783.1891593360901,209.3063673428137L784.8991793346405,211.69539868456582L785.7541893339156,198.64603434047703L787.4642093324662,151.99054002947386L788.3192193317414,117.62044432299956L789.1742293310166,162.9978255489811L790.0292393302917,167.07493992085975L790.884249329567,166.7048319920128L791.7392593288422,170.87457428216274L794.3042893266677,154.19315846427997L795.159299325943,182.44815330381005L796.0143093252183,145.87421321574902L796.8693193244934,167.0505832478233L798.5793393230438,210.6149077354679L799.434349322319,215.30118844451908L800.2893593215941,190.0129780994581L801.9993793201447,218.27350945233624L802.85438931942,221.6907516110446L803.7093993186951,223.8044706930081L804.5644093179703,172.3756512581821L805.4194193172455,211.74484081207913L806.2744293165207,208.07388869488932L807.1294393157958,173.84789463059448L807.9844493150711,207.4877334934941L808.8394593143464,176.08461401891498L809.6944693136215,189.46309055012966L811.4044893121719,198.30238458975566L812.2594993114471,159.1181696208421L813.1145093107224,141.92217209522866L813.9695193099975,165.75779309167044L814.8245293092727,157.87655972540665L815.6795393085479,196.09721019316171L816.5345493078232,179.05763762936922L817.3895593070985,190.41466048286077L819.954589304924,200.64443199468067L820.8095993041992,177.25523506212744L822.5196193027496,183.10128896471392L823.3746293020249,172.3827682066686L824.2296393013002,142.88075412330932L825.0846493005753,180.54646588940665L825.9396592998505,213.93644617262325L826.7946692991256,223.06411200891108L828.504689297676,225.46509064132687L829.3596992969512,203.76130638303857L830.2147092962266,214.70367674473675L831.0697192955017,189.68066635385622L831.924729294777,182.77245090206972L832.7797392940521,204.33382599302186L833.6347492933273,216.80400234080068L834.4897592926026,232.22241066600378L836.1997792911529,232.20250306720405L837.0547892904281,177.1736829797143L837.9097992897034,159.70354211100576L839.6198192882538,199.61511678537732L840.474829287529,163.38627246488807L841.3298392868041,169.00547665358388L842.1848492860794,180.54374339119244L843.0398592853545,204.27763739646133L843.8948692846297,199.83292920579373L845.6048892831803,182.96741179778977L846.4598992824555,220.10164364289L847.3149092817307,189.4214198612208L848.1699192810058,208.4340674289126L849.0249292802811,255.84055796173067L849.8799392795562,157.52345816796418L850.7349492788314,218.9074218268416L851.5899592781068,195.08232375048217L852.4449692773819,205.60816786197603L853.2999792766572,151.68241548539476L854.1549892759323,118.09935936117586L855.0099992752075,143.95274671003813L856.7200192737579,172.53555147513035L858.4300392723082,174.29334840726065L859.2850492715836,166.96408145172038L860.1400592708588,177.7493841159998L860.995069270134,120.66802254810557L861.8500792694092,154.32768207745718L862.7050892686843,159.67740548428768L864.4151092672347,175.6281131889737L865.2701192665099,178.4575576479484L866.1251292657853,207.85340215755195L866.9801392650605,167.36495123729935L867.8351492643357,201.05512949555595L868.6901592636109,166.10595872047614L870.4001792621613,168.60771521992103L872.1101992607116,177.01787347434603L872.965209259987,138.52087642969929L874.6752292585373,138.71535664326723L875.5302392578125,130.34476437832467L876.3852492570877,144.5667051034039L878.9502792549133,202.44832735493998L879.8052892541884,139.25281548402884L880.6602992534638,143.4848447606837L881.515309252739,186.73408709633603L882.3703192520142,187.82958115795907L884.0803392505645,202.52330750434396L884.9353492498398,137.56390209327756L885.7903592491149,160.44996454458513L886.6453692483901,162.60760263373322L887.5003792476655,161.3678276010986L888.3553892469407,196.94861294128538L889.2103992462158,155.67177651871043L890.9204192447662,162.90490179801046L891.7754292440414,191.94447129295438L893.4854492425918,199.08960278736907L894.3404592418672,193.8506616769187L895.1954692411423,202.87771310839085L896.0504792404175,217.03082713807055L897.7604992389679,189.7619905711377L898.6155092382431,220.50219860980357L899.4705192375183,216.34198853133208L900.3255292367935,187.380498723626L902.035549235344,185.1295845217925L903.7455692338943,182.96310089578176L905.4555892324447,181.50532374309662L906.31059923172,164.03475390411694L907.1656092309951,173.42745566504274L908.0206192302703,152.5161231118677L908.8756292295457,184.16994339017273L912.2956692266464,200.2806592729655L913.1506792259216,205.12795367531487L914.0056892251968,211.8388939799219L914.860699224472,214.98254912392215L915.7157092237474,178.24130511465552L917.4257292222977,207.75615295544182L918.2807392215728,214.87694137822834L919.1357492208481,189.8535900295537L919.9907592201233,210.82661651871754L920.8457692193984,199.6470021044342L921.7007792186737,185.8280650191658L922.5557892179488,187.66695862593244L923.4107992172242,178.6753485114297L924.2658092164994,199.0402755738613L925.1208192157745,185.2512738563825L926.8308392143249,176.71118041825846L927.6858492136001,157.87658988539437L928.5408592128753,155.15542474074405L929.3958692121505,130.567551771813L930.2508792114259,122.91795750138928L931.1058892107011,147.19474041012924L931.9608992099762,117.07770637342844L932.8159092092515,112.04735193363581L933.6709192085266,132.02988351053355L934.5259292078018,142.9428583064801L935.380939207077,116.9785934822138L936.2359492063522,127.71205293632298L937.0909592056275,125.96005942934636L937.9459692049027,150.71188833685233L938.8009792041779,142.14939592511936L939.655989203453,125.82603419336868L940.5109992027283,151.4120472452991L942.2210192012786,158.06667647778795L943.931039199829,138.23971743630477L944.7860491991044,157.1717902637763L945.6410591983796,145.79020691809134L946.4960691976547,159.7161218765082L947.35107919693,155.51988321325575L948.2060891962051,148.17481356437855L949.0610991954803,152.93975062001203L949.9161091947554,127.29093968797173L950.7711191940307,125.30930351811176L951.626129193306,132.96620228537495L953.3361491918564,158.40524406958846L954.1911591911316,107.56472422062916L955.0461691904068,133.36182418216617L955.901179189682,148.86205279729026L957.6111991882324,126.51331622452801L958.4662091875077,121.8699913683044L959.3212191867829,134.3066122867857L960.1762291860581,133.84292525023642L961.0312391853332,166.95675846400812L961.8862491846085,150.63714997905535L963.5962691831588,175.67966171238027L964.4512791824341,139.8981468595418L966.1612991809845,130.3977712836216L967.0163091802598,175.12065609306921L967.8713191795349,193.25406455972376L968.7263291788101,184.28675789325203L969.5813391780853,202.78126181091693L970.4363491773605,185.59371344707412L972.1463691759109,186.79196059830434L973.8563891744615,101.18285613906357L976.421419172287,69.52437175109571L977.2764291715622,74.98001692533563L978.1314391708373,74.1346458960279L978.9864491701126,145.49063463814932L980.696469168663,145.64872040358543L981.5514791679383,131.8615453418836L982.4064891672134,185.61964021025148L984.1165091657639,147.08515180136627L984.971519165039,197.93823975365308L985.8265291643143,160.91316915543098L986.6815391635894,141.4363285460464L988.39155916214,117.93927471409131L989.2465691614151,141.56529630023823L990.1015791606903,134.02884354165917L990.9565891599655,130.03884609398008L991.8115991592407,110.68591297559476L992.6666091585158,138.4398196561104L993.5216191577911,189.6821695379983L994.3766291570664,138.7051491459699L995.2316391563417,186.89224614063895L996.941659154892,211.43005128324702L997.7966691541671,208.85894542254837L999.5066891527175,213.5715801317794L1001.2167091512681,196.861019891322L1002.0717191505432,203.95733142987896L1003.7817391490936,190.43196537081954L1004.6367491483688,171.36829116907577L1005.4917591476441,204.23106893657555L1006.3467691469192,191.0047293687804L1007.2017791461944,208.20341310008922L1008.0567891454696,175.33493496676755L1008.9117991447449,191.7073307072738L1010.6218191432953,214.80772515449777L1011.4768291425705,185.51147772683836L1012.3318391418456,188.7918569529052L1013.1868491411209,194.60629616607315L1014.8968691396713,175.37557545482673L1015.7518791389466,181.54582285244226L1016.6068891382218,210.6650881399285L1017.461899137497,213.1535807130927L1018.3169091367722,239.11984771506826L1019.1719191360473,232.71954777906498L1020.8819391345977,249.6294360898469L1022.5919591331483,195.85398892468643L1023.4469691324234,162.83673114826908L1025.156989130974,202.16409214195707L1026.011999130249,189.92734971414936L1027.7220191287995,192.53652878619422L1028.5770291280746,218.10371435407507L1029.4320391273498,220.55697828735478L1030.287049126625,172.45873490814648L1031.9970691251756,181.0585586077581L1032.8520791244507,184.6973548363744L1033.7070891237258,221.2802587717669L1035.4171091222763,193.0834758217238L1036.2721191215514,190.1257195571044L1037.1271291208268,221.60229196303112L1037.982139120102,165.74042269591732L1039.6921591186524,225.46969182604045L1040.5471691179275,217.5078584211392L1042.257189116478,190.10414064122662L1043.9672091150285,195.42157759921596L1044.8222191143036,206.141683126595L1046.532239112854,204.16078903353994L1047.3872491121292,206.96298866529915L1048.2422591114043,143.81015674421022L1049.0972691106797,213.08248803584567L1050.80728910923,203.7437397031516L1052.5173091077804,202.67030590487477L1053.3723191070558,197.42605011614285L1054.227329106331,172.9339740163723L1055.082339105606,239.9389415359722L1055.9373491048812,193.73856129917996L1056.7923591041565,243.81444066802018L1057.6473691034316,177.42490093429493L1058.502379102707,166.39194165800336L1059.357389101982,192.68355332748584L1060.2123991012575,171.6222859461497L1061.9224190998077,182.16788243955307L1062.7774290990828,200.38758604717245L1063.6324390983582,175.6663001685473L1064.4874490976333,221.71027302698838L1067.052479095459,176.9363942712126L1067.9074890947343,173.35742116578734L1068.7624990940094,216.03525970889123L1069.6175090932845,168.7386908592489L1070.4725190925599,162.31766860427626L1072.1825390911101,177.84392172668908L1073.0375490903855,212.0826079961293L1073.8925590896606,188.08550659838951L1074.747569088936,196.24153441745582L1075.602579088211,168.19119777885302L1079.8776290845872,157.93119343213766L1080.7326390838623,177.66640106311633L1081.5876490831376,181.66100556808559L1082.4426590824128,203.2615314812573L1083.297669081688,235.47388158083515L1084.152679080963,166.5497933174813L1085.0076890802384,203.39513669710092L1085.8626990795135,205.57869521463869L1086.7177090787889,192.21050756820682L1087.572719078064,204.76385922196815L1088.427729077339,243.72712121968405L1089.2827390766145,194.47240721465812L1090.1377490758896,200.34209990172513L1090.9927590751647,161.89505799875755L1091.84776907444,187.3717120412736L1092.7027790737152,166.11299552736753L1093.5577890729903,244.93773352201399L1094.4127990722657,190.4723952829004L1095.2678090715408,154.3746040277702L1096.1228190708161,177.32838126103317L1096.9778290700913,202.9647272682015L1097.8328390693664,203.86217373337738L1098.6878490686415,165.69657096359046L1099.5428590679169,220.73572285691853L1101.2528790664674,261.802504929885L1102.9628990650178,195.1055739700935L1103.817909064293,168.08820128889218L1104.672919063568,197.83610496202758L1105.5279290628432,201.90174638217863L1106.3829390621186,178.25262019905904L1108.092959060669,203.45742596712392L1109.8029790592193,192.70879459508146L1110.6579890584946,228.99785724745337L1111.5129990577698,215.67249051514244L1112.368009057045,178.00094235222986L1114.0780290555954,184.38792535538929L1114.9330390548705,231.5755319093211L1115.7880490541459,202.95598585569172L1116.643059053421,261.0026095752665L1117.4980690526963,225.24764113129388L1120.0630990505217,207.7246381891699L1120.918109049797,241.88513881588437L1123.4831390476227,193.48894372617372L1124.338149046898,204.34049044986065L1125.1931590461732,204.03932788863392L1127.7581890439988,187.82982072611506L1128.6131990432739,179.27076087403148L1130.3232190418244,176.98547633093887L1131.1782290410995,183.55275193214604L1132.0332390403748,194.60374352066341L1132.88824903965,240.19926731309715L1133.743259038925,219.0306246802649L1134.5982690382004,257.1085100599466L1135.4532790374756,212.7577846779412L1136.3082890367507,252.52685947544998L1137.163299036026,206.92607265355284L1138.0183090353012,182.8744798645693L1139.7283290338517,247.60308355946745L1140.5833390331268,200.47367210068626L1141.438349032402,203.415048676363L1143.1483690309524,245.4911999717697L1144.0033790302277,164.8626061322996L1144.8583890295029,113.75600730075212L1145.7133990287782,134.6138196056343L1146.5684090280533,105.40777006327312L1147.4234190273285,95.44711917046442L1148.2784290266036,158.1385187028479L1149.133439025879,192.48142067497523L1150.8434590244294,203.84347709429053L1151.6984690237045,242.15543995662384L1153.408489022255,228.37477926225677L1154.2634990215302,191.56991352432584L1155.1185090208053,194.1544938874484L1155.9735190200806,224.1829824072913L1156.8285290193558,230.06016426358434L1157.6835390186309,207.17264419782305L1158.5385490179062,213.23621901392104L1159.3935590171814,271.38824463920025L1160.2485690164567,198.05070978156326L1161.1035790157318,202.53668763033966L1161.958589015007,258.89876218593946L1162.813599014282,226.17756358850954L1163.6686090135574,174.3236721002538L1164.5236190128326,229.2573386698886L1166.233639011383,230.906783418417L1167.0886490106584,210.27745837220255L1167.9436590099335,213.21646507322222L1168.7986690092087,236.15330606331045L1170.5086890077591,217.2865429394368L1171.3636990070343,196.06421097474467L1174.7837390041352,212.43436754046488L1176.4937590026855,214.6525888539444L1177.3487690019608,240.08397351843962L1179.058789000511,213.29636440653798L1179.9137989997864,222.71394980512153L1180.7688089990615,205.47162474252448L1181.623818998337,178.0787922723271L1182.478828997612,291.13249946705844L1184.1888489961623,181.08393171788455L1185.0438589954376,195.85967097957675L1185.8988689947128,229.33865183706914L1186.753878993988,190.73749198328147L1187.6088889932632,198.3391230175917L1188.4638989925386,187.19347077230864L1189.3189089918137,137.69051983180503L1190.1739189910888,226.89372939505955L1191.028928990364,238.70724367636782L1191.8839389896393,228.186459194442L1192.7389489889144,187.0965898410926L1193.5939589881898,209.865165568503L1194.448968987465,195.73972330602692L1195.30397898674,224.5438045571926L1196.1589889860154,226.94163735004125L1197.0139989852905,177.2631911708053L1197.8690089845657,178.48147864005648L1199.5790289831161,212.90352397540175L1200.4340389823913,276.79610506578535L1202.1440589809417,182.4033257650213L1202.999068980217,215.88970287915004L1203.8540789794922,238.78668962230094L1205.5640989780425,214.1668085631034L1206.4191089773178,183.1627293713963L1207.274118976593,212.48686940626143L1208.1291289758683,233.13725237026114L1208.9841389751434,202.54099528800026L1209.8391489744188,203.9123414409269L1211.549168972969,282.2212917972074L1213.2591889715195,259.84018617109086L1214.96920897007,209.1616502622756L1217.5342389678956,252.06266541463657L1218.3892489671707,231.10954960753403L1219.2442589664458,217.7734943300649L1220.0992689657212,143.56832190006165L1220.9542789649963,137.14209635636198L1221.8092889642714,166.25529714781572L1223.519308962822,198.74770891242738L1224.3743189620973,179.36241422650076L1225.2293289613724,171.39269474329652L1226.0843389606475,169.24907402293218L1226.9393489599227,158.85233782280423L1227.794358959198,140.37318512076948L1228.6493689584731,149.93215469134L1229.5043789577485,213.1431541982521L1230.3593889570236,217.90391453207522L1231.214398956299,194.72097288278428L1232.9244189548492,283.53769074211897L1233.7794289541243,257.0038922326866L1234.6344389533997,214.2747336989679L1236.3444589519502,225.19958057195666L1237.1994689512253,221.8197907221894L1238.0544789505004,168.5827396439757L1238.9094889497758,213.93277501687493L1239.764498949051,182.95386928409155L1240.619508948326,184.97203084941992L1241.4745189476014,155.86191055807618L1242.3295289468765,167.07776710112842L1243.1845389461516,129.02954676265009L1244.039548945427,237.28234831481112L1244.894558944702,192.87246428716546L1245.7495689439775,193.430775092033L1246.6045789432526,183.39888547262828L1247.4595889425277,206.29156919891452L1249.1696089410782,183.01511038346956L1250.0246189403533,193.13226558157328L1250.8796289396287,182.3363662447915L1251.7346389389038,192.71410270711345L1252.5896489381792,210.08055517069562L1253.4446589374543,219.3094646663589L1254.2996689367294,165.22562849761314L1255.1546789360045,187.93664181021157L1256.0096889352799,216.29000656066844L1257.7197089338304,199.37007397879808L1258.5747189331055,203.75667109443265L1260.284738931656,227.50148230459857L1262.8497689294816,145.05516274932103L1263.7047789287567,190.61307806238665L1264.5597889280318,199.07540557004478L1266.2698089265823,165.80719240913723" fill="none"></path></g><g><path style="fill: none;" stroke="rgb(255, 112, 67)" stroke-width="2px" d="M171.8570098543167,54.08857141222268L173.5670298528671,70.90027558633608L175.27704985141753,80.24411550421803L176.13205985069274,82.40160357393972L177.84207984924316,81.60411174107372L179.55209984779358,81.538940198732L180.40710984706877,83.8184784349146L181.262119846344,84.00885604163074L182.1171298456192,82.70261573302275L182.97213984489443,82.9061041959568L183.8271498441696,83.49167673342691L184.68215984344485,83.1627864836077L185.53716984272003,83.21591758781989L186.39217984199524,83.04867249914514L187.24718984127045,82.03756281497579L188.10219984054567,83.89549370995195L188.95720983982085,84.16935657959601L189.8122198390961,84.20238718261038L190.66722983837127,84.4039378508889L191.5222398376465,83.77007831529039L192.3772498369217,81.77667776167954L194.0872698354721,82.39743914759947L196.65229983329772,84.426793774288L197.50730983257293,85.12467362653132L198.36231983184814,85.88125074294271L199.21732983112335,85.43950250683906L200.07233983039853,88.59995186747443L201.78235982894896,86.86296604003047L204.34738982677462,79.6420619969013L205.2023998260498,84.61792613324849L206.91241982460022,89.64103683714546L207.76742982387543,92.25655308763493L208.62243982315064,93.22922292455007L209.47744982242585,87.52328482602087L210.33245982170104,94.6167613068688L211.18746982097628,85.84649853228359L212.8974898195267,95.17788494288595L213.75249981880188,89.98635197673946L216.31752981662748,93.5861957783261L217.17253981590272,104.0037115483508L218.0275498151779,100.0847601733418L218.88255981445312,106.03383415101126L219.73756981372833,93.5774757128475L222.30259981155396,102.63815549721772L223.15760981082914,87.43138472770107L224.01261981010438,76.31887979424482L224.86762980937957,81.43940018824725L225.7226398086548,86.672171879774L226.57764980793,85.64456973615955L227.43265980720523,93.1295498285649L228.2876698064804,82.85497912747917L229.14267980575562,84.66883916856222L229.99768980503083,92.07727686843566L231.70770980358122,81.81335441987414L232.56271980285646,89.11168615709909L233.41772980213165,94.94843096480804L234.27273980140689,75.7687993100767L235.98275979995725,81.14098302444557L236.8377697992325,77.23795434399653L237.69277979850767,88.58504176019426L238.5477897977829,87.54510165951649L240.2578097963333,92.73791330785593L241.11281979560852,81.85190807013788L242.8228397941589,83.09842329645994L243.67784979343415,82.05345383754792L244.53285979270933,77.85033548600217L245.38786979198457,83.7130269051247L246.24287979125975,85.26712091145635L247.097889790535,86.11368367401582L248.80790978908541,79.82600080790468L249.6629197883606,88.35163765981014L250.5179297876358,88.10735135307561L251.37293978691102,83.20222023895963L253.0829597854614,114.20207218831627L253.93796978473665,94.04413984025626L255.64798978328707,87.40391740271156L256.50299978256226,89.31562145871703L257.35800978183744,86.94987687426874L258.2130197811127,97.4083769298868L259.06802978038786,106.70254010975191L259.9230397796631,89.98044385521945L260.7780497789383,100.28223286580044L261.6330597782135,103.45496384606633L264.1980897760391,99.0569689841198L265.05309977531437,93.47602519198966L267.61812977313997,101.16952102230789L269.32814977169033,93.09393490837653L270.1831597709656,77.64176852549389L271.03816977024076,86.30607322010837L271.893179769516,78.64438109785601L272.7481897687912,84.52761221448264L273.6031997680664,75.52043188103136L274.4582097673416,73.9125172506225L276.168229765892,71.14903419362491L277.02323976516726,75.22676729386882L277.87824976444244,79.29688725633889L278.7332597637176,80.65945502041791L279.58826976299287,76.68775436621445L281.2982897615433,74.35318238864204L282.15329976081847,71.7843174303382L284.71832975864413,74.79018929427059L285.5733397579193,84.3633609399622L287.28335975646974,101.35501443483662L288.1383697557449,80.52012745502759L289.84838975429534,70.95998574147313L291.55840975284576,97.37767173625895L292.41341975212094,88.12969589930805L293.2684297513962,103.05593897788316L294.12343975067137,111.19372390764812L294.9784497499466,97.153247906084L295.8334597492218,106.06182381769321L297.5434797477722,108.01683571010568L298.39848974704745,120.42076659528823L299.25349974632263,116.58519003287012L300.1085097455978,106.30736322418943L301.81852974414824,95.08656005463769L302.6735397434235,96.14629610817451L303.52854974269866,108.38701894445472L305.2385697412491,100.01088968239077L306.0935797405243,106.32489148000121L306.9485897397995,117.74239480549687L308.6586097383499,123.01960999388857L309.5136197376251,114.40372416383565L311.2236397361755,91.67967499983911L312.0786497354507,91.70385094386671L313.78866973400113,82.91181283865836L314.6436797332764,78.80333767346309L315.49868973255155,90.68269776759024L317.208709731102,86.03086660483518L318.0637197303772,94.60442166853869L318.9187297296524,91.38840429226326L320.6287497282028,102.37826763574924L321.483759727478,96.47620896376492L322.33876972675324,105.98488843448808L323.1937797260284,104.50098455794608L324.90379972457885,95.34941810601237L325.7588097238541,106.40523822728557L326.61381972312927,104.1448136247642L327.4688297224045,102.16657352874086L328.3238397216797,99.29933819529668L329.17884972095493,105.36383157930334L330.0338597202301,96.79938280722541L330.8888697195053,108.32063775561159L331.74387971878053,110.52777178369416L333.4538997173309,89.22632011643441L334.30890971660614,75.11940719503656L336.87393971443174,84.41190958677299L340.2939797115326,81.24874912389652L341.1489897108078,87.75916791521115L342.8590097093582,97.05489499770528L343.7140197086334,78.33373327436937L344.56902970790867,80.36997787886003L346.27904970645903,89.7835870744637L347.1340597057342,81.4419649435116L347.9890697050095,88.42843811832358L348.8440797042847,84.76584160038385L349.6990897035599,98.67169789401913L352.2641197013855,80.13561091479573L353.1191297006607,77.35654639119878L353.9741396999359,81.20953014463299L354.82914969921114,85.26632646611318L357.3941796970367,81.55437352224334L358.249189696312,92.19908672608022L359.10419969558717,76.17704574982554L359.95920969486235,88.678603251114L360.81421969413753,89.09325226102169L361.66922969341283,81.25178014736235L363.3792496919632,73.88493813213819L364.2342596912384,78.70071161413125L365.08926969051356,88.06938890132523L366.79928968906404,89.9714066586589L367.6542996883392,81.1490969890973L368.5093096876144,80.280006887794L369.3643196868897,83.73615706522787L370.2193296861649,82.8250803676575L371.07433968544007,80.98156293305607L371.92934968471525,79.18616554422005L373.63936968326567,69.90983282916966L374.4943796825409,74.24518102630589L376.20439968109133,82.52768409290923L377.0594096803665,75.99524827276008L377.9144196796417,77.46129594356165L379.6244396781922,82.061163021433L380.47944967746736,72.63949321191598L381.33445967674254,75.7611679651975L382.1894696760177,75.30879174251459L383.044479675293,79.04525826216258L383.8994896745682,74.96592143134433L384.7544996738434,86.30203135577005L385.60950967311857,95.59141519924924L386.46451967239375,79.01326634922731L387.31952967166905,78.39623179542878L388.1745396709442,75.45663934298364L389.0295496702194,80.76386509343592L391.59457966804507,73.69989740986364L392.44958966732025,82.4178761399877L393.30459966659544,79.85582642240763L394.1596096658707,84.83374404734593L395.8696296644211,84.24450694870245L397.5796496629715,91.42248360425549L399.2896696615219,82.6662585802597L400.99968966007236,88.32937239809382L402.7097096586227,97.31084915191406L403.5647196578979,82.40796951100322L404.4197296571732,82.67705407973261L405.2747396564484,87.68544142577582L406.1297496557236,76.94897407874078L407.83976965427394,83.54740724366798L408.69477965354923,80.52202721687195L409.5497896528244,90.89912872517112L410.4047996520996,87.6726585927961L411.2598096513748,87.80061842759403L412.1148196506501,80.91656485131483L412.96982964992526,82.5560101830917L413.82483964920044,75.06068560237264L418.09988964557647,83.32868025925836L419.8099096441269,91.89960174922976L420.6649196434021,86.73476138619799L422.37493964195255,94.88628766435136L423.22994964122773,75.53443342131442L424.0849596405029,74.5296882007641L424.9399696397781,84.60450323210165L425.7949796390534,94.22489143474627L426.6499896383286,90.19823838736352L427.50499963760376,95.27630161513235L428.36000963687894,93.52639176061649L429.2150196361541,88.26794687302925L430.0700296354294,98.94472517861965L430.9250396347046,92.98246434930502L433.49006963253026,90.56315071443464L434.34507963180545,84.64295432890032L436.0550996303558,82.986352082873L438.6201296281815,82.50141992370186L439.47513962745666,80.29091372766084L441.1851596260071,78.09138938278375L442.04016962528226,81.67012075920906L442.89517962455744,72.64758336860518L443.75018962383274,75.23469431471551L444.6051996231079,86.44201213782429L445.4602096223831,78.59554324691919L446.3152196216583,79.92486096697098L447.1702296209336,90.3451880372657L448.02523962020877,80.61173445197022L448.88024961948395,88.57271806373888L449.73525961875913,96.1090518454277L450.5902696180343,96.69220692628045L451.4452796173096,83.74380798668494L453.15529961586,88.42198613866492L454.01030961513516,86.82866799127424L455.72032961368564,76.85195486609541L457.430349612236,74.26502501031018L459.1403696107864,80.68687985918916L460.85038960933684,82.01761344333067L461.7053996086121,78.13013660245167L462.56040960788727,85.81393820317072L463.41541960716245,81.35730162115311L464.27042960643763,88.09693386543944L465.1254396057129,85.39834660743122L465.9804496049881,100.98265005333838L466.8354596042633,101.26712577240738L467.6904696035385,91.90490169009263L468.54547960281377,105.57768065673793L469.40048960208895,103.14618029532892L470.25549960136414,87.60030348637173L471.1105096006393,118.41033055272601L471.9655195999145,105.71314540020057L472.8205295991898,98.47022868302088L473.675539598465,82.96000475094456L475.38555959701534,92.26441553444607L476.24056959629064,94.68328651801454L477.0955795955658,89.21585628771851L477.950589594841,85.10474921589628L478.8055995941162,117.21622351680736L479.6606095933914,85.71665428604473L480.5156195926666,84.87699656592014L481.37062959194185,95.44322016640984L482.22563959121703,89.65001427410743L483.08064959049227,85.9064539397744L483.93565958976745,94.62239799458473L484.79066958904264,85.0684188607903L485.6456795883178,82.73206246849429L487.3556995868683,78.29794629004886L488.2107095861435,70.99636252012408L489.92072958469396,80.61588830744938L490.77573958396914,94.32645770225719L491.6307495832443,85.22371008332618L492.4857595825195,91.73890767355056L493.3407695817947,90.01014745175206L494.19577958107,92.94597908668459L495.05078958034517,93.14576628136808L496.76080957889553,84.58850120916492L497.61581957817083,77.81294343903045L499.3258395767212,89.78859173597925L500.1808495759964,97.15113036720965L501.0358595752716,97.59053032209528L501.8908695745468,93.83048169298115L502.74587957382204,83.26901516830742L504.45589957237246,88.03078144439218L505.31090957164764,97.33181865998353L506.1659195709228,103.71080652129115L507.020929570198,84.66911263346753L509.58595956802367,99.47057765736383L511.29597956657415,105.29963496380304L512.1509895658493,95.83089226143261L513.8610095643998,100.09873288300003L514.7160195636749,95.76880646083225L515.5710295629501,110.29455205902946L517.2810495615005,92.06418520501768L518.1360595607757,105.21223330080483L519.8460795593262,99.6608672609043L521.5560995578766,107.28303922485094L522.4111095571518,111.50921595139243L524.9761395549774,114.64159954981642L525.8311495542526,120.14988963176745L526.6861595535279,118.92178644745718L529.2511895513535,111.29696470690192L530.1061995506287,106.80877877746258L530.9612095499039,104.64897417074144L531.8162195491791,122.65589991843453L532.6712295484543,129.41719688792094L533.5262395477295,115.78989427001244L535.2362595462799,111.74506805812405L536.9462795448303,120.24694625987394L538.6562995433807,119.85519226608653L540.3663195419311,116.1030926171282L542.9313495397568,114.13165595914074L543.786359539032,130.34630246653728L545.4963795375824,131.70919125535417L546.3513895368576,121.18538850011697L547.2063995361328,113.59269822730613L548.0614095354081,116.2181353939377L548.9164195346832,113.56656645092573L550.6264395332337,125.08101762400801L551.4814495325089,117.79857364915432L552.336459531784,120.94440156625257L553.1914695310593,114.87827224907727L554.0464795303345,109.50974255418907L554.9014895296096,104.53530924659384L555.7564995288849,124.11370571055073L556.6115095281601,117.95263706233402L557.4665195274353,120.44880124810163L558.3215295267105,120.33955014659534L559.1765395259857,133.55569522206153L560.0315495252609,133.63593794002762L561.7415695238113,133.8364718877761L562.5965795230866,144.83878510886268L563.4515895223617,141.3819940204874L564.3065995216369,144.67952108841314L565.1616095209122,158.8781209938318L566.0166195201874,138.21038791271837L566.8716295194625,145.1918470462298L567.7266395187378,126.56643353944793L568.581649518013,152.41781421369353L569.4366595172883,149.88031654057798L570.2916695165634,139.05543294169968L571.1466795158386,145.39598128158258L572.0016895151139,147.5604031046775L572.8566995143891,154.17920267271026L573.7117095136642,163.26629715574282L574.5667195129395,158.77171047957978L575.4217295122147,153.88806247344334L576.2767395114898,168.81381154270107L578.8417695093154,153.4358659251148L579.6967795085907,173.89196750371656L583.1168195056915,181.65708625914928L584.8268395042419,172.0292224345985L585.6818495035171,168.74576978815878L586.5368595027924,185.0266231291894L587.3918695020676,173.8305927687393L588.2468795013427,145.82727146533512L589.101889500618,187.14069507204704L590.8119094991685,186.14740186565336L591.6669194984436,148.72222426834713L592.5219294977188,122.75131254073025L595.0869594955444,143.62995650859648L595.9419694948197,116.1919654318923L597.65198949337,102.26706514304044L601.0720294904709,145.37690507552855L601.9270394897461,139.87128831471696L602.7820494890212,141.35669731896036L603.6370594882965,147.79458456848909L604.4920694875717,152.206651738047L605.347079486847,145.33986243493857L606.2020894861221,136.7816616491287L607.0570994853973,159.5323898788125L607.9121094846726,136.70555012379182L608.7671194839478,140.26285775617072L610.4771394824982,134.40058915767213L611.3321494817734,145.3109292986355L612.1871594810486,156.05235416824632L613.0421694803238,113.17376805198495L613.897179479599,137.89512188395312L614.7521894788742,133.42887141286784L615.6071994781495,124.39113949263816L618.1722294759751,111.00534963442368L619.0272394752502,122.31382778368686L619.8822494745255,108.46331344400335L625.0123094701767,120.2381693905104L626.7223294687271,126.14088888810247L627.5773394680023,135.7989698453804L628.4323494672775,136.46727332145124L629.2873594665527,159.14890041848057L630.142369465828,124.37584469556296L630.9973794651031,163.6447405083234L631.8523894643783,115.91925720657639L632.7073994636536,138.6149875086882L633.5624094629288,112.57649317225543L634.417419462204,146.4797004185394L635.2724294614792,126.78800302323378L636.1274394607544,110.54244480164073L636.9824494600297,114.77634522478644L637.8374594593048,118.12126248764434L638.69246945858,136.71099192966952L639.5474794578553,128.56158740525376L640.4024894571304,148.46804961148317L642.1125094556809,146.0047723367085L642.967519454956,168.94473933156144L643.8225294542312,173.02767730974L645.5325494527816,155.62044222498227L647.2425694513321,155.08230015870183L648.9525894498825,144.98064492283643L649.8075994491577,160.6624918977577L650.6626094484329,142.06938730920993L652.3726294469833,150.2927785381522L653.2276394462585,161.3230563767114L654.0826494455338,163.22899898498645L654.937659444809,147.17236624998964L655.7926694440841,143.86447191125689L656.6476794433594,143.91682995883858L657.5026894426346,152.77901114425265L658.3576994419099,178.06170195670782L659.212709441185,155.82326494026L660.0677194404602,163.8393299162227L660.9227294397355,173.80173922075105L661.7777394390106,161.06091275157002L663.4877594375611,182.78360914230393L664.3427694368362,155.20241784287535L665.1977794361114,144.97096970961854L666.0527894353867,134.8207692193597L666.9077994346618,149.69050493235926L667.762809433937,138.08523215486673L668.6178194332123,125.78556465402357L669.4728294324875,135.0605589051841L670.3278394317626,139.40955892051682L671.1828494310379,128.59982179686872L672.0378594303131,152.68083343880693L672.8928694295884,162.31754284012206L673.7478794288635,146.21987801307824L674.6028894281387,144.92519806078028L676.3129094266892,146.18929972605943L677.1679194259643,154.82625954863443L678.0229294252396,122.79008336166396L679.73294942379,148.41735898267513L680.5879594230652,114.88936152261624L681.4429694223404,136.62781206202925L682.2979794216157,150.76241076196703L684.007999420166,147.61696200690517L684.8630094194413,165.49280437256374L685.7180194187164,185.2947791100008L686.5730294179916,143.81621096153614L687.4280394172667,185.79460507792822L688.2830494165421,161.45720809403338L689.1380594158173,150.0265188100257L690.8480794143677,126.21314509765742L692.5580994129181,139.3896712197341L693.4131094121932,143.69519179838915L694.2681194114684,142.7037366722904L696.8331494092942,163.79089635741042L700.2531894063949,133.15768072295836L701.1081994056701,171.58911892140193L701.9632094049455,136.8057732979243L702.8182194042206,147.6374839990365L703.6732294034958,163.081298132554L704.528239402771,121.88635223924376L705.3832494020462,119.46078763506392L706.2382594013214,161.04317147813634L708.8032893991469,180.68439716715537L709.6582993984223,168.76610762442186L710.5133093976975,178.9455588739149L711.3683193969727,177.49298057785617L713.078339395523,153.45012996941634L713.9333493947983,166.3797912979083L714.7883593940734,140.40682796493326L716.498379392624,180.86323401679388L717.3533893918992,180.69339725444166L718.2083993911743,174.90868137887603L719.0634093904496,186.07597148248945L719.9184193897247,163.22208629972036L720.773429389,201.09603761358335L721.6284393882751,184.2180280013855L722.4834493875503,170.78903777275397L723.3384593868257,152.1877487950927L724.1934693861008,154.36409732172123L725.048479385376,172.11427686881225L725.9034893846512,169.79265828344L726.7584993839264,144.29736166146137L727.6135093832016,156.71832795302387L728.4685193824768,144.09592498900366L729.323529381752,186.9810190620244L731.8885593795777,169.43053274698687L732.7435693788528,148.44245280538058L734.4535893774032,173.5962433209069L735.3085993766784,151.86460057244372L736.1636093759536,145.77803445247756L737.0186193752288,129.83701002608672L737.8736293745042,131.34753121153008L738.7286393737794,121.07597966974714L739.5836493730545,118.80546804038863L740.4386593723298,107.14718181771025L741.2936693716049,106.22088053455491L742.1486793708801,138.43270529153062L743.0036893701553,115.52599860889137L744.7137093687058,108.68727348767317L745.568719367981,105.38249676956752L746.4237293672562,100.14076735793054L747.2787393665313,145.09649483621973L748.1337493658066,107.52150758418918L749.843769364357,122.52314106431498L750.6987793636322,125.99495683666689L751.5537893629073,121.5994536137024L752.4087993621827,111.6015781775767L753.2638093614579,133.25395599337367L754.118819360733,123.18427740332848L754.9738293600083,107.59744949638622L755.8288393592834,87.9511016710141L756.6838493585586,111.64604841588186L757.5388593578338,101.80507119110916L758.393869357109,105.47254866206305L759.2488793563844,101.02351120435799L760.1038893556596,101.52492445830967L762.6689193534851,101.3315703828261L764.3789393520354,102.01905168019641L766.088959350586,106.47092322621938L768.6539893484115,153.58450222876758L769.5089993476868,120.91478576006449L770.364009346962,126.55190348549294L771.2190193462371,154.30087462390054L772.0740293455124,133.80252591920228L772.9290393447875,130.9202953112018L773.7840493440629,191.05870990573067L774.6390593433381,185.94349215497525L775.4940693426132,193.44243153367347L776.3490793418885,196.47269524108586L777.2040893411636,183.82418743417657L778.0590993404388,156.7513300673296L778.914109339714,143.8067464410758L781.4791393375398,180.63246542740373L782.3341493368149,149.6528567282746L783.1891593360901,165.31105593341553L784.8991793346405,162.78072915764488L785.7541893339156,187.3472642195355L787.4642093324662,135.4023909959805L788.3192193317414,174.06542266690468L789.1742293310166,147.60452469532132L790.0292393302917,169.27128648266205L790.884249329567,154.7961619413364L791.7392593288422,169.90062112088233L794.3042893266677,202.0877665990938L795.159299325943,198.55182868782103L796.0143093252183,165.52306108426072L796.8693193244934,164.19901159238898L798.5793393230438,212.92200791855475L799.434349322319,164.51111556262026L800.2893593215941,159.28765003315354L801.9993793201447,169.48831906855014L802.85438931942,189.08423490182142L803.7093993186951,181.78963117652538L804.5644093179703,201.31907023442105L805.4194193172455,190.7209990089039L806.2744293165207,173.13106520393896L807.1294393157958,153.83136408309693L807.9844493150711,183.24420771150255L808.8394593143464,150.52050936840683L809.6944693136215,220.0609740791092L811.4044893121719,165.8075172666202L812.2594993114471,174.02173423511533L813.1145093107224,134.92531903261283L813.9695193099975,131.37435207465182L814.8245293092727,181.5685256337039L815.6795393085479,168.30340499320312L816.5345493078232,163.2331848651954L817.3895593070985,178.69176764173548L819.954589304924,153.72867493619808L820.8095993041992,191.84637604449023L822.5196193027496,127.39453220784122L823.3746293020249,147.8531896920568L824.2296393013002,144.76375125177543L825.0846493005753,122.94413344281233L825.9396592998505,136.2802663004867L826.7946692991256,167.21023536260753L828.504689297676,181.71713530263176L829.3596992969512,188.28781841095528L830.2147092962266,166.74061189380436L831.0697192955017,203.59965374407102L831.924729294777,195.83569648380578L832.7797392940521,215.58908474877754L833.6347492933273,180.73870797225763L834.4897592926026,206.52136002521183L836.1997792911529,151.8643725043662L837.0547892904281,170.02660325779345L837.9097992897034,171.3541239111842L839.6198192882538,164.4715834351934L840.474829287529,185.65570569566918L841.3298392868041,151.01722053073848L842.1848492860794,195.0706150790693L843.0398592853545,168.5499701480843L843.8948692846297,148.1454323387804L845.6048892831803,176.94328098766204L846.4598992824555,164.4936580132392L847.3149092817307,209.19354337787084L848.1699192810058,160.87503992094588L849.0249292802811,176.69750928655517L849.8799392795562,130.3763695498334L850.7349492788314,146.96554556477665L851.5899592781068,168.88885137249594L852.4449692773819,155.112302217691L853.2999792766572,116.85287025924197L854.1549892759323,146.91488274274695L855.0099992752075,125.48734081233064L856.7200192737579,105.04051259388888L858.4300392723082,97.33393978576817L859.2850492715836,93.35261866028026L860.1400592708588,86.96822376150601L860.995069270134,79.20221509702037L861.8500792694092,132.52698188766504L862.7050892686843,133.46980146802244L864.4151092672347,124.26237022317295L865.2701192665099,122.35058043798875L866.1251292657853,110.1139261300982L866.9801392650605,111.0189994888226L867.8351492643357,131.26334806824195L868.6901592636109,108.6571795732122L870.4001792621613,108.6278166988667L872.1101992607116,90.62228102034254L872.965209259987,125.87948106165243L874.6752292585373,122.75374344386444L875.5302392578125,119.94369367668588L876.3852492570877,120.1521772878545L878.9502792549133,104.65139232954306L879.8052892541884,116.47990191883275L880.6602992534638,96.33779659079232L881.515309252739,115.96153047384246L882.3703192520142,123.08917396242236L884.0803392505645,103.66970268083531L884.9353492498398,127.70573236288485L885.7903592491149,113.7790325965102L886.6453692483901,105.87816886759964L887.5003792476655,118.85597291823126L888.3553892469407,130.1948838106819L889.2103992462158,126.61962230538666L890.9204192447662,134.18618930030462L891.7754292440414,135.9420013930602L893.4854492425918,133.22110444783132L894.3404592418672,140.52948109711122L895.1954692411423,122.55927256826743L896.0504792404175,133.8102771681732L897.7604992389679,151.35511619975495L898.6155092382431,161.25265056724862L899.4705192375183,153.18469145929808L900.3255292367935,185.88368500580495L902.035549235344,138.37610893445685L903.7455692338943,99.34778748964374L905.4555892324447,142.15621569222662L906.31059923172,165.70254230887593L907.1656092309951,158.7402975152793L908.0206192302703,178.0540504632392L908.8756292295457,143.3820777367659L912.2956692266464,173.98002758876203L913.1506792259216,169.03731480367188L914.0056892251968,177.48145579767962L914.860699224472,179.22654765452128L915.7157092237474,175.23847576539038L917.4257292222977,173.27732845568678L918.2807392215728,116.87579271587731L919.1357492208481,108.66417917043628L919.9907592201233,73.15681183068489L920.8457692193984,69.1268470631876L921.7007792186737,67.21790504159014L922.5557892179488,136.81859875469434L923.4107992172242,144.2351814020288L924.2658092164994,192.5349431440787L925.1208192157745,195.10967747568793L926.8308392143249,120.39520201190845L927.6858492136001,132.77621101766582L928.5408592128753,151.00783093495218L929.3958692121505,142.60279015070805L930.2508792114259,121.37698488973263L931.1058892107011,118.80249790913422L931.9608992099762,115.94617495256745L932.8159092092515,109.25000274296036L933.6709192085266,150.16332535363404L934.5259292078018,173.8482098727101L935.380939207077,138.05148628110737L936.2359492063522,139.96379270498187L937.0909592056275,159.42942614172665L937.9459692049027,122.05842231345872L938.8009792041779,118.0460126732898L939.655989203453,141.64767397451706L940.5109992027283,139.3142381818861L942.2210192012786,127.4957747374572L943.931039199829,153.87394315301927L944.7860491991044,152.4733939207937L945.6410591983796,180.18613392180237L946.4960691976547,155.70806212659025L947.35107919693,171.21217873625295L948.2060891962051,179.89089783982283L949.0610991954803,190.67276552868935L949.9161091947554,160.65456710575768L950.7711191940307,223.64318780991442L951.626129193306,180.0932510665041L953.3361491918564,192.75038883972908L954.1911591911316,178.59263157821357L955.0461691904068,172.03242495825788L955.901179189682,226.9263758723844L957.6111991882324,192.57388164172L958.4662091875077,221.57616270978127L959.3212191867829,205.97388033759586L960.1762291860581,235.69283278788606L961.0312391853332,228.77104889363437L961.8862491846085,250.52830789567278L963.5962691831588,220.31951372190784L964.4512791824341,219.59322832371905L966.1612991809845,195.99281229125148L967.0163091802598,185.50835214307983L967.8713191795349,172.93557152942486L968.7263291788101,175.00827761397275L969.5813391780853,140.69191151387807L970.4363491773605,154.56629935167933L972.1463691759109,163.69434990017518L973.8563891744615,149.15635132722448L976.421419172287,158.0622049380193L977.2764291715622,163.00760337542482L978.1314391708373,173.89795973635438L978.9864491701126,182.74895766988493L980.696469168663,187.6164189710011L981.5514791679383,154.25273145476416L982.4064891672134,190.18803326806304L984.1165091657639,164.8353044102386L984.971519165039,172.36874205333427L985.8265291643143,172.24290006520698L986.6815391635894,183.66712623591147L988.39155916214,228.84911933684185L989.2465691614151,224.19196285598L990.1015791606903,207.1435977626208L990.9565891599655,186.86695818163938L991.8115991592407,217.19771396627735L992.6666091585158,200.85001177196517L993.5216191577911,190.4836103392788L994.3766291570664,159.95923292987018L995.2316391563417,195.75279570475877L996.941659154892,140.5904372947823L997.7966691541671,214.29115442424208L999.5066891527175,207.09537994758136L1001.2167091512681,198.33084034973942L1002.0717191505432,236.85262750712815L1003.7817391490936,221.46060241473307L1004.6367491483688,191.8985025506396L1005.4917591476441,217.70142436205478L1006.3467691469192,211.29511242982255L1007.2017791461944,233.28059969368934L1008.0567891454696,175.90770694938578L1008.9117991447449,210.7686381180229L1010.6218191432953,157.5448031835238L1011.4768291425705,197.28164363197538L1012.3318391418456,233.10734899398827L1013.1868491411209,221.3156037673843L1014.8968691396713,200.95633663840968L1015.7518791389466,193.80061363064002L1016.6068891382218,242.1847332587909L1017.461899137497,238.63325452816954L1018.3169091367722,273.33946939905866L1019.1719191360473,181.42587571174758L1020.8819391345977,204.83196218517242L1022.5919591331483,237.7573917440722L1023.4469691324234,247.77410768129172L1025.156989130974,192.65121645076027L1026.011999130249,207.7169413392214L1027.7220191287995,270.6476884234209L1028.5770291280746,173.82950711786586L1029.4320391273498,185.15092076527L1030.287049126625,147.566509475375L1031.9970691251756,210.19707800345253L1032.8520791244507,161.89853422509225L1033.7070891237258,213.93960754678855L1035.4171091222763,184.79095646842018L1036.2721191215514,176.16465799254934L1037.1271291208268,161.48911887245805L1037.982139120102,149.0562826367878L1039.6921591186524,181.1879607779782L1040.5471691179275,146.8328006708192L1042.257189116478,151.31265054103574L1043.9672091150285,147.07078652457747L1044.8222191143036,160.5237692264276L1046.532239112854,139.3189527698482L1047.3872491121292,161.75028448063983L1048.2422591114043,166.26942355412578L1049.0972691106797,181.8734286204278L1050.80728910923,195.06070217135408L1052.5173091077804,145.14159047518987L1053.3723191070558,122.61826164262487L1054.227329106331,125.17316149849557L1055.082339105606,89.0380646251694L1055.9373491048812,94.97596886700643L1056.7923591041565,120.98798673350467L1057.6473691034316,157.7257457406605L1058.502379102707,186.5884353793455L1059.357389101982,188.65073559012762L1060.2123991012575,200.9236516810647L1061.9224190998077,167.69000099050822L1062.7774290990828,211.01909673374965L1063.6324390983582,203.6107624240342L1064.4874490976333,186.65890631343L1067.052479095459,235.16470581549208L1067.9074890947343,189.3578507041919L1068.7624990940094,208.17833626878817L1069.6175090932845,192.22906300467326L1070.4725190925599,163.64384915114L1072.1825390911101,222.93639017865235L1073.0375490903855,229.83564680531555L1073.8925590896606,198.5331564272437L1074.747569088936,222.88725160654556L1075.602579088211,179.6089707102493L1079.8776290845872,180.00913180673638L1080.7326390838623,165.86009223060657L1081.5876490831376,203.42683129462307L1082.4426590824128,177.92842580033184L1083.297669081688,197.04646303225027L1084.152679080963,225.93965802708928L1085.0076890802384,213.46136808052026L1085.8626990795135,181.04019778393885L1086.7177090787889,175.31614752313158L1087.572719078064,189.14901572322177L1088.427729077339,177.64342416460465L1089.2827390766145,198.00172837625396L1090.1377490758896,152.08925600398314L1090.9927590751647,182.1244214562517L1091.84776907444,163.9910541189954L1092.7027790737152,177.0773539537345L1093.5577890729903,167.13251738724077L1094.4127990722657,175.95292438102905L1095.2678090715408,232.3107386683492L1096.1228190708161,196.58575478381036L1096.9778290700913,189.52769605113713L1097.8328390693664,174.88936749443982L1098.6878490686415,218.85711257677997L1099.5428590679169,185.78124753867738L1101.2528790664674,234.3201249921582L1102.9628990650178,177.27762217177408L1103.817909064293,225.61754649914562L1104.672919063568,239.87280520937327L1105.5279290628432,175.67877089076404L1106.3829390621186,212.65208673946356L1108.092959060669,172.24020877063768L1109.8029790592193,180.6214177913191L1110.6579890584946,207.30764391540424L1111.5129990577698,189.3995371029655L1112.368009057045,227.33168849229486L1114.0780290555954,234.8587178373429L1114.9330390548705,124.56257342713295L1115.7880490541459,109.35670222625214L1116.643059053421,84.74951129893668L1117.4980690526963,88.91541154341712L1120.0630990505217,202.0437398967838L1120.918109049797,246.64753858972801L1123.4831390476227,200.23225872949828L1124.338149046898,209.53031861798806L1125.1931590461732,171.93573731420554L1127.7581890439988,212.1272164596732L1128.6131990432739,182.304058598561L1130.3232190418244,212.72107844574907L1131.1782290410995,240.10638381699528L1132.0332390403748,240.59497528688215L1132.88824903965,245.89680651402816L1133.743259038925,214.25708807141305L1134.5982690382004,218.54670286082964L1135.4532790374756,208.729643551863L1136.3082890367507,180.18684014100072L1137.163299036026,247.86893597458155L1138.0183090353012,254.68782167560653L1139.7283290338517,183.6113822418175L1140.5833390331268,242.79140018647945L1141.438349032402,221.10109170770443L1143.1483690309524,237.4963967452517L1144.0033790302277,213.89810921516607L1144.8583890295029,209.14985124877276L1145.7133990287782,265.29700657615876L1146.5684090280533,211.56999831935553L1147.4234190273285,200.86850721729766L1148.2784290266036,264.0944008489852L1149.133439025879,208.54027393927737L1150.8434590244294,240.10032475485175L1151.6984690237045,230.23483217458008L1153.408489022255,212.87731862326004L1154.2634990215302,253.16140815745956L1155.1185090208053,259.9827777979624L1155.9735190200806,212.82119315617982L1156.8285290193558,253.78819674322952L1157.6835390186309,204.2754016462177L1158.5385490179062,233.4577438803197L1159.3935590171814,186.96747265783918L1160.2485690164567,204.44727168254482L1161.1035790157318,241.1337581590582L1161.958589015007,194.4886826142781L1162.813599014282,233.740522902301L1163.6686090135574,236.02279363766695L1164.5236190128326,252.10844002189094L1166.233639011383,228.13111696950173L1167.0886490106584,213.49279485236542L1167.9436590099335,214.8868698209553L1168.7986690092087,230.97387081215788L1170.5086890077591,231.34072606053294L1171.3636990070343,215.03369215952296L1174.7837390041352,227.3572993582483L1176.4937590026855,263.37099017338426L1177.3487690019608,233.48823546952804L1179.058789000511,154.2315390133952L1179.9137989997864,177.63413317379442L1180.7688089990615,159.9471164962481L1181.623818998337,198.72895814476863L1182.478828997612,268.3419595332656L1184.1888489961623,201.59179524710143L1185.0438589954376,223.53401594445822L1185.8988689947128,181.23351946226958L1186.753878993988,243.8844151842389L1187.6088889932632,241.1450734444467L1188.4638989925386,195.97389274589256L1189.3189089918137,218.26203978045552L1190.1739189910888,215.71644721820277L1191.028928990364,243.6004832699074L1191.8839389896393,197.77841217100058L1192.7389489889144,230.4991276230373L1193.5939589881898,209.54675956230972L1194.448968987465,201.9503174524965L1195.30397898674,193.43498304691758L1196.1589889860154,198.7659321532921L1197.0139989852905,228.19036336086464L1197.8690089845657,263.26588259197086L1199.5790289831161,180.19401410603282L1200.4340389823913,231.10188427797428L1202.1440589809417,235.7607451433718L1202.999068980217,189.1083968250871L1203.8540789794922,219.16023458245758L1205.5640989780425,241.20825056183344L1206.4191089773178,209.2265681559062L1207.274118976593,224.77003800149842L1208.1291289758683,203.91410539709557L1208.9841389751434,214.79564519832968L1209.8391489744188,201.68663188644234L1211.549168972969,227.48764571975596L1213.2591889715195,206.92693213093315L1214.96920897007,187.98201517757744L1217.5342389678956,211.5118142910572L1218.3892489671707,166.2650190467681L1219.2442589664458,207.67202204835135L1220.0992689657212,241.29774963960546L1220.9542789649963,230.90839732600918L1221.8092889642714,229.42067540441516L1223.519308962822,214.26133298495958L1224.3743189620973,187.73646979302953L1225.2293289613724,182.55314083881223L1226.0843389606475,257.1731647144946L1226.9393489599227,188.1266990452667L1227.794358959198,231.05847775610226L1228.6493689584731,226.70535799037754L1229.5043789577485,233.9691074181653L1230.3593889570236,254.21095978054342L1231.214398956299,200.25360788634418L1232.9244189548492,215.14120844444594L1233.7794289541243,254.34659531132388L1234.6344389533997,324.5314284733364L1236.3444589519502,193.25305634539745L1237.1994689512253,215.4240195675573L1238.0544789505004,225.79922006296135L1238.9094889497758,228.41050948648993L1239.764498949051,194.03242559270524L1240.619508948326,250.36529731771455L1241.4745189476014,200.34712801932307L1242.3295289468765,237.09602490999677L1243.1845389461516,256.21182635095613L1244.039548945427,297.8440644784091L1244.894558944702,180.10249857627565L1245.7495689439775,174.88048993952194L1246.6045789432526,251.08301218151368L1247.4595889425277,169.0483984486149L1249.1696089410782,150.81275950358645L1250.0246189403533,243.54435258399263L1250.8796289396287,209.98577737654654L1251.7346389389038,252.60307894653175L1252.5896489381792,193.88598395434306L1253.4446589374543,205.06003706646987L1254.2996689367294,226.5406115622732L1255.1546789360045,240.39879990317257L1256.0096889352799,212.2510650196525L1257.7197089338304,214.3871203705599L1258.5747189331055,179.40764313671002L1260.284738931656,220.1643256271634L1262.8497689294816,253.08265552860092L1263.7047789287567,237.72298028750652L1264.5597889280318,237.30646288347194L1266.2698089265823,215.3907270032029" fill="none"></path></g></g></g></g></g></g><g transform="translate(49, 378)" clip-path="url(#clip_1)"><clipPath id="clip_1"><rect width="1368" height="21"></rect></clipPath><g><g><line x1="0" y1="0" x2="0" y2="5" style="visibility: inherit;" fill="rgb(0, 0, 0)" stroke="rgb(204, 204, 204)" stroke-width="1px"></line><line x1="171.0019998550415" y1="0" x2="171.0019998550415" y2="5" style="visibility: inherit;" fill="rgb(0, 0, 0)" stroke="rgb(204, 204, 204)" stroke-width="1px"></line><line x1="342.003999710083" y1="0" x2="342.003999710083" y2="5" style="visibility: inherit;" fill="rgb(0, 0, 0)" stroke="rgb(204, 204, 204)" stroke-width="1px"></line><line x1="513.0059995651245" y1="0" x2="513.0059995651245" y2="5" style="visibility: inherit;" fill="rgb(0, 0, 0)" stroke="rgb(204, 204, 204)" stroke-width="1px"></line><line x1="684.007999420166" y1="0" x2="684.007999420166" y2="5" style="visibility: inherit;" fill="rgb(0, 0, 0)" stroke="rgb(204, 204, 204)" stroke-width="1px"></line><line x1="855.0099992752075" y1="0" x2="855.0099992752075" y2="5" style="visibility: inherit;" fill="rgb(0, 0, 0)" stroke="rgb(204, 204, 204)" stroke-width="1px"></line><line x1="1026.011999130249" y1="0" x2="1026.011999130249" y2="5" style="visibility: inherit;" fill="rgb(0, 0, 0)" stroke="rgb(204, 204, 204)" stroke-width="1px"></line><line x1="1197.0139989852905" y1="0" x2="1197.0139989852905" y2="5" style="visibility: inherit;" fill="rgb(0, 0, 0)" stroke="rgb(204, 204, 204)" stroke-width="1px"></line><line x1="1368.015998840332" y1="0" x2="1368.015998840332" y2="5" style="visibility: inherit;" fill="rgb(0, 0, 0)" stroke="rgb(204, 204, 204)" stroke-width="1px"></line></g><g transform="translate(0, 8)"><text style="text-anchor: middle; visibility: hidden; font-family: &quot;Helvetica Neue&quot;, sans-serif; font-size: 12px; font-weight: 200;" x="0" y="0" dx="0em" dy="0.95em" fill="rgb(50, 49, 63)" stroke="none" stroke-width="1px">-200</text><text style="text-anchor: middle; visibility: inherit; font-family: &quot;Helvetica Neue&quot;, sans-serif; font-size: 12px; font-weight: 200;" x="171.0019998550415" y="0" dx="0em" dy="0.95em" fill="rgb(50, 49, 63)" stroke="none" stroke-width="1px">0</text><text style="text-anchor: middle; visibility: inherit; font-family: &quot;Helvetica Neue&quot;, sans-serif; font-size: 12px; font-weight: 200;" x="342.003999710083" y="0" dx="0em" dy="0.95em" fill="rgb(50, 49, 63)" stroke="none" stroke-width="1px">200</text><text style="text-anchor: middle; visibility: inherit; font-family: &quot;Helvetica Neue&quot;, sans-serif; font-size: 12px; font-weight: 200;" x="513.0059995651245" y="0" dx="0em" dy="0.95em" fill="rgb(50, 49, 63)" stroke="none" stroke-width="1px">400</text><text style="text-anchor: middle; visibility: inherit; font-family: &quot;Helvetica Neue&quot;, sans-serif; font-size: 12px; font-weight: 200;" x="684.007999420166" y="0" dx="0em" dy="0.95em" fill="rgb(50, 49, 63)" stroke="none" stroke-width="1px">600</text><text style="text-anchor: middle; visibility: inherit; font-family: &quot;Helvetica Neue&quot;, sans-serif; font-size: 12px; font-weight: 200;" x="855.0099992752075" y="0" dx="0em" dy="0.95em" fill="rgb(50, 49, 63)" stroke="none" stroke-width="1px">800</text><text style="text-anchor: middle; visibility: inherit; font-family: &quot;Helvetica Neue&quot;, sans-serif; font-size: 12px; font-weight: 200;" x="1026.011999130249" y="0" dx="0em" dy="0.95em" fill="rgb(50, 49, 63)" stroke="none" stroke-width="1px">1k</text><text style="text-anchor: middle; visibility: inherit; font-family: &quot;Helvetica Neue&quot;, sans-serif; font-size: 12px; font-weight: 200;" x="1197.0139989852905" y="0" dx="0em" dy="0.95em" fill="rgb(50, 49, 63)" stroke="none" stroke-width="1px">1.2k</text><text style="text-anchor: middle; visibility: hidden; font-family: &quot;Helvetica Neue&quot;, sans-serif; font-size: 12px; font-weight: 200;" x="1368.015998840332" y="0" dx="0em" dy="0.95em" fill="rgb(50, 49, 63)" stroke="none" stroke-width="1px">1.4k</text></g><line x1="0" y1="0" x2="1368.015998840332" y2="0" fill="rgb(0, 0, 0)" stroke="rgb(204, 204, 204)" stroke-width="1px"></line></g></g></g></g></svg>