<svg viewBox="0 0 1418 400" xmlns="http://www.w3.org/2000/svg"><g><g><g><g><g><line x1="49.98400115966797" y1="372.2507307311312" x2="44.98400115966797" y2="372.2507307311312" style="visibility: inherit;" fill="rgb(0, 0, 0)" stroke="rgb(204, 204, 204)" stroke-width="1px"></line><line x1="49.98400115966797" y1="351.1346025769041" x2="44.98400115966797" y2="351.1346025769041" style="visibility: inherit;" fill="rgb(0, 0, 0)" stroke="rgb(204, 204, 204)" stroke-width="1px"></line><line x1="49.98400115966797" y1="336.1524712218556" x2="44.98400115966797" y2="336.1524712218556" style="visibility: inherit;" fill="rgb(0, 0, 0)" stroke="rgb(204, 204, 204)" stroke-width="1px"></line><line x1="49.98400115966797" y1="324.53142730928494" x2="44.98400115966797" y2="324.53142730928494" style="visibility: inherit;" fill="rgb(0, 0, 0)" stroke="rgb(204, 204, 204)" stroke-width="1px"></line><line x1="49.98400115966797" y1="315.0363430676285" x2="44.98400115966797" y2="315.0363430676285" style="visibility: inherit;" fill="rgb(0, 0, 0)" stroke="rgb(204, 204, 204)" stroke-width="1px"></line><line x1="49.98400115966797" y1="307.00836372932923" x2="44.98400115966797" y2="307.00836372932923" style="visibility: inherit;" fill="rgb(0, 0, 0)" stroke="rgb(204, 204, 204)" stroke-width="1px"></line><line x1="49.98400115966797" y1="300.05421171258" x2="44.98400115966797" y2="300.05421171258" style="visibility: inherit;" fill="rgb(0, 0, 0)" stroke="rgb(204, 204, 204)" stroke-width="1px"></line><line x1="49.98400115966797" y1="293.92021491340137" x2="44.98400115966797" y2="293.92021491340137" style="visibility: inherit;" fill="rgb(0, 0, 0)" stroke="rgb(204, 204, 204)" stroke-width="1px"></line><line x1="49.98400115966797" y1="288.4331678000093" x2="44.98400115966797" y2="288.4331678000093" style="visibility: inherit;" fill="rgb(0, 0, 0)" stroke="rgb(204, 204, 204)" stroke-width="1px"></line><line x1="49.98400115966797" y1="252.33490829073367" x2="44.98400115966797" y2="252.33490829073367" style="visibility: inherit;" fill="rgb(0, 0, 0)" stroke="rgb(204, 204, 204)" stroke-width="1px"></line><line x1="49.98400115966797" y1="231.21878013650652" x2="44.98400115966797" y2="231.21878013650652" style="visibility: inherit;" fill="rgb(0, 0, 0)" stroke="rgb(204, 204, 204)" stroke-width="1px"></line><line x1="49.98400115966797" y1="216.23664878145803" x2="44.98400115966797" y2="216.23664878145803" style="visibility: inherit;" fill="rgb(0, 0, 0)" stroke="rgb(204, 204, 204)" stroke-width="1px"></line><line x1="49.98400115966797" y1="204.61560486888732" x2="44.98400115966797" y2="204.61560486888732" style="visibility: inherit;" fill="rgb(0, 0, 0)" stroke="rgb(204, 204, 204)" stroke-width="1px"></line><line x1="49.98400115966797" y1="195.12052062723092" x2="44.98400115966797" y2="195.12052062723092" style="visibility: inherit;" fill="rgb(0, 0, 0)" stroke="rgb(204, 204, 204)" stroke-width="1px"></line><line x1="49.98400115966797" y1="187.09254128893164" x2="44.98400115966797" y2="187.09254128893164" style="visibility: inherit;" fill="rgb(0, 0, 0)" stroke="rgb(204, 204, 204)" stroke-width="1px"></line><line x1="49.98400115966797" y1="180.13838927218242" x2="44.98400115966797" y2="180.13838927218242" style="visibility: inherit;" fill="rgb(0, 0, 0)" stroke="rgb(204, 204, 204)" stroke-width="1px"></line><line x1="49.98400115966797" y1="174.0043924730038" x2="44.98400115966797" y2="174.0043924730038" style="visibility: inherit;" fill="rgb(0, 0, 0)" stroke="rgb(204, 204, 204)" stroke-width="1px"></line><line x1="49.98400115966797" y1="168.51734535961174" x2="44.98400115966797" y2="168.51734535961174" style="visibility: inherit;" fill="rgb(0, 0, 0)" stroke="rgb(204, 204, 204)" stroke-width="1px"></line><line x1="49.98400115966797" y1="132.41908585033607" x2="44.98400115966797" y2="132.41908585033607" style="visibility: inherit;" fill="rgb(0, 0, 0)" stroke="rgb(204, 204, 204)" stroke-width="1px"></line><line x1="49.98400115966797" y1="111.30295769610893" x2="44.98400115966797" y2="111.30295769610893" style="visibility: inherit;" fill="rgb(0, 0, 0)" stroke="rgb(204, 204, 204)" stroke-width="1px"></line><line x1="49.98400115966797" y1="96.32082634106041" x2="44.98400115966797" y2="96.32082634106041" style="visibility: inherit;" fill="rgb(0, 0, 0)" stroke="rgb(204, 204, 204)" stroke-width="1px"></line><line x1="49.98400115966797" y1="84.69978242848975" x2="44.98400115966797" y2="84.69978242848975" style="visibility: inherit;" fill="rgb(0, 0, 0)" stroke="rgb(204, 204, 204)" stroke-width="1px"></line><line x1="49.98400115966797" y1="75.2046981868333" x2="44.98400115966797" y2="75.2046981868333" style="visibility: inherit;" fill="rgb(0, 0, 0)" stroke="rgb(204, 204, 204)" stroke-width="1px"></line><line x1="49.98400115966797" y1="67.17671884853405" x2="44.98400115966797" y2="67.17671884853405" style="visibility: inherit;" fill="rgb(0, 0, 0)" stroke="rgb(204, 204, 204)" stroke-width="1px"></line><line x1="49.98400115966797" y1="60.22256683178483" x2="44.98400115966797" y2="60.22256683178483" style="visibility: inherit;" fill="rgb(0, 0, 0)" stroke="rgb(204, 204, 204)" stroke-width="1px"></line><line x1="49.98400115966797" y1="54.088570032606185" x2="44.98400115966797" y2="54.088570032606185" style="visibility: inherit;" fill="rgb(0, 0, 0)" stroke="rgb(204, 204, 204)" stroke-width="1px"></line><line x1="49.98400115966797" y1="48.60152291921412" x2="44.98400115966797" y2="48.60152291921412" style="visibility: inherit;" fill="rgb(0, 0, 0)" stroke="rgb(204, 204, 204)" stroke-width="1px"></line><line x1="49.98400115966797" y1="12.503263409938484" x2="44.98400115966797" y2="12.503263409938484" style="visibility: inherit;" fill="rgb(0, 0, 0)" stroke="rgb(204, 204, 204)" stroke-width="1px"></line></g><g transform="translate(39.98400115966797, 0)"><text style="text-anchor: end; visibility: inherit; font-family: &quot;Helvetica Neue&quot;, sans-serif; font-size: 12px; font-weight: 200;" x="0" y="372.2507307311312" dx="0em" dy="0.3em" fill="rgb(50, 49, 63)" stroke="none" stroke-width="1px">2e-3</text><text style="text-anchor: end; visibility: hidden; font-family: &quot;Helvetica Neue&quot;, sans-serif; font-size: 12px; font-weight: 200;" x="0" y="351.1346025769041" dx="0em" dy="0.3em" fill="rgb(50, 49, 63)" stroke="none" stroke-width="1px">3e-3</text><text style="text-anchor: end; visibility: hidden; font-family: &quot;Helvetica Neue&quot;, sans-serif; font-size: 12px; font-weight: 200;" x="0" y="336.1524712218556" dx="0em" dy="0.3em" fill="rgb(50, 49, 63)" stroke="none" stroke-width="1px">4e-3</text><text style="text-anchor: end; visibility: inherit; font-family: &quot;Helvetica Neue&quot;, sans-serif; font-size: 12px; font-weight: 200;" x="0" y="324.53142730928494" dx="0em" dy="0.3em" fill="rgb(50, 49, 63)" stroke="none" stroke-width="1px">5e-3</text><text style="text-anchor: end; visibility: hidden; font-family: &quot;Helvetica Neue&quot;, sans-serif; font-size: 12px; font-weight: 200;" x="0" y="315.0363430676285" dx="0em" dy="0.3em" fill="rgb(50, 49, 63)" stroke="none" stroke-width="1px">6e-3</text><text style="text-anchor: end; visibility: hidden; font-family: &quot;Helvetica Neue&quot;, sans-serif; font-size: 12px; font-weight: 200;" x="0" y="307.00836372932923" dx="0em" dy="0.3em" fill="rgb(50, 49, 63)" stroke="none" stroke-width="1px">7e-3</text><text style="text-anchor: end; visibility: inherit; font-family: &quot;Helvetica Neue&quot;, sans-serif; font-size: 12px; font-weight: 200;" x="0" y="300.05421171258" dx="0em" dy="0.3em" fill="rgb(50, 49, 63)" stroke="none" stroke-width="1px">8e-3</text><text style="text-anchor: end; visibility: hidden; font-family: &quot;Helvetica Neue&quot;, sans-serif; font-size: 12px; font-weight: 200;" x="0" y="293.92021491340137" dx="0em" dy="0.3em" fill="rgb(50, 49, 63)" stroke="none" stroke-width="1px">9e-3</text><text style="text-anchor: end; visibility: hidden; font-family: &quot;Helvetica Neue&quot;, sans-serif; font-size: 12px; font-weight: 200;" x="0" y="288.4331678000093" dx="0em" dy="0.3em" fill="rgb(50, 49, 63)" stroke="none" stroke-width="1px">0.01</text><text style="text-anchor: end; visibility: inherit; font-family: &quot;Helvetica Neue&quot;, sans-serif; font-size: 12px; font-weight: 200;" x="0" y="252.33490829073367" dx="0em" dy="0.3em" fill="rgb(50, 49, 63)" stroke="none" stroke-width="1px">0.02</text><text style="text-anchor: end; visibility: hidden; font-family: &quot;Helvetica Neue&quot;, sans-serif; font-size: 12px; font-weight: 200;" x="0" y="231.21878013650652" dx="0em" dy="0.3em" fill="rgb(50, 49, 63)" stroke="none" stroke-width="1px">0.03</text><text style="text-anchor: end; visibility: hidden; font-family: &quot;Helvetica Neue&quot;, sans-serif; font-size: 12px; font-weight: 200;" x="0" y="216.23664878145803" dx="0em" dy="0.3em" fill="rgb(50, 49, 63)" stroke="none" stroke-width="1px">0.04</text><text style="text-anchor: end; visibility: inherit; font-family: &quot;Helvetica Neue&quot;, sans-serif; font-size: 12px; font-weight: 200;" x="0" y="204.61560486888732" dx="0em" dy="0.3em" fill="rgb(50, 49, 63)" stroke="none" stroke-width="1px">0.05</text><text style="text-anchor: end; visibility: hidden; font-family: &quot;Helvetica Neue&quot;, sans-serif; font-size: 12px; font-weight: 200;" x="0" y="195.12052062723092" dx="0em" dy="0.3em" fill="rgb(50, 49, 63)" stroke="none" stroke-width="1px">0.06</text><text style="text-anchor: end; visibility: hidden; font-family: &quot;Helvetica Neue&quot;, sans-serif; font-size: 12px; font-weight: 200;" x="0" y="187.09254128893164" dx="0em" dy="0.3em" fill="rgb(50, 49, 63)" stroke="none" stroke-width="1px">0.07</text><text style="text-anchor: end; visibility: inherit; font-family: &quot;Helvetica Neue&quot;, sans-serif; font-size: 12px; font-weight: 200;" x="0" y="180.13838927218242" dx="0em" dy="0.3em" fill="rgb(50, 49, 63)" stroke="none" stroke-width="1px">0.08</text><text style="text-anchor: end; visibility: hidden; font-family: &quot;Helvetica Neue&quot;, sans-serif; font-size: 12px; font-weight: 200;" x="0" y="174.0043924730038" dx="0em" dy="0.3em" fill="rgb(50, 49, 63)" stroke="none" stroke-width="1px">0.09</text><text style="text-anchor: end; visibility: hidden; font-family: &quot;Helvetica Neue&quot;, sans-serif; font-size: 12px; font-weight: 200;" x="0" y="168.51734535961174" dx="0em" dy="0.3em" fill="rgb(50, 49, 63)" stroke="none" stroke-width="1px">0.1</text><text style="text-anchor: end; visibility: inherit; font-family: &quot;Helvetica Neue&quot;, sans-serif; font-size: 12px; font-weight: 200;" x="0" y="132.41908585033607" dx="0em" dy="0.3em" fill="rgb(50, 49, 63)" stroke="none" stroke-width="1px">0.2</text><text style="text-anchor: end; visibility: hidden; font-family: &quot;Helvetica Neue&quot;, sans-serif; font-size: 12px; font-weight: 200;" x="0" y="111.30295769610893" dx="0em" dy="0.3em" fill="rgb(50, 49, 63)" stroke="none" stroke-width="1px">0.3</text><text style="text-anchor: end; visibility: hidden; font-family: &quot;Helvetica Neue&quot;, sans-serif; font-size: 12px; font-weight: 200;" x="0" y="96.32082634106041" dx="0em" dy="0.3em" fill="rgb(50, 49, 63)" stroke="none" stroke-width="1px">0.4</text><text style="text-anchor: end; visibility: inherit; font-family: &quot;Helvetica Neue&quot;, sans-serif; font-size: 12px; font-weight: 200;" x="0" y="84.69978242848975" dx="0em" dy="0.3em" fill="rgb(50, 49, 63)" stroke="none" stroke-width="1px">0.5</text><text style="text-anchor: end; visibility: hidden; font-family: &quot;Helvetica Neue&quot;, sans-serif; font-size: 12px; font-weight: 200;" x="0" y="75.2046981868333" dx="0em" dy="0.3em" fill="rgb(50, 49, 63)" stroke="none" stroke-width="1px">0.6</text><text style="text-anchor: end; visibility: hidden; font-family: &quot;Helvetica Neue&quot;, sans-serif; font-size: 12px; font-weight: 200;" x="0" y="67.17671884853405" dx="0em" dy="0.3em" fill="rgb(50, 49, 63)" stroke="none" stroke-width="1px">0.7</text><text style="text-anchor: end; visibility: inherit; font-family: &quot;Helvetica Neue&quot;, sans-serif; font-size: 12px; font-weight: 200;" x="0" y="60.22256683178483" dx="0em" dy="0.3em" fill="rgb(50, 49, 63)" stroke="none" stroke-width="1px">0.8</text><text style="text-anchor: end; visibility: hidden; font-family: &quot;Helvetica Neue&quot;, sans-serif; font-size: 12px; font-weight: 200;" x="0" y="54.088570032606185" dx="0em" dy="0.3em" fill="rgb(50, 49, 63)" stroke="none" stroke-width="1px">0.9</text><text style="text-anchor: end; visibility: hidden; font-family: &quot;Helvetica Neue&quot;, sans-serif; font-size: 12px; font-weight: 200;" x="0" y="48.60152291921412" dx="0em" dy="0.3em" fill="rgb(50, 49, 63)" stroke="none" stroke-width="1px">1</text><text style="text-anchor: end; visibility: inherit; font-family: &quot;Helvetica Neue&quot;, sans-serif; font-size: 12px; font-weight: 200;" x="0" y="12.503263409938484" dx="0em" dy="0.3em" fill="rgb(50, 49, 63)" stroke="none" stroke-width="1px">2</text></g><line x1="49.98400115966797" y1="0" x2="49.98400115966797" y2="378.6199998855591" fill="rgb(0, 0, 0)" stroke="rgb(204, 204, 204)" stroke-width="1px"></line></g></g><g transform="translate(49, 0)" clip-path="url(#clip_0)"><clipPath id="clip_0"><rect width="1368" height="378"></rect></clipPath><g><g><g><line x1="0" y1="0" x2="0" y2="378.6199998855591" fill="rgb(0, 0, 0)" stroke="rgb(60, 60, 60)" stroke-width="1px" opacity="0.25"></line><line x1="114.00133323669434" y1="0" x2="114.00133323669434" y2="378.6199998855591" fill="rgb(0, 0, 0)" stroke="rgb(60, 60, 60)" stroke-width="1px" opacity="0.25"></line><line x1="228.00266647338867" y1="0" x2="228.00266647338867" y2="378.6199998855591" fill="rgb(0, 0, 0)" stroke="rgb(60, 60, 60)" stroke-width="1px" opacity="0.25"></line><line x1="342.003999710083" y1="0" x2="342.003999710083" y2="378.6199998855591" fill="rgb(0, 0, 0)" stroke="rgb(60, 60, 60)" stroke-width="1px" opacity="0.25"></line><line x1="456.00533294677734" y1="0" x2="456.00533294677734" y2="378.6199998855591" fill="rgb(0, 0, 0)" stroke="rgb(60, 60, 60)" stroke-width="1px" opacity="0.25"></line><line x1="570.0066661834717" y1="0" x2="570.0066661834717" y2="378.6199998855591" fill="rgb(0, 0, 0)" stroke="rgb(60, 60, 60)" stroke-width="1px" opacity="0.25"></line><line x1="684.007999420166" y1="0" x2="684.007999420166" y2="378.6199998855591" fill="rgb(0, 0, 0)" stroke="rgb(60, 60, 60)" stroke-width="1px" opacity="0.25"></line><line x1="798.0093326568604" y1="0" x2="798.0093326568604" y2="378.6199998855591" fill="rgb(0, 0, 0)" stroke="rgb(60, 60, 60)" stroke-width="1px" opacity="0.25"></line><line x1="912.0106658935547" y1="0" x2="912.0106658935547" y2="378.6199998855591" fill="rgb(0, 0, 0)" stroke="rgb(60, 60, 60)" stroke-width="1px" opacity="0.25"></line><line x1="1026.011999130249" y1="0" x2="1026.011999130249" y2="378.6199998855591" fill="rgb(0, 0, 0)" stroke="rgb(60, 60, 60)" stroke-width="1px" opacity="0.25"></line><line x1="1140.0133323669434" y1="0" x2="1140.0133323669434" y2="378.6199998855591" fill="rgb(0, 0, 0)" stroke="rgb(60, 60, 60)" stroke-width="1px" opacity="0.25"></line><line x1="1254.0146656036377" y1="0" x2="1254.0146656036377" y2="378.6199998855591" fill="rgb(0, 0, 0)" stroke="rgb(60, 60, 60)" stroke-width="1px" opacity="0.25"></line><line x1="1368.015998840332" y1="0" x2="1368.015998840332" y2="378.6199998855591" fill="rgb(0, 0, 0)" stroke="rgb(60, 60, 60)" stroke-width="1px" opacity="0.25"></line></g><g><line x1="0" y1="372.2507307311312" x2="1368.015998840332" y2="372.2507307311312" fill="rgb(0, 0, 0)" stroke="rgb(60, 60, 60)" stroke-width="1px" opacity="0.25"></line><line x1="0" y1="351.1346025769041" x2="1368.015998840332" y2="351.1346025769041" fill="rgb(0, 0, 0)" stroke="rgb(60, 60, 60)" stroke-width="1px" opacity="0.25"></line><line x1="0" y1="336.1524712218556" x2="1368.015998840332" y2="336.1524712218556" fill="rgb(0, 0, 0)" stroke="rgb(60, 60, 60)" stroke-width="1px" opacity="0.25"></line><line x1="0" y1="324.53142730928494" x2="1368.015998840332" y2="324.53142730928494" fill="rgb(0, 0, 0)" stroke="rgb(60, 60, 60)" stroke-width="1px" opacity="0.25"></line><line x1="0" y1="315.0363430676285" x2="1368.015998840332" y2="315.0363430676285" fill="rgb(0, 0, 0)" stroke="rgb(60, 60, 60)" stroke-width="1px" opacity="0.25"></line><line x1="0" y1="307.00836372932923" x2="1368.015998840332" y2="307.00836372932923" fill="rgb(0, 0, 0)" stroke="rgb(60, 60, 60)" stroke-width="1px" opacity="0.25"></line><line x1="0" y1="300.05421171258" x2="1368.015998840332" y2="300.05421171258" fill="rgb(0, 0, 0)" stroke="rgb(60, 60, 60)" stroke-width="1px" opacity="0.25"></line><line x1="0" y1="293.92021491340137" x2="1368.015998840332" y2="293.92021491340137" fill="rgb(0, 0, 0)" stroke="rgb(60, 60, 60)" stroke-width="1px" opacity="0.25"></line><line x1="0" y1="288.4331678000093" x2="1368.015998840332" y2="288.4331678000093" fill="rgb(0, 0, 0)" stroke="rgb(60, 60, 60)" stroke-width="1px" opacity="0.25"></line><line x1="0" y1="252.33490829073367" x2="1368.015998840332" y2="252.33490829073367" fill="rgb(0, 0, 0)" stroke="rgb(60, 60, 60)" stroke-width="1px" opacity="0.25"></line><line x1="0" y1="231.21878013650652" x2="1368.015998840332" y2="231.21878013650652" fill="rgb(0, 0, 0)" stroke="rgb(60, 60, 60)" stroke-width="1px" opacity="0.25"></line><line x1="0" y1="216.23664878145803" x2="1368.015998840332" y2="216.23664878145803" fill="rgb(0, 0, 0)" stroke="rgb(60, 60, 60)" stroke-width="1px" opacity="0.25"></line><line x1="0" y1="204.61560486888732" x2="1368.015998840332" y2="204.61560486888732" fill="rgb(0, 0, 0)" stroke="rgb(60, 60, 60)" stroke-width="1px" opacity="0.25"></line><line x1="0" y1="195.12052062723092" x2="1368.015998840332" y2="195.12052062723092" fill="rgb(0, 0, 0)" stroke="rgb(60, 60, 60)" stroke-width="1px" opacity="0.25"></line><line x1="0" y1="187.09254128893164" x2="1368.015998840332" y2="187.09254128893164" fill="rgb(0, 0, 0)" stroke="rgb(60, 60, 60)" stroke-width="1px" opacity="0.25"></line><line x1="0" y1="180.13838927218242" x2="1368.015998840332" y2="180.13838927218242" fill="rgb(0, 0, 0)" stroke="rgb(60, 60, 60)" stroke-width="1px" opacity="0.25"></line><line x1="0" y1="174.0043924730038" x2="1368.015998840332" y2="174.0043924730038" fill="rgb(0, 0, 0)" stroke="rgb(60, 60, 60)" stroke-width="1px" opacity="0.25"></line><line x1="0" y1="168.51734535961174" x2="1368.015998840332" y2="168.51734535961174" fill="rgb(0, 0, 0)" stroke="rgb(60, 60, 60)" stroke-width="1px" opacity="0.25"></line><line x1="0" y1="132.41908585033607" x2="1368.015998840332" y2="132.41908585033607" fill="rgb(0, 0, 0)" stroke="rgb(60, 60, 60)" stroke-width="1px" opacity="0.25"></line><line x1="0" y1="111.30295769610893" x2="1368.015998840332" y2="111.30295769610893" fill="rgb(0, 0, 0)" stroke="rgb(60, 60, 60)" stroke-width="1px" opacity="0.25"></line><line x1="0" y1="96.32082634106041" x2="1368.015998840332" y2="96.32082634106041" fill="rgb(0, 0, 0)" stroke="rgb(60, 60, 60)" stroke-width="1px" opacity="0.25"></line><line x1="0" y1="84.69978242848975" x2="1368.015998840332" y2="84.69978242848975" fill="rgb(0, 0, 0)" stroke="rgb(60, 60, 60)" stroke-width="1px" opacity="0.25"></line><line x1="0" y1="75.2046981868333" x2="1368.015998840332" y2="75.2046981868333" fill="rgb(0, 0, 0)" stroke="rgb(60, 60, 60)" stroke-width="1px" opacity="0.25"></line><line x1="0" y1="67.17671884853405" x2="1368.015998840332" y2="67.17671884853405" fill="rgb(0, 0, 0)" stroke="rgb(60, 60, 60)" stroke-width="1px" opacity="0.25"></line><line x1="0" y1="60.22256683178483" x2="1368.015998840332" y2="60.22256683178483" fill="rgb(0, 0, 0)" stroke="rgb(60, 60, 60)" stroke-width="1px" opacity="0.25"></line><line x1="0" y1="54.088570032606185" x2="1368.015998840332" y2="54.088570032606185" fill="rgb(0, 0, 0)" stroke="rgb(60, 60, 60)" stroke-width="1px" opacity="0.25"></line><line x1="0" y1="48.60152291921412" x2="1368.015998840332" y2="48.60152291921412" fill="rgb(0, 0, 0)" stroke="rgb(60, 60, 60)" stroke-width="1px" opacity="0.25"></line><line x1="0" y1="12.503263409938484" x2="1368.015998840332" y2="12.503263409938484" fill="rgb(0, 0, 0)" stroke="rgb(60, 60, 60)" stroke-width="1px" opacity="0.25"></line></g></g></g><g><g><line x1="114.00133323669434" y1="0" x2="114.00133323669434" y2="378.6199998855591" fill="rgb(0, 0, 0)" stroke="rgb(153, 153, 153)" stroke-width="1.5px"></line></g></g><g><g><g><g><g><path style="fill: none;" stroke="rgb(0, 119, 187)" stroke-width="2px" d="M114.00133323669434,74.34387108601396L119.70139989852905,84.1815818290163L131.1015332221985,86.2860592573453L142.50166654586792,91.35718873948974L182.40213317871093,120.79804193776539L193.80226650238038,131.13312516640548L199.5023331642151,140.88287287424455L205.2023998260498,156.896301447041L245.10286645889283,161.23871296851502L296.40346641540526,183.49947464523544L592.8069328308105,190.9519959756353L638.4074661254883,195.12052179128239" fill="none"></path></g><g><path style="fill: none;" stroke="rgb(255, 112, 67)" stroke-width="2px" d="M114.00133323669434,57.372559058212346L119.70139989852905,86.2860592573453L136.8015998840332,86.82574326345548L165.3019331932068,106.3393177429192L188.10219984054567,136.47922714417695L199.5023331642151,139.37323875398164L210.90246648788454,159.0222622820067L262.203066444397,171.188638205909L279.3032664299011,195.12052179128239" fill="none"></path></g><g><path style="fill: none;" stroke="rgb(187, 187, 187)" stroke-width="2px" d="M114.00133323669434,82.65721744780842L131.1015332221985,89.04219394996375L136.8015998840332,95.03486565712984L171.0019998550415,96.32082556502615L176.70206651687624,108.76202586537795L199.5023331642151,109.5953033272342L245.10286645889283,113.06851064531412L250.80293312072752,122.92400277273114L262.203066444397,132.4190850743018L285.00333309173584,149.16677015458978L336.30393304824827,156.896301447041L1128.6131990432739,161.23871296851502L1191.313932323456,163.55370775804104" fill="none"></path></g><g><path style="fill: none;" stroke="rgb(238, 51, 119)" stroke-width="2px" d="M114.00133323669434,71.43832790454707L119.70139989852905,80.21175155208994L125.40146656036376,86.2860592573453L131.1015332221985,88.47917517300715L153.90179986953737,92.5544536524663L171.0019998550415,93.7798957421299L176.70206651687624,137.90613089430343L188.10219984054567,144.04013092695823L193.80226650238038,156.896301447041L216.60253314971922,168.5173445835774L222.30259981155396,171.188638205909L239.4027997970581,174.00439040357904L245.10286645889283,176.98113238352016L256.50299978256226,195.12052179128239L313.5036664009094,204.61560409285306" fill="none"></path></g><g><path style="fill: none;" stroke="rgb(0, 153, 136)" stroke-width="2px" d="M114.00133323669434,73.91873624105835L119.70139989852905,80.69174323080068L125.40146656036376,86.82574326345548L136.8015998840332,89.61136605341795L148.20173320770263,95.03486565712984L165.3019331932068,95.67387650198322L205.2023998260498,107.13443304451334L267.9031331062317,112.17825422793447L376.20439968109133,117.76347110326867L450.3052662849426,122.92400277273114L473.1055329322815,126.28509043077395L478.8055995941162,152.88826224935192L581.406799507141,161.23871296851502L604.20706615448,163.55370775804104L615.6071994781495,165.9764147606812L689.7080660820008,176.98113238352016L695.4081327438354,180.13839043623383L746.7087327003478,190.9519959756353L929.1108658790589,199.65196726731662L940.5109992027283,204.61560409285306" fill="none"></path></g><g><path style="fill: none;" stroke="rgb(51, 187, 238)" stroke-width="2px" d="M114.00133323669434,62.2130822548001L119.70139989852905,87.37107527478702L125.40146656036376,93.1635685394167L188.10219984054567,95.03486565712984L193.80226650238038,104.02432642969967L199.5023331642151,109.5953033272342L216.60253314971922,110.4421305952896L222.30259981155396,117.76347110326867L256.50299978256226,127.45544824876538L342.003999710083,129.87815525140556" fill="none"></path></g><g><path style="fill: none;" stroke="rgb(204, 51, 17)" stroke-width="2px" d="M114.00133323669434,72.25207463982747L119.70139989852905,93.1635685394167L159.60186653137208,99.68191378353822L165.3019331932068,113.97425054240625L171.0019998550415,132.4190850743018L176.70206651687624,135.09037869663337L182.40213317871093,136.47922714417695L239.4027997970581,149.16677015458978L250.80293312072752,174.00439040357904L575.7067328453064,183.49947464523544L592.8069328308105,187.09254106720758L798.0093326568604,190.9519959756353L900.6105325698852,210.10264991285467L980.4114658355713,240.71386360212864L1111.5129990577698,267.3170408098336" fill="none"></path></g><g><path style="fill: none;" stroke="rgb(0, 119, 187)" stroke-width="2px" d="M114.00133323669434,68.68635385569326L119.70139989852905,86.82574326345548L136.8015998840332,93.7798957421299L153.90179986953737,96.97591255746869L165.3019331932068,116.79000274007632L171.0019998550415,132.4190850743018L245.10286645889283,144.04013092695823L256.50299978256226,150.99428155793197L262.203066444397,159.0222622820067L273.6031997680664,163.55370775804104L290.7033997535705,165.9764147606812L319.20373306274416,168.5173445835774L427.50499963760376,183.49947464523544L524.406132888794,190.9519959756353L581.406799507141,223.19080057648318" fill="none"></path></g><g><path style="fill: none;" stroke="rgb(255, 112, 67)" stroke-width="2px" d="M114.00133323669434,81.17620000802685L119.70139989852905,83.66848673237763L125.40146656036376,88.47917517300715L131.1015332221985,91.95238070710008L136.8015998840332,97.63934880285694L142.50166654586792,100.38096763490137L171.0019998550415,132.4190850743018L176.70206651687624,137.90613089430343L188.10219984054567,161.23871296851502L193.80226650238038,190.9519959756353L296.40346641540526,199.65196726731662" fill="none"></path></g><g><path style="fill: none;" stroke="rgb(187, 187, 187)" stroke-width="2px" d="M114.00133323669434,75.64050391605366L119.70139989852905,85.22319115643808L142.50166654586792,86.2860592573453L165.3019331932068,87.37107527478702L176.70206651687624,89.61136605341795L188.10219984054567,113.97425054240625L239.4027997970581,161.23871296851502L1031.7120657920836,163.55370775804104L1054.5123324394226,174.00439040357904L1111.5129990577698,176.98113238352016" fill="none"></path></g><g><path style="fill: none;" stroke="rgb(51, 187, 238)" stroke-width="2px" d="M114.00133323669434,62.893859678082094L119.70139989852905,85.22319115643808L125.40146656036376,88.47917517300715L142.50166654586792,89.04219394996375L199.5023331642151,132.4190850743018L205.2023998260498,150.99428155793197L210.90246648788454,176.98113238352016L245.10286645889283,180.13839043623383L450.3052662849426,195.12052179128239L609.9071328163147,204.61560409285306L627.0073328018188,210.10264991285467" fill="none"></path></g><g><path style="fill: none;" stroke="rgb(238, 51, 119)" stroke-width="2px" d="M114.00133323669434,64.28270812562573L119.70139989852905,84.1815818290163L131.1015332221985,121.85017327353387L159.60186653137208,122.92400277273114L182.40213317871093,140.88287287424455L188.10219984054567,152.88826224935192L210.90246648788454,159.0222622820067L267.9031331062317,168.5173445835774L342.003999710083,176.98113238352016L570.0066661834717,180.13839043623383L672.6078660964965,195.12052179128239L934.8109325408935,204.61560409285306L991.8115991592407,210.10264991285467L1031.7120657920836,216.2366499455095" fill="none"></path></g><g><path style="fill: none;" stroke="rgb(0, 153, 136)" stroke-width="2px" d="M114.00133323669434,72.25207463982747L119.70139989852905,81.66521159399304L125.40146656036376,83.66848673237763L131.1015332221985,86.82574326345548L136.8015998840332,89.61136605341795L142.50166654586792,96.97591255746869L153.90179986953737,101.08953270522886L159.60186653137208,114.89602204865633L165.3019331932068,131.13312516640548L171.0019998550415,132.4190850743018L176.70206651687624,145.69356283650984L199.5023331642151,149.16677015458978L216.60253314971922,174.00439040357904L239.4027997970581,176.98113238352016L273.6031997680664,187.09254106720758" fill="none"></path></g><g><path style="fill: none;" stroke="rgb(204, 51, 17)" stroke-width="2px" d="M114.00133323669434,66.80605104344232L119.70139989852905,81.17620000802685L125.40146656036376,92.5544536524663L131.1015332221985,95.03486565712984L165.3019331932068,112.17825422793447L171.0019998550415,152.88826224935192L245.10286645889283,161.23871296851502L279.3032664299011,176.98113238352016L302.10353307724,187.09254106720758L359.10419969558717,199.65196726731662L444.6051996231079,231.21878130055796L558.6065328598022,240.71386360212864" fill="none"></path></g><g><path style="fill: none;" stroke="rgb(0, 119, 187)" stroke-width="2px" d="M114.00133323669434,73.91873624105835L119.70139989852905,84.1815818290163L125.40146656036376,92.5544536524663L136.8015998840332,97.63934880285694L142.50166654586792,128.65271316174193L148.20173320770263,147.40121513595983L165.3019331932068,159.0222622820067L262.203066444397,176.98113238352016L267.9031331062317,183.49947464523544L296.40346641540526,216.2366499455095L393.30459966659544,231.21878130055796L587.1068661689758,240.71386360212864" fill="none"></path></g><g><path style="fill: none;" stroke="rgb(255, 112, 67)" stroke-width="2px" d="M114.00133323669434,63.583654274262585L119.70139989852905,79.26483948067425L125.40146656036376,90.7687222424388L142.50166654586792,93.1635685394167L148.20173320770263,102.53626144691339L165.3019331932068,103.274979244706L216.60253314971922,113.06851064531412L222.30259981155396,129.87815525140556L228.00266647338867,147.40121513595983L233.70273313522338,150.99428155793197L239.4027997970581,156.896301447041L245.10286645889283,163.55370775804104L319.20373306274416,168.5173445835774L376.20439968109133,180.13839043623383L393.30459966659544,190.9519959756353L723.9084660530091,199.65196726731662L826.5096659660339,223.19080057648318L963.3112658500672,240.71386360212864L1094.4127990722657,288.43316896406077" fill="none"></path></g><g><path style="fill: none;" stroke="rgb(187, 187, 187)" stroke-width="2px" d="M114.00133323669434,66.43800193763775L119.70139989852905,85.22319115643808L136.8015998840332,87.92217809691158L148.20173320770263,104.78461336496889L159.60186653137208,120.79804193776539L165.3019331932068,135.09037869663337L188.10219984054567,149.16677015458978L216.60253314971922,159.0222622820067L250.80293312072752,171.188638205909L456.00533294677734,180.13839043623383L513.0059995651245,204.61560409285306L552.9064661979676,210.10264991285467L1043.1121991157531,240.71386360212864" fill="none"></path></g><g><path style="fill: none;" stroke="rgb(0, 153, 136)" stroke-width="2px" d="M114.00133323669434,71.43832790454707L119.70139989852905,82.15885256863947L136.8015998840332,88.47917517300715L142.50166654586792,90.18683092149837L148.20173320770263,103.274979244706L159.60186653137208,114.89602204865633L245.10286645889283,120.79804193776539L307.80359973907474,129.87815525140556L313.5036664009094,136.47922714417695L319.20373306274416,150.99428155793197L347.7040663719177,159.0222622820067L376.20439968109133,165.9764147606812L501.60586624145503,168.5173445835774L507.30593290328983,187.09254106720758L530.1061995506287,210.10264991285467L547.2063995361328,223.19080057648318L570.0066661834717,252.3349094547851L627.0073328018188,288.43316896406077L695.4081327438354,324.53142847333635" fill="none"></path></g><g><path style="fill: none;" stroke="rgb(238, 51, 119)" stroke-width="2px" d="M114.00133323669434,61.87600190805705L119.70139989852905,85.75191376425823L148.20173320770263,87.92217809691158L165.3019331932068,89.04219394996375L233.70273313522338,93.7798957421299L256.50299978256226,127.45544824876538L262.203066444397,129.87815525140556L273.6031997680664,150.99428155793197L290.7033997535705,154.8537364663597L837.9097992897034,168.5173445835774L917.7107325553893,176.98113238352016L1071.6125324249267,187.09254106720758" fill="none"></path></g><g><path style="fill: none;" stroke="rgb(51, 187, 238)" stroke-width="2px" d="M114.00133323669434,63.93200828311831L119.70139989852905,81.66521159399304L125.40146656036376,87.37107527478702L136.8015998840332,105.55616420847718L142.50166654586792,132.4190850743018L148.20173320770263,139.37323875398164L153.90179986953737,149.16677015458978L159.60186653137208,152.88826224935192L228.00266647338867,161.23871296851502L364.80426635742185,176.98113238352016L381.904466342926,183.49947464523544L387.60453300476075,195.12052179128239L410.4047996520996,210.10264991285467L444.6051996231079,216.2366499455095L467.40546627044677,231.21878130055796L501.60586624145503,240.71386360212864L627.0073328018188,252.3349094547851L735.3085993766784,267.3170408098336L809.4094659805298,288.43316896406077" fill="none"></path></g><g><path style="fill: none;" stroke="rgb(204, 51, 17)" stroke-width="2px" d="M114.00133323669434,54.67046273316316L119.70139989852905,86.2860592573453L153.90179986953737,98.99211918735773L159.60186653137208,103.274979244706L165.3019331932068,121.85017327353387L171.0019998550415,137.90613089430343L182.40213317871093,142.43757725219484L216.60253314971922,149.16677015458978L250.80293312072752,150.99428155793197L279.3032664299011,161.23871296851502L285.00333309173584,165.9764147606812L302.10353307724,174.00439040357904L324.90379972457885,199.65196726731662L558.6065328598022,210.10264991285467L564.3065995216369,240.71386360212864L775.2090660095215,267.3170408098336" fill="none"></path></g><g><path style="fill: none;" stroke="rgb(0, 119, 187)" stroke-width="2px" d="M114.00133323669434,66.80605104344232L119.70139989852905,80.21175155208994L125.40146656036376,81.17620000802685L136.8015998840332,87.37107527478702L165.3019331932068,89.61136605341795L176.70206651687624,96.32082556502615L267.9031331062317,101.08953270522886L279.3032664299011,104.78461336496889L399.0046663284302,105.55616420847718L433.20506629943844,108.76202586537795L530.1061995506287,110.4421305952896L541.5063328742981,113.06851064531412L547.2063995361328,120.79804193776539L558.6065328598022,124.02043760618722L592.8069328308105,135.09037869663337L678.3079327583313,137.90613089430343L780.9091326713561,147.40121513595983L786.6091993331909,152.88826224935192L798.0093326568604,154.8537364663597L803.7093993186951,156.896301447041L815.1095326423645,165.9764147606812L1031.7120657920836,174.00439040357904" fill="none"></path></g><g><path style="fill: none;" stroke="rgb(255, 112, 67)" stroke-width="2px" d="M114.00133323669434,73.91873624105835L119.70139989852905,80.21175155208994L125.40146656036376,82.65721744780842L131.1015332221985,84.1815818290163L136.8015998840332,87.37107527478702L165.3019331932068,96.97591255746869L171.0019998550415,129.87815525140556L182.40213317871093,132.4190850743018L193.80226650238038,152.88826224935192L347.7040663719177,154.8537364663597L438.90513296127324,159.0222622820067L444.6051996231079,161.23871296851502L450.3052662849426,163.55370775804104L473.1055329322815,165.9764147606812L638.4074661254883,171.188638205909L706.808266067505,176.98113238352016L723.9084660530091,180.13839043623383L729.6085327148437,187.09254106720758L1140.0133323669434,190.9519959756353" fill="none"></path></g><g><path style="fill: none;" stroke="rgb(187, 187, 187)" stroke-width="2px" d="M114.00133323669434,72.66376635610231L119.70139989852905,80.69174323080068L125.40146656036376,81.66521159399304L131.1015332221985,94.40360058183751L159.60186653137208,121.85017327353387L165.3019331932068,147.40121513595983L171.0019998550415,150.99428155793197L176.70206651687624,152.88826224935192L222.30259981155396,156.896301447041L233.70273313522338,165.9764147606812L376.20439968109133,174.00439040357904L507.30593290328983,183.49947464523544L513.0059995651245,187.09254106720758" fill="none"></path></g><g><path style="fill: none;" stroke="rgb(0, 153, 136)" stroke-width="2px" d="M114.00133323669434,66.43800193763775L119.70139989852905,86.82574326345548L136.8015998840332,87.37107527478702L142.50166654586792,96.32082556502615L359.10419969558717,107.13443304451334L370.5043330192566,108.76202586537795L381.904466342926,116.79000274007632L393.30459966659544,129.87815525140556L592.8069328308105,171.188638205909L604.20706615448,190.9519959756353L627.0073328018188,195.12052179128239L644.107532787323,204.61560409285306L684.007999420166,216.2366499455095L792.3092659950257,231.21878130055796" fill="none"></path></g><g><path style="fill: none;" stroke="rgb(51, 187, 238)" stroke-width="2px" d="M114.00133323669434,54.088571412222734L119.70139989852905,84.1815818290163L125.40146656036376,84.69978242848975L142.50166654586792,89.04219394996375L148.20173320770263,107.13443304451334L153.90179986953737,136.47922714417695L171.0019998550415,165.9764147606812L233.70273313522338,171.188638205909L290.7033997535705,174.00439040357904L319.20373306274416,180.13839043623383" fill="none"></path></g><g><path style="fill: none;" stroke="rgb(238, 51, 119)" stroke-width="2px" d="M114.00133323669434,65.34920401229147L119.70139989852905,90.18683092149837L171.0019998550415,95.67387650198322L222.30259981155396,103.274979244706L233.70273313522338,112.17825422793447L239.4027997970581,113.06851064531412L250.80293312072752,113.97425054240625L256.50299978256226,120.79804193776539L262.203066444397,122.92400277273114L273.6031997680664,124.02043760618722L279.3032664299011,126.28509043077395L290.7033997535705,142.43757725219484L347.7040663719177,147.40121513595983L467.40546627044677,154.8537364663597L530.1061995506287,165.9764147606812L564.3065995216369,176.98113238352016L587.1068661689758,180.13839043623383L592.8069328308105,199.65196726731662L615.6071994781495,210.10264991285467L627.0073328018188,223.19080057648318L632.7073994636536,288.43316896406077L701.1081994056701,324.53142847333635" fill="none"></path></g><g><path style="fill: none;" stroke="rgb(204, 51, 17)" stroke-width="2px" d="M114.00133323669434,57.065309030141066L119.70139989852905,83.66848673237763L131.1015332221985,84.1815818290163L136.8015998840332,87.92217809691158L142.50166654586792,89.61136605341795L199.5023331642151,91.95238070710008L228.00266647338867,125.14045345923938L233.70273313522338,145.69356283650984L239.4027997970581,159.0222622820067L262.203066444397,163.55370775804104" fill="none"></path></g><g><path style="fill: none;" stroke="rgb(0, 119, 187)" stroke-width="2px" d="M114.00133323669434,78.7977625393807L119.70139989852905,87.92217809691158L125.40146656036376,90.18683092149837L131.1015332221985,99.68191378353822L136.8015998840332,122.92400277273114L148.20173320770263,136.47922714417695L171.0019998550415,154.8537364663597L199.5023331642151,159.0222622820067L245.10286645889283,163.55370775804104L934.8109325408935,165.9764147606812L986.111532497406,174.00439040357904L1054.5123324394226,199.65196726731662L1140.0133323669434,223.19080057648318L1333.8155988693236,240.71386360212864" fill="none"></path></g><g><path style="fill: none;" stroke="rgb(255, 112, 67)" stroke-width="2px" d="M114.00133323669434,64.63578561003106L119.70139989852905,80.21175155208994L125.40146656036376,84.69978242848975L136.8015998840332,85.22319115643808L142.50166654586792,88.47917517300715L153.90179986953737,93.1635685394167L159.60186653137208,96.32082556502615L165.3019331932068,114.89602204865633" fill="none"></path></g></g></g></g></g></g><g transform="translate(49, 378)" clip-path="url(#clip_1)"><clipPath id="clip_1"><rect width="1368" height="21"></rect></clipPath><g><g><line x1="0" y1="0" x2="0" y2="5" style="visibility: inherit;" fill="rgb(0, 0, 0)" stroke="rgb(204, 204, 204)" stroke-width="1px"></line><line x1="114.00133323669434" y1="0" x2="114.00133323669434" y2="5" style="visibility: inherit;" fill="rgb(0, 0, 0)" stroke="rgb(204, 204, 204)" stroke-width="1px"></line><line x1="228.00266647338867" y1="0" x2="228.00266647338867" y2="5" style="visibility: inherit;" fill="rgb(0, 0, 0)" stroke="rgb(204, 204, 204)" stroke-width="1px"></line><line x1="342.003999710083" y1="0" x2="342.003999710083" y2="5" style="visibility: inherit;" fill="rgb(0, 0, 0)" stroke="rgb(204, 204, 204)" stroke-width="1px"></line><line x1="456.00533294677734" y1="0" x2="456.00533294677734" y2="5" style="visibility: inherit;" fill="rgb(0, 0, 0)" stroke="rgb(204, 204, 204)" stroke-width="1px"></line><line x1="570.0066661834717" y1="0" x2="570.0066661834717" y2="5" style="visibility: inherit;" fill="rgb(0, 0, 0)" stroke="rgb(204, 204, 204)" stroke-width="1px"></line><line x1="684.007999420166" y1="0" x2="684.007999420166" y2="5" style="visibility: inherit;" fill="rgb(0, 0, 0)" stroke="rgb(204, 204, 204)" stroke-width="1px"></line><line x1="798.0093326568604" y1="0" x2="798.0093326568604" y2="5" style="visibility: inherit;" fill="rgb(0, 0, 0)" stroke="rgb(204, 204, 204)" stroke-width="1px"></line><line x1="912.0106658935547" y1="0" x2="912.0106658935547" y2="5" style="visibility: inherit;" fill="rgb(0, 0, 0)" stroke="rgb(204, 204, 204)" stroke-width="1px"></line><line x1="1026.011999130249" y1="0" x2="1026.011999130249" y2="5" style="visibility: inherit;" fill="rgb(0, 0, 0)" stroke="rgb(204, 204, 204)" stroke-width="1px"></line><line x1="1140.0133323669434" y1="0" x2="1140.0133323669434" y2="5" style="visibility: inherit;" fill="rgb(0, 0, 0)" stroke="rgb(204, 204, 204)" stroke-width="1px"></line><line x1="1254.0146656036377" y1="0" x2="1254.0146656036377" y2="5" style="visibility: inherit;" fill="rgb(0, 0, 0)" stroke="rgb(204, 204, 204)" stroke-width="1px"></line><line x1="1368.015998840332" y1="0" x2="1368.015998840332" y2="5" style="visibility: inherit;" fill="rgb(0, 0, 0)" stroke="rgb(204, 204, 204)" stroke-width="1px"></line></g><g transform="translate(0, 8)"><text style="text-anchor: middle; visibility: hidden; font-family: &quot;Helvetica Neue&quot;, sans-serif; font-size: 12px; font-weight: 200;" x="0" y="0" dx="0em" dy="0.95em" fill="rgb(50, 49, 63)" stroke="none" stroke-width="1px">-200</text><text style="text-anchor: middle; visibility: inherit; font-family: &quot;Helvetica Neue&quot;, sans-serif; font-size: 12px; font-weight: 200;" x="114.00133323669434" y="0" dx="0em" dy="0.95em" fill="rgb(50, 49, 63)" stroke="none" stroke-width="1px">0</text><text style="text-anchor: middle; visibility: inherit; font-family: &quot;Helvetica Neue&quot;, sans-serif; font-size: 12px; font-weight: 200;" x="228.00266647338867" y="0" dx="0em" dy="0.95em" fill="rgb(50, 49, 63)" stroke="none" stroke-width="1px">200</text><text style="text-anchor: middle; visibility: inherit; font-family: &quot;Helvetica Neue&quot;, sans-serif; font-size: 12px; font-weight: 200;" x="342.003999710083" y="0" dx="0em" dy="0.95em" fill="rgb(50, 49, 63)" stroke="none" stroke-width="1px">400</text><text style="text-anchor: middle; visibility: inherit; font-family: &quot;Helvetica Neue&quot;, sans-serif; font-size: 12px; font-weight: 200;" x="456.00533294677734" y="0" dx="0em" dy="0.95em" fill="rgb(50, 49, 63)" stroke="none" stroke-width="1px">600</text><text style="text-anchor: middle; visibility: inherit; font-family: &quot;Helvetica Neue&quot;, sans-serif; font-size: 12px; font-weight: 200;" x="570.0066661834717" y="0" dx="0em" dy="0.95em" fill="rgb(50, 49, 63)" stroke="none" stroke-width="1px">800</text><text style="text-anchor: middle; visibility: inherit; font-family: &quot;Helvetica Neue&quot;, sans-serif; font-size: 12px; font-weight: 200;" x="684.007999420166" y="0" dx="0em" dy="0.95em" fill="rgb(50, 49, 63)" stroke="none" stroke-width="1px">1k</text><text style="text-anchor: middle; visibility: inherit; font-family: &quot;Helvetica Neue&quot;, sans-serif; font-size: 12px; font-weight: 200;" x="798.0093326568604" y="0" dx="0em" dy="0.95em" fill="rgb(50, 49, 63)" stroke="none" stroke-width="1px">1.2k</text><text style="text-anchor: middle; visibility: inherit; font-family: &quot;Helvetica Neue&quot;, sans-serif; font-size: 12px; font-weight: 200;" x="912.0106658935547" y="0" dx="0em" dy="0.95em" fill="rgb(50, 49, 63)" stroke="none" stroke-width="1px">1.4k</text><text style="text-anchor: middle; visibility: inherit; font-family: &quot;Helvetica Neue&quot;, sans-serif; font-size: 12px; font-weight: 200;" x="1026.011999130249" y="0" dx="0em" dy="0.95em" fill="rgb(50, 49, 63)" stroke="none" stroke-width="1px">1.6k</text><text style="text-anchor: middle; visibility: inherit; font-family: &quot;Helvetica Neue&quot;, sans-serif; font-size: 12px; font-weight: 200;" x="1140.0133323669434" y="0" dx="0em" dy="0.95em" fill="rgb(50, 49, 63)" stroke="none" stroke-width="1px">1.8k</text><text style="text-anchor: middle; visibility: inherit; font-family: &quot;Helvetica Neue&quot;, sans-serif; font-size: 12px; font-weight: 200;" x="1254.0146656036377" y="0" dx="0em" dy="0.95em" fill="rgb(50, 49, 63)" stroke="none" stroke-width="1px">2k</text><text style="text-anchor: middle; visibility: hidden; font-family: &quot;Helvetica Neue&quot;, sans-serif; font-size: 12px; font-weight: 200;" x="1368.015998840332" y="0" dx="0em" dy="0.95em" fill="rgb(50, 49, 63)" stroke="none" stroke-width="1px">2.2k</text></g><line x1="0" y1="0" x2="1368.015998840332" y2="0" fill="rgb(0, 0, 0)" stroke="rgb(204, 204, 204)" stroke-width="1px"></line></g></g></g></g></svg>