<svg viewBox="0 0 1418 400" xmlns="http://www.w3.org/2000/svg"><g><g><g><g><g><line x1="49.98400115966797" y1="362.1189750294561" x2="44.98400115966797" y2="362.1189750294561" style="visibility: inherit;" fill="rgb(0, 0, 0)" stroke="rgb(204, 204, 204)" stroke-width="1px"></line><line x1="49.98400115966797" y1="345.6834175865207" x2="44.98400115966797" y2="345.6834175865207" style="visibility: inherit;" fill="rgb(0, 0, 0)" stroke="rgb(204, 204, 204)" stroke-width="1px"></line><line x1="49.98400115966797" y1="331.18622849648284" x2="44.98400115966797" y2="331.18622849648284" style="visibility: inherit;" fill="rgb(0, 0, 0)" stroke="rgb(204, 204, 204)" stroke-width="1px"></line><line x1="49.98400115966797" y1="318.2180509520401" x2="44.98400115966797" y2="318.2180509520401" style="visibility: inherit;" fill="rgb(0, 0, 0)" stroke="rgb(204, 204, 204)" stroke-width="1px"></line><line x1="49.98400115966797" y1="232.90282972510622" x2="44.98400115966797" y2="232.90282972510622" style="visibility: inherit;" fill="rgb(0, 0, 0)" stroke="rgb(204, 204, 204)" stroke-width="1px"></line><line x1="49.98400115966797" y1="182.9966245666203" x2="44.98400115966797" y2="182.9966245666203" style="visibility: inherit;" fill="rgb(0, 0, 0)" stroke="rgb(204, 204, 204)" stroke-width="1px"></line><line x1="49.98400115966797" y1="147.5876084981724" x2="44.98400115966797" y2="147.5876084981724" style="visibility: inherit;" fill="rgb(0, 0, 0)" stroke="rgb(204, 204, 204)" stroke-width="1px"></line><line x1="49.98400115966797" y1="120.12224186369173" x2="44.98400115966797" y2="120.12224186369173" style="visibility: inherit;" fill="rgb(0, 0, 0)" stroke="rgb(204, 204, 204)" stroke-width="1px"></line><line x1="49.98400115966797" y1="97.68140333968654" x2="44.98400115966797" y2="97.68140333968654" style="visibility: inherit;" fill="rgb(0, 0, 0)" stroke="rgb(204, 204, 204)" stroke-width="1px"></line><line x1="49.98400115966797" y1="78.70794471417395" x2="44.98400115966797" y2="78.70794471417395" style="visibility: inherit;" fill="rgb(0, 0, 0)" stroke="rgb(204, 204, 204)" stroke-width="1px"></line><line x1="49.98400115966797" y1="62.272387271238586" x2="44.98400115966797" y2="62.272387271238586" style="visibility: inherit;" fill="rgb(0, 0, 0)" stroke="rgb(204, 204, 204)" stroke-width="1px"></line><line x1="49.98400115966797" y1="47.775198181200665" x2="44.98400115966797" y2="47.775198181200665" style="visibility: inherit;" fill="rgb(0, 0, 0)" stroke="rgb(204, 204, 204)" stroke-width="1px"></line><line x1="49.98400115966797" y1="34.8070206367579" x2="44.98400115966797" y2="34.8070206367579" style="visibility: inherit;" fill="rgb(0, 0, 0)" stroke="rgb(204, 204, 204)" stroke-width="1px"></line></g><g transform="translate(39.98400115966797, 0)"><text style="text-anchor: end; visibility: inherit; font-family: &quot;Helvetica Neue&quot;, sans-serif; font-size: 12px; font-weight: 200;" x="0" y="362.1189750294561" dx="0em" dy="0.3em" fill="rgb(50, 49, 63)" stroke="none" stroke-width="1px">0.07</text><text style="text-anchor: end; visibility: hidden; font-family: &quot;Helvetica Neue&quot;, sans-serif; font-size: 12px; font-weight: 200;" x="0" y="345.6834175865207" dx="0em" dy="0.3em" fill="rgb(50, 49, 63)" stroke="none" stroke-width="1px">0.08</text><text style="text-anchor: end; visibility: inherit; font-family: &quot;Helvetica Neue&quot;, sans-serif; font-size: 12px; font-weight: 200;" x="0" y="331.18622849648284" dx="0em" dy="0.3em" fill="rgb(50, 49, 63)" stroke="none" stroke-width="1px">0.09</text><text style="text-anchor: end; visibility: hidden; font-family: &quot;Helvetica Neue&quot;, sans-serif; font-size: 12px; font-weight: 200;" x="0" y="318.2180509520401" dx="0em" dy="0.3em" fill="rgb(50, 49, 63)" stroke="none" stroke-width="1px">0.1</text><text style="text-anchor: end; visibility: inherit; font-family: &quot;Helvetica Neue&quot;, sans-serif; font-size: 12px; font-weight: 200;" x="0" y="232.90282972510622" dx="0em" dy="0.3em" fill="rgb(50, 49, 63)" stroke="none" stroke-width="1px">0.2</text><text style="text-anchor: end; visibility: hidden; font-family: &quot;Helvetica Neue&quot;, sans-serif; font-size: 12px; font-weight: 200;" x="0" y="182.9966245666203" dx="0em" dy="0.3em" fill="rgb(50, 49, 63)" stroke="none" stroke-width="1px">0.3</text><text style="text-anchor: end; visibility: inherit; font-family: &quot;Helvetica Neue&quot;, sans-serif; font-size: 12px; font-weight: 200;" x="0" y="147.5876084981724" dx="0em" dy="0.3em" fill="rgb(50, 49, 63)" stroke="none" stroke-width="1px">0.4</text><text style="text-anchor: end; visibility: hidden; font-family: &quot;Helvetica Neue&quot;, sans-serif; font-size: 12px; font-weight: 200;" x="0" y="120.12224186369173" dx="0em" dy="0.3em" fill="rgb(50, 49, 63)" stroke="none" stroke-width="1px">0.5</text><text style="text-anchor: end; visibility: inherit; font-family: &quot;Helvetica Neue&quot;, sans-serif; font-size: 12px; font-weight: 200;" x="0" y="97.68140333968654" dx="0em" dy="0.3em" fill="rgb(50, 49, 63)" stroke="none" stroke-width="1px">0.6</text><text style="text-anchor: end; visibility: hidden; font-family: &quot;Helvetica Neue&quot;, sans-serif; font-size: 12px; font-weight: 200;" x="0" y="78.70794471417395" dx="0em" dy="0.3em" fill="rgb(50, 49, 63)" stroke="none" stroke-width="1px">0.7</text><text style="text-anchor: end; visibility: inherit; font-family: &quot;Helvetica Neue&quot;, sans-serif; font-size: 12px; font-weight: 200;" x="0" y="62.272387271238586" dx="0em" dy="0.3em" fill="rgb(50, 49, 63)" stroke="none" stroke-width="1px">0.8</text><text style="text-anchor: end; visibility: hidden; font-family: &quot;Helvetica Neue&quot;, sans-serif; font-size: 12px; font-weight: 200;" x="0" y="47.775198181200665" dx="0em" dy="0.3em" fill="rgb(50, 49, 63)" stroke="none" stroke-width="1px">0.9</text><text style="text-anchor: end; visibility: inherit; font-family: &quot;Helvetica Neue&quot;, sans-serif; font-size: 12px; font-weight: 200;" x="0" y="34.8070206367579" dx="0em" dy="0.3em" fill="rgb(50, 49, 63)" stroke="none" stroke-width="1px">1</text></g><line x1="49.98400115966797" y1="0" x2="49.98400115966797" y2="378.6199998855591" fill="rgb(0, 0, 0)" stroke="rgb(204, 204, 204)" stroke-width="1px"></line></g></g><g transform="translate(49, 0)" clip-path="url(#clip_0)"><clipPath id="clip_0"><rect width="1368" height="378"></rect></clipPath><g><g><g><line x1="0" y1="0" x2="0" y2="378.6199998855591" fill="rgb(0, 0, 0)" stroke="rgb(60, 60, 60)" stroke-width="1px" opacity="0.25"></line><line x1="152.00177764892578" y1="0" x2="152.00177764892578" y2="378.6199998855591" fill="rgb(0, 0, 0)" stroke="rgb(60, 60, 60)" stroke-width="1px" opacity="0.25"></line><line x1="304.00355529785156" y1="0" x2="304.00355529785156" y2="378.6199998855591" fill="rgb(0, 0, 0)" stroke="rgb(60, 60, 60)" stroke-width="1px" opacity="0.25"></line><line x1="456.00533294677734" y1="0" x2="456.00533294677734" y2="378.6199998855591" fill="rgb(0, 0, 0)" stroke="rgb(60, 60, 60)" stroke-width="1px" opacity="0.25"></line><line x1="608.0071105957031" y1="0" x2="608.0071105957031" y2="378.6199998855591" fill="rgb(0, 0, 0)" stroke="rgb(60, 60, 60)" stroke-width="1px" opacity="0.25"></line><line x1="760.0088882446289" y1="0" x2="760.0088882446289" y2="378.6199998855591" fill="rgb(0, 0, 0)" stroke="rgb(60, 60, 60)" stroke-width="1px" opacity="0.25"></line><line x1="912.0106658935547" y1="0" x2="912.0106658935547" y2="378.6199998855591" fill="rgb(0, 0, 0)" stroke="rgb(60, 60, 60)" stroke-width="1px" opacity="0.25"></line><line x1="1064.0124435424805" y1="0" x2="1064.0124435424805" y2="378.6199998855591" fill="rgb(0, 0, 0)" stroke="rgb(60, 60, 60)" stroke-width="1px" opacity="0.25"></line><line x1="1216.0142211914062" y1="0" x2="1216.0142211914062" y2="378.6199998855591" fill="rgb(0, 0, 0)" stroke="rgb(60, 60, 60)" stroke-width="1px" opacity="0.25"></line><line x1="1368.015998840332" y1="0" x2="1368.015998840332" y2="378.6199998855591" fill="rgb(0, 0, 0)" stroke="rgb(60, 60, 60)" stroke-width="1px" opacity="0.25"></line></g><g><line x1="0" y1="362.1189750294561" x2="1368.015998840332" y2="362.1189750294561" fill="rgb(0, 0, 0)" stroke="rgb(60, 60, 60)" stroke-width="1px" opacity="0.25"></line><line x1="0" y1="345.6834175865207" x2="1368.015998840332" y2="345.6834175865207" fill="rgb(0, 0, 0)" stroke="rgb(60, 60, 60)" stroke-width="1px" opacity="0.25"></line><line x1="0" y1="331.18622849648284" x2="1368.015998840332" y2="331.18622849648284" fill="rgb(0, 0, 0)" stroke="rgb(60, 60, 60)" stroke-width="1px" opacity="0.25"></line><line x1="0" y1="318.2180509520401" x2="1368.015998840332" y2="318.2180509520401" fill="rgb(0, 0, 0)" stroke="rgb(60, 60, 60)" stroke-width="1px" opacity="0.25"></line><line x1="0" y1="232.90282972510622" x2="1368.015998840332" y2="232.90282972510622" fill="rgb(0, 0, 0)" stroke="rgb(60, 60, 60)" stroke-width="1px" opacity="0.25"></line><line x1="0" y1="182.9966245666203" x2="1368.015998840332" y2="182.9966245666203" fill="rgb(0, 0, 0)" stroke="rgb(60, 60, 60)" stroke-width="1px" opacity="0.25"></line><line x1="0" y1="147.5876084981724" x2="1368.015998840332" y2="147.5876084981724" fill="rgb(0, 0, 0)" stroke="rgb(60, 60, 60)" stroke-width="1px" opacity="0.25"></line><line x1="0" y1="120.12224186369173" x2="1368.015998840332" y2="120.12224186369173" fill="rgb(0, 0, 0)" stroke="rgb(60, 60, 60)" stroke-width="1px" opacity="0.25"></line><line x1="0" y1="97.68140333968654" x2="1368.015998840332" y2="97.68140333968654" fill="rgb(0, 0, 0)" stroke="rgb(60, 60, 60)" stroke-width="1px" opacity="0.25"></line><line x1="0" y1="78.70794471417395" x2="1368.015998840332" y2="78.70794471417395" fill="rgb(0, 0, 0)" stroke="rgb(60, 60, 60)" stroke-width="1px" opacity="0.25"></line><line x1="0" y1="62.272387271238586" x2="1368.015998840332" y2="62.272387271238586" fill="rgb(0, 0, 0)" stroke="rgb(60, 60, 60)" stroke-width="1px" opacity="0.25"></line><line x1="0" y1="47.775198181200665" x2="1368.015998840332" y2="47.775198181200665" fill="rgb(0, 0, 0)" stroke="rgb(60, 60, 60)" stroke-width="1px" opacity="0.25"></line><line x1="0" y1="34.8070206367579" x2="1368.015998840332" y2="34.8070206367579" fill="rgb(0, 0, 0)" stroke="rgb(60, 60, 60)" stroke-width="1px" opacity="0.25"></line></g></g></g><g><g><line x1="152.00177764892578" y1="0" x2="152.00177764892578" y2="378.6199998855591" fill="rgb(0, 0, 0)" stroke="rgb(153, 153, 153)" stroke-width="1.5px"></line></g></g><g><g><g><g><g><path style="fill: none;" stroke="rgb(51, 187, 238)" stroke-width="2px" d="M152.00177764892578,55.53663194657139L174.80204429626463,57.74118432645258L190.00222206115723,64.79826950821865" fill="none"></path></g><g><path style="fill: none;" stroke="rgb(204, 51, 17)" stroke-width="2px" d="M152.00177764892578,54.08857141222268L167.20195541381835,57.74118432645258L182.40213317871093,61.88834853418251L205.2023998260498,66.37882065000429L220.4025775909424,66.77715021404697" fill="none"></path></g><g><path style="fill: none;" stroke="rgb(0, 119, 187)" stroke-width="2px" d="M152.00177764892578,95.64691038786782L159.60186653137208,111.79454912172218L167.20195541381835,138.68610123664013L235.60275535583497,143.05640555338638L266.0031108856201,158.85804768155677L281.20328865051266,169.41455816209404L288.80337753295896,187.16936149346867L296.40346641540526,189.31000208791664L357.2041774749756,200.6100313649371L402.80471076965335,210.4619939522394" fill="none"></path></g><g><path style="fill: none;" stroke="rgb(255, 112, 67)" stroke-width="2px" d="M152.00177764892578,77.83190231703355L159.60186653137208,135.85646561690635L235.60275535583497,138.68610123664013L243.20284423828127,153.90098601946866L281.20328865051266,157.1834133210514L304.00355529785156,178.96072609837836L319.20373306274416,189.31000208791664" fill="none"></path></g><g><path style="fill: none;" stroke="rgb(187, 187, 187)" stroke-width="2px" d="M152.00177764892578,93.64550487144453L159.60186653137208,114.11696637223645L167.20195541381835,129.05452093989248L190.00222206115723,131.73035951899476L205.2023998260498,135.85646561690635L220.4025775909424,137.26315211867873L228.00266647338867,146.05859659028738L281.20328865051266,147.5876066640802L288.80337753295896,182.9966196757078L387.60453300476075,215.70039001976872L395.204621887207,218.40564389567677L425.6049774169922,226.89755248689644L433.20506629943844,232.90282789101403L516.8060440063476,249.33838926414708L1003.2117324829101,260.3681991107253" fill="none"></path></g><g><path style="fill: none;" stroke="rgb(0, 153, 136)" stroke-width="2px" d="M152.00177764892578,78.7079468102794L159.60186653137208,129.05452093989248L197.6023109436035,143.05640555338638L205.2023998260498,164.02316803721322L212.8024887084961,185.06531481005646L228.00266647338867,205.43746309062556L243.20284423828127,207.92408762297484L311.60364418029786,215.70039001976872L319.20373306274416,245.87100237863643L874.0102214813231,260.3681991107253" fill="none"></path></g><g><path style="fill: none;" stroke="rgb(238, 51, 119)" stroke-width="2px" d="M152.00177764892578,65.38860497951737L159.60186653137208,112.9502871602424L167.20195541381835,114.11696637223645L174.80204429626463,115.29481013800324L182.40213317871093,137.26315211867873L190.00222206115723,178.96072609837836L197.6023109436035,185.06531481005646L220.4025775909424,232.90282789101403L592.8069328308105,236.01904743338508L615.6071994781495,239.21620724640252L684.007999420166,242.49863454798526L691.6080883026123,252.90628341452464" fill="none"></path></g><g><path style="fill: none;" stroke="rgb(51, 187, 238)" stroke-width="2px" d="M152.00177764892578,59.233126605208724L159.60186653137208,122.60886639604104L167.20195541381835,133.09042266874295L205.2023998260498,182.9966196757078L304.00355529785156,193.70631687464643L319.20373306274416,218.40564389567677L349.60408859252925,236.01904743338508L501.60586624145503,242.49863454798526" fill="none"></path></g><g><path style="fill: none;" stroke="rgb(204, 51, 17)" stroke-width="2px" d="M152.00177764892578,85.02131671940344L159.60186653137208,123.87127465421153L212.8024887084961,149.13585005428465L220.4025775909424,224.00132246357396L494.0057773590088,242.49863454798526" fill="none"></path></g><g><path style="fill: none;" stroke="rgb(0, 119, 187)" stroke-width="2px" d="M152.00177764892578,57.74118432645258L159.60186653137208,107.27720816256556L167.20195541381835,133.09042266874295L190.00222206115723,158.85804768155677L205.2023998260498,169.41455816209404L235.60275535583497,185.06531481005646L288.80337753295896,205.43746309062556L372.40435523986815,210.4619939522394L433.20506629943844,226.89755248689644L532.0062217712402,249.33838926414708" fill="none"></path></g><g><path style="fill: none;" stroke="rgb(255, 112, 67)" stroke-width="2px" d="M152.00177764892578,105.0792260279132L159.60186653137208,121.35927467425L167.20195541381835,123.87127465421153L174.80204429626463,127.73810487397012L182.40213317871093,133.09042266874295L197.6023109436035,169.41455816209404L228.00266647338867,195.96479722015056L235.60275535583497,229.8635690590764L243.20284423828127,239.21620724640252L258.4030220031738,318.2180491179478" fill="none"></path></g><g><path style="fill: none;" stroke="rgb(187, 187, 187)" stroke-width="2px" d="M152.00177764892578,100.79762104796532L159.60186653137208,121.35927467425L167.20195541381835,131.73035951899476L182.40213317871093,146.05859659028738L190.00222206115723,182.9966196757078L197.6023109436035,185.06531481005646L212.8024887084961,195.96479722015056L250.80293312072752,213.053326100904L296.40346641540526,229.8635690590764" fill="none"></path></g><g><path style="fill: none;" stroke="rgb(0, 153, 136)" stroke-width="2px" d="M152.00177764892578,84.09933693516024L159.60186653137208,129.05452093989248L174.80204429626463,146.05859659028738L228.00266647338867,167.59106218759084L235.60275535583497,171.2654761274992L243.20284423828127,218.40564389567677L273.6031997680664,224.00132246357396L311.60364418029786,249.33838926414708" fill="none"></path></g><g><path style="fill: none;" stroke="rgb(238, 51, 119)" stroke-width="2px" d="M152.00177764892578,85.95025490056537L159.60186653137208,126.43561938498803L174.80204429626463,213.053326100904L250.80293312072752,215.70039001976872L288.80337753295896,232.90282789101403L326.80382194519046,245.87100237863643L676.4079105377198,260.3681991107253L881.6103103637696,264.2759473253122" fill="none"></path></g><g><path style="fill: none;" stroke="rgb(51, 187, 238)" stroke-width="2px" d="M152.00177764892578,95.64691038786782L159.60186653137208,116.48403420250048L167.20195541381835,126.43561938498803L174.80204429626463,155.53125793213968L190.00222206115723,182.9966196757078L197.6023109436035,185.06531481005646L220.4025775909424,187.16936149346867L228.00266647338867,205.43746309062556L304.00355529785156,249.33838926414708" fill="none"></path></g><g><path style="fill: none;" stroke="rgb(204, 51, 17)" stroke-width="2px" d="M152.00177764892578,94.64213969139291L159.60186653137208,123.87127465421153L167.20195541381835,126.43561938498803L190.00222206115723,130.3851687928349L228.00266647338867,134.46567420305328L235.60275535583497,150.70382620645123L296.40346641540526,152.29202544177983L676.4079105377198,157.1834133210514L684.007999420166,171.2654761274992L699.2081771850585,203.00008185229808L706.808266067505,207.92408762297484L737.20862159729,224.00132246357396L752.4087993621827,264.2759473253122L813.209510421753,276.80375327849595L889.2103992462158,301.0156112467025" fill="none"></path></g><g><path style="fill: none;" stroke="rgb(0, 119, 187)" stroke-width="2px" d="M152.00177764892578,90.70312420553785L159.60186653137208,120.12224186369173L182.40213317871093,150.70382620645123L212.8024887084961,178.96072609837836L258.4030220031738,193.70631687464643L266.0031108856201,198.2655083871762L273.6031997680664,229.8635690590764L767.6089771270751,232.90282789101403L927.2108436584473,236.01904743338508L934.8109325408935,239.21620724640252L1003.2117324829101,245.87100237863643L1018.4119102478028,256.580697354433L1041.2121768951415,268.3118409026416" fill="none"></path></g><g><path style="fill: none;" stroke="rgb(187, 187, 187)" stroke-width="2px" d="M152.00177764892578,101.85414026653484L159.60186653137208,120.12224186369173L167.20195541381835,125.14677272530557L197.6023109436035,131.73035951899476L205.2023998260498,137.26315211867873L288.80337753295896,149.13585005428465L296.40346641540526,176.99134441715296L410.4047996520996,229.8635690590764L418.00488853454596,236.01904743338508L440.8051551818848,260.3681991107253L714.4083549499512,272.4845827204025L1026.011999130249,312.21277371383025" fill="none"></path></g><g><path style="fill: none;" stroke="rgb(255, 112, 67)" stroke-width="2px" d="M152.00177764892578,80.4789662924536L159.60186653137208,118.89751802977258L167.20195541381835,121.35927467425L174.80204429626463,123.87127465421153L182.40213317871093,134.46567420305328L212.8024887084961,138.68610123664013L235.60275535583497,144.54834783214258L273.6031997680664,158.85804768155677L456.00533294677734,169.41455816209404L501.60586624145503,205.43746309062556L516.8060440063476,207.92408762297484L638.4074661254883,221.1716868438402L646.0075550079346,224.00132246357396L714.4083549499512,229.8635690590764L813.209510421753,239.21620724640252L851.2099548339844,285.92525259187096L988.0115547180176,324.53142847333635" fill="none"></path></g><g><path style="fill: none;" stroke="rgb(0, 153, 136)" stroke-width="2px" d="M152.00177764892578,72.70266123755516L159.60186653137208,125.14677272530557L212.8024887084961,135.85646561690635L228.00266647338867,178.96072609837836L250.80293312072752,187.16936149346867L258.4030220031738,198.2655083871762L281.20328865051266,249.33838926414708L304.00355529785156,252.90628341452464" fill="none"></path></g><g><path style="fill: none;" stroke="rgb(238, 51, 119)" stroke-width="2px" d="M152.00177764892578,63.04407277361929L159.60186653137208,120.12224186369173L174.80204429626463,129.05452093989248L205.2023998260498,140.12569339535463" fill="none"></path></g><g><path style="fill: none;" stroke="rgb(51, 187, 238)" stroke-width="2px" d="M152.00177764892578,80.4789662924536L159.60186653137208,105.0792260279132L167.20195541381835,120.12224186369173L174.80204429626463,127.73810487397012L212.8024887084961,133.09042266874295L228.00266647338867,167.59106218759084L372.40435523986815,169.41455816209404" fill="none"></path></g><g><path style="fill: none;" stroke="rgb(204, 51, 17)" stroke-width="2px" d="M152.00177764892578,101.85414026653484L159.60186653137208,129.05452093989248L174.80204429626463,131.73035951899476L190.00222206115723,144.54834783214258L197.6023109436035,157.1834133210514L205.2023998260498,176.99134441715296L212.8024887084961,232.90282789101403" fill="none"></path></g><g><path style="fill: none;" stroke="rgb(0, 119, 187)" stroke-width="2px" d="M152.00177764892578,86.88626851175405L159.60186653137208,129.05452093989248L167.20195541381835,134.46567420305328L205.2023998260498,140.12569339535463L212.8024887084961,146.05859659028738L258.4030220031738,162.2772702238641L304.00355529785156,165.7941875193875L311.60364418029786,175.05297788379144L326.80382194519046,213.053326100904L349.60408859252925,272.4845827204025" fill="none"></path></g><g><path style="fill: none;" stroke="rgb(255, 112, 67)" stroke-width="2px" d="M152.00177764892578,85.95025490056537L159.60186653137208,121.35927467425L197.6023109436035,150.70382620645123L205.2023998260498,182.9966196757078L220.4025775909424,189.31000208791664L228.00266647338867,226.89755248689644L463.60542182922364,229.8635690590764L539.6063106536865,242.49863454798526L608.0071105957031,260.3681991107253" fill="none"></path></g><g><path style="fill: none;" stroke="rgb(187, 187, 187)" stroke-width="2px" d="M152.00177764892578,96.659950886881L159.60186653137208,112.9502871602424L167.20195541381835,138.68610123664013L190.00222206115723,191.48853205156212L220.4025775909424,198.2655083871762L364.80426635742185,224.00132246357396" fill="none"></path></g><g><path style="fill: none;" stroke="rgb(238, 51, 119)" stroke-width="2px" d="M152.00177764892578,90.70312420553785L159.60186653137208,122.60886639604104L174.80204429626463,123.87127465421153L182.40213317871093,125.14677272530557L220.4025775909424,131.73035951899476L266.0031108856201,158.85804768155677L395.204621887207,162.2772702238641L433.20506629943844,164.02316803721322L448.40524406433104,165.7941875193875L456.00533294677734,205.43746309062556L486.40568847656255,221.1716868438402L524.406132888794,224.00132246357396L539.6063106536865,239.21620724640252L570.0066661834717,264.2759473253122" fill="none"></path></g><g><path style="fill: none;" stroke="rgb(0, 153, 136)" stroke-width="2px" d="M152.00177764892578,112.9502871602424L159.60186653137208,123.87127465421153L167.20195541381835,141.5823312599626L197.6023109436035,176.99134441715296L250.80293312072752,207.92408762297484L349.60408859252925,226.89755248689644" fill="none"></path></g><g><path style="fill: none;" stroke="rgb(204, 51, 17)" stroke-width="2px" d="M152.00177764892578,90.70312420553785L159.60186653137208,121.35927467425L182.40213317871093,165.7941875193875L190.00222206115723,193.70631687464643L220.4025775909424,218.40564389567677L334.4039108276367,232.90282789101403" fill="none"></path></g><g><path style="fill: none;" stroke="rgb(51, 187, 238)" stroke-width="2px" d="M152.00177764892578,71.03934230871215L159.60186653137208,120.12224186369173L167.20195541381835,121.35927467425L174.80204429626463,129.05452093989248L182.40213317871093,146.05859659028738L190.00222206115723,180.96213161480165L205.2023998260498,193.70631687464643L243.20284423828127,215.70039001976872L1185.613865661621,224.00132246357396L1200.8140434265138,245.87100237863643" fill="none"></path></g><g><path style="fill: none;" stroke="rgb(0, 119, 187)" stroke-width="2px" d="M152.00177764892578,82.27584096065698L159.60186653137208,126.43561938498803L190.00222206115723,150.70382620645123L205.2023998260498,158.85804768155677L212.8024887084961,162.2772702238641L220.4025775909424,203.00008185229808L243.20284423828127,210.4619939522394L349.60408859252925,221.1716868438402L463.60542182922364,224.00132246357396" fill="none"></path></g><g><path style="fill: none;" stroke="rgb(255, 112, 67)" stroke-width="2px" d="M152.00177764892578,94.64213969139291L159.60186653137208,129.05452093989248L182.40213317871093,138.68610123664013L228.00266647338867,143.05640555338638L311.60364418029786,146.05859659028738L319.20373306274416,215.70039001976872L334.4039108276367,236.01904743338508L380.00444412231445,252.90628341452464L896.8104881286621,256.580697354433" fill="none"></path></g></g></g></g></g></g><g transform="translate(49, 378)" clip-path="url(#clip_1)"><clipPath id="clip_1"><rect width="1368" height="21"></rect></clipPath><g><g><line x1="0" y1="0" x2="0" y2="5" style="visibility: inherit;" fill="rgb(0, 0, 0)" stroke="rgb(204, 204, 204)" stroke-width="1px"></line><line x1="152.00177764892578" y1="0" x2="152.00177764892578" y2="5" style="visibility: inherit;" fill="rgb(0, 0, 0)" stroke="rgb(204, 204, 204)" stroke-width="1px"></line><line x1="304.00355529785156" y1="0" x2="304.00355529785156" y2="5" style="visibility: inherit;" fill="rgb(0, 0, 0)" stroke="rgb(204, 204, 204)" stroke-width="1px"></line><line x1="456.00533294677734" y1="0" x2="456.00533294677734" y2="5" style="visibility: inherit;" fill="rgb(0, 0, 0)" stroke="rgb(204, 204, 204)" stroke-width="1px"></line><line x1="608.0071105957031" y1="0" x2="608.0071105957031" y2="5" style="visibility: inherit;" fill="rgb(0, 0, 0)" stroke="rgb(204, 204, 204)" stroke-width="1px"></line><line x1="760.0088882446289" y1="0" x2="760.0088882446289" y2="5" style="visibility: inherit;" fill="rgb(0, 0, 0)" stroke="rgb(204, 204, 204)" stroke-width="1px"></line><line x1="912.0106658935547" y1="0" x2="912.0106658935547" y2="5" style="visibility: inherit;" fill="rgb(0, 0, 0)" stroke="rgb(204, 204, 204)" stroke-width="1px"></line><line x1="1064.0124435424805" y1="0" x2="1064.0124435424805" y2="5" style="visibility: inherit;" fill="rgb(0, 0, 0)" stroke="rgb(204, 204, 204)" stroke-width="1px"></line><line x1="1216.0142211914062" y1="0" x2="1216.0142211914062" y2="5" style="visibility: inherit;" fill="rgb(0, 0, 0)" stroke="rgb(204, 204, 204)" stroke-width="1px"></line><line x1="1368.015998840332" y1="0" x2="1368.015998840332" y2="5" style="visibility: inherit;" fill="rgb(0, 0, 0)" stroke="rgb(204, 204, 204)" stroke-width="1px"></line></g><g transform="translate(0, 8)"><text style="text-anchor: middle; visibility: hidden; font-family: &quot;Helvetica Neue&quot;, sans-serif; font-size: 12px; font-weight: 200;" x="0" y="0" dx="0em" dy="0.95em" fill="rgb(50, 49, 63)" stroke="none" stroke-width="1px">-200</text><text style="text-anchor: middle; visibility: inherit; font-family: &quot;Helvetica Neue&quot;, sans-serif; font-size: 12px; font-weight: 200;" x="152.00177764892578" y="0" dx="0em" dy="0.95em" fill="rgb(50, 49, 63)" stroke="none" stroke-width="1px">0</text><text style="text-anchor: middle; visibility: inherit; font-family: &quot;Helvetica Neue&quot;, sans-serif; font-size: 12px; font-weight: 200;" x="304.00355529785156" y="0" dx="0em" dy="0.95em" fill="rgb(50, 49, 63)" stroke="none" stroke-width="1px">200</text><text style="text-anchor: middle; visibility: inherit; font-family: &quot;Helvetica Neue&quot;, sans-serif; font-size: 12px; font-weight: 200;" x="456.00533294677734" y="0" dx="0em" dy="0.95em" fill="rgb(50, 49, 63)" stroke="none" stroke-width="1px">400</text><text style="text-anchor: middle; visibility: inherit; font-family: &quot;Helvetica Neue&quot;, sans-serif; font-size: 12px; font-weight: 200;" x="608.0071105957031" y="0" dx="0em" dy="0.95em" fill="rgb(50, 49, 63)" stroke="none" stroke-width="1px">600</text><text style="text-anchor: middle; visibility: inherit; font-family: &quot;Helvetica Neue&quot;, sans-serif; font-size: 12px; font-weight: 200;" x="760.0088882446289" y="0" dx="0em" dy="0.95em" fill="rgb(50, 49, 63)" stroke="none" stroke-width="1px">800</text><text style="text-anchor: middle; visibility: inherit; font-family: &quot;Helvetica Neue&quot;, sans-serif; font-size: 12px; font-weight: 200;" x="912.0106658935547" y="0" dx="0em" dy="0.95em" fill="rgb(50, 49, 63)" stroke="none" stroke-width="1px">1k</text><text style="text-anchor: middle; visibility: inherit; font-family: &quot;Helvetica Neue&quot;, sans-serif; font-size: 12px; font-weight: 200;" x="1064.0124435424805" y="0" dx="0em" dy="0.95em" fill="rgb(50, 49, 63)" stroke="none" stroke-width="1px">1.2k</text><text style="text-anchor: middle; visibility: inherit; font-family: &quot;Helvetica Neue&quot;, sans-serif; font-size: 12px; font-weight: 200;" x="1216.0142211914062" y="0" dx="0em" dy="0.95em" fill="rgb(50, 49, 63)" stroke="none" stroke-width="1px">1.4k</text><text style="text-anchor: middle; visibility: hidden; font-family: &quot;Helvetica Neue&quot;, sans-serif; font-size: 12px; font-weight: 200;" x="1368.015998840332" y="0" dx="0em" dy="0.95em" fill="rgb(50, 49, 63)" stroke="none" stroke-width="1px">1.6k</text></g><line x1="0" y1="0" x2="1368.015998840332" y2="0" fill="rgb(0, 0, 0)" stroke="rgb(204, 204, 204)" stroke-width="1px"></line></g></g></g></g></svg>