<svg viewBox="0 0 1418 400" xmlns="http://www.w3.org/2000/svg"><g><g><g><g><g><line x1="49.98400115966797" y1="372.1872215466037" x2="44.98400115966797" y2="372.1872215466037" style="visibility: inherit;" fill="rgb(0, 0, 0)" stroke="rgb(204, 204, 204)" stroke-width="1px"></line><line x1="49.98400115966797" y1="351.099196654914" x2="44.98400115966797" y2="351.099196654914" style="visibility: inherit;" fill="rgb(0, 0, 0)" stroke="rgb(204, 204, 204)" stroke-width="1px"></line><line x1="49.98400115966797" y1="336.1370048819597" x2="44.98400115966797" y2="336.1370048819597" style="visibility: inherit;" fill="rgb(0, 0, 0)" stroke="rgb(204, 204, 204)" stroke-width="1px"></line><line x1="49.98400115966797" y1="324.53142731083415" x2="44.98400115966797" y2="324.53142731083415" style="visibility: inherit;" fill="rgb(0, 0, 0)" stroke="rgb(204, 204, 204)" stroke-width="1px"></line><line x1="49.98400115966797" y1="315.04897999026997" x2="44.98400115966797" y2="315.04897999026997" style="visibility: inherit;" fill="rgb(0, 0, 0)" stroke="rgb(204, 204, 204)" stroke-width="1px"></line><line x1="49.98400115966797" y1="307.03168501651624" x2="44.98400115966797" y2="307.03168501651624" style="visibility: inherit;" fill="rgb(0, 0, 0)" stroke="rgb(204, 204, 204)" stroke-width="1px"></line><line x1="49.98400115966797" y1="300.0867882173156" x2="44.98400115966797" y2="300.0867882173156" style="visibility: inherit;" fill="rgb(0, 0, 0)" stroke="rgb(204, 204, 204)" stroke-width="1px"></line><line x1="49.98400115966797" y1="293.96095509858026" x2="44.98400115966797" y2="293.96095509858026" style="visibility: inherit;" fill="rgb(0, 0, 0)" stroke="rgb(204, 204, 204)" stroke-width="1px"></line><line x1="49.98400115966797" y1="288.48121064619005" x2="44.98400115966797" y2="288.48121064619005" style="visibility: inherit;" fill="rgb(0, 0, 0)" stroke="rgb(204, 204, 204)" stroke-width="1px"></line><line x1="49.98400115966797" y1="252.43099398154598" x2="44.98400115966797" y2="252.43099398154598" style="visibility: inherit;" fill="rgb(0, 0, 0)" stroke="rgb(204, 204, 204)" stroke-width="1px"></line><line x1="49.98400115966797" y1="231.3429690898563" x2="44.98400115966797" y2="231.3429690898563" style="visibility: inherit;" fill="rgb(0, 0, 0)" stroke="rgb(204, 204, 204)" stroke-width="1px"></line><line x1="49.98400115966797" y1="216.3807773169019" x2="44.98400115966797" y2="216.3807773169019" style="visibility: inherit;" fill="rgb(0, 0, 0)" stroke="rgb(204, 204, 204)" stroke-width="1px"></line><line x1="49.98400115966797" y1="204.7751997457764" x2="44.98400115966797" y2="204.7751997457764" style="visibility: inherit;" fill="rgb(0, 0, 0)" stroke="rgb(204, 204, 204)" stroke-width="1px"></line><line x1="49.98400115966797" y1="195.29275242521223" x2="44.98400115966797" y2="195.29275242521223" style="visibility: inherit;" fill="rgb(0, 0, 0)" stroke="rgb(204, 204, 204)" stroke-width="1px"></line><line x1="49.98400115966797" y1="187.27545745145846" x2="44.98400115966797" y2="187.27545745145846" style="visibility: inherit;" fill="rgb(0, 0, 0)" stroke="rgb(204, 204, 204)" stroke-width="1px"></line><line x1="49.98400115966797" y1="180.33056065225784" x2="44.98400115966797" y2="180.33056065225784" style="visibility: inherit;" fill="rgb(0, 0, 0)" stroke="rgb(204, 204, 204)" stroke-width="1px"></line><line x1="49.98400115966797" y1="174.20472753352252" x2="44.98400115966797" y2="174.20472753352252" style="visibility: inherit;" fill="rgb(0, 0, 0)" stroke="rgb(204, 204, 204)" stroke-width="1px"></line><line x1="49.98400115966797" y1="168.72498308113228" x2="44.98400115966797" y2="168.72498308113228" style="visibility: inherit;" fill="rgb(0, 0, 0)" stroke="rgb(204, 204, 204)" stroke-width="1px"></line><line x1="49.98400115966797" y1="132.6747664164882" x2="44.98400115966797" y2="132.6747664164882" style="visibility: inherit;" fill="rgb(0, 0, 0)" stroke="rgb(204, 204, 204)" stroke-width="1px"></line><line x1="49.98400115966797" y1="111.58674152479853" x2="44.98400115966797" y2="111.58674152479853" style="visibility: inherit;" fill="rgb(0, 0, 0)" stroke="rgb(204, 204, 204)" stroke-width="1px"></line><line x1="49.98400115966797" y1="96.62454975184414" x2="44.98400115966797" y2="96.62454975184414" style="visibility: inherit;" fill="rgb(0, 0, 0)" stroke="rgb(204, 204, 204)" stroke-width="1px"></line><line x1="49.98400115966797" y1="85.01897218071866" x2="44.98400115966797" y2="85.01897218071866" style="visibility: inherit;" fill="rgb(0, 0, 0)" stroke="rgb(204, 204, 204)" stroke-width="1px"></line><line x1="49.98400115966797" y1="75.53652486015443" x2="44.98400115966797" y2="75.53652486015443" style="visibility: inherit;" fill="rgb(0, 0, 0)" stroke="rgb(204, 204, 204)" stroke-width="1px"></line><line x1="49.98400115966797" y1="67.5192298864007" x2="44.98400115966797" y2="67.5192298864007" style="visibility: inherit;" fill="rgb(0, 0, 0)" stroke="rgb(204, 204, 204)" stroke-width="1px"></line><line x1="49.98400115966797" y1="60.574333087200046" x2="44.98400115966797" y2="60.574333087200046" style="visibility: inherit;" fill="rgb(0, 0, 0)" stroke="rgb(204, 204, 204)" stroke-width="1px"></line><line x1="49.98400115966797" y1="54.44849996846477" x2="44.98400115966797" y2="54.44849996846477" style="visibility: inherit;" fill="rgb(0, 0, 0)" stroke="rgb(204, 204, 204)" stroke-width="1px"></line><line x1="49.98400115966797" y1="48.96875551607451" x2="44.98400115966797" y2="48.96875551607451" style="visibility: inherit;" fill="rgb(0, 0, 0)" stroke="rgb(204, 204, 204)" stroke-width="1px"></line><line x1="49.98400115966797" y1="12.918538851430469" x2="44.98400115966797" y2="12.918538851430469" style="visibility: inherit;" fill="rgb(0, 0, 0)" stroke="rgb(204, 204, 204)" stroke-width="1px"></line></g><g transform="translate(39.98400115966797, 0)"><text style="text-anchor: end; visibility: inherit; font-family: &quot;Helvetica Neue&quot;, sans-serif; font-size: 12px; font-weight: 200;" x="0" y="372.1872215466037" dx="0em" dy="0.3em" fill="rgb(50, 49, 63)" stroke="none" stroke-width="1px">2e-3</text><text style="text-anchor: end; visibility: hidden; font-family: &quot;Helvetica Neue&quot;, sans-serif; font-size: 12px; font-weight: 200;" x="0" y="351.099196654914" dx="0em" dy="0.3em" fill="rgb(50, 49, 63)" stroke="none" stroke-width="1px">3e-3</text><text style="text-anchor: end; visibility: hidden; font-family: &quot;Helvetica Neue&quot;, sans-serif; font-size: 12px; font-weight: 200;" x="0" y="336.1370048819597" dx="0em" dy="0.3em" fill="rgb(50, 49, 63)" stroke="none" stroke-width="1px">4e-3</text><text style="text-anchor: end; visibility: inherit; font-family: &quot;Helvetica Neue&quot;, sans-serif; font-size: 12px; font-weight: 200;" x="0" y="324.53142731083415" dx="0em" dy="0.3em" fill="rgb(50, 49, 63)" stroke="none" stroke-width="1px">5e-3</text><text style="text-anchor: end; visibility: hidden; font-family: &quot;Helvetica Neue&quot;, sans-serif; font-size: 12px; font-weight: 200;" x="0" y="315.04897999026997" dx="0em" dy="0.3em" fill="rgb(50, 49, 63)" stroke="none" stroke-width="1px">6e-3</text><text style="text-anchor: end; visibility: hidden; font-family: &quot;Helvetica Neue&quot;, sans-serif; font-size: 12px; font-weight: 200;" x="0" y="307.03168501651624" dx="0em" dy="0.3em" fill="rgb(50, 49, 63)" stroke="none" stroke-width="1px">7e-3</text><text style="text-anchor: end; visibility: inherit; font-family: &quot;Helvetica Neue&quot;, sans-serif; font-size: 12px; font-weight: 200;" x="0" y="300.0867882173156" dx="0em" dy="0.3em" fill="rgb(50, 49, 63)" stroke="none" stroke-width="1px">8e-3</text><text style="text-anchor: end; visibility: hidden; font-family: &quot;Helvetica Neue&quot;, sans-serif; font-size: 12px; font-weight: 200;" x="0" y="293.96095509858026" dx="0em" dy="0.3em" fill="rgb(50, 49, 63)" stroke="none" stroke-width="1px">9e-3</text><text style="text-anchor: end; visibility: hidden; font-family: &quot;Helvetica Neue&quot;, sans-serif; font-size: 12px; font-weight: 200;" x="0" y="288.48121064619005" dx="0em" dy="0.3em" fill="rgb(50, 49, 63)" stroke="none" stroke-width="1px">0.01</text><text style="text-anchor: end; visibility: inherit; font-family: &quot;Helvetica Neue&quot;, sans-serif; font-size: 12px; font-weight: 200;" x="0" y="252.43099398154598" dx="0em" dy="0.3em" fill="rgb(50, 49, 63)" stroke="none" stroke-width="1px">0.02</text><text style="text-anchor: end; visibility: hidden; font-family: &quot;Helvetica Neue&quot;, sans-serif; font-size: 12px; font-weight: 200;" x="0" y="231.3429690898563" dx="0em" dy="0.3em" fill="rgb(50, 49, 63)" stroke="none" stroke-width="1px">0.03</text><text style="text-anchor: end; visibility: hidden; font-family: &quot;Helvetica Neue&quot;, sans-serif; font-size: 12px; font-weight: 200;" x="0" y="216.3807773169019" dx="0em" dy="0.3em" fill="rgb(50, 49, 63)" stroke="none" stroke-width="1px">0.04</text><text style="text-anchor: end; visibility: inherit; font-family: &quot;Helvetica Neue&quot;, sans-serif; font-size: 12px; font-weight: 200;" x="0" y="204.7751997457764" dx="0em" dy="0.3em" fill="rgb(50, 49, 63)" stroke="none" stroke-width="1px">0.05</text><text style="text-anchor: end; visibility: hidden; font-family: &quot;Helvetica Neue&quot;, sans-serif; font-size: 12px; font-weight: 200;" x="0" y="195.29275242521223" dx="0em" dy="0.3em" fill="rgb(50, 49, 63)" stroke="none" stroke-width="1px">0.06</text><text style="text-anchor: end; visibility: hidden; font-family: &quot;Helvetica Neue&quot;, sans-serif; font-size: 12px; font-weight: 200;" x="0" y="187.27545745145846" dx="0em" dy="0.3em" fill="rgb(50, 49, 63)" stroke="none" stroke-width="1px">0.07</text><text style="text-anchor: end; visibility: inherit; font-family: &quot;Helvetica Neue&quot;, sans-serif; font-size: 12px; font-weight: 200;" x="0" y="180.33056065225784" dx="0em" dy="0.3em" fill="rgb(50, 49, 63)" stroke="none" stroke-width="1px">0.08</text><text style="text-anchor: end; visibility: hidden; font-family: &quot;Helvetica Neue&quot;, sans-serif; font-size: 12px; font-weight: 200;" x="0" y="174.20472753352252" dx="0em" dy="0.3em" fill="rgb(50, 49, 63)" stroke="none" stroke-width="1px">0.09</text><text style="text-anchor: end; visibility: hidden; font-family: &quot;Helvetica Neue&quot;, sans-serif; font-size: 12px; font-weight: 200;" x="0" y="168.72498308113228" dx="0em" dy="0.3em" fill="rgb(50, 49, 63)" stroke="none" stroke-width="1px">0.1</text><text style="text-anchor: end; visibility: inherit; font-family: &quot;Helvetica Neue&quot;, sans-serif; font-size: 12px; font-weight: 200;" x="0" y="132.6747664164882" dx="0em" dy="0.3em" fill="rgb(50, 49, 63)" stroke="none" stroke-width="1px">0.2</text><text style="text-anchor: end; visibility: hidden; font-family: &quot;Helvetica Neue&quot;, sans-serif; font-size: 12px; font-weight: 200;" x="0" y="111.58674152479853" dx="0em" dy="0.3em" fill="rgb(50, 49, 63)" stroke="none" stroke-width="1px">0.3</text><text style="text-anchor: end; visibility: hidden; font-family: &quot;Helvetica Neue&quot;, sans-serif; font-size: 12px; font-weight: 200;" x="0" y="96.62454975184414" dx="0em" dy="0.3em" fill="rgb(50, 49, 63)" stroke="none" stroke-width="1px">0.4</text><text style="text-anchor: end; visibility: inherit; font-family: &quot;Helvetica Neue&quot;, sans-serif; font-size: 12px; font-weight: 200;" x="0" y="85.01897218071866" dx="0em" dy="0.3em" fill="rgb(50, 49, 63)" stroke="none" stroke-width="1px">0.5</text><text style="text-anchor: end; visibility: hidden; font-family: &quot;Helvetica Neue&quot;, sans-serif; font-size: 12px; font-weight: 200;" x="0" y="75.53652486015443" dx="0em" dy="0.3em" fill="rgb(50, 49, 63)" stroke="none" stroke-width="1px">0.6</text><text style="text-anchor: end; visibility: hidden; font-family: &quot;Helvetica Neue&quot;, sans-serif; font-size: 12px; font-weight: 200;" x="0" y="67.5192298864007" dx="0em" dy="0.3em" fill="rgb(50, 49, 63)" stroke="none" stroke-width="1px">0.7</text><text style="text-anchor: end; visibility: inherit; font-family: &quot;Helvetica Neue&quot;, sans-serif; font-size: 12px; font-weight: 200;" x="0" y="60.574333087200046" dx="0em" dy="0.3em" fill="rgb(50, 49, 63)" stroke="none" stroke-width="1px">0.8</text><text style="text-anchor: end; visibility: hidden; font-family: &quot;Helvetica Neue&quot;, sans-serif; font-size: 12px; font-weight: 200;" x="0" y="54.44849996846477" dx="0em" dy="0.3em" fill="rgb(50, 49, 63)" stroke="none" stroke-width="1px">0.9</text><text style="text-anchor: end; visibility: hidden; font-family: &quot;Helvetica Neue&quot;, sans-serif; font-size: 12px; font-weight: 200;" x="0" y="48.96875551607451" dx="0em" dy="0.3em" fill="rgb(50, 49, 63)" stroke="none" stroke-width="1px">1</text><text style="text-anchor: end; visibility: inherit; font-family: &quot;Helvetica Neue&quot;, sans-serif; font-size: 12px; font-weight: 200;" x="0" y="12.918538851430469" dx="0em" dy="0.3em" fill="rgb(50, 49, 63)" stroke="none" stroke-width="1px">2</text></g><line x1="49.98400115966797" y1="0" x2="49.98400115966797" y2="378.6199998855591" fill="rgb(0, 0, 0)" stroke="rgb(204, 204, 204)" stroke-width="1px"></line></g></g><g transform="translate(49, 0)" clip-path="url(#clip_0)"><clipPath id="clip_0"><rect width="1368" height="378"></rect></clipPath><g><g><g><line x1="0" y1="0" x2="0" y2="378.6199998855591" fill="rgb(0, 0, 0)" stroke="rgb(60, 60, 60)" stroke-width="1px" opacity="0.25"></line><line x1="97.71542848859514" y1="0" x2="97.71542848859514" y2="378.6199998855591" fill="rgb(0, 0, 0)" stroke="rgb(60, 60, 60)" stroke-width="1px" opacity="0.25"></line><line x1="195.43085697719027" y1="0" x2="195.43085697719027" y2="378.6199998855591" fill="rgb(0, 0, 0)" stroke="rgb(60, 60, 60)" stroke-width="1px" opacity="0.25"></line><line x1="293.1462854657854" y1="0" x2="293.1462854657854" y2="378.6199998855591" fill="rgb(0, 0, 0)" stroke="rgb(60, 60, 60)" stroke-width="1px" opacity="0.25"></line><line x1="390.86171395438055" y1="0" x2="390.86171395438055" y2="378.6199998855591" fill="rgb(0, 0, 0)" stroke="rgb(60, 60, 60)" stroke-width="1px" opacity="0.25"></line><line x1="488.57714244297574" y1="0" x2="488.57714244297574" y2="378.6199998855591" fill="rgb(0, 0, 0)" stroke="rgb(60, 60, 60)" stroke-width="1px" opacity="0.25"></line><line x1="586.2925709315708" y1="0" x2="586.2925709315708" y2="378.6199998855591" fill="rgb(0, 0, 0)" stroke="rgb(60, 60, 60)" stroke-width="1px" opacity="0.25"></line><line x1="684.007999420166" y1="0" x2="684.007999420166" y2="378.6199998855591" fill="rgb(0, 0, 0)" stroke="rgb(60, 60, 60)" stroke-width="1px" opacity="0.25"></line><line x1="781.7234279087611" y1="0" x2="781.7234279087611" y2="378.6199998855591" fill="rgb(0, 0, 0)" stroke="rgb(60, 60, 60)" stroke-width="1px" opacity="0.25"></line><line x1="879.4388563973564" y1="0" x2="879.4388563973564" y2="378.6199998855591" fill="rgb(0, 0, 0)" stroke="rgb(60, 60, 60)" stroke-width="1px" opacity="0.25"></line><line x1="977.1542848859515" y1="0" x2="977.1542848859515" y2="378.6199998855591" fill="rgb(0, 0, 0)" stroke="rgb(60, 60, 60)" stroke-width="1px" opacity="0.25"></line><line x1="1074.8697133745466" y1="0" x2="1074.8697133745466" y2="378.6199998855591" fill="rgb(0, 0, 0)" stroke="rgb(60, 60, 60)" stroke-width="1px" opacity="0.25"></line><line x1="1172.5851418631416" y1="0" x2="1172.5851418631416" y2="378.6199998855591" fill="rgb(0, 0, 0)" stroke="rgb(60, 60, 60)" stroke-width="1px" opacity="0.25"></line><line x1="1270.300570351737" y1="0" x2="1270.300570351737" y2="378.6199998855591" fill="rgb(0, 0, 0)" stroke="rgb(60, 60, 60)" stroke-width="1px" opacity="0.25"></line><line x1="1368.015998840332" y1="0" x2="1368.015998840332" y2="378.6199998855591" fill="rgb(0, 0, 0)" stroke="rgb(60, 60, 60)" stroke-width="1px" opacity="0.25"></line></g><g><line x1="0" y1="372.1872215466037" x2="1368.015998840332" y2="372.1872215466037" fill="rgb(0, 0, 0)" stroke="rgb(60, 60, 60)" stroke-width="1px" opacity="0.25"></line><line x1="0" y1="351.099196654914" x2="1368.015998840332" y2="351.099196654914" fill="rgb(0, 0, 0)" stroke="rgb(60, 60, 60)" stroke-width="1px" opacity="0.25"></line><line x1="0" y1="336.1370048819597" x2="1368.015998840332" y2="336.1370048819597" fill="rgb(0, 0, 0)" stroke="rgb(60, 60, 60)" stroke-width="1px" opacity="0.25"></line><line x1="0" y1="324.53142731083415" x2="1368.015998840332" y2="324.53142731083415" fill="rgb(0, 0, 0)" stroke="rgb(60, 60, 60)" stroke-width="1px" opacity="0.25"></line><line x1="0" y1="315.04897999026997" x2="1368.015998840332" y2="315.04897999026997" fill="rgb(0, 0, 0)" stroke="rgb(60, 60, 60)" stroke-width="1px" opacity="0.25"></line><line x1="0" y1="307.03168501651624" x2="1368.015998840332" y2="307.03168501651624" fill="rgb(0, 0, 0)" stroke="rgb(60, 60, 60)" stroke-width="1px" opacity="0.25"></line><line x1="0" y1="300.0867882173156" x2="1368.015998840332" y2="300.0867882173156" fill="rgb(0, 0, 0)" stroke="rgb(60, 60, 60)" stroke-width="1px" opacity="0.25"></line><line x1="0" y1="293.96095509858026" x2="1368.015998840332" y2="293.96095509858026" fill="rgb(0, 0, 0)" stroke="rgb(60, 60, 60)" stroke-width="1px" opacity="0.25"></line><line x1="0" y1="288.48121064619005" x2="1368.015998840332" y2="288.48121064619005" fill="rgb(0, 0, 0)" stroke="rgb(60, 60, 60)" stroke-width="1px" opacity="0.25"></line><line x1="0" y1="252.43099398154598" x2="1368.015998840332" y2="252.43099398154598" fill="rgb(0, 0, 0)" stroke="rgb(60, 60, 60)" stroke-width="1px" opacity="0.25"></line><line x1="0" y1="231.3429690898563" x2="1368.015998840332" y2="231.3429690898563" fill="rgb(0, 0, 0)" stroke="rgb(60, 60, 60)" stroke-width="1px" opacity="0.25"></line><line x1="0" y1="216.3807773169019" x2="1368.015998840332" y2="216.3807773169019" fill="rgb(0, 0, 0)" stroke="rgb(60, 60, 60)" stroke-width="1px" opacity="0.25"></line><line x1="0" y1="204.7751997457764" x2="1368.015998840332" y2="204.7751997457764" fill="rgb(0, 0, 0)" stroke="rgb(60, 60, 60)" stroke-width="1px" opacity="0.25"></line><line x1="0" y1="195.29275242521223" x2="1368.015998840332" y2="195.29275242521223" fill="rgb(0, 0, 0)" stroke="rgb(60, 60, 60)" stroke-width="1px" opacity="0.25"></line><line x1="0" y1="187.27545745145846" x2="1368.015998840332" y2="187.27545745145846" fill="rgb(0, 0, 0)" stroke="rgb(60, 60, 60)" stroke-width="1px" opacity="0.25"></line><line x1="0" y1="180.33056065225784" x2="1368.015998840332" y2="180.33056065225784" fill="rgb(0, 0, 0)" stroke="rgb(60, 60, 60)" stroke-width="1px" opacity="0.25"></line><line x1="0" y1="174.20472753352252" x2="1368.015998840332" y2="174.20472753352252" fill="rgb(0, 0, 0)" stroke="rgb(60, 60, 60)" stroke-width="1px" opacity="0.25"></line><line x1="0" y1="168.72498308113228" x2="1368.015998840332" y2="168.72498308113228" fill="rgb(0, 0, 0)" stroke="rgb(60, 60, 60)" stroke-width="1px" opacity="0.25"></line><line x1="0" y1="132.6747664164882" x2="1368.015998840332" y2="132.6747664164882" fill="rgb(0, 0, 0)" stroke="rgb(60, 60, 60)" stroke-width="1px" opacity="0.25"></line><line x1="0" y1="111.58674152479853" x2="1368.015998840332" y2="111.58674152479853" fill="rgb(0, 0, 0)" stroke="rgb(60, 60, 60)" stroke-width="1px" opacity="0.25"></line><line x1="0" y1="96.62454975184414" x2="1368.015998840332" y2="96.62454975184414" fill="rgb(0, 0, 0)" stroke="rgb(60, 60, 60)" stroke-width="1px" opacity="0.25"></line><line x1="0" y1="85.01897218071866" x2="1368.015998840332" y2="85.01897218071866" fill="rgb(0, 0, 0)" stroke="rgb(60, 60, 60)" stroke-width="1px" opacity="0.25"></line><line x1="0" y1="75.53652486015443" x2="1368.015998840332" y2="75.53652486015443" fill="rgb(0, 0, 0)" stroke="rgb(60, 60, 60)" stroke-width="1px" opacity="0.25"></line><line x1="0" y1="67.5192298864007" x2="1368.015998840332" y2="67.5192298864007" fill="rgb(0, 0, 0)" stroke="rgb(60, 60, 60)" stroke-width="1px" opacity="0.25"></line><line x1="0" y1="60.574333087200046" x2="1368.015998840332" y2="60.574333087200046" fill="rgb(0, 0, 0)" stroke="rgb(60, 60, 60)" stroke-width="1px" opacity="0.25"></line><line x1="0" y1="54.44849996846477" x2="1368.015998840332" y2="54.44849996846477" fill="rgb(0, 0, 0)" stroke="rgb(60, 60, 60)" stroke-width="1px" opacity="0.25"></line><line x1="0" y1="48.96875551607451" x2="1368.015998840332" y2="48.96875551607451" fill="rgb(0, 0, 0)" stroke="rgb(60, 60, 60)" stroke-width="1px" opacity="0.25"></line><line x1="0" y1="12.918538851430469" x2="1368.015998840332" y2="12.918538851430469" fill="rgb(0, 0, 0)" stroke="rgb(60, 60, 60)" stroke-width="1px" opacity="0.25"></line></g></g></g><g><g><line x1="97.71542848859514" y1="0" x2="97.71542848859514" y2="378.6199998855591" fill="rgb(0, 0, 0)" stroke="rgb(153, 153, 153)" stroke-width="1.5px"></line></g></g><g><g><g><g><g><path style="fill: none;" stroke="rgb(238, 51, 119)" stroke-width="2px" d="M97.71542848859514,54.08857141222268L102.6011999130249,56.66200218809229L122.14428561074394,57.998100171214276L131.91582845960346,58.19180493260632L180.77354270390103,60.169589634629915" fill="none"></path></g><g><path style="fill: none;" stroke="rgb(51, 187, 238)" stroke-width="2px" d="M97.71542848859514,73.41339460959313L102.6011999130249,82.97912563115705L107.48697133745466,105.8475963922512L112.37274276188441,116.11215589475069L146.5731427328927,132.67476564148674L151.45891415732248,141.12728906337375L239.4027997970581,151.2252405653854L278.48897119249614,155.07955896044518L283.3747426169259,166.1874341835814L351.7755425589425,183.68717278741613" fill="none"></path></g><g><path style="fill: none;" stroke="rgb(204, 51, 17)" stroke-width="2px" d="M97.71542848859514,66.05407547291969L102.6011999130249,87.68670982770925L122.14428561074394,90.49871801088926L131.91582845960346,97.94131740411143L136.8015998840332,113.3499447156724L141.68737130846296,155.07955896044518L166.11622843061176,166.1874341835814L371.3186282566615,171.39272072812292L390.86171395438055,177.17750572801785L542.3206281117031,180.33056181476005L684.007999420166,183.68717278741613L908.7534849439348,191.12977562508928L1006.46891343253,195.29275358771443L1040.6693134035384,199.81816820425792L1045.555084827968,216.3807784794041" fill="none"></path></g><g><path style="fill: none;" stroke="rgb(255, 112, 67)" stroke-width="2px" d="M97.71542848859514,61.558767089299806L102.6011999130249,83.48163602228522L107.48697133745466,92.86318969433972L112.37274276188441,127.71773487496978L117.25851418631417,141.12728906337375L136.8015998840332,171.39272072812292L454.3767424719674,183.68717278741613L498.34868529183524,204.7751989707749L1084.6412562234061,216.3807784794041" fill="none"></path></g><g><path style="fill: none;" stroke="rgb(0, 119, 187)" stroke-width="2px" d="M97.71542848859514,73.83114319291809L102.6011999130249,84.50146124970087L107.48697133745466,90.49871801088926L122.14428561074394,97.27876411997653L127.0300570351737,101.38690948816787L151.45891415732248,102.83171279175355L156.34468558175223,107.4237647246756L190.54508555276053,111.58673945812797L195.43085697719027,130.13721751893732L200.31662840162005,133.99153406875553L205.2023998260498,138.15450880220789L234.51702837262835,157.11940551000677L239.4027997970581,166.1874341835814L268.71742834363664,171.39272072812292L298.0320568902152,183.68717278741613L527.6633138384138,191.12977562508928L576.5210280827114,195.29275358771443L718.2083993911743,204.7751989707749" fill="none"></path></g><g><path style="fill: none;" stroke="rgb(0, 153, 136)" stroke-width="2px" d="M97.71542848859514,72.17991182082784L102.6011999130249,87.68670982770925L112.37274276188441,89.92401902375775L117.25851418631417,94.70987561091323L141.68737130846296,96.62454897684268L151.45891415732248,97.27876411997653L166.11622843061176,105.8475963922512L195.43085697719027,109.88135985756213L214.97394267490932,118.03865669353678L244.28857122148787,126.54893467553333L263.8316569192069,130.13721751893732L302.91782831464496,141.12728906337375L307.80359973907474,149.40016138031652L317.57514258793424,159.2425369230703L332.2324568612235,187.27545723002942L376.20439968109133,191.12977562508928L425.06211392538887,195.29275358771443L493.46291386740546,210.254942131496L1118.8416561944143,216.3807784794041" fill="none"></path></g><g><path style="fill: none;" stroke="rgb(187, 187, 187)" stroke-width="2px" d="M97.71542848859514,59.290083876625204L102.6011999130249,87.14210359378222L107.48697133745466,92.86318969433972L122.14428561074394,97.27876411997653L136.8015998840332,104.31779732241438L171.0019998550415,113.3499447156724L175.88777127947125,132.67476564148674L180.77354270390103,149.40016138031652L185.65931412833075,161.4560377555576L385.9759425299508,171.39272072812292L542.3206281117031,187.27545723002942L566.7494852338518,199.81816820425792L815.9238278797694,210.254942131496" fill="none"></path></g><g><path style="fill: none;" stroke="rgb(238, 51, 119)" stroke-width="2px" d="M97.71542848859514,78.66249824358857L102.6011999130249,94.0870008542932L107.48697133745466,105.07707239872968L122.14428561074394,133.99153406875553L127.0300570351737,141.12728906337375L131.91582845960346,149.40016138031652L156.34468558175223,177.17750572801785L473.91982816968647,180.33056181476005L688.8937708445958,199.81816820425792L723.0941708156041,204.7751989707749" fill="none"></path></g><g><path style="fill: none;" stroke="rgb(51, 187, 238)" stroke-width="2px" d="M97.71542848859514,58.65965894626913L102.6011999130249,85.01897218071866L107.48697133745466,90.49871801088926L117.25851418631417,91.07983489797317L122.14428561074394,93.4714939158377L127.0300570351737,105.07707239872968L131.91582845960346,106.62970763479075L210.08817125047958,110.72706009092332L234.51702837262835,111.58673945812797L254.0601140703474,113.3499447156724L258.94588549477714,132.67476564148674L268.71742834363664,168.7249823061308L298.0320568902152,171.39272072812292L371.3186282566615,187.27545723002942L376.20439968109133,195.29275358771443L864.781542124067,204.7751989707749L1035.7835419791086,223.3256738946735" fill="none"></path></g><g><path style="fill: none;" stroke="rgb(204, 51, 17)" stroke-width="2px" d="M97.71542848859514,76.85329251242172L102.6011999130249,95.9784609324123L112.37274276188441,99.98116395367299L146.5731427328927,102.83171279175355L156.34468558175223,117.06648391051812L214.97394267490932,124.28729585675387L229.63125694819857,125.40582109091352L244.28857122148787,132.67476564148674L249.17434264591762,144.28034515011595L288.2605140413557,147.63695612277203L342.003999710083,174.2047254668519L698.6653136934552,177.17750572801785L708.4368565423149,191.12977562508928L727.9799422400338,204.7751989707749L996.6973705836705,210.254942131496" fill="none"></path></g><g><path style="fill: none;" stroke="rgb(0, 119, 187)" stroke-width="2px" d="M97.71542848859514,76.85329251242172L102.6011999130249,83.48163602228522L107.48697133745466,88.23707919210983L127.0300570351737,96.62454897684268L141.68737130846296,103.56944743676075L146.5731427328927,121.0691888453627L151.45891415732248,147.63695612277203L161.23045700618198,168.7249823061308L171.0019998550415,187.27545723002942L195.43085697719027,199.81816820425792L214.97394267490932,204.7751989707749L317.57514258793424,216.3807784794041L542.3206281117031,223.3256738946735L566.7494852338518,267.3931869170026" fill="none"></path></g><g><path style="fill: none;" stroke="rgb(255, 112, 67)" stroke-width="2px" d="M97.71542848859514,69.79737972760705L102.6011999130249,87.14210359378222L107.48697133745466,89.92401902375775L122.14428561074394,91.07983489797317L131.91582845960346,95.9784609324123L141.68737130846296,111.58673945812797L156.34468558175223,125.40582109091352L161.23045700618198,138.15450880220789L171.0019998550415,142.67992429943484L410.4047996520996,147.63695612277203L425.06211392538887,149.40016138031652L429.94788534981865,171.39272072812292L444.6051996231079,174.2047254668519L488.57714244297574,177.17750572801785L493.46291386740546,183.68717278741613L517.8917709895543,187.27545723002942L654.6933708735875,195.29275358771443L781.7234279087611,199.81816820425792L962.4969706126623,204.7751989707749" fill="none"></path></g><g><path style="fill: none;" stroke="rgb(187, 187, 187)" stroke-width="2px" d="M97.71542848859514,70.97500648307783L102.6011999130249,87.14210359378222L122.14428561074394,89.3556044262694L127.0300570351737,109.88135985756213L229.63125694819857,112.46087313244607L278.48897119249614,118.03865669353678L385.9759425299508,147.63695612277203L459.26251389639714,155.07955896044518L527.6633138384138,157.11940551000677L537.4348566872733,163.76795153961385L556.9779423849923,168.7249823061308L561.863713809422,177.17750572801785L571.6352566582816,180.33056181476005L586.2925709315708,187.27545723002942L600.9498852048602,204.7751989707749L669.3506851468767,210.254942131496L952.7254277638026,216.3807784794041" fill="none"></path></g><g><path style="fill: none;" stroke="rgb(0, 153, 136)" stroke-width="2px" d="M97.71542848859514,67.89205975157074L102.6011999130249,94.70987561091323L107.48697133745466,95.9784609324123L141.68737130846296,100.67928744063556L185.65931412833075,108.23012848547188L214.97394267490932,109.04919139708647L224.74548552376882,117.06648391051812L244.28857122148787,122.11991990912406L249.17434264591762,131.3905172059134L254.0601140703474,138.15450880220789" fill="none"></path></g><g><path style="fill: none;" stroke="rgb(238, 51, 119)" stroke-width="2px" d="M97.71542848859514,67.5192307721166L102.6011999130249,91.07983489797317L131.91582845960346,102.83171279175355L151.45891415732248,111.58673945812797L205.2023998260498,122.11991990912406L210.08817125047958,142.67992429943484L214.97394267490932,149.40016138031652L219.8597140993391,177.17750572801785L254.0601140703474,199.81816820425792L1245.871713229588,216.3807784794041" fill="none"></path></g><g><path style="fill: none;" stroke="rgb(51, 187, 238)" stroke-width="2px" d="M97.71542848859514,75.97175057950108L102.6011999130249,82.48142402126433L107.48697133745466,92.2619180423701L127.0300570351737,105.07707239872968L156.34468558175223,106.62970763479075L161.23045700618198,120.03926569129482L166.11622843061176,136.7295041052796L185.65931412833075,151.2252405653854L205.2023998260498,166.1874341835814L293.1462854657854,168.7249823061308L342.003999710083,195.29275358771443L366.4328568322318,204.7751989707749L923.4107992172242,216.3807784794041" fill="none"></path></g><g><path style="fill: none;" stroke="rgb(204, 51, 17)" stroke-width="2px" d="M97.71542848859514,70.18696520255986L102.6011999130249,83.98904902665078L112.37274276188441,90.49871801088926L117.25851418631417,95.3403005412693L151.45891415732248,116.11215589475069L156.34468558175223,145.9315765222062L166.11622843061176,166.1874341835814L400.6332568032401,177.17750572801785L420.17634250095915,180.33056181476005L449.49097104753764,199.81816820425792L625.3787423270089,223.3256738946735" fill="none"></path></g><g><path style="fill: none;" stroke="rgb(0, 119, 187)" stroke-width="2px" d="M97.71542848859514,77.75002887688692L102.6011999130249,83.48163602228522L107.48697133745466,99.98116395367299L131.91582845960346,114.25447917178917L136.8015998840332,161.4560377555576L141.68737130846296,163.76795153961385L146.5731427328927,195.29275358771443L156.34468558175223,231.3429702523585L175.88777127947125,324.5314284733364" fill="none"></path></g><g><path style="fill: none;" stroke="rgb(255, 112, 67)" stroke-width="2px" d="M97.71542848859514,73.83114319291809L102.6011999130249,88.23707919210983L107.48697133745466,91.07983489797317L112.37274276188441,92.2619180423701L117.25851418631417,93.4714939158377L122.14428561074394,109.88135985756213L127.0300570351737,155.07955896044518L136.8015998840332,177.17750572801785L390.86171395438055,183.68717278741613L727.9799422400338,191.12977562508928L737.7514850888933,199.81816820425792L762.1803422110421,204.7751989707749L874.5530849729265,210.254942131496L913.6392563683645,223.3256738946735L1016.2404562813896,240.825415635419" fill="none"></path></g><g><path style="fill: none;" stroke="rgb(187, 187, 187)" stroke-width="2px" d="M97.71542848859514,64.62907077599152L102.6011999130249,85.54168430876058L107.48697133745466,87.14210359378222L112.37274276188441,88.23707919210983L122.14428561074394,96.62454897684268L131.91582845960346,111.58673945812797L156.34468558175223,118.03865669353678L161.23045700618198,122.11991990912406L166.11622843061176,126.54893467553333L195.43085697719027,147.63695612277203L219.8597140993391,149.40016138031652L229.63125694819857,177.17750572801785L234.51702837262835,187.27545723002942L283.3747426169259,223.3256738946735L288.2605140413557,288.4812118086923L478.8055995941162,324.5314284733364" fill="none"></path></g><g><path style="fill: none;" stroke="rgb(0, 153, 136)" stroke-width="2px" d="M97.71542848859514,68.26758065777022L102.6011999130249,79.12480723609718L107.48697133745466,88.23707919210983L117.25851418631417,95.3403005412693L122.14428561074394,110.72706009092332L131.91582845960346,121.0691888453627L258.94588549477714,128.9134063589838L273.6031997680664,132.67476564148674L278.48897119249614,144.28034515011595L283.3747426169259,168.7249823061308L307.80359973907474,174.2047254668519L312.68937116350446,183.68717278741613L332.2324568612235,187.27545723002942L356.6613139833723,210.254942131496L439.7194281986782,216.3807784794041" fill="none"></path></g><g><path style="fill: none;" stroke="rgb(238, 51, 119)" stroke-width="2px" d="M97.71542848859514,59.92824426776821L102.6011999130249,82.97912563115705L107.48697133745466,97.94131740411143L112.37274276188441,99.98116395367299L117.25851418631417,113.3499447156724L195.43085697719027,136.7295041052796L205.2023998260498,155.07955896044518L210.08817125047958,161.4560377555576L224.74548552376882,180.33056181476005L390.86171395438055,191.12977562508928" fill="none"></path></g><g><path style="fill: none;" stroke="rgb(51, 187, 238)" stroke-width="2px" d="M97.71542848859514,69.79737972760705L102.6011999130249,86.60313784819772L122.14428561074394,88.23707919210983L136.8015998840332,92.2619180423701L146.5731427328927,98.61241601602171L161.23045700618198,119.02934229580114L166.11622843061176,127.71773487496978L175.88777127947125,144.28034515011595L508.1202281406948,151.2252405653854L674.2364565713066,155.07955896044518L747.5230279377528,159.2425369230703L1055.3266276768277,163.76795153961385" fill="none"></path></g><g><path style="fill: none;" stroke="rgb(204, 51, 17)" stroke-width="2px" d="M97.71542848859514,71.7751672057554L102.6011999130249,87.14210359378222L107.48697133745466,88.79333496587248L112.37274276188441,110.72706009092332L117.25851418631417,113.3499447156724L122.14428561074394,141.12728906337375L146.5731427328927,163.76795153961385L410.4047996520996,174.2047254668519L420.17634250095915,180.33056181476005L610.7214280537197,183.68717278741613L654.6933708735875,191.12977562508928L698.6653136934552,204.7751989707749L1206.78554183415,231.3429702523585" fill="none"></path></g><g><path style="fill: none;" stroke="rgb(0, 119, 187)" stroke-width="2px" d="M97.71542848859514,75.53652279348387L102.6011999130249,83.48163602228522L107.48697133745466,95.3403005412693L112.37274276188441,108.23012848547188L117.25851418631417,139.6196641014048L122.14428561074394,157.11940551000677L127.0300570351737,163.76795153961385L131.91582845960346,171.39272072812292L146.5731427328927,183.68717278741613L151.45891415732248,191.12977562508928L166.11622843061176,204.7751989707749L258.94588549477714,210.254942131496L385.9759425299508,216.3807784794041L400.6332568032401,240.825415635419L449.49097104753764,252.4309951440482" fill="none"></path></g><g><path style="fill: none;" stroke="rgb(255, 112, 67)" stroke-width="2px" d="M97.71542848859514,79.12480723609718L102.6011999130249,88.79333496587248L136.8015998840332,97.27876411997653L151.45891415732248,99.98116395367299L195.43085697719027,102.10429213756379L200.31662840162005,109.04919139708647L214.97394267490932,124.28729585675387L239.4027997970581,135.3425040634788L244.28857122148787,151.2252405653854L332.2324568612235,166.1874341835814L337.1182282856533,177.17750572801785L342.003999710083,180.33056181476005L356.6613139833723,210.254942131496" fill="none"></path></g><g><path style="fill: none;" stroke="rgb(187, 187, 187)" stroke-width="2px" d="M97.71542848859514,72.17991182082784L102.6011999130249,88.79333496587248L112.37274276188441,91.07983489797317L122.14428561074394,97.94131740411143L195.43085697719027,99.98116395367299L200.31662840162005,107.4237647246756L210.08817125047958,112.46087313244607L214.97394267490932,114.25447917178917L219.8597140993391,119.02934229580114L239.4027997970581,155.07955896044518L244.28857122148787,231.3429702523585L366.4328568322318,240.825415635419L376.20439968109133,252.4309951440482L405.5190282276699,267.3931869170026" fill="none"></path></g><g><path style="fill: none;" stroke="rgb(0, 153, 136)" stroke-width="2px" d="M97.71542848859514,63.585368480255966L102.6011999130249,83.48163602228522L112.37274276188441,89.3556044262694L127.0300570351737,98.61241601602171L131.91582845960346,102.10429213756379L136.8015998840332,102.83171279175355L141.68737130846296,132.67476564148674L151.45891415732248,153.11670057516227L185.65931412833075,183.68717278741613L283.3747426169259,191.12977562508928L293.1462854657854,216.3807784794041L302.91782831464496,240.825415635419L1016.2404562813896,252.4309951440482" fill="none"></path></g><g><path style="fill: none;" stroke="rgb(238, 51, 119)" stroke-width="2px" d="M97.71542848859514,69.02685573408559L102.6011999130249,91.07983489797317L122.14428561074394,99.29228739883479L127.0300570351737,124.28729585675387L166.11622843061176,149.40016138031652L180.77354270390103,155.07955896044518L185.65931412833075,180.33056181476005L190.54508555276053,187.27545723002942L200.31662840162005,191.12977562508928L219.8597140993391,216.3807784794041" fill="none"></path></g><g><path style="fill: none;" stroke="rgb(51, 187, 238)" stroke-width="2px" d="M97.71542848859514,74.67684342627916L102.6011999130249,91.66751821032568L107.48697133745466,101.38690948816787L112.37274276188441,120.03926569129482L127.0300570351737,144.28034515011595L131.91582845960346,168.7249823061308L136.8015998840332,195.29275358771443L146.5731427328927,199.81816820425792L234.51702837262835,204.7751989707749L258.94588549477714,223.3256738946735L293.1462854657854,231.3429702523585L356.6613139833723,240.825415635419" fill="none"></path></g><g><path style="fill: none;" stroke="rgb(204, 51, 17)" stroke-width="2px" d="M97.71542848859514,69.79737972760705L102.6011999130249,87.68670982770925L112.37274276188441,92.2619180423701L136.8015998840332,92.86318969433972L151.45891415732248,95.3403005412693L190.54508555276053,99.98116395367299L200.31662840162005,113.3499447156724L205.2023998260498,128.9134063589838L210.08817125047958,136.7295041052796L214.97394267490932,141.12728906337375L229.63125694819857,151.2252405653854L254.0601140703474,166.1874341835814L263.8316569192069,204.7751989707749L708.4368565423149,210.254942131496L1035.7835419791086,216.3807784794041" fill="none"></path></g><g><path style="fill: none;" stroke="rgb(0, 119, 187)" stroke-width="2px" d="M97.71542848859514,57.72811836300235L112.37274276188441,58.65965894626913L122.14428561074394,61.641652618263606L254.0601140703474,63.585368480255966L278.48897119249614,64.54129323680803L346.8897711345127,64.80507574412809L351.7755425589425,65.60455521190596L376.20439968109133,67.70531118529595" fill="none"></path></g><g><path style="fill: none;" stroke="rgb(255, 112, 67)" stroke-width="2px" d="M97.71542848859514,57.1162358025864L107.48697133745466,58.65965894626913L117.25851418631417,60.41205630376817L131.91582845960346,62.30951950404892L141.68737130846296,62.4778349216399L185.65931412833075,64.98167835279031L214.97394267490932,66.59868602374092L342.003999710083,67.24135032950716L351.7755425589425,70.48108379157725L366.4328568322318,70.87584408822954L371.3186282566615,72.79299656343017" fill="none"></path></g></g></g></g></g></g><g transform="translate(49, 378)" clip-path="url(#clip_1)"><clipPath id="clip_1"><rect width="1368" height="21"></rect></clipPath><g><g><line x1="0" y1="0" x2="0" y2="5" style="visibility: inherit;" fill="rgb(0, 0, 0)" stroke="rgb(204, 204, 204)" stroke-width="1px"></line><line x1="97.71542848859514" y1="0" x2="97.71542848859514" y2="5" style="visibility: inherit;" fill="rgb(0, 0, 0)" stroke="rgb(204, 204, 204)" stroke-width="1px"></line><line x1="195.43085697719027" y1="0" x2="195.43085697719027" y2="5" style="visibility: inherit;" fill="rgb(0, 0, 0)" stroke="rgb(204, 204, 204)" stroke-width="1px"></line><line x1="293.1462854657854" y1="0" x2="293.1462854657854" y2="5" style="visibility: inherit;" fill="rgb(0, 0, 0)" stroke="rgb(204, 204, 204)" stroke-width="1px"></line><line x1="390.86171395438055" y1="0" x2="390.86171395438055" y2="5" style="visibility: inherit;" fill="rgb(0, 0, 0)" stroke="rgb(204, 204, 204)" stroke-width="1px"></line><line x1="488.57714244297574" y1="0" x2="488.57714244297574" y2="5" style="visibility: inherit;" fill="rgb(0, 0, 0)" stroke="rgb(204, 204, 204)" stroke-width="1px"></line><line x1="586.2925709315708" y1="0" x2="586.2925709315708" y2="5" style="visibility: inherit;" fill="rgb(0, 0, 0)" stroke="rgb(204, 204, 204)" stroke-width="1px"></line><line x1="684.007999420166" y1="0" x2="684.007999420166" y2="5" style="visibility: inherit;" fill="rgb(0, 0, 0)" stroke="rgb(204, 204, 204)" stroke-width="1px"></line><line x1="781.7234279087611" y1="0" x2="781.7234279087611" y2="5" style="visibility: inherit;" fill="rgb(0, 0, 0)" stroke="rgb(204, 204, 204)" stroke-width="1px"></line><line x1="879.4388563973564" y1="0" x2="879.4388563973564" y2="5" style="visibility: inherit;" fill="rgb(0, 0, 0)" stroke="rgb(204, 204, 204)" stroke-width="1px"></line><line x1="977.1542848859515" y1="0" x2="977.1542848859515" y2="5" style="visibility: inherit;" fill="rgb(0, 0, 0)" stroke="rgb(204, 204, 204)" stroke-width="1px"></line><line x1="1074.8697133745466" y1="0" x2="1074.8697133745466" y2="5" style="visibility: inherit;" fill="rgb(0, 0, 0)" stroke="rgb(204, 204, 204)" stroke-width="1px"></line><line x1="1172.5851418631416" y1="0" x2="1172.5851418631416" y2="5" style="visibility: inherit;" fill="rgb(0, 0, 0)" stroke="rgb(204, 204, 204)" stroke-width="1px"></line><line x1="1270.300570351737" y1="0" x2="1270.300570351737" y2="5" style="visibility: inherit;" fill="rgb(0, 0, 0)" stroke="rgb(204, 204, 204)" stroke-width="1px"></line><line x1="1368.015998840332" y1="0" x2="1368.015998840332" y2="5" style="visibility: inherit;" fill="rgb(0, 0, 0)" stroke="rgb(204, 204, 204)" stroke-width="1px"></line></g><g transform="translate(0, 8)"><text style="text-anchor: middle; visibility: hidden; font-family: &quot;Helvetica Neue&quot;, sans-serif; font-size: 12px; font-weight: 200;" x="0" y="0" dx="0em" dy="0.95em" fill="rgb(50, 49, 63)" stroke="none" stroke-width="1px">-200</text><text style="text-anchor: middle; visibility: inherit; font-family: &quot;Helvetica Neue&quot;, sans-serif; font-size: 12px; font-weight: 200;" x="97.71542848859514" y="0" dx="0em" dy="0.95em" fill="rgb(50, 49, 63)" stroke="none" stroke-width="1px">0</text><text style="text-anchor: middle; visibility: inherit; font-family: &quot;Helvetica Neue&quot;, sans-serif; font-size: 12px; font-weight: 200;" x="195.43085697719027" y="0" dx="0em" dy="0.95em" fill="rgb(50, 49, 63)" stroke="none" stroke-width="1px">200</text><text style="text-anchor: middle; visibility: inherit; font-family: &quot;Helvetica Neue&quot;, sans-serif; font-size: 12px; font-weight: 200;" x="293.1462854657854" y="0" dx="0em" dy="0.95em" fill="rgb(50, 49, 63)" stroke="none" stroke-width="1px">400</text><text style="text-anchor: middle; visibility: inherit; font-family: &quot;Helvetica Neue&quot;, sans-serif; font-size: 12px; font-weight: 200;" x="390.86171395438055" y="0" dx="0em" dy="0.95em" fill="rgb(50, 49, 63)" stroke="none" stroke-width="1px">600</text><text style="text-anchor: middle; visibility: inherit; font-family: &quot;Helvetica Neue&quot;, sans-serif; font-size: 12px; font-weight: 200;" x="488.57714244297574" y="0" dx="0em" dy="0.95em" fill="rgb(50, 49, 63)" stroke="none" stroke-width="1px">800</text><text style="text-anchor: middle; visibility: inherit; font-family: &quot;Helvetica Neue&quot;, sans-serif; font-size: 12px; font-weight: 200;" x="586.2925709315708" y="0" dx="0em" dy="0.95em" fill="rgb(50, 49, 63)" stroke="none" stroke-width="1px">1k</text><text style="text-anchor: middle; visibility: inherit; font-family: &quot;Helvetica Neue&quot;, sans-serif; font-size: 12px; font-weight: 200;" x="684.007999420166" y="0" dx="0em" dy="0.95em" fill="rgb(50, 49, 63)" stroke="none" stroke-width="1px">1.2k</text><text style="text-anchor: middle; visibility: inherit; font-family: &quot;Helvetica Neue&quot;, sans-serif; font-size: 12px; font-weight: 200;" x="781.7234279087611" y="0" dx="0em" dy="0.95em" fill="rgb(50, 49, 63)" stroke="none" stroke-width="1px">1.4k</text><text style="text-anchor: middle; visibility: inherit; font-family: &quot;Helvetica Neue&quot;, sans-serif; font-size: 12px; font-weight: 200;" x="879.4388563973564" y="0" dx="0em" dy="0.95em" fill="rgb(50, 49, 63)" stroke="none" stroke-width="1px">1.6k</text><text style="text-anchor: middle; visibility: inherit; font-family: &quot;Helvetica Neue&quot;, sans-serif; font-size: 12px; font-weight: 200;" x="977.1542848859515" y="0" dx="0em" dy="0.95em" fill="rgb(50, 49, 63)" stroke="none" stroke-width="1px">1.8k</text><text style="text-anchor: middle; visibility: inherit; font-family: &quot;Helvetica Neue&quot;, sans-serif; font-size: 12px; font-weight: 200;" x="1074.8697133745466" y="0" dx="0em" dy="0.95em" fill="rgb(50, 49, 63)" stroke="none" stroke-width="1px">2k</text><text style="text-anchor: middle; visibility: inherit; font-family: &quot;Helvetica Neue&quot;, sans-serif; font-size: 12px; font-weight: 200;" x="1172.5851418631416" y="0" dx="0em" dy="0.95em" fill="rgb(50, 49, 63)" stroke="none" stroke-width="1px">2.2k</text><text style="text-anchor: middle; visibility: inherit; font-family: &quot;Helvetica Neue&quot;, sans-serif; font-size: 12px; font-weight: 200;" x="1270.300570351737" y="0" dx="0em" dy="0.95em" fill="rgb(50, 49, 63)" stroke="none" stroke-width="1px">2.4k</text><text style="text-anchor: middle; visibility: hidden; font-family: &quot;Helvetica Neue&quot;, sans-serif; font-size: 12px; font-weight: 200;" x="1368.015998840332" y="0" dx="0em" dy="0.95em" fill="rgb(50, 49, 63)" stroke="none" stroke-width="1px">2.6k</text></g><line x1="0" y1="0" x2="1368.015998840332" y2="0" fill="rgb(0, 0, 0)" stroke="rgb(204, 204, 204)" stroke-width="1px"></line></g></g></g></g></svg>